G04 Layer_Color=128*
%FSLAX44Y44*%
%MOMM*%
G71*
G01*
G75*
%ADD41C,0.0508*%
D41*
X1176700Y734300D02*
X1188700D01*
X1182700Y728300D02*
Y740300D01*
X1176700Y708900D02*
X1188700D01*
X1182700Y702900D02*
Y714900D01*
X1176700Y683500D02*
X1188700D01*
X1182700Y677500D02*
Y689500D01*
X1176700Y658100D02*
X1188700D01*
X1182700Y652100D02*
Y664100D01*
X1176700Y632700D02*
X1188700D01*
X1182700Y626700D02*
Y638700D01*
X1176700Y607300D02*
X1188700D01*
X1182700Y601300D02*
Y613300D01*
X1176700Y581900D02*
X1188700D01*
X1182700Y575900D02*
Y587900D01*
X1176700Y556500D02*
X1188700D01*
X1182700Y550500D02*
Y562500D01*
X1176700Y531100D02*
X1188700D01*
X1182700Y525100D02*
Y537100D01*
X1176700Y505700D02*
X1188700D01*
X1182700Y499700D02*
Y511700D01*
X1151300Y734300D02*
X1163300D01*
X1157300Y728300D02*
Y740300D01*
X1151300Y708900D02*
X1163300D01*
X1157300Y702900D02*
Y714900D01*
X1151300Y683500D02*
X1163300D01*
X1157300Y677500D02*
Y689500D01*
X1151300Y658100D02*
X1163300D01*
X1157300Y652100D02*
Y664100D01*
X1151300Y632700D02*
X1163300D01*
X1157300Y626700D02*
Y638700D01*
X1151300Y607300D02*
X1163300D01*
X1157300Y601300D02*
Y613300D01*
X1151300Y581900D02*
X1163300D01*
X1157300Y575900D02*
Y587900D01*
X1151300Y556500D02*
X1163300D01*
X1157300Y550500D02*
Y562500D01*
X1151300Y531100D02*
X1163300D01*
X1157300Y525100D02*
Y537100D01*
X1151300Y505700D02*
X1163300D01*
X1157300Y499700D02*
Y511700D01*
X116650Y566500D02*
X149150D01*
X132900Y550250D02*
Y582750D01*
X116650Y693500D02*
X149150D01*
X132900Y677250D02*
Y709750D01*
X153850Y594200D02*
X162750D01*
X158300Y589750D02*
Y598650D01*
X153850Y614600D02*
X162750D01*
X158300Y610150D02*
Y619050D01*
X153850Y635000D02*
X162750D01*
X158300Y630550D02*
Y639450D01*
X153850Y655400D02*
X162750D01*
X158300Y650950D02*
Y659850D01*
X171650Y604400D02*
X180550D01*
X176100Y599950D02*
Y608850D01*
X171650Y624800D02*
X180550D01*
X176100Y620350D02*
Y629250D01*
X171650Y645200D02*
X180550D01*
X176100Y640750D02*
Y649650D01*
X171650Y665600D02*
X180550D01*
X176100Y661150D02*
Y670050D01*
X159350Y711300D02*
X175050D01*
X167200Y703450D02*
Y719150D01*
X159350Y548700D02*
X175050D01*
X167200Y540850D02*
Y556550D01*
X582800Y407000D02*
X610800D01*
X596800Y393000D02*
Y421000D01*
X154000Y435400D02*
X165000D01*
X159500Y429900D02*
Y440900D01*
X179400Y435400D02*
X190400D01*
X184900Y429900D02*
Y440900D01*
X204800Y435400D02*
X215800D01*
X210300Y429900D02*
Y440900D01*
X230200Y435400D02*
X241200D01*
X235700Y429900D02*
Y440900D01*
X255600Y435400D02*
X266600D01*
X261100Y429900D02*
Y440900D01*
X281000Y435400D02*
X292000D01*
X286500Y429900D02*
Y440900D01*
X306400Y435400D02*
X317400D01*
X311900Y429900D02*
Y440900D01*
X331800Y435400D02*
X342800D01*
X337300Y429900D02*
Y440900D01*
X357200Y435400D02*
X368200D01*
X362700Y429900D02*
Y440900D01*
X382600Y435400D02*
X393600D01*
X388100Y429900D02*
Y440900D01*
X408000Y435400D02*
X419000D01*
X413500Y429900D02*
Y440900D01*
X433400Y435400D02*
X444400D01*
X438900Y429900D02*
Y440900D01*
X458800Y435400D02*
X469800D01*
X464300Y429900D02*
Y440900D01*
X484200Y435400D02*
X495200D01*
X489700Y429900D02*
Y440900D01*
X509600Y435400D02*
X520600D01*
X515100Y429900D02*
Y440900D01*
X535000Y435400D02*
X546000D01*
X540500Y429900D02*
Y440900D01*
X535000Y410000D02*
X546000D01*
X540500Y404500D02*
Y415500D01*
X154000Y410000D02*
X165000D01*
X159500Y404500D02*
Y415500D01*
X179400Y410000D02*
X190400D01*
X184900Y404500D02*
Y415500D01*
X204800Y410000D02*
X215800D01*
X210300Y404500D02*
Y415500D01*
X230200Y410000D02*
X241200D01*
X235700Y404500D02*
Y415500D01*
X255600Y410000D02*
X266600D01*
X261100Y404500D02*
Y415500D01*
X281000Y410000D02*
X292000D01*
X286500Y404500D02*
Y415500D01*
X306400Y410000D02*
X317400D01*
X311900Y404500D02*
Y415500D01*
X331800Y410000D02*
X342800D01*
X337300Y404500D02*
Y415500D01*
X357200Y410000D02*
X368200D01*
X362700Y404500D02*
Y415500D01*
X382600Y410000D02*
X393600D01*
X388100Y404500D02*
Y415500D01*
X408000Y410000D02*
X419000D01*
X413500Y404500D02*
Y415500D01*
X433400Y410000D02*
X444400D01*
X438900Y404500D02*
Y415500D01*
X458800Y410000D02*
X469800D01*
X464300Y404500D02*
Y415500D01*
X484200Y410000D02*
X495200D01*
X489700Y404500D02*
Y415500D01*
X509600Y410000D02*
X520600D01*
X515100Y404500D02*
Y415500D01*
X154000Y384600D02*
X165000D01*
X159500Y379100D02*
Y390100D01*
X179400Y384600D02*
X190400D01*
X184900Y379100D02*
Y390100D01*
X204800Y384600D02*
X215800D01*
X210300Y379100D02*
Y390100D01*
X230200Y384600D02*
X241200D01*
X235700Y379100D02*
Y390100D01*
X255600Y384600D02*
X266600D01*
X261100Y379100D02*
Y390100D01*
X281000Y384600D02*
X292000D01*
X286500Y379100D02*
Y390100D01*
X306400Y384600D02*
X317400D01*
X311900Y379100D02*
Y390100D01*
X331800Y384600D02*
X342800D01*
X337300Y379100D02*
Y390100D01*
X357200Y384600D02*
X368200D01*
X362700Y379100D02*
Y390100D01*
X382600Y384600D02*
X393600D01*
X388100Y379100D02*
Y390100D01*
X408000Y384600D02*
X419000D01*
X413500Y379100D02*
Y390100D01*
X433400Y384600D02*
X444400D01*
X438900Y379100D02*
Y390100D01*
X458800Y384600D02*
X469800D01*
X464300Y379100D02*
Y390100D01*
X484200Y384600D02*
X495200D01*
X489700Y379100D02*
Y390100D01*
X509600Y384600D02*
X520600D01*
X515100Y379100D02*
Y390100D01*
X535000Y384600D02*
X546000D01*
X540500Y379100D02*
Y390100D01*
X89200Y407000D02*
X117200D01*
X103200Y393000D02*
Y421000D01*
X1021300Y505700D02*
X1033300D01*
X1027300Y499700D02*
Y511700D01*
X1021300Y531100D02*
X1033300D01*
X1027300Y525100D02*
Y537100D01*
X1021300Y556500D02*
X1033300D01*
X1027300Y550500D02*
Y562500D01*
X1021300Y581900D02*
X1033300D01*
X1027300Y575900D02*
Y587900D01*
X1021300Y607300D02*
X1033300D01*
X1027300Y601300D02*
Y613300D01*
X1021300Y632700D02*
X1033300D01*
X1027300Y626700D02*
Y638700D01*
X1021300Y658100D02*
X1033300D01*
X1027300Y652100D02*
Y664100D01*
X1021300Y683500D02*
X1033300D01*
X1027300Y677500D02*
Y689500D01*
X1021300Y708900D02*
X1033300D01*
X1027300Y702900D02*
Y714900D01*
X1021300Y734300D02*
X1033300D01*
X1027300Y728300D02*
Y740300D01*
X1046700Y505700D02*
X1058700D01*
X1052700Y499700D02*
Y511700D01*
X1046700Y531100D02*
X1058700D01*
X1052700Y525100D02*
Y537100D01*
X1046700Y556500D02*
X1058700D01*
X1052700Y550500D02*
Y562500D01*
X1046700Y581900D02*
X1058700D01*
X1052700Y575900D02*
Y587900D01*
X1046700Y607300D02*
X1058700D01*
X1052700Y601300D02*
Y613300D01*
X1046700Y632700D02*
X1058700D01*
X1052700Y626700D02*
Y638700D01*
X1046700Y658100D02*
X1058700D01*
X1052700Y652100D02*
Y664100D01*
X1046700Y683500D02*
X1058700D01*
X1052700Y677500D02*
Y689500D01*
X1046700Y708900D02*
X1058700D01*
X1052700Y702900D02*
Y714900D01*
X1046700Y734300D02*
X1058700D01*
X1052700Y728300D02*
Y740300D01*
X705000Y410000D02*
X713000D01*
X709000Y406000D02*
Y414000D01*
X905000Y410000D02*
X917000D01*
X911000Y404000D02*
Y416000D01*
X1137100Y384600D02*
X1152100D01*
X1144600Y377100D02*
Y392100D01*
X1187900Y384600D02*
X1202900D01*
X1195400Y377100D02*
Y392100D01*
X1187900Y435400D02*
X1202900D01*
X1195400Y427900D02*
Y442900D01*
X1137100Y435400D02*
X1152100D01*
X1144600Y427900D02*
Y442900D01*
X1162500Y410000D02*
X1177500D01*
X1170000Y402500D02*
Y417500D01*
X1007100Y384600D02*
X1022100D01*
X1014600Y377100D02*
Y392100D01*
X1057900Y384600D02*
X1072900D01*
X1065400Y377100D02*
Y392100D01*
X1057900Y435400D02*
X1072900D01*
X1065400Y427900D02*
Y442900D01*
X1007100Y435400D02*
X1022100D01*
X1014600Y427900D02*
Y442900D01*
X1032500Y410000D02*
X1047500D01*
X1040000Y402500D02*
Y417500D01*
X895200Y747500D02*
X907200D01*
X901200Y741500D02*
Y753500D01*
X869800Y747500D02*
X881800D01*
X875800Y741500D02*
Y753500D01*
X844400Y747500D02*
X856400D01*
X850400Y741500D02*
Y753500D01*
X819000Y747500D02*
X831000D01*
X825000Y741500D02*
Y753500D01*
X793600Y747500D02*
X805600D01*
X799600Y741500D02*
Y753500D01*
X768200Y747500D02*
X780200D01*
X774200Y741500D02*
Y753500D01*
X717400Y747500D02*
X729400D01*
X723400Y741500D02*
Y753500D01*
X666600Y747500D02*
X678600D01*
X672600Y741500D02*
Y753500D01*
X641200Y747500D02*
X653200D01*
X647200Y741500D02*
Y753500D01*
X590400Y747500D02*
X602400D01*
X596400Y741500D02*
Y753500D01*
X564800Y746800D02*
X576800D01*
X570800Y740800D02*
Y752800D01*
X514000Y746800D02*
X526000D01*
X520000Y740800D02*
Y752800D01*
X463200Y746800D02*
X475200D01*
X469200Y740800D02*
Y752800D01*
X412400Y746800D02*
X424400D01*
X418400Y740800D02*
Y752800D01*
X336200Y746800D02*
X348200D01*
X342200Y740800D02*
Y752800D01*
X260000Y746800D02*
X272000D01*
X266000Y740800D02*
Y752800D01*
X742800Y747500D02*
X754800D01*
X748800Y741500D02*
Y753500D01*
X895200Y722100D02*
X907200D01*
X901200Y716100D02*
Y728100D01*
X869800Y722100D02*
X881800D01*
X875800Y716100D02*
Y728100D01*
X844400Y722100D02*
X856400D01*
X850400Y716100D02*
Y728100D01*
X819000Y722100D02*
X831000D01*
X825000Y716100D02*
Y728100D01*
X793600Y722100D02*
X805600D01*
X799600Y716100D02*
Y728100D01*
X768200Y722100D02*
X780200D01*
X774200Y716100D02*
Y728100D01*
X742800Y722100D02*
X754800D01*
X748800Y716100D02*
Y728100D01*
X717400Y722100D02*
X729400D01*
X723400Y716100D02*
Y728100D01*
X895200Y696700D02*
X907200D01*
X901200Y690700D02*
Y702700D01*
X869800Y696700D02*
X881800D01*
X875800Y690700D02*
Y702700D01*
X844400Y696700D02*
X856400D01*
X850400Y690700D02*
Y702700D01*
X819000Y696700D02*
X831000D01*
X825000Y690700D02*
Y702700D01*
X793600Y696700D02*
X805600D01*
X799600Y690700D02*
Y702700D01*
X768200Y696700D02*
X780200D01*
X774200Y690700D02*
Y702700D01*
X717400Y696700D02*
X729400D01*
X723400Y690700D02*
Y702700D01*
X666600Y696700D02*
X678600D01*
X672600Y690700D02*
Y702700D01*
X641200Y696700D02*
X653200D01*
X647200Y690700D02*
Y702700D01*
X590400Y696700D02*
X602400D01*
X596400Y690700D02*
Y702700D01*
X564800Y696000D02*
X576800D01*
X570800Y690000D02*
Y702000D01*
X514000Y696000D02*
X526000D01*
X520000Y690000D02*
Y702000D01*
X463200Y696000D02*
X475200D01*
X469200Y690000D02*
Y702000D01*
X412400Y696000D02*
X424400D01*
X418400Y690000D02*
Y702000D01*
X742800Y696700D02*
X754800D01*
X748800Y690700D02*
Y702700D01*
X895200Y671300D02*
X907200D01*
X901200Y665300D02*
Y677300D01*
X869800Y671300D02*
X881800D01*
X875800Y665300D02*
Y677300D01*
X844400Y671300D02*
X856400D01*
X850400Y665300D02*
Y677300D01*
X819000Y671300D02*
X831000D01*
X825000Y665300D02*
Y677300D01*
X793600Y671300D02*
X805600D01*
X799600Y665300D02*
Y677300D01*
X768200Y671300D02*
X780200D01*
X774200Y665300D02*
Y677300D01*
X742800Y671300D02*
X754800D01*
X748800Y665300D02*
Y677300D01*
X336200Y662200D02*
X348200D01*
X342200Y656200D02*
Y668200D01*
X260000Y662200D02*
X272000D01*
X266000Y656200D02*
Y668200D01*
X895200Y645900D02*
X907200D01*
X901200Y639900D02*
Y651900D01*
X869800Y645900D02*
X881800D01*
X875800Y639900D02*
Y651900D01*
X844400Y645900D02*
X856400D01*
X850400Y639900D02*
Y651900D01*
X819000Y645900D02*
X831000D01*
X825000Y639900D02*
Y651900D01*
X793600Y645900D02*
X805600D01*
X799600Y639900D02*
Y651900D01*
X768200Y645900D02*
X780200D01*
X774200Y639900D02*
Y651900D01*
X717400Y645900D02*
X729400D01*
X723400Y639900D02*
Y651900D01*
X666600Y645900D02*
X678600D01*
X672600Y639900D02*
Y651900D01*
X641200Y645900D02*
X653200D01*
X647200Y639900D02*
Y651900D01*
X590400Y645900D02*
X602400D01*
X596400Y639900D02*
Y651900D01*
X514000Y645200D02*
X526000D01*
X520000Y639200D02*
Y651200D01*
X463200Y645200D02*
X475200D01*
X469200Y639200D02*
Y651200D01*
X412400Y645200D02*
X424400D01*
X418400Y639200D02*
Y651200D01*
X742800Y645900D02*
X754800D01*
X748800Y639900D02*
Y651900D01*
X895200Y620500D02*
X907200D01*
X901200Y614500D02*
Y626500D01*
X869800Y620500D02*
X881800D01*
X875800Y614500D02*
Y626500D01*
X844400Y620500D02*
X856400D01*
X850400Y614500D02*
Y626500D01*
X819000Y620500D02*
X831000D01*
X825000Y614500D02*
Y626500D01*
X793600Y620500D02*
X805600D01*
X799600Y614500D02*
Y626500D01*
X768200Y620500D02*
X780200D01*
X774200Y614500D02*
Y626500D01*
X742800Y620500D02*
X754800D01*
X748800Y614500D02*
Y626500D01*
X717400Y620500D02*
X729400D01*
X723400Y614500D02*
Y626500D01*
X895200Y595100D02*
X907200D01*
X901200Y589100D02*
Y601100D01*
X869800Y595100D02*
X881800D01*
X875800Y589100D02*
Y601100D01*
X844400Y595100D02*
X856400D01*
X850400Y589100D02*
Y601100D01*
X819000Y595100D02*
X831000D01*
X825000Y589100D02*
Y601100D01*
X793600Y595100D02*
X805600D01*
X799600Y589100D02*
Y601100D01*
X768200Y595100D02*
X780200D01*
X774200Y589100D02*
Y601100D01*
X717400Y595100D02*
X729400D01*
X723400Y589100D02*
Y601100D01*
X666600Y595100D02*
X678600D01*
X672600Y589100D02*
Y601100D01*
X641200Y595100D02*
X653200D01*
X647200Y589100D02*
Y601100D01*
X590400Y595100D02*
X602400D01*
X596400Y589100D02*
Y601100D01*
X564800Y594400D02*
X576800D01*
X570800Y588400D02*
Y600400D01*
X514000Y594400D02*
X526000D01*
X520000Y588400D02*
Y600400D01*
X463200Y594400D02*
X475200D01*
X469200Y588400D02*
Y600400D01*
X336200Y577500D02*
X348200D01*
X342200Y571500D02*
Y583500D01*
X260000Y577500D02*
X272000D01*
X266000Y571500D02*
Y583500D01*
X742800Y595100D02*
X754800D01*
X748800Y589100D02*
Y601100D01*
X895200Y569700D02*
X907200D01*
X901200Y563700D02*
Y575700D01*
X869800Y569700D02*
X881800D01*
X875800Y563700D02*
Y575700D01*
X844400Y569700D02*
X856400D01*
X850400Y563700D02*
Y575700D01*
X819000Y569700D02*
X831000D01*
X825000Y563700D02*
Y575700D01*
X793600Y569700D02*
X805600D01*
X799600Y563700D02*
Y575700D01*
X768200Y569700D02*
X780200D01*
X774200Y563700D02*
Y575700D01*
X742800Y569700D02*
X754800D01*
X748800Y563700D02*
Y575700D01*
X717400Y569700D02*
X729400D01*
X723400Y563700D02*
Y575700D01*
X895200Y544300D02*
X907200D01*
X901200Y538300D02*
Y550300D01*
X869800Y544300D02*
X881800D01*
X875800Y538300D02*
Y550300D01*
X844400Y544300D02*
X856400D01*
X850400Y538300D02*
Y550300D01*
X819000Y544300D02*
X831000D01*
X825000Y538300D02*
Y550300D01*
X793600Y544300D02*
X805600D01*
X799600Y538300D02*
Y550300D01*
X768200Y544300D02*
X780200D01*
X774200Y538300D02*
Y550300D01*
X717400Y544300D02*
X729400D01*
X723400Y538300D02*
Y550300D01*
X666600Y544300D02*
X678600D01*
X672600Y538300D02*
Y550300D01*
X641200Y544300D02*
X653200D01*
X647200Y538300D02*
Y550300D01*
X590400Y544300D02*
X602400D01*
X596400Y538300D02*
Y550300D01*
X564800Y543600D02*
X576800D01*
X570800Y537600D02*
Y549600D01*
X514000Y543600D02*
X526000D01*
X520000Y537600D02*
Y549600D01*
X463200Y543600D02*
X475200D01*
X469200Y537600D02*
Y549600D01*
X742800Y544300D02*
X754800D01*
X748800Y538300D02*
Y550300D01*
X895200Y518900D02*
X907200D01*
X901200Y512900D02*
Y524900D01*
X869800Y518900D02*
X881800D01*
X875800Y512900D02*
Y524900D01*
X844400Y518900D02*
X856400D01*
X850400Y512900D02*
Y524900D01*
X819000Y518900D02*
X831000D01*
X825000Y512900D02*
Y524900D01*
X793600Y518900D02*
X805600D01*
X799600Y512900D02*
Y524900D01*
X768200Y518900D02*
X780200D01*
X774200Y512900D02*
Y524900D01*
X742800Y518900D02*
X754800D01*
X748800Y512900D02*
Y524900D01*
X717400Y518900D02*
X729400D01*
X723400Y512900D02*
Y524900D01*
X895200Y493500D02*
X907200D01*
X901200Y487500D02*
Y499500D01*
X869800Y493500D02*
X881800D01*
X875800Y487500D02*
Y499500D01*
X844400Y493500D02*
X856400D01*
X850400Y487500D02*
Y499500D01*
X819000Y493500D02*
X831000D01*
X825000Y487500D02*
Y499500D01*
X793600Y493500D02*
X805600D01*
X799600Y487500D02*
Y499500D01*
X768200Y493500D02*
X780200D01*
X774200Y487500D02*
Y499500D01*
X717400Y493500D02*
X729400D01*
X723400Y487500D02*
Y499500D01*
X666600Y493500D02*
X678600D01*
X672600Y487500D02*
Y499500D01*
X641200Y493500D02*
X653200D01*
X647200Y487500D02*
Y499500D01*
X590400Y493500D02*
X602400D01*
X596400Y487500D02*
Y499500D01*
X564800Y492800D02*
X576800D01*
X570800Y486800D02*
Y498800D01*
X514000Y492800D02*
X526000D01*
X520000Y486800D02*
Y498800D01*
X463200Y492800D02*
X475200D01*
X469200Y486800D02*
Y498800D01*
X412400Y492800D02*
X424400D01*
X418400Y486800D02*
Y498800D01*
X412400Y492800D02*
X424400D01*
X418400Y486800D02*
Y498800D01*
X336200Y492800D02*
X348200D01*
X342200Y486800D02*
Y498800D01*
X260000Y492800D02*
X272000D01*
X266000Y486800D02*
Y498800D01*
X742800Y493500D02*
X754800D01*
X748800Y487500D02*
Y499500D01*
X412400Y543600D02*
X424400D01*
X418400Y537600D02*
Y549600D01*
X412400Y594400D02*
X424400D01*
X418400Y588400D02*
Y600400D01*
X564800Y645200D02*
X576800D01*
X570800Y639200D02*
Y651200D01*
X717400Y671300D02*
X729400D01*
X723400Y665300D02*
Y677300D01*
X946000Y747500D02*
X958000D01*
X952000Y741500D02*
Y753500D01*
X920600Y747500D02*
X932600D01*
X926600Y741500D02*
Y753500D01*
X946000Y722100D02*
X958000D01*
X952000Y716100D02*
Y728100D01*
X920600Y722100D02*
X932600D01*
X926600Y716100D02*
Y728100D01*
X946000Y696700D02*
X958000D01*
X952000Y690700D02*
Y702700D01*
X920600Y696700D02*
X932600D01*
X926600Y690700D02*
Y702700D01*
X946000Y671300D02*
X958000D01*
X952000Y665300D02*
Y677300D01*
X920600Y671300D02*
X932600D01*
X926600Y665300D02*
Y677300D01*
X946000Y645900D02*
X958000D01*
X952000Y639900D02*
Y651900D01*
X920600Y645900D02*
X932600D01*
X926600Y639900D02*
Y651900D01*
X946000Y620500D02*
X958000D01*
X952000Y614500D02*
Y626500D01*
X920600Y620500D02*
X932600D01*
X926600Y614500D02*
Y626500D01*
X946000Y595100D02*
X958000D01*
X952000Y589100D02*
Y601100D01*
X920600Y595100D02*
X932600D01*
X926600Y589100D02*
Y601100D01*
X946000Y569700D02*
X958000D01*
X952000Y563700D02*
Y575700D01*
X920600Y569700D02*
X932600D01*
X926600Y563700D02*
Y575700D01*
X946000Y544300D02*
X958000D01*
X952000Y538300D02*
Y550300D01*
X920600Y544300D02*
X932600D01*
X926600Y538300D02*
Y550300D01*
X946000Y518900D02*
X958000D01*
X952000Y512900D02*
Y524900D01*
X920600Y518900D02*
X932600D01*
X926600Y512900D02*
Y524900D01*
X946000Y493500D02*
X958000D01*
X952000Y487500D02*
Y499500D01*
X920600Y493500D02*
X932600D01*
X926600Y487500D02*
Y499500D01*
M02*
