G04 Layer_Color=16711935*
%FSLAX44Y44*%
%MOMM*%
G71*
G01*
G75*
%ADD10C,0.2000*%
%ADD289C,0.0500*%
%ADD292C,0.1000*%
%ADD293C,0.0100*%
D10*
X299501Y824501D02*
Y875501D01*
Y824501D02*
X350501D01*
Y875501D01*
X299501D02*
X350501D01*
X299501Y924501D02*
Y975501D01*
Y924501D02*
X350501D01*
Y975501D01*
X299501D02*
X350501D01*
X1442667Y259834D02*
Y284834D01*
X1412667Y259834D02*
X1442667D01*
X1412667D02*
Y284834D01*
X1442667D01*
X1296999Y797252D02*
X1602999D01*
X1296999D02*
Y1103251D01*
X1602999Y797252D02*
Y1103251D01*
X1296999D02*
X1602999D01*
X1226000Y976000D02*
X1226000Y976000D01*
Y810000D02*
Y976000D01*
X1220000Y804000D02*
X1226000Y810000D01*
X1060000Y804000D02*
X1220000D01*
X1054000Y810000D02*
X1060000Y804000D01*
X1054000Y810000D02*
Y970000D01*
X1060000Y976000D01*
X1226000D01*
X1195399Y492399D02*
Y746399D01*
X1144599Y492399D02*
X1195399D01*
X1144599D02*
Y746399D01*
X1195399D01*
X80001Y723215D02*
X237481D01*
X80001Y536783D02*
Y723215D01*
Y536783D02*
X237481D01*
Y723215D01*
X616000Y358000D02*
Y463000D01*
X84000D02*
X616000D01*
X84000Y358000D02*
Y463000D01*
Y358000D02*
X616000D01*
X1224020Y216330D02*
X1325020D01*
X1224020D02*
Y283669D01*
X1324851D01*
X1325020Y283500D01*
Y216330D02*
Y283500D01*
X1326000Y621000D02*
X1395000D01*
X1305000Y600000D02*
X1326000Y621000D01*
X1305000Y560000D02*
Y600000D01*
Y560000D02*
X1326000Y539000D01*
X1395000D01*
Y621000D01*
X1505000Y539000D02*
X1574000D01*
X1595000Y560000D01*
Y600000D01*
X1574000Y621000D02*
X1595000Y600000D01*
X1505000Y621000D02*
X1574000D01*
X1505000Y539000D02*
Y621000D01*
X1491000Y635000D02*
Y704000D01*
X1470000Y725000D02*
X1491000Y704000D01*
X1430000Y725000D02*
X1470000D01*
X1409000Y704000D02*
X1430000Y725000D01*
X1409000Y635000D02*
Y704000D01*
Y635000D02*
X1491000D01*
X1014599Y746399D02*
X1065399D01*
X1014599Y492399D02*
Y746399D01*
Y492399D02*
X1065399D01*
Y746399D01*
X975000Y157500D02*
Y182500D01*
X944999D02*
X975000D01*
X944999Y157500D02*
Y182500D01*
Y157500D02*
X975000D01*
X1025000D02*
Y182500D01*
X994999D02*
X1025000D01*
X994999Y157500D02*
Y182500D01*
Y157500D02*
X1025000D01*
X1075000D02*
Y182500D01*
X1044999D02*
X1075000D01*
X1044999Y157500D02*
Y182500D01*
Y157500D02*
X1075000D01*
X1125000D02*
Y182500D01*
X1094999D02*
X1125000D01*
X1094999Y157500D02*
Y182500D01*
Y157500D02*
X1125000D01*
X1095000Y207499D02*
Y232500D01*
Y207499D02*
X1125001D01*
Y232500D01*
X1095000D02*
X1125001D01*
X1045000Y207499D02*
Y232500D01*
Y207499D02*
X1075001D01*
Y232500D01*
X1045000D02*
X1075001D01*
X995000Y207499D02*
Y232500D01*
Y207499D02*
X1025001D01*
Y232500D01*
X995000D02*
X1025001D01*
X945000Y207499D02*
Y232500D01*
Y207499D02*
X975001D01*
Y232500D01*
X945000D02*
X975001D01*
X975000Y257500D02*
Y282501D01*
X944999D02*
X975000D01*
X944999Y257500D02*
Y282501D01*
Y257500D02*
X975000D01*
X1025000D02*
Y282501D01*
X994999D02*
X1025000D01*
X994999Y257500D02*
Y282501D01*
Y257500D02*
X1025000D01*
X1075000D02*
Y282501D01*
X1044999D02*
X1075000D01*
X1044999Y257500D02*
Y282501D01*
Y257500D02*
X1075000D01*
X1125000D02*
Y282501D01*
X1094999D02*
X1125000D01*
X1094999Y257500D02*
Y282501D01*
Y257500D02*
X1125000D01*
X1095000Y107499D02*
Y132500D01*
Y107499D02*
X1125001D01*
Y132500D01*
X1095000D02*
X1125001D01*
X1045000Y107499D02*
Y132500D01*
Y107499D02*
X1075001D01*
Y132500D01*
X1045000D02*
X1075001D01*
X995000Y107499D02*
Y132500D01*
Y107499D02*
X1025001D01*
Y132500D01*
X995000D02*
X1025001D01*
X945000Y107499D02*
Y132500D01*
Y107499D02*
X975001D01*
Y132500D01*
X945000D02*
X975001D01*
X1219980Y173670D02*
X1320980D01*
Y106331D02*
Y173670D01*
X1220149Y106331D02*
X1320980D01*
X1219980Y106500D02*
X1220149Y106331D01*
X1219980Y106500D02*
Y173670D01*
X720277Y1007852D02*
X782149Y1069724D01*
X739723Y1112150D02*
X782149Y1069724D01*
X677851Y1050278D02*
X739723Y1112150D01*
X677851Y1050278D02*
X720277Y1007852D01*
X897852Y1069723D02*
X959724Y1007851D01*
X1002150Y1050277D01*
X940278Y1112149D02*
X1002150Y1050277D01*
X897852Y1069723D02*
X940278Y1112149D01*
X999999Y806251D02*
Y893750D01*
X940000D02*
X999999D01*
X940000Y806251D02*
Y893750D01*
Y806251D02*
X999999D01*
X680001Y806250D02*
Y893749D01*
Y806250D02*
X740000D01*
Y893749D01*
X680001D02*
X740000D01*
X1110001Y1115001D02*
X1170001D01*
Y1045001D02*
Y1115001D01*
X1110001Y1045001D02*
X1170001D01*
X1110001D02*
Y1115001D01*
X431999Y812001D02*
Y988001D01*
Y812001D02*
X607999D01*
Y988001D01*
X431999D02*
X607999D01*
X1054000Y976000D02*
X1054000Y976000D01*
X1054000Y810000D02*
Y976000D01*
Y810000D02*
X1060000Y804000D01*
X1220000D01*
X1226000Y810000D01*
Y970000D01*
X1220000Y976000D02*
X1226000Y970000D01*
X1054000Y976000D02*
X1220000D01*
X110001Y820001D02*
Y940001D01*
Y820001D02*
X230001D01*
Y940001D01*
X110001D02*
X230001D01*
X1409000Y456000D02*
Y525000D01*
Y456000D02*
X1430000Y435000D01*
X1470000D01*
X1491000Y456000D01*
Y525000D01*
X1409000D02*
X1491000D01*
D289*
X167249Y209501D02*
X171250D01*
X167249Y207501D02*
Y209501D01*
Y207501D02*
X171250D01*
Y209501D01*
X167249Y204501D02*
X171250D01*
X167249Y202501D02*
Y204501D01*
Y202501D02*
X171250D01*
Y204501D01*
X167249Y199501D02*
X171250D01*
X167249Y197501D02*
Y199501D01*
Y197501D02*
X171250D01*
Y199501D01*
X191249Y209501D02*
X195250D01*
X191249Y207501D02*
Y209501D01*
Y207501D02*
X195250D01*
Y209501D01*
X191249Y204501D02*
X195250D01*
X191249Y202501D02*
Y204501D01*
Y202501D02*
X195250D01*
Y204501D01*
X191249Y199501D02*
X195250D01*
X191249Y197501D02*
Y199501D01*
Y197501D02*
X195250D01*
Y199501D01*
X191249Y194501D02*
X195250D01*
X191249Y192501D02*
Y194501D01*
Y192501D02*
X195250D01*
Y194501D01*
X167249D02*
X171250D01*
X167249Y192501D02*
Y194501D01*
Y192501D02*
X171250D01*
Y194501D01*
X207249Y204501D02*
X211250D01*
X207249Y202501D02*
Y204501D01*
Y202501D02*
X211250D01*
Y204501D01*
X223249Y199501D02*
X227250D01*
X223249Y197501D02*
Y199501D01*
Y197501D02*
X227250D01*
Y199501D01*
X207249Y209501D02*
X211250D01*
X207249Y207501D02*
Y209501D01*
Y207501D02*
X211250D01*
Y209501D01*
X151249D02*
X155250D01*
X151249Y207501D02*
Y209501D01*
Y207501D02*
X155250D01*
Y209501D01*
X151249Y204501D02*
X155250D01*
X151249Y202501D02*
Y204501D01*
Y202501D02*
X155250D01*
Y204501D01*
X151249Y199501D02*
X155250D01*
X151249Y197501D02*
Y199501D01*
Y197501D02*
X155250D01*
Y199501D01*
X151249Y194501D02*
X155250D01*
X151249Y192501D02*
Y194501D01*
Y192501D02*
X155250D01*
Y194501D01*
X223249Y209501D02*
X227250D01*
X223249Y207501D02*
Y209501D01*
Y207501D02*
X227250D01*
Y209501D01*
X175249Y199501D02*
X179249D01*
X175249Y197501D02*
Y199501D01*
Y197501D02*
X179249D01*
Y199501D01*
X175249Y194501D02*
X179249D01*
X175249Y192501D02*
Y194501D01*
Y192501D02*
X179249D01*
Y194501D01*
X215249Y209501D02*
X219249D01*
X215249Y207501D02*
Y209501D01*
Y207501D02*
X219249D01*
Y209501D01*
X215249Y199501D02*
X219249D01*
X215249Y197501D02*
Y199501D01*
Y197501D02*
X219249D01*
Y199501D01*
X199249Y194501D02*
X203249D01*
X199249Y192501D02*
Y194501D01*
Y192501D02*
X203249D01*
Y194501D01*
X175249Y209501D02*
X179249D01*
X175249Y207501D02*
Y209501D01*
Y207501D02*
X179249D01*
Y209501D01*
X175249Y204501D02*
X179249D01*
X175249Y202501D02*
Y204501D01*
Y202501D02*
X179249D01*
Y204501D01*
X199249Y209501D02*
X203249D01*
X199249Y207501D02*
Y209501D01*
Y207501D02*
X203249D01*
Y209501D01*
X199249Y204501D02*
X203249D01*
X199249Y202501D02*
Y204501D01*
Y202501D02*
X203249D01*
Y204501D01*
X199249Y199501D02*
X203249D01*
X199249Y197501D02*
Y199501D01*
Y197501D02*
X203249D01*
Y199501D01*
X223249Y204501D02*
X227250D01*
X223249Y202501D02*
Y204501D01*
Y202501D02*
X227250D01*
Y204501D01*
X223249Y194501D02*
X227250D01*
X223249Y192501D02*
Y194501D01*
Y192501D02*
X227250D01*
Y194501D01*
X183249Y209501D02*
X187250D01*
X183249Y207501D02*
Y209501D01*
Y207501D02*
X187250D01*
Y209501D01*
X183249Y194501D02*
X187250D01*
X183249Y192501D02*
Y194501D01*
Y192501D02*
X187250D01*
Y194501D01*
X159249Y209501D02*
X163249D01*
X159249Y207501D02*
Y209501D01*
Y207501D02*
X163249D01*
Y209501D01*
X159249Y194501D02*
X163249D01*
X159249Y192501D02*
Y194501D01*
Y192501D02*
X163249D01*
Y194501D01*
X159249Y199501D02*
X163249D01*
X159249Y197501D02*
Y199501D01*
Y197501D02*
X163249D01*
Y199501D01*
X183249Y204501D02*
X187250D01*
X183249Y202501D02*
Y204501D01*
Y202501D02*
X187250D01*
Y204501D01*
X183249Y199501D02*
X187250D01*
X183249Y197501D02*
Y199501D01*
Y197501D02*
X187250D01*
Y199501D01*
X159249Y204501D02*
X163249D01*
X159249Y202501D02*
Y204501D01*
Y202501D02*
X163249D01*
Y204501D01*
X207249Y194501D02*
X211250D01*
X207249Y192501D02*
Y194501D01*
Y192501D02*
X211250D01*
Y194501D01*
X215249Y204501D02*
X219249D01*
X215249Y202501D02*
Y204501D01*
Y202501D02*
X219249D01*
Y204501D01*
X215249Y194501D02*
X219249D01*
X215249Y192501D02*
Y194501D01*
Y192501D02*
X219249D01*
Y194501D01*
X207249Y199501D02*
X211250D01*
X207249Y197501D02*
Y199501D01*
Y197501D02*
X211250D01*
Y199501D01*
X231249Y199501D02*
X235250D01*
X231249Y197501D02*
Y199501D01*
Y197501D02*
X235250D01*
Y199501D01*
X239249Y194501D02*
X243249D01*
X239249Y192501D02*
Y194501D01*
Y192501D02*
X243249D01*
Y194501D01*
X239249Y204501D02*
X243249D01*
X239249Y202501D02*
Y204501D01*
Y202501D02*
X243249D01*
Y204501D01*
X231249Y194501D02*
X235250D01*
X231249Y192501D02*
Y194501D01*
Y192501D02*
X235250D01*
Y194501D01*
X247249D02*
X251250D01*
X247249Y192501D02*
Y194501D01*
Y192501D02*
X251250D01*
Y194501D01*
X247249Y204501D02*
X251250D01*
X247249Y202501D02*
Y204501D01*
Y202501D02*
X251250D01*
Y204501D01*
X239249Y199501D02*
X243249D01*
X239249Y197501D02*
Y199501D01*
Y197501D02*
X243249D01*
Y199501D01*
X239249Y209501D02*
X243249D01*
X239249Y207501D02*
Y209501D01*
Y207501D02*
X243249D01*
Y209501D01*
X247249D02*
X251250D01*
X247249Y207501D02*
Y209501D01*
Y207501D02*
X251250D01*
Y209501D01*
X231249D02*
X235250D01*
X231249Y207501D02*
Y209501D01*
Y207501D02*
X235250D01*
Y209501D01*
X247249Y199501D02*
X251250D01*
X247249Y197501D02*
Y199501D01*
Y197501D02*
X251250D01*
Y199501D01*
X231249Y204501D02*
X235250D01*
X231249Y202501D02*
Y204501D01*
Y202501D02*
X235250D01*
Y204501D01*
X247249Y254501D02*
X251250D01*
X247249Y252501D02*
Y254501D01*
Y252501D02*
X251250D01*
Y254501D01*
X231249Y259501D02*
X235250D01*
X231249Y257501D02*
Y259501D01*
Y257501D02*
X235250D01*
Y259501D01*
X231249Y254501D02*
X235250D01*
X231249Y252501D02*
Y254501D01*
Y252501D02*
X235250D01*
Y254501D01*
X231249Y249501D02*
X235250D01*
X231249Y247501D02*
Y249501D01*
Y247501D02*
X235250D01*
Y249501D01*
X231249Y244501D02*
X235250D01*
X231249Y242501D02*
Y244501D01*
Y242501D02*
X235250D01*
Y244501D01*
X231249Y224501D02*
X235250D01*
X231249Y222501D02*
Y224501D01*
Y222501D02*
X235250D01*
Y224501D01*
X247249Y219501D02*
X251250D01*
X247249Y217501D02*
Y219501D01*
Y217501D02*
X251250D01*
Y219501D01*
X239249Y254501D02*
X243250D01*
X239249Y252501D02*
Y254501D01*
Y252501D02*
X243250D01*
Y254501D01*
X231249Y239501D02*
X235250D01*
X231249Y237501D02*
Y239501D01*
Y237501D02*
X235250D01*
Y239501D01*
X231249Y234501D02*
X235250D01*
X231249Y232501D02*
Y234501D01*
Y232501D02*
X235250D01*
Y234501D01*
X231249Y229501D02*
X235250D01*
X231249Y227501D02*
Y229501D01*
Y227501D02*
X235250D01*
Y229501D01*
X247249D02*
X251250D01*
X247249Y227501D02*
Y229501D01*
Y227501D02*
X251250D01*
Y229501D01*
X239249D02*
X243250D01*
X239249Y227501D02*
Y229501D01*
Y227501D02*
X243250D01*
Y229501D01*
X239249Y219501D02*
X243250D01*
X239249Y217501D02*
Y219501D01*
Y217501D02*
X243250D01*
Y219501D01*
X239249Y244501D02*
X243250D01*
X239249Y242501D02*
Y244501D01*
Y242501D02*
X243250D01*
Y244501D01*
X239249Y234501D02*
X243250D01*
X239249Y232501D02*
Y234501D01*
Y232501D02*
X243250D01*
Y234501D01*
X239249Y259501D02*
X243250D01*
X239249Y257501D02*
Y259501D01*
Y257501D02*
X243250D01*
Y259501D01*
X247249Y234501D02*
X251250D01*
X247249Y232501D02*
Y234501D01*
Y232501D02*
X251250D01*
Y234501D01*
X247249Y224501D02*
X251250D01*
X247249Y222501D02*
Y224501D01*
Y222501D02*
X251250D01*
Y224501D01*
X247249Y214501D02*
X251250D01*
X247249Y212501D02*
Y214501D01*
Y212501D02*
X251250D01*
Y214501D01*
X247249Y239501D02*
X251250D01*
X247249Y237501D02*
Y239501D01*
Y237501D02*
X251250D01*
Y239501D01*
X247249Y259501D02*
X251250D01*
X247249Y257501D02*
Y259501D01*
Y257501D02*
X251250D01*
Y259501D01*
X247249Y249501D02*
X251250D01*
X247249Y247501D02*
Y249501D01*
Y247501D02*
X251250D01*
Y249501D01*
X247249Y244501D02*
X251250D01*
X247249Y242501D02*
Y244501D01*
Y242501D02*
X251250D01*
Y244501D01*
X231249Y214501D02*
X235250D01*
X231249Y212501D02*
Y214501D01*
Y212501D02*
X235250D01*
Y214501D01*
X239249Y249501D02*
X243250D01*
X239249Y247501D02*
Y249501D01*
Y247501D02*
X243250D01*
Y249501D01*
X239249Y239501D02*
X243250D01*
X239249Y237501D02*
Y239501D01*
Y237501D02*
X243250D01*
Y239501D01*
X239249Y224501D02*
X243250D01*
X239249Y222501D02*
Y224501D01*
Y222501D02*
X243250D01*
Y224501D01*
X239249Y214501D02*
X243250D01*
X239249Y212501D02*
Y214501D01*
Y212501D02*
X243250D01*
Y214501D01*
X231249Y219501D02*
X235250D01*
X231249Y217501D02*
Y219501D01*
Y217501D02*
X235250D01*
Y219501D01*
X207249Y219501D02*
X211250D01*
X207249Y217501D02*
Y219501D01*
Y217501D02*
X211250D01*
Y219501D01*
X215249Y214501D02*
X219249D01*
X215249Y212501D02*
Y214501D01*
Y212501D02*
X219249D01*
Y214501D01*
X215249Y224501D02*
X219249D01*
X215249Y222501D02*
Y224501D01*
Y222501D02*
X219249D01*
Y224501D01*
X215249Y239501D02*
X219249D01*
X215249Y237501D02*
Y239501D01*
Y237501D02*
X219249D01*
Y239501D01*
X215249Y249501D02*
X219249D01*
X215249Y247501D02*
Y249501D01*
Y247501D02*
X219249D01*
Y249501D01*
X183249Y234501D02*
X187250D01*
X183249Y232501D02*
Y234501D01*
Y232501D02*
X187250D01*
Y234501D01*
X183249Y239501D02*
X187250D01*
X183249Y237501D02*
Y239501D01*
Y237501D02*
X187250D01*
Y239501D01*
X199249Y254501D02*
X203249D01*
X199249Y252501D02*
Y254501D01*
Y252501D02*
X203249D01*
Y254501D01*
X199249Y259501D02*
X203249D01*
X199249Y257501D02*
Y259501D01*
Y257501D02*
X203249D01*
Y259501D01*
X207249Y214501D02*
X211250D01*
X207249Y212501D02*
Y214501D01*
Y212501D02*
X211250D01*
Y214501D01*
X159249Y224501D02*
X163249D01*
X159249Y222501D02*
Y224501D01*
Y222501D02*
X163249D01*
Y224501D01*
X159249Y234501D02*
X163249D01*
X159249Y232501D02*
Y234501D01*
Y232501D02*
X163249D01*
Y234501D01*
X159249Y239501D02*
X163249D01*
X159249Y237501D02*
Y239501D01*
Y237501D02*
X163249D01*
Y239501D01*
X183249Y219501D02*
X187250D01*
X183249Y217501D02*
Y219501D01*
Y217501D02*
X187250D01*
Y219501D01*
X183249Y224501D02*
X187250D01*
X183249Y222501D02*
Y224501D01*
Y222501D02*
X187250D01*
Y224501D01*
X223249Y244501D02*
X227250D01*
X223249Y242501D02*
Y244501D01*
Y242501D02*
X227250D01*
Y244501D01*
X223249Y249501D02*
X227250D01*
X223249Y247501D02*
Y249501D01*
Y247501D02*
X227250D01*
Y249501D01*
X223249Y259501D02*
X227250D01*
X223249Y257501D02*
Y259501D01*
Y257501D02*
X227250D01*
Y259501D01*
X223249Y239501D02*
X227250D01*
X223249Y237501D02*
Y239501D01*
Y237501D02*
X227250D01*
Y239501D01*
X159249Y219501D02*
X163249D01*
X159249Y217501D02*
Y219501D01*
Y217501D02*
X163249D01*
Y219501D01*
X175249Y254501D02*
X179249D01*
X175249Y252501D02*
Y254501D01*
Y252501D02*
X179249D01*
Y254501D01*
X199249Y234501D02*
X203249D01*
X199249Y232501D02*
Y234501D01*
Y232501D02*
X203249D01*
Y234501D01*
X199249Y239501D02*
X203249D01*
X199249Y237501D02*
Y239501D01*
Y237501D02*
X203249D01*
Y239501D01*
X199249Y244501D02*
X203249D01*
X199249Y242501D02*
Y244501D01*
Y242501D02*
X203249D01*
Y244501D01*
X199249Y249501D02*
X203249D01*
X199249Y247501D02*
Y249501D01*
Y247501D02*
X203249D01*
Y249501D01*
X159249Y214501D02*
X163249D01*
X159249Y212501D02*
Y214501D01*
Y212501D02*
X163249D01*
Y214501D01*
X159249Y229501D02*
X163249D01*
X159249Y227501D02*
Y229501D01*
Y227501D02*
X163249D01*
Y229501D01*
X183249Y214501D02*
X187250D01*
X183249Y212501D02*
Y214501D01*
Y212501D02*
X187250D01*
Y214501D01*
X175249Y259501D02*
X179249D01*
X175249Y257501D02*
Y259501D01*
Y257501D02*
X179249D01*
Y259501D01*
X183249Y229501D02*
X187250D01*
X183249Y227501D02*
Y229501D01*
Y227501D02*
X187250D01*
Y229501D01*
X223249Y214501D02*
X227250D01*
X223249Y212501D02*
Y214501D01*
Y212501D02*
X227250D01*
Y214501D01*
X223249Y224501D02*
X227250D01*
X223249Y222501D02*
Y224501D01*
Y222501D02*
X227250D01*
Y224501D01*
X223249Y234501D02*
X227250D01*
X223249Y232501D02*
Y234501D01*
Y232501D02*
X227250D01*
Y234501D01*
X151249Y254501D02*
X155250D01*
X151249Y252501D02*
Y254501D01*
Y252501D02*
X155250D01*
Y254501D01*
X151249Y259501D02*
X155250D01*
X151249Y257501D02*
Y259501D01*
Y257501D02*
X155250D01*
Y259501D01*
X191249D02*
X195250D01*
X191249Y257501D02*
Y259501D01*
Y257501D02*
X195250D01*
Y259501D01*
X199249Y219501D02*
X203249D01*
X199249Y217501D02*
Y219501D01*
Y217501D02*
X203249D01*
Y219501D01*
X199249Y224501D02*
X203249D01*
X199249Y222501D02*
Y224501D01*
Y222501D02*
X203249D01*
Y224501D01*
X199249Y229501D02*
X203249D01*
X199249Y227501D02*
Y229501D01*
Y227501D02*
X203249D01*
Y229501D01*
X215249Y259501D02*
X219249D01*
X215249Y257501D02*
Y259501D01*
Y257501D02*
X219249D01*
Y259501D01*
X151249Y249501D02*
X155250D01*
X151249Y247501D02*
Y249501D01*
Y247501D02*
X155250D01*
Y249501D01*
X175249Y224501D02*
X179249D01*
X175249Y222501D02*
Y224501D01*
Y222501D02*
X179249D01*
Y224501D01*
X175249Y229501D02*
X179249D01*
X175249Y227501D02*
Y229501D01*
Y227501D02*
X179249D01*
Y229501D01*
X175249Y244501D02*
X179249D01*
X175249Y242501D02*
Y244501D01*
Y242501D02*
X179249D01*
Y244501D01*
X175249Y249501D02*
X179249D01*
X175249Y247501D02*
Y249501D01*
Y247501D02*
X179249D01*
Y249501D01*
X215249Y234501D02*
X219249D01*
X215249Y232501D02*
Y234501D01*
Y232501D02*
X219249D01*
Y234501D01*
X215249Y244501D02*
X219249D01*
X215249Y242501D02*
Y244501D01*
Y242501D02*
X219249D01*
Y244501D01*
X151249Y234501D02*
X155250D01*
X151249Y232501D02*
Y234501D01*
Y232501D02*
X155250D01*
Y234501D01*
X151249Y239501D02*
X155250D01*
X151249Y237501D02*
Y239501D01*
Y237501D02*
X155250D01*
Y239501D01*
X151249Y244501D02*
X155250D01*
X151249Y242501D02*
Y244501D01*
Y242501D02*
X155250D01*
Y244501D01*
X191249Y249501D02*
X195250D01*
X191249Y247501D02*
Y249501D01*
Y247501D02*
X195250D01*
Y249501D01*
X191249Y254501D02*
X195250D01*
X191249Y252501D02*
Y254501D01*
Y252501D02*
X195250D01*
Y254501D01*
X199249Y214501D02*
X203249D01*
X199249Y212501D02*
Y214501D01*
Y212501D02*
X203249D01*
Y214501D01*
X215249Y219501D02*
X219249D01*
X215249Y217501D02*
Y219501D01*
Y217501D02*
X219249D01*
Y219501D01*
X215249Y229501D02*
X219249D01*
X215249Y227501D02*
Y229501D01*
Y227501D02*
X219249D01*
Y229501D01*
X175249Y214501D02*
X179249D01*
X175249Y212501D02*
Y214501D01*
Y212501D02*
X179249D01*
Y214501D01*
X175249Y219501D02*
X179249D01*
X175249Y217501D02*
Y219501D01*
Y217501D02*
X179249D01*
Y219501D01*
X175249Y234501D02*
X179249D01*
X175249Y232501D02*
Y234501D01*
Y232501D02*
X179249D01*
Y234501D01*
X175249Y239501D02*
X179249D01*
X175249Y237501D02*
Y239501D01*
Y237501D02*
X179249D01*
Y239501D01*
X191249Y244501D02*
X195250D01*
X191249Y242501D02*
Y244501D01*
Y242501D02*
X195250D01*
Y244501D01*
X223249Y229501D02*
X227250D01*
X223249Y227501D02*
Y229501D01*
Y227501D02*
X227250D01*
Y229501D01*
X151249Y214501D02*
X155250D01*
X151249Y212501D02*
Y214501D01*
Y212501D02*
X155250D01*
Y214501D01*
X151249Y219501D02*
X155250D01*
X151249Y217501D02*
Y219501D01*
Y217501D02*
X155250D01*
Y219501D01*
X151249Y224501D02*
X155250D01*
X151249Y222501D02*
Y224501D01*
Y222501D02*
X155250D01*
Y224501D01*
X151249Y229501D02*
X155250D01*
X151249Y227501D02*
Y229501D01*
Y227501D02*
X155250D01*
Y229501D01*
X207249D02*
X211250D01*
X207249Y227501D02*
Y229501D01*
Y227501D02*
X211250D01*
Y229501D01*
X207249Y234501D02*
X211250D01*
X207249Y232501D02*
Y234501D01*
Y232501D02*
X211250D01*
Y234501D01*
X207249Y239501D02*
X211250D01*
X207249Y237501D02*
Y239501D01*
Y237501D02*
X211250D01*
Y239501D01*
X215249Y254501D02*
X219249D01*
X215249Y252501D02*
Y254501D01*
Y252501D02*
X219249D01*
Y254501D01*
X223249Y219501D02*
X227250D01*
X223249Y217501D02*
Y219501D01*
Y217501D02*
X227250D01*
Y219501D01*
X183249Y249501D02*
X187250D01*
X183249Y247501D02*
Y249501D01*
Y247501D02*
X187250D01*
Y249501D01*
X183249Y254501D02*
X187250D01*
X183249Y252501D02*
Y254501D01*
Y252501D02*
X187250D01*
Y254501D01*
X183249Y259501D02*
X187250D01*
X183249Y257501D02*
Y259501D01*
Y257501D02*
X187250D01*
Y259501D01*
X191249Y234501D02*
X195250D01*
X191249Y232501D02*
Y234501D01*
Y232501D02*
X195250D01*
Y234501D01*
X207249Y224501D02*
X211250D01*
X207249Y222501D02*
Y224501D01*
Y222501D02*
X211250D01*
Y224501D01*
X159249Y244501D02*
X163249D01*
X159249Y242501D02*
Y244501D01*
Y242501D02*
X163249D01*
Y244501D01*
X159249Y249501D02*
X163249D01*
X159249Y247501D02*
Y249501D01*
Y247501D02*
X163249D01*
Y249501D01*
X159249Y254501D02*
X163249D01*
X159249Y252501D02*
Y254501D01*
Y252501D02*
X163249D01*
Y254501D01*
X167249Y214501D02*
X171250D01*
X167249Y212501D02*
Y214501D01*
Y212501D02*
X171250D01*
Y214501D01*
X183249Y244501D02*
X187250D01*
X183249Y242501D02*
Y244501D01*
Y242501D02*
X187250D01*
Y244501D01*
X207249D02*
X211250D01*
X207249Y242501D02*
Y244501D01*
Y242501D02*
X211250D01*
Y244501D01*
X207249Y249501D02*
X211250D01*
X207249Y247501D02*
Y249501D01*
Y247501D02*
X211250D01*
Y249501D01*
X207249Y254501D02*
X211250D01*
X207249Y252501D02*
Y254501D01*
Y252501D02*
X211250D01*
Y254501D01*
X207249Y259501D02*
X211250D01*
X207249Y257501D02*
Y259501D01*
Y257501D02*
X211250D01*
Y259501D01*
X223249Y254501D02*
X227250D01*
X223249Y252501D02*
Y254501D01*
Y252501D02*
X227250D01*
Y254501D01*
X191249Y214501D02*
X195250D01*
X191249Y212501D02*
Y214501D01*
Y212501D02*
X195250D01*
Y214501D01*
X191249Y219501D02*
X195250D01*
X191249Y217501D02*
Y219501D01*
Y217501D02*
X195250D01*
Y219501D01*
X191249Y224501D02*
X195250D01*
X191249Y222501D02*
Y224501D01*
Y222501D02*
X195250D01*
Y224501D01*
X191249Y229501D02*
X195250D01*
X191249Y227501D02*
Y229501D01*
Y227501D02*
X195250D01*
Y229501D01*
X191249Y239501D02*
X195250D01*
X191249Y237501D02*
Y239501D01*
Y237501D02*
X195250D01*
Y239501D01*
X167249Y219501D02*
X171250D01*
X167249Y217501D02*
Y219501D01*
Y217501D02*
X171250D01*
Y219501D01*
X159249Y259501D02*
X163249D01*
X159249Y257501D02*
Y259501D01*
Y257501D02*
X163249D01*
Y259501D01*
X167249Y234501D02*
X171250D01*
X167249Y232501D02*
Y234501D01*
Y232501D02*
X171250D01*
Y234501D01*
X167249Y224501D02*
X171250D01*
X167249Y222501D02*
Y224501D01*
Y222501D02*
X171250D01*
Y224501D01*
X167249Y229501D02*
X171250D01*
X167249Y227501D02*
Y229501D01*
Y227501D02*
X171250D01*
Y229501D01*
X167249Y239501D02*
X171250D01*
X167249Y237501D02*
Y239501D01*
Y237501D02*
X171250D01*
Y239501D01*
X167249Y249501D02*
X171250D01*
X167249Y247501D02*
Y249501D01*
Y247501D02*
X171250D01*
Y249501D01*
X167249Y259501D02*
X171250D01*
X167249Y257501D02*
Y259501D01*
Y257501D02*
X171250D01*
Y259501D01*
X167249Y244501D02*
X171250D01*
X167249Y242501D02*
Y244501D01*
Y242501D02*
X171250D01*
Y244501D01*
X167249Y254501D02*
X171250D01*
X167249Y252501D02*
Y254501D01*
Y252501D02*
X171250D01*
Y254501D01*
X157751Y125500D02*
Y129501D01*
X155751D02*
X157751D01*
X155751Y125500D02*
Y129501D01*
Y125500D02*
X157751D01*
X152751Y117500D02*
Y121501D01*
X150751D02*
X152751D01*
X150751Y117500D02*
Y121501D01*
Y117500D02*
X152751D01*
X162751D02*
Y121501D01*
X160751D02*
X162751D01*
X160751Y117500D02*
Y121501D01*
Y117500D02*
X162751D01*
X177751D02*
Y121501D01*
X175751D02*
X177751D01*
X175751Y117500D02*
Y121501D01*
Y117500D02*
X177751D01*
X187751D02*
Y121501D01*
X185751D02*
X187751D01*
X185751Y117500D02*
Y121501D01*
Y117500D02*
X187751D01*
X172751Y149501D02*
Y153501D01*
X170751D02*
X172751D01*
X170751Y149501D02*
Y153501D01*
Y149501D02*
X172751D01*
X177751D02*
Y153501D01*
X175751D02*
X177751D01*
X175751Y149501D02*
Y153501D01*
Y149501D02*
X177751D01*
X192751Y133500D02*
Y137501D01*
X190751D02*
X192751D01*
X190751Y133500D02*
Y137501D01*
Y133500D02*
X192751D01*
X197751D02*
Y137501D01*
X195751D02*
X197751D01*
X195751Y133500D02*
Y137501D01*
Y133500D02*
X197751D01*
X152751Y125500D02*
Y129501D01*
X150751D02*
X152751D01*
X150751Y125500D02*
Y129501D01*
Y125500D02*
X152751D01*
X162751Y173500D02*
Y177501D01*
X160751D02*
X162751D01*
X160751Y173500D02*
Y177501D01*
Y173500D02*
X162751D01*
X172751D02*
Y177501D01*
X170751D02*
X172751D01*
X170751Y173500D02*
Y177501D01*
Y173500D02*
X172751D01*
X177751D02*
Y177501D01*
X175751D02*
X177751D01*
X175751Y173500D02*
Y177501D01*
Y173500D02*
X177751D01*
X157751Y149501D02*
Y153501D01*
X155751D02*
X157751D01*
X155751Y149501D02*
Y153501D01*
Y149501D02*
X157751D01*
X162751D02*
Y153501D01*
X160751D02*
X162751D01*
X160751Y149501D02*
Y153501D01*
Y149501D02*
X162751D01*
X182751Y109501D02*
Y113501D01*
X180751D02*
X182751D01*
X180751Y109501D02*
Y113501D01*
Y109501D02*
X182751D01*
X187751D02*
Y113501D01*
X185751D02*
X187751D01*
X185751Y109501D02*
Y113501D01*
Y109501D02*
X187751D01*
X197751D02*
Y113501D01*
X195751D02*
X197751D01*
X195751Y109501D02*
Y113501D01*
Y109501D02*
X197751D01*
X177751D02*
Y113501D01*
X175751D02*
X177751D01*
X175751Y109501D02*
Y113501D01*
Y109501D02*
X177751D01*
X157751Y173500D02*
Y177501D01*
X155751D02*
X157751D01*
X155751Y173500D02*
Y177501D01*
Y173500D02*
X157751D01*
X192751Y157500D02*
Y161501D01*
X190751D02*
X192751D01*
X190751Y157500D02*
Y161501D01*
Y157500D02*
X192751D01*
X172751Y133500D02*
Y137501D01*
X170751D02*
X172751D01*
X170751Y133500D02*
Y137501D01*
Y133500D02*
X172751D01*
X177751D02*
Y137501D01*
X175751D02*
X177751D01*
X175751Y133500D02*
Y137501D01*
Y133500D02*
X177751D01*
X182751D02*
Y137501D01*
X180751D02*
X182751D01*
X180751Y133500D02*
Y137501D01*
Y133500D02*
X182751D01*
X187751D02*
Y137501D01*
X185751D02*
X187751D01*
X185751Y133500D02*
Y137501D01*
Y133500D02*
X187751D01*
X152751Y173500D02*
Y177501D01*
X150751D02*
X152751D01*
X150751Y173500D02*
Y177501D01*
Y173500D02*
X152751D01*
X167751D02*
Y177501D01*
X165751D02*
X167751D01*
X165751Y173500D02*
Y177501D01*
Y173500D02*
X167751D01*
X152751Y149501D02*
Y153501D01*
X150751D02*
X152751D01*
X150751Y149501D02*
Y153501D01*
Y149501D02*
X152751D01*
X197751Y157500D02*
Y161501D01*
X195751D02*
X197751D01*
X195751Y157500D02*
Y161501D01*
Y157500D02*
X197751D01*
X167751Y149501D02*
Y153501D01*
X165751D02*
X167751D01*
X165751Y149501D02*
Y153501D01*
Y149501D02*
X167751D01*
X152751Y109501D02*
Y113501D01*
X150751D02*
X152751D01*
X150751Y109501D02*
Y113501D01*
Y109501D02*
X152751D01*
X162751D02*
Y113501D01*
X160751D02*
X162751D01*
X160751Y109501D02*
Y113501D01*
Y109501D02*
X162751D01*
X172751D02*
Y113501D01*
X170751D02*
X172751D01*
X170751Y109501D02*
Y113501D01*
Y109501D02*
X172751D01*
X192751Y181500D02*
Y185501D01*
X190751D02*
X192751D01*
X190751Y181500D02*
Y185501D01*
Y181500D02*
X192751D01*
X197751D02*
Y185501D01*
X195751D02*
X197751D01*
X195751Y181500D02*
Y185501D01*
Y181500D02*
X197751D01*
Y141501D02*
Y145501D01*
X195751D02*
X197751D01*
X195751Y141501D02*
Y145501D01*
Y141501D02*
X197751D01*
X157751Y133500D02*
Y137501D01*
X155751D02*
X157751D01*
X155751Y133500D02*
Y137501D01*
Y133500D02*
X157751D01*
X162751D02*
Y137501D01*
X160751D02*
X162751D01*
X160751Y133500D02*
Y137501D01*
Y133500D02*
X162751D01*
X167751D02*
Y137501D01*
X165751D02*
X167751D01*
X165751Y133500D02*
Y137501D01*
Y133500D02*
X167751D01*
X197751Y117500D02*
Y121501D01*
X195751D02*
X197751D01*
X195751Y117500D02*
Y121501D01*
Y117500D02*
X197751D01*
X187751Y181500D02*
Y185501D01*
X185751D02*
X187751D01*
X185751Y181500D02*
Y185501D01*
Y181500D02*
X187751D01*
X162751Y157500D02*
Y161501D01*
X160751D02*
X162751D01*
X160751Y157500D02*
Y161501D01*
Y157500D02*
X162751D01*
X167751D02*
Y161501D01*
X165751D02*
X167751D01*
X165751Y157500D02*
Y161501D01*
Y157500D02*
X167751D01*
X182751D02*
Y161501D01*
X180751D02*
X182751D01*
X180751Y157500D02*
Y161501D01*
Y157500D02*
X182751D01*
X187751D02*
Y161501D01*
X185751D02*
X187751D01*
X185751Y157500D02*
Y161501D01*
Y157500D02*
X187751D01*
X172751Y117500D02*
Y121501D01*
X170751D02*
X172751D01*
X170751Y117500D02*
Y121501D01*
Y117500D02*
X172751D01*
X182751D02*
Y121501D01*
X180751D02*
X182751D01*
X180751Y117500D02*
Y121501D01*
Y117500D02*
X182751D01*
X172751Y181500D02*
Y185501D01*
X170751D02*
X172751D01*
X170751Y181500D02*
Y185501D01*
Y181500D02*
X172751D01*
X177751D02*
Y185501D01*
X175751D02*
X177751D01*
X175751Y181500D02*
Y185501D01*
Y181500D02*
X177751D01*
X182751D02*
Y185501D01*
X180751D02*
X182751D01*
X180751Y181500D02*
Y185501D01*
Y181500D02*
X182751D01*
X187751Y141501D02*
Y145501D01*
X185751D02*
X187751D01*
X185751Y141501D02*
Y145501D01*
Y141501D02*
X187751D01*
X192751D02*
Y145501D01*
X190751D02*
X192751D01*
X190751Y141501D02*
Y145501D01*
Y141501D02*
X192751D01*
X152751Y133500D02*
Y137501D01*
X150751D02*
X152751D01*
X150751Y133500D02*
Y137501D01*
Y133500D02*
X152751D01*
X157751Y117500D02*
Y121501D01*
X155751D02*
X157751D01*
X155751Y117500D02*
Y121501D01*
Y117500D02*
X157751D01*
X167751D02*
Y121501D01*
X165751D02*
X167751D01*
X165751Y117500D02*
Y121501D01*
Y117500D02*
X167751D01*
X152751Y157500D02*
Y161501D01*
X150751D02*
X152751D01*
X150751Y157500D02*
Y161501D01*
Y157500D02*
X152751D01*
X157751D02*
Y161501D01*
X155751D02*
X157751D01*
X155751Y157500D02*
Y161501D01*
Y157500D02*
X157751D01*
X172751D02*
Y161501D01*
X170751D02*
X172751D01*
X170751Y157500D02*
Y161501D01*
Y157500D02*
X172751D01*
X177751D02*
Y161501D01*
X175751D02*
X177751D01*
X175751Y157500D02*
Y161501D01*
Y157500D02*
X177751D01*
X182751Y141501D02*
Y145501D01*
X180751D02*
X182751D01*
X180751Y141501D02*
Y145501D01*
Y141501D02*
X182751D01*
X167751Y109501D02*
Y113501D01*
X165751D02*
X167751D01*
X165751Y109501D02*
Y113501D01*
Y109501D02*
X167751D01*
X152751Y181500D02*
Y185501D01*
X150751D02*
X152751D01*
X150751Y181500D02*
Y185501D01*
Y181500D02*
X152751D01*
X157751D02*
Y185501D01*
X155751D02*
X157751D01*
X155751Y181500D02*
Y185501D01*
Y181500D02*
X157751D01*
X162751D02*
Y185501D01*
X160751D02*
X162751D01*
X160751Y181500D02*
Y185501D01*
Y181500D02*
X162751D01*
X167751D02*
Y185501D01*
X165751D02*
X167751D01*
X165751Y181500D02*
Y185501D01*
Y181500D02*
X167751D01*
Y125500D02*
Y129501D01*
X165751D02*
X167751D01*
X165751Y125500D02*
Y129501D01*
Y125500D02*
X167751D01*
X172751D02*
Y129501D01*
X170751D02*
X172751D01*
X170751Y125500D02*
Y129501D01*
Y125500D02*
X172751D01*
X177751D02*
Y129501D01*
X175751D02*
X177751D01*
X175751Y125500D02*
Y129501D01*
Y125500D02*
X177751D01*
X192751Y117500D02*
Y121501D01*
X190751D02*
X192751D01*
X190751Y117500D02*
Y121501D01*
Y117500D02*
X192751D01*
X157751Y109501D02*
Y113501D01*
X155751D02*
X157751D01*
X155751Y109501D02*
Y113501D01*
Y109501D02*
X157751D01*
X187751Y149501D02*
Y153501D01*
X185751D02*
X187751D01*
X185751Y149501D02*
Y153501D01*
Y149501D02*
X187751D01*
X192751D02*
Y153501D01*
X190751D02*
X192751D01*
X190751Y149501D02*
Y153501D01*
Y149501D02*
X192751D01*
X197751D02*
Y153501D01*
X195751D02*
X197751D01*
X195751Y149501D02*
Y153501D01*
Y149501D02*
X197751D01*
X172751Y141501D02*
Y145501D01*
X170751D02*
X172751D01*
X170751Y141501D02*
Y145501D01*
Y141501D02*
X172751D01*
X162751Y125500D02*
Y129501D01*
X160751D02*
X162751D01*
X160751Y125500D02*
Y129501D01*
Y125500D02*
X162751D01*
X182751Y173500D02*
Y177501D01*
X180751D02*
X182751D01*
X180751Y173500D02*
Y177501D01*
Y173500D02*
X182751D01*
X187751D02*
Y177501D01*
X185751D02*
X187751D01*
X185751Y173500D02*
Y177501D01*
Y173500D02*
X187751D01*
X192751D02*
Y177501D01*
X190751D02*
X192751D01*
X190751Y173500D02*
Y177501D01*
Y173500D02*
X192751D01*
X152751Y165501D02*
Y169501D01*
X150751D02*
X152751D01*
X150751Y165501D02*
Y169501D01*
Y165501D02*
X152751D01*
X182751Y149501D02*
Y153501D01*
X180751D02*
X182751D01*
X180751Y149501D02*
Y153501D01*
Y149501D02*
X182751D01*
Y125500D02*
Y129501D01*
X180751D02*
X182751D01*
X180751Y125500D02*
Y129501D01*
Y125500D02*
X182751D01*
X187751D02*
Y129501D01*
X185751D02*
X187751D01*
X185751Y125500D02*
Y129501D01*
Y125500D02*
X187751D01*
X192751D02*
Y129501D01*
X190751D02*
X192751D01*
X190751Y125500D02*
Y129501D01*
Y125500D02*
X192751D01*
X197751D02*
Y129501D01*
X195751D02*
X197751D01*
X195751Y125500D02*
Y129501D01*
Y125500D02*
X197751D01*
X192751Y109501D02*
Y113501D01*
X190751D02*
X192751D01*
X190751Y109501D02*
Y113501D01*
Y109501D02*
X192751D01*
X152751Y141501D02*
Y145501D01*
X150751D02*
X152751D01*
X150751Y141501D02*
Y145501D01*
Y141501D02*
X152751D01*
X157751D02*
Y145501D01*
X155751D02*
X157751D01*
X155751Y141501D02*
Y145501D01*
Y141501D02*
X157751D01*
X162751D02*
Y145501D01*
X160751D02*
X162751D01*
X160751Y141501D02*
Y145501D01*
Y141501D02*
X162751D01*
X167751D02*
Y145501D01*
X165751D02*
X167751D01*
X165751Y141501D02*
Y145501D01*
Y141501D02*
X167751D01*
X177751D02*
Y145501D01*
X175751D02*
X177751D01*
X175751Y141501D02*
Y145501D01*
Y141501D02*
X177751D01*
X157751Y165501D02*
Y169501D01*
X155751D02*
X157751D01*
X155751Y165501D02*
Y169501D01*
Y165501D02*
X157751D01*
X197751Y173500D02*
Y177501D01*
X195751D02*
X197751D01*
X195751Y173500D02*
Y177501D01*
Y173500D02*
X197751D01*
X172751Y165501D02*
Y169501D01*
X170751D02*
X172751D01*
X170751Y165501D02*
Y169501D01*
Y165501D02*
X172751D01*
X162751D02*
Y169501D01*
X160751D02*
X162751D01*
X160751Y165501D02*
Y169501D01*
Y165501D02*
X162751D01*
X167751D02*
Y169501D01*
X165751D02*
X167751D01*
X165751Y165501D02*
Y169501D01*
Y165501D02*
X167751D01*
X177751D02*
Y169501D01*
X175751D02*
X177751D01*
X175751Y165501D02*
Y169501D01*
Y165501D02*
X177751D01*
X187751D02*
Y169501D01*
X185751D02*
X187751D01*
X185751Y165501D02*
Y169501D01*
Y165501D02*
X187751D01*
X197751D02*
Y169501D01*
X195751D02*
X197751D01*
X195751Y165501D02*
Y169501D01*
Y165501D02*
X197751D01*
X182751D02*
Y169501D01*
X180751D02*
X182751D01*
X180751Y165501D02*
Y169501D01*
Y165501D02*
X182751D01*
X192751D02*
Y169501D01*
X190751D02*
X192751D01*
X190751Y165501D02*
Y169501D01*
Y165501D02*
X192751D01*
X246501D02*
Y169501D01*
X244501D02*
X246501D01*
X244501Y165501D02*
Y169501D01*
Y165501D02*
X246501D01*
X236501D02*
Y169501D01*
X234501D02*
X236501D01*
X234501Y165501D02*
Y169501D01*
Y165501D02*
X236501D01*
X251501D02*
Y169501D01*
X249501D02*
X251501D01*
X249501Y165501D02*
Y169501D01*
Y165501D02*
X251501D01*
X241501D02*
Y169501D01*
X239501D02*
X241501D01*
X239501Y165501D02*
Y169501D01*
Y165501D02*
X241501D01*
X231501D02*
Y169501D01*
X229501D02*
X231501D01*
X229501Y165501D02*
Y169501D01*
Y165501D02*
X231501D01*
X221501D02*
Y169501D01*
X219501D02*
X221501D01*
X219501Y165501D02*
Y169501D01*
Y165501D02*
X221501D01*
X216501D02*
Y169501D01*
X214501D02*
X216501D01*
X214501Y165501D02*
Y169501D01*
Y165501D02*
X216501D01*
X226501D02*
Y169501D01*
X224501D02*
X226501D01*
X224501Y165501D02*
Y169501D01*
Y165501D02*
X226501D01*
X251501Y173500D02*
Y177501D01*
X249501D02*
X251501D01*
X249501Y173500D02*
Y177501D01*
Y173500D02*
X251501D01*
X211501Y165501D02*
Y169501D01*
X209501D02*
X211501D01*
X209501Y165501D02*
Y169501D01*
Y165501D02*
X211501D01*
X231501Y141501D02*
Y145501D01*
X229501D02*
X231501D01*
X229501Y141501D02*
Y145501D01*
Y141501D02*
X231501D01*
X221501D02*
Y145501D01*
X219501D02*
X221501D01*
X219501Y141501D02*
Y145501D01*
Y141501D02*
X221501D01*
X216501D02*
Y145501D01*
X214501D02*
X216501D01*
X214501Y141501D02*
Y145501D01*
Y141501D02*
X216501D01*
X211501D02*
Y145501D01*
X209501D02*
X211501D01*
X209501Y141501D02*
Y145501D01*
Y141501D02*
X211501D01*
X206501D02*
Y145501D01*
X204501D02*
X206501D01*
X204501Y141501D02*
Y145501D01*
Y141501D02*
X206501D01*
X246501Y109501D02*
Y113501D01*
X244501D02*
X246501D01*
X244501Y109501D02*
Y113501D01*
Y109501D02*
X246501D01*
X251501Y125500D02*
Y129501D01*
X249501D02*
X251501D01*
X249501Y125500D02*
Y129501D01*
Y125500D02*
X251501D01*
X246501D02*
Y129501D01*
X244501D02*
X246501D01*
X244501Y125500D02*
Y129501D01*
Y125500D02*
X246501D01*
X241501D02*
Y129501D01*
X239501D02*
X241501D01*
X239501Y125500D02*
Y129501D01*
Y125500D02*
X241501D01*
X236501D02*
Y129501D01*
X234501D02*
X236501D01*
X234501Y125500D02*
Y129501D01*
Y125500D02*
X236501D01*
Y149501D02*
Y153501D01*
X234501D02*
X236501D01*
X234501Y149501D02*
Y153501D01*
Y149501D02*
X236501D01*
X206501Y165501D02*
Y169501D01*
X204501D02*
X206501D01*
X204501Y165501D02*
Y169501D01*
Y165501D02*
X206501D01*
X246501Y173500D02*
Y177501D01*
X244501D02*
X246501D01*
X244501Y173500D02*
Y177501D01*
Y173500D02*
X246501D01*
X241501D02*
Y177501D01*
X239501D02*
X241501D01*
X239501Y173500D02*
Y177501D01*
Y173500D02*
X241501D01*
X236501D02*
Y177501D01*
X234501D02*
X236501D01*
X234501Y173500D02*
Y177501D01*
Y173500D02*
X236501D01*
X216501Y125500D02*
Y129501D01*
X214501D02*
X216501D01*
X214501Y125500D02*
Y129501D01*
Y125500D02*
X216501D01*
X226501Y141501D02*
Y145501D01*
X224501D02*
X226501D01*
X224501Y141501D02*
Y145501D01*
Y141501D02*
X226501D01*
X251501Y149501D02*
Y153501D01*
X249501D02*
X251501D01*
X249501Y149501D02*
Y153501D01*
Y149501D02*
X251501D01*
X246501D02*
Y153501D01*
X244501D02*
X246501D01*
X244501Y149501D02*
Y153501D01*
Y149501D02*
X246501D01*
X241501D02*
Y153501D01*
X239501D02*
X241501D01*
X239501Y149501D02*
Y153501D01*
Y149501D02*
X241501D01*
X211501Y109501D02*
Y113501D01*
X209501D02*
X211501D01*
X209501Y109501D02*
Y113501D01*
Y109501D02*
X211501D01*
X246501Y117500D02*
Y121501D01*
X244501D02*
X246501D01*
X244501Y117500D02*
Y121501D01*
Y117500D02*
X246501D01*
X231501Y125500D02*
Y129501D01*
X229501D02*
X231501D01*
X229501Y125500D02*
Y129501D01*
Y125500D02*
X231501D01*
X226501D02*
Y129501D01*
X224501D02*
X226501D01*
X224501Y125500D02*
Y129501D01*
Y125500D02*
X226501D01*
X221501D02*
Y129501D01*
X219501D02*
X221501D01*
X219501Y125500D02*
Y129501D01*
Y125500D02*
X221501D01*
Y181500D02*
Y185501D01*
X219501D02*
X221501D01*
X219501Y181500D02*
Y185501D01*
Y181500D02*
X221501D01*
X216501D02*
Y185501D01*
X214501D02*
X216501D01*
X214501Y181500D02*
Y185501D01*
Y181500D02*
X216501D01*
X211501D02*
Y185501D01*
X209501D02*
X211501D01*
X209501Y181500D02*
Y185501D01*
Y181500D02*
X211501D01*
X206501D02*
Y185501D01*
X204501D02*
X206501D01*
X204501Y181500D02*
Y185501D01*
Y181500D02*
X206501D01*
X221501Y109501D02*
Y113501D01*
X219501D02*
X221501D01*
X219501Y109501D02*
Y113501D01*
Y109501D02*
X221501D01*
X236501Y141501D02*
Y145501D01*
X234501D02*
X236501D01*
X234501Y141501D02*
Y145501D01*
Y141501D02*
X236501D01*
X231501Y157500D02*
Y161501D01*
X229501D02*
X231501D01*
X229501Y157500D02*
Y161501D01*
Y157500D02*
X231501D01*
X226501D02*
Y161501D01*
X224501D02*
X226501D01*
X224501Y157500D02*
Y161501D01*
Y157500D02*
X226501D01*
X211501D02*
Y161501D01*
X209501D02*
X211501D01*
X209501Y157500D02*
Y161501D01*
Y157500D02*
X211501D01*
X206501D02*
Y161501D01*
X204501D02*
X206501D01*
X204501Y157500D02*
Y161501D01*
Y157500D02*
X206501D01*
X221501Y117500D02*
Y121501D01*
X219501D02*
X221501D01*
X219501Y117500D02*
Y121501D01*
Y117500D02*
X221501D01*
X211501D02*
Y121501D01*
X209501D02*
X211501D01*
X209501Y117500D02*
Y121501D01*
Y117500D02*
X211501D01*
X206501Y133500D02*
Y137501D01*
X204501D02*
X206501D01*
X204501Y133500D02*
Y137501D01*
Y133500D02*
X206501D01*
X246501Y141501D02*
Y145501D01*
X244501D02*
X246501D01*
X244501Y141501D02*
Y145501D01*
Y141501D02*
X246501D01*
X241501D02*
Y145501D01*
X239501D02*
X241501D01*
X239501Y141501D02*
Y145501D01*
Y141501D02*
X241501D01*
X236501Y181500D02*
Y185501D01*
X234501D02*
X236501D01*
X234501Y181500D02*
Y185501D01*
Y181500D02*
X236501D01*
X231501D02*
Y185501D01*
X229501D02*
X231501D01*
X229501Y181500D02*
Y185501D01*
Y181500D02*
X231501D01*
X226501D02*
Y185501D01*
X224501D02*
X226501D01*
X224501Y181500D02*
Y185501D01*
Y181500D02*
X226501D01*
X236501Y117500D02*
Y121501D01*
X234501D02*
X236501D01*
X234501Y117500D02*
Y121501D01*
Y117500D02*
X236501D01*
X226501D02*
Y121501D01*
X224501D02*
X226501D01*
X224501Y117500D02*
Y121501D01*
Y117500D02*
X226501D01*
X241501Y157500D02*
Y161501D01*
X239501D02*
X241501D01*
X239501Y157500D02*
Y161501D01*
Y157500D02*
X241501D01*
X236501D02*
Y161501D01*
X234501D02*
X236501D01*
X234501Y157500D02*
Y161501D01*
Y157500D02*
X236501D01*
X221501D02*
Y161501D01*
X219501D02*
X221501D01*
X219501Y157500D02*
Y161501D01*
Y157500D02*
X221501D01*
X216501D02*
Y161501D01*
X214501D02*
X216501D01*
X214501Y157500D02*
Y161501D01*
Y157500D02*
X216501D01*
X241501Y181500D02*
Y185501D01*
X239501D02*
X241501D01*
X239501Y181500D02*
Y185501D01*
Y181500D02*
X241501D01*
X251501Y117500D02*
Y121501D01*
X249501D02*
X251501D01*
X249501Y117500D02*
Y121501D01*
Y117500D02*
X251501D01*
X221501Y133500D02*
Y137501D01*
X219501D02*
X221501D01*
X219501Y133500D02*
Y137501D01*
Y133500D02*
X221501D01*
X216501D02*
Y137501D01*
X214501D02*
X216501D01*
X214501Y133500D02*
Y137501D01*
Y133500D02*
X216501D01*
X211501D02*
Y137501D01*
X209501D02*
X211501D01*
X209501Y133500D02*
Y137501D01*
Y133500D02*
X211501D01*
X251501Y141501D02*
Y145501D01*
X249501D02*
X251501D01*
X249501Y141501D02*
Y145501D01*
Y141501D02*
X251501D01*
Y181500D02*
Y185501D01*
X249501D02*
X251501D01*
X249501Y181500D02*
Y185501D01*
Y181500D02*
X251501D01*
X246501D02*
Y185501D01*
X244501D02*
X246501D01*
X244501Y181500D02*
Y185501D01*
Y181500D02*
X246501D01*
X226501Y109501D02*
Y113501D01*
X224501D02*
X226501D01*
X224501Y109501D02*
Y113501D01*
Y109501D02*
X226501D01*
X216501D02*
Y113501D01*
X214501D02*
X216501D01*
X214501Y109501D02*
Y113501D01*
Y109501D02*
X216501D01*
X206501D02*
Y113501D01*
X204501D02*
X206501D01*
X204501Y109501D02*
Y113501D01*
Y109501D02*
X206501D01*
X221501Y149501D02*
Y153501D01*
X219501D02*
X221501D01*
X219501Y149501D02*
Y153501D01*
Y149501D02*
X221501D01*
X251501Y157500D02*
Y161501D01*
X249501D02*
X251501D01*
X249501Y157500D02*
Y161501D01*
Y157500D02*
X251501D01*
X206501Y149501D02*
Y153501D01*
X204501D02*
X206501D01*
X204501Y149501D02*
Y153501D01*
Y149501D02*
X206501D01*
X221501Y173500D02*
Y177501D01*
X219501D02*
X221501D01*
X219501Y173500D02*
Y177501D01*
Y173500D02*
X221501D01*
X206501D02*
Y177501D01*
X204501D02*
X206501D01*
X204501Y173500D02*
Y177501D01*
Y173500D02*
X206501D01*
X241501Y133500D02*
Y137501D01*
X239501D02*
X241501D01*
X239501Y133500D02*
Y137501D01*
Y133500D02*
X241501D01*
X236501D02*
Y137501D01*
X234501D02*
X236501D01*
X234501Y133500D02*
Y137501D01*
Y133500D02*
X236501D01*
X231501D02*
Y137501D01*
X229501D02*
X231501D01*
X229501Y133500D02*
Y137501D01*
Y133500D02*
X231501D01*
X226501D02*
Y137501D01*
X224501D02*
X226501D01*
X224501Y133500D02*
Y137501D01*
Y133500D02*
X226501D01*
X246501Y157500D02*
Y161501D01*
X244501D02*
X246501D01*
X244501Y157500D02*
Y161501D01*
Y157500D02*
X246501D01*
X211501Y173500D02*
Y177501D01*
X209501D02*
X211501D01*
X209501Y173500D02*
Y177501D01*
Y173500D02*
X211501D01*
X231501Y109501D02*
Y113501D01*
X229501D02*
X231501D01*
X229501Y109501D02*
Y113501D01*
Y109501D02*
X231501D01*
X251501D02*
Y113501D01*
X249501D02*
X251501D01*
X249501Y109501D02*
Y113501D01*
Y109501D02*
X251501D01*
X241501D02*
Y113501D01*
X239501D02*
X241501D01*
X239501Y109501D02*
Y113501D01*
Y109501D02*
X241501D01*
X236501D02*
Y113501D01*
X234501D02*
X236501D01*
X234501Y109501D02*
Y113501D01*
Y109501D02*
X236501D01*
X216501Y149501D02*
Y153501D01*
X214501D02*
X216501D01*
X214501Y149501D02*
Y153501D01*
Y149501D02*
X216501D01*
X211501D02*
Y153501D01*
X209501D02*
X211501D01*
X209501Y149501D02*
Y153501D01*
Y149501D02*
X211501D01*
X231501Y173500D02*
Y177501D01*
X229501D02*
X231501D01*
X229501Y173500D02*
Y177501D01*
Y173500D02*
X231501D01*
X226501D02*
Y177501D01*
X224501D02*
X226501D01*
X224501Y173500D02*
Y177501D01*
Y173500D02*
X226501D01*
X216501D02*
Y177501D01*
X214501D02*
X216501D01*
X214501Y173500D02*
Y177501D01*
Y173500D02*
X216501D01*
X206501Y125500D02*
Y129501D01*
X204501D02*
X206501D01*
X204501Y125500D02*
Y129501D01*
Y125500D02*
X206501D01*
X251501Y133500D02*
Y137501D01*
X249501D02*
X251501D01*
X249501Y133500D02*
Y137501D01*
Y133500D02*
X251501D01*
X246501D02*
Y137501D01*
X244501D02*
X246501D01*
X244501Y133500D02*
Y137501D01*
Y133500D02*
X246501D01*
X231501Y149501D02*
Y153501D01*
X229501D02*
X231501D01*
X229501Y149501D02*
Y153501D01*
Y149501D02*
X231501D01*
X226501D02*
Y153501D01*
X224501D02*
X226501D01*
X224501Y149501D02*
Y153501D01*
Y149501D02*
X226501D01*
X241501Y117500D02*
Y121501D01*
X239501D02*
X241501D01*
X239501Y117500D02*
Y121501D01*
Y117500D02*
X241501D01*
X231501D02*
Y121501D01*
X229501D02*
X231501D01*
X229501Y117500D02*
Y121501D01*
Y117500D02*
X231501D01*
X216501D02*
Y121501D01*
X214501D02*
X216501D01*
X214501Y117500D02*
Y121501D01*
Y117500D02*
X216501D01*
X206501D02*
Y121501D01*
X204501D02*
X206501D01*
X204501Y117500D02*
Y121501D01*
Y117500D02*
X206501D01*
X211501Y125500D02*
Y129501D01*
X209501D02*
X211501D01*
X209501Y125500D02*
Y129501D01*
Y125500D02*
X211501D01*
Y282250D02*
Y286251D01*
X209501D02*
X211501D01*
X209501Y282250D02*
Y286251D01*
Y282250D02*
X211501D01*
X206501Y274251D02*
Y278251D01*
X204501D02*
X206501D01*
X204501Y274251D02*
Y278251D01*
Y274251D02*
X206501D01*
X216501D02*
Y278251D01*
X214501D02*
X216501D01*
X214501Y274251D02*
Y278251D01*
Y274251D02*
X216501D01*
X231501D02*
Y278251D01*
X229501D02*
X231501D01*
X229501Y274251D02*
Y278251D01*
Y274251D02*
X231501D01*
X241501D02*
Y278251D01*
X239501D02*
X241501D01*
X239501Y274251D02*
Y278251D01*
Y274251D02*
X241501D01*
X226501Y306250D02*
Y310251D01*
X224501D02*
X226501D01*
X224501Y306250D02*
Y310251D01*
Y306250D02*
X226501D01*
X231501D02*
Y310251D01*
X229501D02*
X231501D01*
X229501Y306250D02*
Y310251D01*
Y306250D02*
X231501D01*
X246501Y290250D02*
Y294251D01*
X244501D02*
X246501D01*
X244501Y290250D02*
Y294251D01*
Y290250D02*
X246501D01*
X251501D02*
Y294251D01*
X249501D02*
X251501D01*
X249501Y290250D02*
Y294251D01*
Y290250D02*
X251501D01*
X206501Y282250D02*
Y286251D01*
X204501D02*
X206501D01*
X204501Y282250D02*
Y286251D01*
Y282250D02*
X206501D01*
X216501Y330251D02*
Y334251D01*
X214501D02*
X216501D01*
X214501Y330251D02*
Y334251D01*
Y330251D02*
X216501D01*
X226501D02*
Y334251D01*
X224501D02*
X226501D01*
X224501Y330251D02*
Y334251D01*
Y330251D02*
X226501D01*
X231501D02*
Y334251D01*
X229501D02*
X231501D01*
X229501Y330251D02*
Y334251D01*
Y330251D02*
X231501D01*
X211501Y306250D02*
Y310251D01*
X209501D02*
X211501D01*
X209501Y306250D02*
Y310251D01*
Y306250D02*
X211501D01*
X216501D02*
Y310251D01*
X214501D02*
X216501D01*
X214501Y306250D02*
Y310251D01*
Y306250D02*
X216501D01*
X236501Y266250D02*
Y270251D01*
X234501D02*
X236501D01*
X234501Y266250D02*
Y270251D01*
Y266250D02*
X236501D01*
X241501D02*
Y270251D01*
X239501D02*
X241501D01*
X239501Y266250D02*
Y270251D01*
Y266250D02*
X241501D01*
X251501D02*
Y270251D01*
X249501D02*
X251501D01*
X249501Y266250D02*
Y270251D01*
Y266250D02*
X251501D01*
X231501D02*
Y270251D01*
X229501D02*
X231501D01*
X229501Y266250D02*
Y270251D01*
Y266250D02*
X231501D01*
X211501Y330251D02*
Y334251D01*
X209501D02*
X211501D01*
X209501Y330251D02*
Y334251D01*
Y330251D02*
X211501D01*
X246501Y314251D02*
Y318251D01*
X244501D02*
X246501D01*
X244501Y314251D02*
Y318251D01*
Y314251D02*
X246501D01*
X226501Y290250D02*
Y294251D01*
X224501D02*
X226501D01*
X224501Y290250D02*
Y294251D01*
Y290250D02*
X226501D01*
X231501D02*
Y294251D01*
X229501D02*
X231501D01*
X229501Y290250D02*
Y294251D01*
Y290250D02*
X231501D01*
X236501D02*
Y294251D01*
X234501D02*
X236501D01*
X234501Y290250D02*
Y294251D01*
Y290250D02*
X236501D01*
X241501D02*
Y294251D01*
X239501D02*
X241501D01*
X239501Y290250D02*
Y294251D01*
Y290250D02*
X241501D01*
X206501Y330251D02*
Y334251D01*
X204501D02*
X206501D01*
X204501Y330251D02*
Y334251D01*
Y330251D02*
X206501D01*
X221501D02*
Y334251D01*
X219501D02*
X221501D01*
X219501Y330251D02*
Y334251D01*
Y330251D02*
X221501D01*
X206501Y306250D02*
Y310251D01*
X204501D02*
X206501D01*
X204501Y306250D02*
Y310251D01*
Y306250D02*
X206501D01*
X251501Y314251D02*
Y318251D01*
X249501D02*
X251501D01*
X249501Y314251D02*
Y318251D01*
Y314251D02*
X251501D01*
X221501Y306250D02*
Y310251D01*
X219501D02*
X221501D01*
X219501Y306250D02*
Y310251D01*
Y306250D02*
X221501D01*
X206501Y266250D02*
Y270251D01*
X204501D02*
X206501D01*
X204501Y266250D02*
Y270251D01*
Y266250D02*
X206501D01*
X216501D02*
Y270251D01*
X214501D02*
X216501D01*
X214501Y266250D02*
Y270251D01*
Y266250D02*
X216501D01*
X226501D02*
Y270251D01*
X224501D02*
X226501D01*
X224501Y266250D02*
Y270251D01*
Y266250D02*
X226501D01*
X246501Y338251D02*
Y342251D01*
X244501D02*
X246501D01*
X244501Y338251D02*
Y342251D01*
Y338251D02*
X246501D01*
X251501D02*
Y342251D01*
X249501D02*
X251501D01*
X249501Y338251D02*
Y342251D01*
Y338251D02*
X251501D01*
Y298251D02*
Y302251D01*
X249501D02*
X251501D01*
X249501Y298251D02*
Y302251D01*
Y298251D02*
X251501D01*
X211501Y290250D02*
Y294251D01*
X209501D02*
X211501D01*
X209501Y290250D02*
Y294251D01*
Y290250D02*
X211501D01*
X216501D02*
Y294251D01*
X214501D02*
X216501D01*
X214501Y290250D02*
Y294251D01*
Y290250D02*
X216501D01*
X221501D02*
Y294251D01*
X219501D02*
X221501D01*
X219501Y290250D02*
Y294251D01*
Y290250D02*
X221501D01*
X251501Y274251D02*
Y278251D01*
X249501D02*
X251501D01*
X249501Y274251D02*
Y278251D01*
Y274251D02*
X251501D01*
X241501Y338251D02*
Y342251D01*
X239501D02*
X241501D01*
X239501Y338251D02*
Y342251D01*
Y338251D02*
X241501D01*
X216501Y314251D02*
Y318251D01*
X214501D02*
X216501D01*
X214501Y314251D02*
Y318251D01*
Y314251D02*
X216501D01*
X221501D02*
Y318251D01*
X219501D02*
X221501D01*
X219501Y314251D02*
Y318251D01*
Y314251D02*
X221501D01*
X236501D02*
Y318251D01*
X234501D02*
X236501D01*
X234501Y314251D02*
Y318251D01*
Y314251D02*
X236501D01*
X241501D02*
Y318251D01*
X239501D02*
X241501D01*
X239501Y314251D02*
Y318251D01*
Y314251D02*
X241501D01*
X226501Y274251D02*
Y278251D01*
X224501D02*
X226501D01*
X224501Y274251D02*
Y278251D01*
Y274251D02*
X226501D01*
X236501D02*
Y278251D01*
X234501D02*
X236501D01*
X234501Y274251D02*
Y278251D01*
Y274251D02*
X236501D01*
X226501Y338251D02*
Y342251D01*
X224501D02*
X226501D01*
X224501Y338251D02*
Y342251D01*
Y338251D02*
X226501D01*
X231501D02*
Y342251D01*
X229501D02*
X231501D01*
X229501Y338251D02*
Y342251D01*
Y338251D02*
X231501D01*
X236501D02*
Y342251D01*
X234501D02*
X236501D01*
X234501Y338251D02*
Y342251D01*
Y338251D02*
X236501D01*
X241501Y298251D02*
Y302251D01*
X239501D02*
X241501D01*
X239501Y298251D02*
Y302251D01*
Y298251D02*
X241501D01*
X246501D02*
Y302251D01*
X244501D02*
X246501D01*
X244501Y298251D02*
Y302251D01*
Y298251D02*
X246501D01*
X206501Y290250D02*
Y294251D01*
X204501D02*
X206501D01*
X204501Y290250D02*
Y294251D01*
Y290250D02*
X206501D01*
X211501Y274251D02*
Y278251D01*
X209501D02*
X211501D01*
X209501Y274251D02*
Y278251D01*
Y274251D02*
X211501D01*
X221501D02*
Y278251D01*
X219501D02*
X221501D01*
X219501Y274251D02*
Y278251D01*
Y274251D02*
X221501D01*
X206501Y314251D02*
Y318251D01*
X204501D02*
X206501D01*
X204501Y314251D02*
Y318251D01*
Y314251D02*
X206501D01*
X211501D02*
Y318251D01*
X209501D02*
X211501D01*
X209501Y314251D02*
Y318251D01*
Y314251D02*
X211501D01*
X226501D02*
Y318251D01*
X224501D02*
X226501D01*
X224501Y314251D02*
Y318251D01*
Y314251D02*
X226501D01*
X231501D02*
Y318251D01*
X229501D02*
X231501D01*
X229501Y314251D02*
Y318251D01*
Y314251D02*
X231501D01*
X236501Y298251D02*
Y302251D01*
X234501D02*
X236501D01*
X234501Y298251D02*
Y302251D01*
Y298251D02*
X236501D01*
X221501Y266250D02*
Y270251D01*
X219501D02*
X221501D01*
X219501Y266250D02*
Y270251D01*
Y266250D02*
X221501D01*
X206501Y338251D02*
Y342251D01*
X204501D02*
X206501D01*
X204501Y338251D02*
Y342251D01*
Y338251D02*
X206501D01*
X211501D02*
Y342251D01*
X209501D02*
X211501D01*
X209501Y338251D02*
Y342251D01*
Y338251D02*
X211501D01*
X216501D02*
Y342251D01*
X214501D02*
X216501D01*
X214501Y338251D02*
Y342251D01*
Y338251D02*
X216501D01*
X221501D02*
Y342251D01*
X219501D02*
X221501D01*
X219501Y338251D02*
Y342251D01*
Y338251D02*
X221501D01*
Y282250D02*
Y286251D01*
X219501D02*
X221501D01*
X219501Y282250D02*
Y286251D01*
Y282250D02*
X221501D01*
X226501D02*
Y286251D01*
X224501D02*
X226501D01*
X224501Y282250D02*
Y286251D01*
Y282250D02*
X226501D01*
X231501D02*
Y286251D01*
X229501D02*
X231501D01*
X229501Y282250D02*
Y286251D01*
Y282250D02*
X231501D01*
X246501Y274251D02*
Y278251D01*
X244501D02*
X246501D01*
X244501Y274251D02*
Y278251D01*
Y274251D02*
X246501D01*
X211501Y266250D02*
Y270251D01*
X209501D02*
X211501D01*
X209501Y266250D02*
Y270251D01*
Y266250D02*
X211501D01*
X241501Y306250D02*
Y310251D01*
X239501D02*
X241501D01*
X239501Y306250D02*
Y310251D01*
Y306250D02*
X241501D01*
X246501D02*
Y310251D01*
X244501D02*
X246501D01*
X244501Y306250D02*
Y310251D01*
Y306250D02*
X246501D01*
X251501D02*
Y310251D01*
X249501D02*
X251501D01*
X249501Y306250D02*
Y310251D01*
Y306250D02*
X251501D01*
X226501Y298251D02*
Y302251D01*
X224501D02*
X226501D01*
X224501Y298251D02*
Y302251D01*
Y298251D02*
X226501D01*
X216501Y282250D02*
Y286251D01*
X214501D02*
X216501D01*
X214501Y282250D02*
Y286251D01*
Y282250D02*
X216501D01*
X236501Y330251D02*
Y334251D01*
X234501D02*
X236501D01*
X234501Y330251D02*
Y334251D01*
Y330251D02*
X236501D01*
X241501D02*
Y334251D01*
X239501D02*
X241501D01*
X239501Y330251D02*
Y334251D01*
Y330251D02*
X241501D01*
X246501D02*
Y334251D01*
X244501D02*
X246501D01*
X244501Y330251D02*
Y334251D01*
Y330251D02*
X246501D01*
X206501Y322251D02*
Y326251D01*
X204501D02*
X206501D01*
X204501Y322251D02*
Y326251D01*
Y322251D02*
X206501D01*
X236501Y306250D02*
Y310251D01*
X234501D02*
X236501D01*
X234501Y306250D02*
Y310251D01*
Y306250D02*
X236501D01*
Y282250D02*
Y286251D01*
X234501D02*
X236501D01*
X234501Y282250D02*
Y286251D01*
Y282250D02*
X236501D01*
X241501D02*
Y286251D01*
X239501D02*
X241501D01*
X239501Y282250D02*
Y286251D01*
Y282250D02*
X241501D01*
X246501D02*
Y286251D01*
X244501D02*
X246501D01*
X244501Y282250D02*
Y286251D01*
Y282250D02*
X246501D01*
X251501D02*
Y286251D01*
X249501D02*
X251501D01*
X249501Y282250D02*
Y286251D01*
Y282250D02*
X251501D01*
X246501Y266250D02*
Y270251D01*
X244501D02*
X246501D01*
X244501Y266250D02*
Y270251D01*
Y266250D02*
X246501D01*
X206501Y298251D02*
Y302251D01*
X204501D02*
X206501D01*
X204501Y298251D02*
Y302251D01*
Y298251D02*
X206501D01*
X211501D02*
Y302251D01*
X209501D02*
X211501D01*
X209501Y298251D02*
Y302251D01*
Y298251D02*
X211501D01*
X216501D02*
Y302251D01*
X214501D02*
X216501D01*
X214501Y298251D02*
Y302251D01*
Y298251D02*
X216501D01*
X221501D02*
Y302251D01*
X219501D02*
X221501D01*
X219501Y298251D02*
Y302251D01*
Y298251D02*
X221501D01*
X231501D02*
Y302251D01*
X229501D02*
X231501D01*
X229501Y298251D02*
Y302251D01*
Y298251D02*
X231501D01*
X211501Y322251D02*
Y326251D01*
X209501D02*
X211501D01*
X209501Y322251D02*
Y326251D01*
Y322251D02*
X211501D01*
X251501Y330251D02*
Y334251D01*
X249501D02*
X251501D01*
X249501Y330251D02*
Y334251D01*
Y330251D02*
X251501D01*
X226501Y322251D02*
Y326251D01*
X224501D02*
X226501D01*
X224501Y322251D02*
Y326251D01*
Y322251D02*
X226501D01*
X216501D02*
Y326251D01*
X214501D02*
X216501D01*
X214501Y322251D02*
Y326251D01*
Y322251D02*
X216501D01*
X221501D02*
Y326251D01*
X219501D02*
X221501D01*
X219501Y322251D02*
Y326251D01*
Y322251D02*
X221501D01*
X231501D02*
Y326251D01*
X229501D02*
X231501D01*
X229501Y322251D02*
Y326251D01*
Y322251D02*
X231501D01*
X241501D02*
Y326251D01*
X239501D02*
X241501D01*
X239501Y322251D02*
Y326251D01*
Y322251D02*
X241501D01*
X251501D02*
Y326251D01*
X249501D02*
X251501D01*
X249501Y322251D02*
Y326251D01*
Y322251D02*
X251501D01*
X236501D02*
Y326251D01*
X234501D02*
X236501D01*
X234501Y322251D02*
Y326251D01*
Y322251D02*
X236501D01*
X246501D02*
Y326251D01*
X244501D02*
X246501D01*
X244501Y322251D02*
Y326251D01*
Y322251D02*
X246501D01*
X1451302Y311268D02*
X1453303Y314733D01*
X1451571Y315732D02*
X1453303Y314733D01*
X1449571Y312268D02*
X1451571Y315732D01*
X1449571Y312268D02*
X1451302Y311268D01*
X1467519Y294184D02*
X1470983Y296185D01*
X1469984Y297916D02*
X1470983Y296185D01*
X1466519Y295916D02*
X1469984Y297916D01*
X1466519Y295916D02*
X1467519Y294184D01*
X1442195Y229287D02*
X1443563Y225527D01*
X1445442Y226211D01*
X1444074Y229971D02*
X1445442Y226211D01*
X1442195Y229287D02*
X1444074Y229971D01*
X1411604Y319223D02*
X1412973Y315463D01*
X1409726Y318539D02*
X1411604Y319223D01*
X1409726Y318539D02*
X1411094Y314779D01*
X1412973Y315463D01*
X1463112Y300739D02*
X1466176Y303310D01*
X1464891Y304842D02*
X1466176Y303310D01*
X1461826Y302270D02*
X1464891Y304842D01*
X1461826Y302270D02*
X1463112Y300739D01*
X1434511Y227295D02*
X1435206Y223356D01*
X1437175Y223703D01*
X1436480Y227643D02*
X1437175Y223703D01*
X1434511Y227295D02*
X1436480Y227643D01*
X1420104Y321144D02*
X1420799Y317205D01*
X1418135Y320797D02*
X1420104Y321144D01*
X1418135Y320797D02*
X1418829Y316857D01*
X1420799Y317205D01*
X1470713Y286954D02*
X1474473Y288322D01*
X1473789Y290201D02*
X1474473Y288322D01*
X1470029Y288833D02*
X1473789Y290201D01*
X1470029Y288833D02*
X1470713Y286954D01*
X1428751Y317750D02*
Y321751D01*
X1426751D02*
X1428751D01*
X1426751Y317750D02*
Y321751D01*
Y317750D02*
X1428751D01*
X1473083Y271334D02*
X1477084D01*
Y273334D01*
X1473083D02*
X1477084D01*
X1473083Y271334D02*
Y273334D01*
X1457693Y306575D02*
X1460265Y309640D01*
X1458733Y310925D02*
X1460265Y309640D01*
X1456162Y307860D02*
X1458733Y310925D01*
X1456162Y307860D02*
X1457693Y306575D01*
X1444158Y314779D02*
X1445526Y318538D01*
X1443647Y319222D02*
X1445526Y318538D01*
X1442279Y315463D02*
X1443647Y319222D01*
X1442279Y315463D02*
X1444158Y314779D01*
X1472705Y279237D02*
X1476644Y279932D01*
X1476297Y281901D02*
X1476644Y279932D01*
X1472357Y281207D02*
X1476297Y281901D01*
X1472357Y281207D02*
X1472705Y279237D01*
X1436564Y316857D02*
X1437259Y320797D01*
X1435290Y321144D02*
X1437259Y320797D01*
X1434595Y317204D02*
X1435290Y321144D01*
X1434595Y317204D02*
X1436564Y316857D01*
X1385267Y297986D02*
X1388732Y295986D01*
X1384267Y296255D02*
X1385267Y297986D01*
X1384267Y296255D02*
X1387732Y294254D01*
X1388732Y295986D01*
X1381462Y290246D02*
X1385221Y288878D01*
X1380778Y288367D02*
X1381462Y290246D01*
X1380778Y288367D02*
X1384537Y286999D01*
X1385221Y288878D01*
X1403866Y315618D02*
X1405866Y312153D01*
X1402134Y314618D02*
X1403866Y315618D01*
X1402134Y314618D02*
X1404135Y311153D01*
X1405866Y312153D01*
X1396730Y310809D02*
X1399302Y307745D01*
X1395199Y309524D02*
X1396730Y310809D01*
X1395199Y309524D02*
X1397770Y306459D01*
X1399302Y307745D01*
X1390480Y304803D02*
X1393545Y302231D01*
X1389195Y303271D02*
X1390480Y304803D01*
X1389195Y303271D02*
X1392260Y300700D01*
X1393545Y302231D01*
X1426749Y222999D02*
Y226999D01*
Y222999D02*
X1428749D01*
Y226999D01*
X1426749D02*
X1428749D01*
X1449476Y232481D02*
X1451476Y229017D01*
X1453208Y230016D01*
X1451207Y233481D02*
X1453208Y230016D01*
X1449476Y232481D02*
X1451207Y233481D01*
X1470029Y255895D02*
X1473788Y254527D01*
X1474472Y256406D01*
X1470713Y257774D02*
X1474472Y256406D01*
X1470029Y255895D02*
X1470713Y257774D01*
X1472357Y263490D02*
X1476297Y262795D01*
X1476644Y264764D01*
X1472704Y265459D02*
X1476644Y264764D01*
X1472357Y263490D02*
X1472704Y265459D01*
X1466518Y248883D02*
X1469983Y246883D01*
X1470983Y248615D01*
X1467518Y250615D02*
X1470983Y248615D01*
X1466518Y248883D02*
X1467518Y250615D01*
X1380865Y256506D02*
X1384625Y257874D01*
X1380865Y256506D02*
X1381549Y254627D01*
X1385309Y255995D01*
X1384625Y257874D02*
X1385309Y255995D01*
X1395070Y235110D02*
X1397642Y238175D01*
X1395070Y235110D02*
X1396602Y233825D01*
X1399173Y236890D01*
X1397642Y238175D02*
X1399173Y236890D01*
X1384327Y248616D02*
X1387792Y250616D01*
X1384327Y248616D02*
X1385327Y246884D01*
X1388792Y248885D01*
X1387792Y250616D02*
X1388792Y248885D01*
X1379203Y281869D02*
X1383143Y281174D01*
X1378856Y279900D02*
X1379203Y281869D01*
X1378856Y279900D02*
X1382796Y279205D01*
X1383143Y281174D01*
X1402046Y230017D02*
X1404047Y233482D01*
X1402046Y230017D02*
X1403778Y229018D01*
X1405778Y232482D01*
X1404047Y233482D02*
X1405778Y232482D01*
X1461825Y242269D02*
X1464890Y239697D01*
X1466175Y241229D01*
X1463110Y243801D02*
X1466175Y241229D01*
X1461825Y242269D02*
X1463110Y243801D01*
X1378249Y273334D02*
X1382249D01*
X1378249Y271334D02*
Y273334D01*
Y271334D02*
X1382249D01*
Y273334D01*
X1378856Y264888D02*
X1382795Y265583D01*
X1378856Y264888D02*
X1379203Y262919D01*
X1383143Y263613D01*
X1382795Y265583D02*
X1383143Y263613D01*
X1389074Y241341D02*
X1392139Y243913D01*
X1389074Y241341D02*
X1390359Y239810D01*
X1393424Y242381D01*
X1392139Y243913D02*
X1393424Y242381D01*
X1418083Y223703D02*
X1418778Y227643D01*
X1418083Y223703D02*
X1420052Y223356D01*
X1420747Y227296D01*
X1418778Y227643D02*
X1420747Y227296D01*
X1456131Y236889D02*
X1458702Y233824D01*
X1460234Y235109D01*
X1457662Y238174D02*
X1460234Y235109D01*
X1456131Y236889D02*
X1457662Y238174D01*
X1409830Y226212D02*
X1411198Y229971D01*
X1409830Y226212D02*
X1411709Y225528D01*
X1413077Y229287D01*
X1411198Y229971D02*
X1413077Y229287D01*
X192751Y322251D02*
Y326251D01*
X190751D02*
X192751D01*
X190751Y322251D02*
Y326251D01*
Y322251D02*
X192751D01*
X182751D02*
Y326251D01*
X180751D02*
X182751D01*
X180751Y322251D02*
Y326251D01*
Y322251D02*
X182751D01*
X197751D02*
Y326251D01*
X195751D02*
X197751D01*
X195751Y322251D02*
Y326251D01*
Y322251D02*
X197751D01*
X187751D02*
Y326251D01*
X185751D02*
X187751D01*
X185751Y322251D02*
Y326251D01*
Y322251D02*
X187751D01*
X177751D02*
Y326251D01*
X175751D02*
X177751D01*
X175751Y322251D02*
Y326251D01*
Y322251D02*
X177751D01*
X167751D02*
Y326251D01*
X165751D02*
X167751D01*
X165751Y322251D02*
Y326251D01*
Y322251D02*
X167751D01*
X162751D02*
Y326251D01*
X160751D02*
X162751D01*
X160751Y322251D02*
Y326251D01*
Y322251D02*
X162751D01*
X172751D02*
Y326251D01*
X170751D02*
X172751D01*
X170751Y322251D02*
Y326251D01*
Y322251D02*
X172751D01*
X197751Y330251D02*
Y334251D01*
X195751D02*
X197751D01*
X195751Y330251D02*
Y334251D01*
Y330251D02*
X197751D01*
X157751Y322251D02*
Y326251D01*
X155751D02*
X157751D01*
X155751Y322251D02*
Y326251D01*
Y322251D02*
X157751D01*
X177751Y298251D02*
Y302251D01*
X175751D02*
X177751D01*
X175751Y298251D02*
Y302251D01*
Y298251D02*
X177751D01*
X167751D02*
Y302251D01*
X165751D02*
X167751D01*
X165751Y298251D02*
Y302251D01*
Y298251D02*
X167751D01*
X162751D02*
Y302251D01*
X160751D02*
X162751D01*
X160751Y298251D02*
Y302251D01*
Y298251D02*
X162751D01*
X157751D02*
Y302251D01*
X155751D02*
X157751D01*
X155751Y298251D02*
Y302251D01*
Y298251D02*
X157751D01*
X152751D02*
Y302251D01*
X150751D02*
X152751D01*
X150751Y298251D02*
Y302251D01*
Y298251D02*
X152751D01*
X192751Y266250D02*
Y270251D01*
X190751D02*
X192751D01*
X190751Y266250D02*
Y270251D01*
Y266250D02*
X192751D01*
X197751Y282250D02*
Y286251D01*
X195751D02*
X197751D01*
X195751Y282250D02*
Y286251D01*
Y282250D02*
X197751D01*
X192751D02*
Y286251D01*
X190751D02*
X192751D01*
X190751Y282250D02*
Y286251D01*
Y282250D02*
X192751D01*
X187751D02*
Y286251D01*
X185751D02*
X187751D01*
X185751Y282250D02*
Y286251D01*
Y282250D02*
X187751D01*
X182751D02*
Y286251D01*
X180751D02*
X182751D01*
X180751Y282250D02*
Y286251D01*
Y282250D02*
X182751D01*
Y306250D02*
Y310251D01*
X180751D02*
X182751D01*
X180751Y306250D02*
Y310251D01*
Y306250D02*
X182751D01*
X152751Y322251D02*
Y326251D01*
X150751D02*
X152751D01*
X150751Y322251D02*
Y326251D01*
Y322251D02*
X152751D01*
X192751Y330251D02*
Y334251D01*
X190751D02*
X192751D01*
X190751Y330251D02*
Y334251D01*
Y330251D02*
X192751D01*
X187751D02*
Y334251D01*
X185751D02*
X187751D01*
X185751Y330251D02*
Y334251D01*
Y330251D02*
X187751D01*
X182751D02*
Y334251D01*
X180751D02*
X182751D01*
X180751Y330251D02*
Y334251D01*
Y330251D02*
X182751D01*
X162751Y282250D02*
Y286251D01*
X160751D02*
X162751D01*
X160751Y282250D02*
Y286251D01*
Y282250D02*
X162751D01*
X172751Y298251D02*
Y302251D01*
X170751D02*
X172751D01*
X170751Y298251D02*
Y302251D01*
Y298251D02*
X172751D01*
X197751Y306250D02*
Y310251D01*
X195751D02*
X197751D01*
X195751Y306250D02*
Y310251D01*
Y306250D02*
X197751D01*
X192751D02*
Y310251D01*
X190751D02*
X192751D01*
X190751Y306250D02*
Y310251D01*
Y306250D02*
X192751D01*
X187751D02*
Y310251D01*
X185751D02*
X187751D01*
X185751Y306250D02*
Y310251D01*
Y306250D02*
X187751D01*
X157751Y266250D02*
Y270251D01*
X155751D02*
X157751D01*
X155751Y266250D02*
Y270251D01*
Y266250D02*
X157751D01*
X192751Y274251D02*
Y278251D01*
X190751D02*
X192751D01*
X190751Y274251D02*
Y278251D01*
Y274251D02*
X192751D01*
X177751Y282250D02*
Y286251D01*
X175751D02*
X177751D01*
X175751Y282250D02*
Y286251D01*
Y282250D02*
X177751D01*
X172751D02*
Y286251D01*
X170751D02*
X172751D01*
X170751Y282250D02*
Y286251D01*
Y282250D02*
X172751D01*
X167751D02*
Y286251D01*
X165751D02*
X167751D01*
X165751Y282250D02*
Y286251D01*
Y282250D02*
X167751D01*
Y338251D02*
Y342251D01*
X165751D02*
X167751D01*
X165751Y338251D02*
Y342251D01*
Y338251D02*
X167751D01*
X162751D02*
Y342251D01*
X160751D02*
X162751D01*
X160751Y338251D02*
Y342251D01*
Y338251D02*
X162751D01*
X157751D02*
Y342251D01*
X155751D02*
X157751D01*
X155751Y338251D02*
Y342251D01*
Y338251D02*
X157751D01*
X152751D02*
Y342251D01*
X150751D02*
X152751D01*
X150751Y338251D02*
Y342251D01*
Y338251D02*
X152751D01*
X167751Y266250D02*
Y270251D01*
X165751D02*
X167751D01*
X165751Y266250D02*
Y270251D01*
Y266250D02*
X167751D01*
X182751Y298251D02*
Y302251D01*
X180751D02*
X182751D01*
X180751Y298251D02*
Y302251D01*
Y298251D02*
X182751D01*
X177751Y314251D02*
Y318251D01*
X175751D02*
X177751D01*
X175751Y314251D02*
Y318251D01*
Y314251D02*
X177751D01*
X172751D02*
Y318251D01*
X170751D02*
X172751D01*
X170751Y314251D02*
Y318251D01*
Y314251D02*
X172751D01*
X157751D02*
Y318251D01*
X155751D02*
X157751D01*
X155751Y314251D02*
Y318251D01*
Y314251D02*
X157751D01*
X152751D02*
Y318251D01*
X150751D02*
X152751D01*
X150751Y314251D02*
Y318251D01*
Y314251D02*
X152751D01*
X167751Y274251D02*
Y278251D01*
X165751D02*
X167751D01*
X165751Y274251D02*
Y278251D01*
Y274251D02*
X167751D01*
X157751D02*
Y278251D01*
X155751D02*
X157751D01*
X155751Y274251D02*
Y278251D01*
Y274251D02*
X157751D01*
X152751Y290250D02*
Y294251D01*
X150751D02*
X152751D01*
X150751Y290250D02*
Y294251D01*
Y290250D02*
X152751D01*
X192751Y298251D02*
Y302251D01*
X190751D02*
X192751D01*
X190751Y298251D02*
Y302251D01*
Y298251D02*
X192751D01*
X187751D02*
Y302251D01*
X185751D02*
X187751D01*
X185751Y298251D02*
Y302251D01*
Y298251D02*
X187751D01*
X182751Y338251D02*
Y342251D01*
X180751D02*
X182751D01*
X180751Y338251D02*
Y342251D01*
Y338251D02*
X182751D01*
X177751D02*
Y342251D01*
X175751D02*
X177751D01*
X175751Y338251D02*
Y342251D01*
Y338251D02*
X177751D01*
X172751D02*
Y342251D01*
X170751D02*
X172751D01*
X170751Y338251D02*
Y342251D01*
Y338251D02*
X172751D01*
X182751Y274251D02*
Y278251D01*
X180751D02*
X182751D01*
X180751Y274251D02*
Y278251D01*
Y274251D02*
X182751D01*
X172751D02*
Y278251D01*
X170751D02*
X172751D01*
X170751Y274251D02*
Y278251D01*
Y274251D02*
X172751D01*
X187751Y314251D02*
Y318251D01*
X185751D02*
X187751D01*
X185751Y314251D02*
Y318251D01*
Y314251D02*
X187751D01*
X182751D02*
Y318251D01*
X180751D02*
X182751D01*
X180751Y314251D02*
Y318251D01*
Y314251D02*
X182751D01*
X167751D02*
Y318251D01*
X165751D02*
X167751D01*
X165751Y314251D02*
Y318251D01*
Y314251D02*
X167751D01*
X162751D02*
Y318251D01*
X160751D02*
X162751D01*
X160751Y314251D02*
Y318251D01*
Y314251D02*
X162751D01*
X187751Y338251D02*
Y342251D01*
X185751D02*
X187751D01*
X185751Y338251D02*
Y342251D01*
Y338251D02*
X187751D01*
X197751Y274251D02*
Y278251D01*
X195751D02*
X197751D01*
X195751Y274251D02*
Y278251D01*
Y274251D02*
X197751D01*
X167751Y290250D02*
Y294251D01*
X165751D02*
X167751D01*
X165751Y290250D02*
Y294251D01*
Y290250D02*
X167751D01*
X162751D02*
Y294251D01*
X160751D02*
X162751D01*
X160751Y290250D02*
Y294251D01*
Y290250D02*
X162751D01*
X157751D02*
Y294251D01*
X155751D02*
X157751D01*
X155751Y290250D02*
Y294251D01*
Y290250D02*
X157751D01*
X197751Y298251D02*
Y302251D01*
X195751D02*
X197751D01*
X195751Y298251D02*
Y302251D01*
Y298251D02*
X197751D01*
Y338251D02*
Y342251D01*
X195751D02*
X197751D01*
X195751Y338251D02*
Y342251D01*
Y338251D02*
X197751D01*
X192751D02*
Y342251D01*
X190751D02*
X192751D01*
X190751Y338251D02*
Y342251D01*
Y338251D02*
X192751D01*
X172751Y266250D02*
Y270251D01*
X170751D02*
X172751D01*
X170751Y266250D02*
Y270251D01*
Y266250D02*
X172751D01*
X162751D02*
Y270251D01*
X160751D02*
X162751D01*
X160751Y266250D02*
Y270251D01*
Y266250D02*
X162751D01*
X152751D02*
Y270251D01*
X150751D02*
X152751D01*
X150751Y266250D02*
Y270251D01*
Y266250D02*
X152751D01*
X167751Y306250D02*
Y310251D01*
X165751D02*
X167751D01*
X165751Y306250D02*
Y310251D01*
Y306250D02*
X167751D01*
X197751Y314251D02*
Y318251D01*
X195751D02*
X197751D01*
X195751Y314251D02*
Y318251D01*
Y314251D02*
X197751D01*
X152751Y306250D02*
Y310251D01*
X150751D02*
X152751D01*
X150751Y306250D02*
Y310251D01*
Y306250D02*
X152751D01*
X167751Y330251D02*
Y334251D01*
X165751D02*
X167751D01*
X165751Y330251D02*
Y334251D01*
Y330251D02*
X167751D01*
X152751D02*
Y334251D01*
X150751D02*
X152751D01*
X150751Y330251D02*
Y334251D01*
Y330251D02*
X152751D01*
X187751Y290250D02*
Y294251D01*
X185751D02*
X187751D01*
X185751Y290250D02*
Y294251D01*
Y290250D02*
X187751D01*
X182751D02*
Y294251D01*
X180751D02*
X182751D01*
X180751Y290250D02*
Y294251D01*
Y290250D02*
X182751D01*
X177751D02*
Y294251D01*
X175751D02*
X177751D01*
X175751Y290250D02*
Y294251D01*
Y290250D02*
X177751D01*
X172751D02*
Y294251D01*
X170751D02*
X172751D01*
X170751Y290250D02*
Y294251D01*
Y290250D02*
X172751D01*
X192751Y314251D02*
Y318251D01*
X190751D02*
X192751D01*
X190751Y314251D02*
Y318251D01*
Y314251D02*
X192751D01*
X157751Y330251D02*
Y334251D01*
X155751D02*
X157751D01*
X155751Y330251D02*
Y334251D01*
Y330251D02*
X157751D01*
X177751Y266250D02*
Y270251D01*
X175751D02*
X177751D01*
X175751Y266250D02*
Y270251D01*
Y266250D02*
X177751D01*
X197751D02*
Y270251D01*
X195751D02*
X197751D01*
X195751Y266250D02*
Y270251D01*
Y266250D02*
X197751D01*
X187751D02*
Y270251D01*
X185751D02*
X187751D01*
X185751Y266250D02*
Y270251D01*
Y266250D02*
X187751D01*
X182751D02*
Y270251D01*
X180751D02*
X182751D01*
X180751Y266250D02*
Y270251D01*
Y266250D02*
X182751D01*
X162751Y306250D02*
Y310251D01*
X160751D02*
X162751D01*
X160751Y306250D02*
Y310251D01*
Y306250D02*
X162751D01*
X157751D02*
Y310251D01*
X155751D02*
X157751D01*
X155751Y306250D02*
Y310251D01*
Y306250D02*
X157751D01*
X177751Y330251D02*
Y334251D01*
X175751D02*
X177751D01*
X175751Y330251D02*
Y334251D01*
Y330251D02*
X177751D01*
X172751D02*
Y334251D01*
X170751D02*
X172751D01*
X170751Y330251D02*
Y334251D01*
Y330251D02*
X172751D01*
X162751D02*
Y334251D01*
X160751D02*
X162751D01*
X160751Y330251D02*
Y334251D01*
Y330251D02*
X162751D01*
X152751Y282250D02*
Y286251D01*
X150751D02*
X152751D01*
X150751Y282250D02*
Y286251D01*
Y282250D02*
X152751D01*
X197751Y290250D02*
Y294251D01*
X195751D02*
X197751D01*
X195751Y290250D02*
Y294251D01*
Y290250D02*
X197751D01*
X192751D02*
Y294251D01*
X190751D02*
X192751D01*
X190751Y290250D02*
Y294251D01*
Y290250D02*
X192751D01*
X177751Y306250D02*
Y310251D01*
X175751D02*
X177751D01*
X175751Y306250D02*
Y310251D01*
Y306250D02*
X177751D01*
X172751D02*
Y310251D01*
X170751D02*
X172751D01*
X170751Y306250D02*
Y310251D01*
Y306250D02*
X172751D01*
X187751Y274251D02*
Y278251D01*
X185751D02*
X187751D01*
X185751Y274251D02*
Y278251D01*
Y274251D02*
X187751D01*
X177751D02*
Y278251D01*
X175751D02*
X177751D01*
X175751Y274251D02*
Y278251D01*
Y274251D02*
X177751D01*
X162751D02*
Y278251D01*
X160751D02*
X162751D01*
X160751Y274251D02*
Y278251D01*
Y274251D02*
X162751D01*
X152751D02*
Y278251D01*
X150751D02*
X152751D01*
X150751Y274251D02*
Y278251D01*
Y274251D02*
X152751D01*
X157751Y282250D02*
Y286251D01*
X155751D02*
X157751D01*
X155751Y282250D02*
Y286251D01*
Y282250D02*
X157751D01*
X89249Y249000D02*
X90749D01*
Y246001D02*
Y249000D01*
X89249Y246001D02*
X90749D01*
X89249D02*
Y249000D01*
X169249Y248700D02*
X170749D01*
Y245701D02*
Y248700D01*
X169249Y245701D02*
X170749D01*
X169249D02*
Y248700D01*
X149249Y249000D02*
X150749D01*
Y246001D02*
Y249000D01*
X149249Y246001D02*
X150749D01*
X149249D02*
Y249000D01*
X129249D02*
X130749D01*
Y246001D02*
Y249000D01*
X129249Y246001D02*
X130749D01*
X129249D02*
Y249000D01*
X109249D02*
X110749D01*
Y246001D02*
Y249000D01*
X109249Y246001D02*
X110749D01*
X109249D02*
Y249000D01*
X89249Y267500D02*
X90749D01*
Y264501D02*
Y267500D01*
X89249Y264501D02*
X90749D01*
X89249D02*
Y267500D01*
X169249D02*
X170749D01*
Y264501D02*
Y267500D01*
X169249Y264501D02*
X170749D01*
X169249D02*
Y267500D01*
X149249D02*
X150749D01*
Y264501D02*
Y267500D01*
X149249Y264501D02*
X150749D01*
X149249D02*
Y267500D01*
X129249D02*
X130749D01*
Y264501D02*
Y267500D01*
X129249Y264501D02*
X130749D01*
X129249D02*
Y267500D01*
X109249D02*
X110749D01*
Y264501D02*
Y267500D01*
X109249Y264501D02*
X110749D01*
X109249D02*
Y267500D01*
X89249Y286500D02*
X90749D01*
Y283501D02*
Y286500D01*
X89249Y283501D02*
X90749D01*
X89249D02*
Y286500D01*
X169249D02*
X170749D01*
Y283501D02*
Y286500D01*
X169249Y283501D02*
X170749D01*
X169249D02*
Y286500D01*
X149249D02*
X150749D01*
Y283501D02*
Y286500D01*
X149249Y283501D02*
X150749D01*
X149249D02*
Y286500D01*
X129249D02*
X130749D01*
Y283501D02*
Y286500D01*
X129249Y283501D02*
X130749D01*
X129249D02*
Y286500D01*
X109249D02*
X110749D01*
Y283501D02*
Y286500D01*
X109249Y283501D02*
X110749D01*
X109249D02*
Y286500D01*
X89249Y231500D02*
X90749D01*
Y228501D02*
Y231500D01*
X89249Y228501D02*
X90749D01*
X89249D02*
Y231500D01*
X169249D02*
X170749D01*
Y228501D02*
Y231500D01*
X169249Y228501D02*
X170749D01*
X169249D02*
Y231500D01*
X149249D02*
X150749D01*
Y228501D02*
Y231500D01*
X149249Y228501D02*
X150749D01*
X149249D02*
Y231500D01*
X129249D02*
X130749D01*
Y228501D02*
Y231500D01*
X129249Y228501D02*
X130749D01*
X129249D02*
Y231500D01*
X109249D02*
X110749D01*
Y228501D02*
Y231500D01*
X109249Y228501D02*
X110749D01*
X109249D02*
Y231500D01*
X299000Y283001D02*
X300999D01*
Y287001D01*
X299000D02*
X300999D01*
X299000Y283001D02*
Y287001D01*
X278999Y283001D02*
X280999D01*
Y287001D01*
X278999D02*
X280999D01*
X278999Y283001D02*
Y287001D01*
X258999Y283001D02*
X260999D01*
Y287001D01*
X258999D02*
X260999D01*
X258999Y283001D02*
Y287001D01*
X238999Y283001D02*
X240999D01*
Y287001D01*
X238999D02*
X240999D01*
X238999Y283001D02*
Y287001D01*
X218999Y283001D02*
X220999D01*
Y287001D01*
X218999D02*
X220999D01*
X218999Y283001D02*
Y287001D01*
X299000Y265000D02*
X300999D01*
Y269001D01*
X299000D02*
X300999D01*
X299000Y265000D02*
Y269001D01*
X278999Y265000D02*
X280999D01*
Y269001D01*
X278999D02*
X280999D01*
X278999Y265000D02*
Y269001D01*
X258999Y265000D02*
X260999D01*
Y269001D01*
X258999D02*
X260999D01*
X258999Y265000D02*
Y269001D01*
X238999Y265000D02*
X240999D01*
Y269001D01*
X238999D02*
X240999D01*
X238999Y265000D02*
Y269001D01*
X218999Y265000D02*
X220999D01*
Y269001D01*
X218999D02*
X220999D01*
X218999Y265000D02*
Y269001D01*
Y246000D02*
X220999D01*
Y250001D01*
X218999D02*
X220999D01*
X218999Y246000D02*
Y250001D01*
X238999Y246000D02*
X240999D01*
Y250001D01*
X238999D02*
X240999D01*
X238999Y246000D02*
Y250001D01*
X258999Y246000D02*
X260999D01*
Y250001D01*
X258999D02*
X260999D01*
X258999Y246000D02*
Y250001D01*
X278999Y246000D02*
X280999D01*
Y250001D01*
X278999D02*
X280999D01*
X278999Y246000D02*
Y250001D01*
X299000Y246000D02*
X300999D01*
Y250001D01*
X299000D02*
X300999D01*
X299000Y246000D02*
Y250001D01*
X218999Y228001D02*
X220999D01*
Y232001D01*
X218999D02*
X220999D01*
X218999Y228001D02*
Y232001D01*
X238999Y228001D02*
X240999D01*
Y232001D01*
X238999D02*
X240999D01*
X238999Y228001D02*
Y232001D01*
X258999Y228001D02*
X260999D01*
Y232001D01*
X258999D02*
X260999D01*
X258999Y228001D02*
Y232001D01*
X278999Y228001D02*
X280999D01*
Y232001D01*
X278999D02*
X280999D01*
X278999Y228001D02*
Y232001D01*
X299000Y228001D02*
X300999D01*
Y232001D01*
X299000D02*
X300999D01*
X299000Y228001D02*
Y232001D01*
X168500Y109249D02*
Y110749D01*
X171499D01*
Y109249D02*
Y110749D01*
X168500Y109249D02*
X171499D01*
X168500Y189249D02*
Y190749D01*
X171499D01*
Y189249D02*
Y190749D01*
X168500Y189249D02*
X171499D01*
X168500Y169249D02*
Y170749D01*
X171499D01*
Y169249D02*
Y170749D01*
X168500Y169249D02*
X171499D01*
X168500Y149249D02*
Y150749D01*
X171499D01*
Y149249D02*
Y150749D01*
X168500Y149249D02*
X171499D01*
X168500Y129249D02*
Y130749D01*
X171499D01*
Y129249D02*
Y130749D01*
X168500Y129249D02*
X171499D01*
X148500Y189249D02*
Y190749D01*
X151499D01*
Y189249D02*
Y190749D01*
X148500Y189249D02*
X151499D01*
X108500Y129249D02*
Y130749D01*
X111499D01*
Y129249D02*
Y130749D01*
X108500Y129249D02*
X111499D01*
X108500Y109249D02*
Y110749D01*
X111499D01*
Y109249D02*
Y110749D01*
X108500Y109249D02*
X111499D01*
X128500Y169249D02*
Y170749D01*
X131499D01*
Y169249D02*
Y170749D01*
X128500Y169249D02*
X131499D01*
X128500Y149249D02*
Y150749D01*
X131499D01*
Y149249D02*
Y150749D01*
X128500Y149249D02*
X131499D01*
X148500Y109249D02*
Y110749D01*
X151499D01*
Y109249D02*
Y110749D01*
X148500Y109249D02*
X151499D01*
X128500D02*
Y110749D01*
X131499D01*
Y109249D02*
Y110749D01*
X128500Y109249D02*
X131499D01*
X148500Y169249D02*
Y170749D01*
X151499D01*
Y169249D02*
Y170749D01*
X148500Y169249D02*
X151499D01*
X148500Y149249D02*
Y150749D01*
X151499D01*
Y149249D02*
Y150749D01*
X148500Y149249D02*
X151499D01*
X148500Y129249D02*
Y130749D01*
X151499D01*
Y129249D02*
Y130749D01*
X148500Y129249D02*
X151499D01*
X128500D02*
Y130749D01*
X131499D01*
Y129249D02*
Y130749D01*
X128500Y129249D02*
X131499D01*
X108500Y189249D02*
Y190749D01*
X111499D01*
Y189249D02*
Y190749D01*
X108500Y189249D02*
X111499D01*
X108500Y169249D02*
Y170749D01*
X111499D01*
Y169249D02*
Y170749D01*
X108500Y169249D02*
X111499D01*
X108500Y149249D02*
Y150749D01*
X111499D01*
Y149249D02*
Y150749D01*
X108500Y149249D02*
X111499D01*
X128500Y189249D02*
Y190749D01*
X131499D01*
Y189249D02*
Y190749D01*
X128500Y189249D02*
X131499D01*
X88500Y169249D02*
Y170749D01*
X91499D01*
Y169249D02*
Y170749D01*
X88500Y169249D02*
X91499D01*
X88500Y189249D02*
Y190749D01*
X91499D01*
Y189249D02*
Y190749D01*
X88500Y189249D02*
X91499D01*
X88500Y129249D02*
Y130749D01*
X91499D01*
Y129249D02*
Y130749D01*
X88500Y129249D02*
X91499D01*
X88500Y149249D02*
Y150749D01*
X91499D01*
Y149249D02*
Y150749D01*
X88500Y149249D02*
X91499D01*
X88500Y109249D02*
Y110749D01*
X91499D01*
Y109249D02*
Y110749D01*
X88500Y109249D02*
X91499D01*
X261999Y189000D02*
Y190999D01*
X257999D02*
X261999D01*
X257999Y189000D02*
Y190999D01*
Y189000D02*
X261999D01*
Y129000D02*
Y130999D01*
X257999D02*
X261999D01*
X257999Y129000D02*
Y130999D01*
Y129000D02*
X261999D01*
Y109000D02*
Y110999D01*
X257999D02*
X261999D01*
X257999Y109000D02*
Y110999D01*
Y109000D02*
X261999D01*
X281999Y189000D02*
Y190999D01*
X277999D02*
X281999D01*
X277999Y189000D02*
Y190999D01*
Y189000D02*
X281999D01*
Y169000D02*
Y170999D01*
X277999D02*
X281999D01*
X277999Y169000D02*
Y170999D01*
Y169000D02*
X281999D01*
X241999Y189000D02*
Y190999D01*
X237999D02*
X241999D01*
X237999Y189000D02*
Y190999D01*
Y189000D02*
X241999D01*
Y169000D02*
Y170999D01*
X237999D02*
X241999D01*
X237999Y169000D02*
Y170999D01*
Y169000D02*
X241999D01*
Y148999D02*
Y150999D01*
X237999D02*
X241999D01*
X237999Y148999D02*
Y150999D01*
Y148999D02*
X241999D01*
Y129000D02*
Y130999D01*
X237999D02*
X241999D01*
X237999Y129000D02*
Y130999D01*
Y129000D02*
X241999D01*
Y109000D02*
Y110999D01*
X237999D02*
X241999D01*
X237999Y109000D02*
Y110999D01*
Y109000D02*
X241999D01*
X261999Y169000D02*
Y170999D01*
X257999D02*
X261999D01*
X257999Y169000D02*
Y170999D01*
Y169000D02*
X261999D01*
Y148999D02*
Y150999D01*
X257999D02*
X261999D01*
X257999Y148999D02*
Y150999D01*
Y148999D02*
X261999D01*
X281999D02*
Y150999D01*
X277999D02*
X281999D01*
X277999Y148999D02*
Y150999D01*
Y148999D02*
X281999D01*
Y129000D02*
Y130999D01*
X277999D02*
X281999D01*
X277999Y129000D02*
Y130999D01*
Y129000D02*
X281999D01*
Y109000D02*
Y110999D01*
X277999D02*
X281999D01*
X277999Y109000D02*
Y110999D01*
Y109000D02*
X281999D01*
X301999Y189000D02*
Y190999D01*
X297999D02*
X301999D01*
X297999Y189000D02*
Y190999D01*
Y189000D02*
X301999D01*
Y169000D02*
Y170999D01*
X297999D02*
X301999D01*
X297999Y169000D02*
Y170999D01*
Y169000D02*
X301999D01*
Y148999D02*
Y150999D01*
X297999D02*
X301999D01*
X297999Y148999D02*
Y150999D01*
Y148999D02*
X301999D01*
Y129000D02*
Y130999D01*
X297999D02*
X301999D01*
X297999Y129000D02*
Y130999D01*
Y129000D02*
X301999D01*
Y109000D02*
Y110999D01*
X297999D02*
X301999D01*
X297999Y109000D02*
Y110999D01*
Y109000D02*
X301999D01*
X221999Y189000D02*
Y190999D01*
X217999D02*
X221999D01*
X217999Y189000D02*
Y190999D01*
Y189000D02*
X221999D01*
Y169000D02*
Y170999D01*
X217999D02*
X221999D01*
X217999Y169000D02*
Y170999D01*
Y169000D02*
X221999D01*
Y148999D02*
Y150999D01*
X217999D02*
X221999D01*
X217999Y148999D02*
Y150999D01*
Y148999D02*
X221999D01*
Y129000D02*
Y130999D01*
X217999D02*
X221999D01*
X217999Y129000D02*
Y130999D01*
Y129000D02*
X221999D01*
X218001Y109001D02*
Y111001D01*
Y109001D02*
X222001D01*
Y111001D01*
X218001D02*
X222001D01*
D292*
X541001Y116300D02*
Y126701D01*
X535001D02*
X541001D01*
X535001Y116300D02*
Y126701D01*
Y116300D02*
X541001D01*
X471001Y135300D02*
Y145701D01*
X465001D02*
X471001D01*
X465001Y135300D02*
Y145701D01*
Y135300D02*
X471001D01*
X531001D02*
Y145701D01*
X525001D02*
X531001D01*
X525001Y135300D02*
Y145701D01*
Y135300D02*
X531001D01*
X481001Y116300D02*
Y126701D01*
X475001D02*
X481001D01*
X475001Y116300D02*
Y126701D01*
Y116300D02*
X481001D01*
X511001D02*
Y126701D01*
X505001D02*
X511001D01*
X505001Y116300D02*
Y126701D01*
Y116300D02*
X511001D01*
X531001D02*
Y126701D01*
X525001D02*
X531001D01*
X525001Y116300D02*
Y126701D01*
Y116300D02*
X531001D01*
X471001D02*
Y126701D01*
X465001D02*
X471001D01*
X465001Y116300D02*
Y126701D01*
Y116300D02*
X471001D01*
X501001D02*
Y126701D01*
X495001D02*
X501001D01*
X495001Y116300D02*
Y126701D01*
Y116300D02*
X501001D01*
X521001Y135300D02*
Y145701D01*
X515001D02*
X521001D01*
X515001Y135300D02*
Y145701D01*
Y135300D02*
X521001D01*
X491001Y116300D02*
Y126701D01*
X485001D02*
X491001D01*
X485001Y116300D02*
Y126701D01*
Y116300D02*
X491001D01*
X521001D02*
Y126701D01*
X515001D02*
X521001D01*
X515001Y116300D02*
Y126701D01*
Y116300D02*
X521001D01*
X511001Y135300D02*
Y145701D01*
X505001D02*
X511001D01*
X505001Y135300D02*
Y145701D01*
Y135300D02*
X511001D01*
X551001Y116300D02*
Y126701D01*
X545001D02*
X551001D01*
X545001Y116300D02*
Y126701D01*
Y116300D02*
X551001D01*
X491001Y135300D02*
Y145701D01*
X485001D02*
X491001D01*
X485001Y135300D02*
Y145701D01*
Y135300D02*
X491001D01*
X541001D02*
Y145701D01*
X535001D02*
X541001D01*
X535001Y135300D02*
Y145701D01*
Y135300D02*
X541001D01*
X561001Y116300D02*
Y126701D01*
X555001D02*
X561001D01*
X555001Y116300D02*
Y126701D01*
Y116300D02*
X561001D01*
X481001Y135300D02*
Y145701D01*
X475001D02*
X481001D01*
X475001Y135300D02*
Y145701D01*
Y135300D02*
X481001D01*
X551001D02*
Y145701D01*
X545001D02*
X551001D01*
X545001Y135300D02*
Y145701D01*
Y135300D02*
X551001D01*
X501001D02*
Y145701D01*
X495001D02*
X501001D01*
X495001Y135300D02*
Y145701D01*
Y135300D02*
X501001D01*
X561001D02*
Y145701D01*
X555001D02*
X561001D01*
X555001Y135300D02*
Y145701D01*
Y135300D02*
X561001D01*
X669501D02*
Y145701D01*
X663501D02*
X669501D01*
X663501Y135300D02*
Y145701D01*
Y135300D02*
X669501D01*
X609501D02*
Y145701D01*
X603501D02*
X609501D01*
X603501Y135300D02*
Y145701D01*
Y135300D02*
X609501D01*
X659501D02*
Y145701D01*
X653501D02*
X659501D01*
X653501Y135300D02*
Y145701D01*
Y135300D02*
X659501D01*
X589501D02*
Y145701D01*
X583501D02*
X589501D01*
X583501Y135300D02*
Y145701D01*
Y135300D02*
X589501D01*
X669501Y116300D02*
Y126701D01*
X663501D02*
X669501D01*
X663501Y116300D02*
Y126701D01*
Y116300D02*
X669501D01*
X649501Y135300D02*
Y145701D01*
X643501D02*
X649501D01*
X643501Y135300D02*
Y145701D01*
Y135300D02*
X649501D01*
X599501D02*
Y145701D01*
X593501D02*
X599501D01*
X593501Y135300D02*
Y145701D01*
Y135300D02*
X599501D01*
X659501Y116300D02*
Y126701D01*
X653501D02*
X659501D01*
X653501Y116300D02*
Y126701D01*
Y116300D02*
X659501D01*
X619501Y135300D02*
Y145701D01*
X613501D02*
X619501D01*
X613501Y135300D02*
Y145701D01*
Y135300D02*
X619501D01*
X629501Y116300D02*
Y126701D01*
X623501D02*
X629501D01*
X623501Y116300D02*
Y126701D01*
Y116300D02*
X629501D01*
X599501D02*
Y126701D01*
X593501D02*
X599501D01*
X593501Y116300D02*
Y126701D01*
Y116300D02*
X599501D01*
X629501Y135300D02*
Y145701D01*
X623501D02*
X629501D01*
X623501Y135300D02*
Y145701D01*
Y135300D02*
X629501D01*
X609501Y116300D02*
Y126701D01*
X603501D02*
X609501D01*
X603501Y116300D02*
Y126701D01*
Y116300D02*
X609501D01*
X579501D02*
Y126701D01*
X573501D02*
X579501D01*
X573501Y116300D02*
Y126701D01*
Y116300D02*
X579501D01*
X639501D02*
Y126701D01*
X633501D02*
X639501D01*
X633501Y116300D02*
Y126701D01*
Y116300D02*
X639501D01*
X619501D02*
Y126701D01*
X613501D02*
X619501D01*
X613501Y116300D02*
Y126701D01*
Y116300D02*
X619501D01*
X589501D02*
Y126701D01*
X583501D02*
X589501D01*
X583501Y116300D02*
Y126701D01*
Y116300D02*
X589501D01*
X639501Y135300D02*
Y145701D01*
X633501D02*
X639501D01*
X633501Y135300D02*
Y145701D01*
Y135300D02*
X639501D01*
X579501D02*
Y145701D01*
X573501D02*
X579501D01*
X573501Y135300D02*
Y145701D01*
Y135300D02*
X579501D01*
X649501Y116300D02*
Y126701D01*
X643501D02*
X649501D01*
X643501Y116300D02*
Y126701D01*
Y116300D02*
X649501D01*
X659501Y230800D02*
Y241201D01*
X653501D02*
X659501D01*
X653501Y230800D02*
Y241201D01*
Y230800D02*
X659501D01*
X589501Y211800D02*
Y222201D01*
X583501D02*
X589501D01*
X583501Y211800D02*
Y222201D01*
Y211800D02*
X589501D01*
X619501Y249800D02*
Y260201D01*
X613501D02*
X619501D01*
X613501Y249800D02*
Y260201D01*
Y249800D02*
X619501D01*
X649501D02*
Y260201D01*
X643501D02*
X649501D01*
X643501Y249800D02*
Y260201D01*
Y249800D02*
X649501D01*
X599501Y230800D02*
Y241201D01*
X593501D02*
X599501D01*
X593501Y230800D02*
Y241201D01*
Y230800D02*
X599501D01*
X649501D02*
Y241201D01*
X643501D02*
X649501D01*
X643501Y230800D02*
Y241201D01*
Y230800D02*
X649501D01*
X629501Y192800D02*
Y203201D01*
X623501D02*
X629501D01*
X623501Y192800D02*
Y203201D01*
Y192800D02*
X629501D01*
X649501Y154800D02*
Y165201D01*
X643501D02*
X649501D01*
X643501Y154800D02*
Y165201D01*
Y154800D02*
X649501D01*
X609501Y306800D02*
Y317201D01*
X603501D02*
X609501D01*
X603501Y306800D02*
Y317201D01*
Y306800D02*
X609501D01*
X599501Y287800D02*
Y298201D01*
X593501D02*
X599501D01*
X593501Y287800D02*
Y298201D01*
Y287800D02*
X599501D01*
X639501Y306800D02*
Y317201D01*
X633501D02*
X639501D01*
X633501Y306800D02*
Y317201D01*
Y306800D02*
X639501D01*
X579501Y173800D02*
Y184201D01*
X573501D02*
X579501D01*
X573501Y173800D02*
Y184201D01*
Y173800D02*
X579501D01*
X639501D02*
Y184201D01*
X633501D02*
X639501D01*
X633501Y173800D02*
Y184201D01*
Y173800D02*
X639501D01*
X589501Y268800D02*
Y279201D01*
X583501D02*
X589501D01*
X583501Y268800D02*
Y279201D01*
Y268800D02*
X589501D01*
X649501D02*
Y279201D01*
X643501D02*
X649501D01*
X643501Y268800D02*
Y279201D01*
Y268800D02*
X649501D01*
X589501Y154800D02*
Y165201D01*
X583501D02*
X589501D01*
X583501Y154800D02*
Y165201D01*
Y154800D02*
X589501D01*
X619501D02*
Y165201D01*
X613501D02*
X619501D01*
X613501Y154800D02*
Y165201D01*
Y154800D02*
X619501D01*
X579501Y249800D02*
Y260201D01*
X573501D02*
X579501D01*
X573501Y249800D02*
Y260201D01*
Y249800D02*
X579501D01*
X609501D02*
Y260201D01*
X603501D02*
X609501D01*
X603501Y249800D02*
Y260201D01*
Y249800D02*
X609501D01*
X629501Y325800D02*
Y336201D01*
X623501D02*
X629501D01*
X623501Y325800D02*
Y336201D01*
Y325800D02*
X629501D01*
X599501Y211800D02*
Y222201D01*
X593501D02*
X599501D01*
X593501Y211800D02*
Y222201D01*
Y211800D02*
X599501D01*
X629501D02*
Y222201D01*
X623501D02*
X629501D01*
X623501Y211800D02*
Y222201D01*
Y211800D02*
X629501D01*
X659501Y192800D02*
Y203201D01*
X653501D02*
X659501D01*
X653501Y192800D02*
Y203201D01*
Y192800D02*
X659501D01*
X579501Y306800D02*
Y317201D01*
X573501D02*
X579501D01*
X573501Y306800D02*
Y317201D01*
Y306800D02*
X579501D01*
Y287800D02*
Y298201D01*
X573501D02*
X579501D01*
X573501Y287800D02*
Y298201D01*
Y287800D02*
X579501D01*
X669501Y325800D02*
Y336201D01*
X663501D02*
X669501D01*
X663501Y325800D02*
Y336201D01*
Y325800D02*
X669501D01*
X609501Y230800D02*
Y241201D01*
X603501D02*
X609501D01*
X603501Y230800D02*
Y241201D01*
Y230800D02*
X609501D01*
X639501D02*
Y241201D01*
X633501D02*
X639501D01*
X633501Y230800D02*
Y241201D01*
Y230800D02*
X639501D01*
X659501Y287800D02*
Y298201D01*
X653501D02*
X659501D01*
X653501Y287800D02*
Y298201D01*
Y287800D02*
X659501D01*
X619501Y268800D02*
Y279201D01*
X613501D02*
X619501D01*
X613501Y268800D02*
Y279201D01*
Y268800D02*
X619501D01*
X639501Y154800D02*
Y165201D01*
X633501D02*
X639501D01*
X633501Y154800D02*
Y165201D01*
Y154800D02*
X639501D01*
X599501Y249800D02*
Y260201D01*
X593501D02*
X599501D01*
X593501Y249800D02*
Y260201D01*
Y249800D02*
X599501D01*
X659501Y249800D02*
Y260201D01*
X653501D02*
X659501D01*
X653501Y249800D02*
Y260201D01*
Y249800D02*
X659501D01*
X589501Y325800D02*
Y336201D01*
X583501D02*
X589501D01*
X583501Y325800D02*
Y336201D01*
Y325800D02*
X589501D01*
X599501D02*
Y336201D01*
X593501D02*
X599501D01*
X593501Y325800D02*
Y336201D01*
Y325800D02*
X599501D01*
X589501Y192800D02*
Y203201D01*
X583501D02*
X589501D01*
X583501Y192800D02*
Y203201D01*
Y192800D02*
X589501D01*
X579501Y154800D02*
Y165201D01*
X573501D02*
X579501D01*
X573501Y154800D02*
Y165201D01*
Y154800D02*
X579501D01*
X599501Y306800D02*
Y317201D01*
X593501D02*
X599501D01*
X593501Y306800D02*
Y317201D01*
Y306800D02*
X599501D01*
X629501Y287800D02*
Y298201D01*
X623501D02*
X629501D01*
X623501Y287800D02*
Y298201D01*
Y287800D02*
X629501D01*
X609501Y154800D02*
Y165201D01*
X603501D02*
X609501D01*
X603501Y154800D02*
Y165201D01*
Y154800D02*
X609501D01*
X629501Y230800D02*
Y241201D01*
X623501D02*
X629501D01*
X623501Y230800D02*
Y241201D01*
Y230800D02*
X629501D01*
Y173800D02*
Y184201D01*
X623501D02*
X629501D01*
X623501Y173800D02*
Y184201D01*
Y173800D02*
X629501D01*
X579501Y268800D02*
Y279201D01*
X573501D02*
X579501D01*
X573501Y268800D02*
Y279201D01*
Y268800D02*
X579501D01*
X639501D02*
Y279201D01*
X633501D02*
X639501D01*
X633501Y268800D02*
Y279201D01*
Y268800D02*
X639501D01*
X619501Y211800D02*
Y222201D01*
X613501D02*
X619501D01*
X613501Y211800D02*
Y222201D01*
Y211800D02*
X619501D01*
X669501Y249800D02*
Y260201D01*
X663501D02*
X669501D01*
X663501Y249800D02*
Y260201D01*
Y249800D02*
X669501D01*
X599501Y192800D02*
Y203201D01*
X593501D02*
X599501D01*
X593501Y192800D02*
Y203201D01*
Y192800D02*
X599501D01*
X579501Y325800D02*
Y336201D01*
X573501D02*
X579501D01*
X573501Y325800D02*
Y336201D01*
Y325800D02*
X579501D01*
X619501D02*
Y336201D01*
X613501D02*
X619501D01*
X613501Y325800D02*
Y336201D01*
Y325800D02*
X619501D01*
X659501Y306800D02*
Y317201D01*
X653501D02*
X659501D01*
X653501Y306800D02*
Y317201D01*
Y306800D02*
X659501D01*
X589501D02*
Y317201D01*
X583501D02*
X589501D01*
X583501Y306800D02*
Y317201D01*
Y306800D02*
X589501D01*
X609501Y287800D02*
Y298201D01*
X603501D02*
X609501D01*
X603501Y287800D02*
Y298201D01*
Y287800D02*
X609501D01*
X599501Y154800D02*
Y165201D01*
X593501D02*
X599501D01*
X593501Y154800D02*
Y165201D01*
Y154800D02*
X599501D01*
X629501D02*
Y165201D01*
X623501D02*
X629501D01*
X623501Y154800D02*
Y165201D01*
Y154800D02*
X629501D01*
X589501Y249800D02*
Y260201D01*
X583501D02*
X589501D01*
X583501Y249800D02*
Y260201D01*
Y249800D02*
X589501D01*
X669501Y287800D02*
Y298201D01*
X663501D02*
X669501D01*
X663501Y287800D02*
Y298201D01*
Y287800D02*
X669501D01*
X629501Y268800D02*
Y279201D01*
X623501D02*
X629501D01*
X623501Y268800D02*
Y279201D01*
Y268800D02*
X629501D01*
X609501Y211800D02*
Y222201D01*
X603501D02*
X609501D01*
X603501Y211800D02*
Y222201D01*
Y211800D02*
X609501D01*
X579501Y192800D02*
Y203201D01*
X573501D02*
X579501D01*
X573501Y192800D02*
Y203201D01*
Y192800D02*
X579501D01*
X669501D02*
Y203201D01*
X663501D02*
X669501D01*
X663501Y192800D02*
Y203201D01*
Y192800D02*
X669501D01*
X609501D02*
Y203201D01*
X603501D02*
X609501D01*
X603501Y192800D02*
Y203201D01*
Y192800D02*
X609501D01*
Y325800D02*
Y336201D01*
X603501D02*
X609501D01*
X603501Y325800D02*
Y336201D01*
Y325800D02*
X609501D01*
X649501Y306800D02*
Y317201D01*
X643501D02*
X649501D01*
X643501Y306800D02*
Y317201D01*
Y306800D02*
X649501D01*
X619501Y230800D02*
Y241201D01*
X613501D02*
X619501D01*
X613501Y230800D02*
Y241201D01*
Y230800D02*
X619501D01*
Y173800D02*
Y184201D01*
X613501D02*
X619501D01*
X613501Y173800D02*
Y184201D01*
Y173800D02*
X619501D01*
X639501Y287800D02*
Y298201D01*
X633501D02*
X639501D01*
X633501Y287800D02*
Y298201D01*
Y287800D02*
X639501D01*
X669501Y230800D02*
Y241201D01*
X663501D02*
X669501D01*
X663501Y230800D02*
Y241201D01*
Y230800D02*
X669501D01*
X639501Y211800D02*
Y222201D01*
X633501D02*
X639501D01*
X633501Y211800D02*
Y222201D01*
Y211800D02*
X639501D01*
X629501Y249800D02*
Y260201D01*
X623501D02*
X629501D01*
X623501Y249800D02*
Y260201D01*
Y249800D02*
X629501D01*
X579501Y230800D02*
Y241201D01*
X573501D02*
X579501D01*
X573501Y230800D02*
Y241201D01*
Y230800D02*
X579501D01*
X659501Y268800D02*
Y279201D01*
X653501D02*
X659501D01*
X653501Y268800D02*
Y279201D01*
Y268800D02*
X659501D01*
Y211800D02*
Y222201D01*
X653501D02*
X659501D01*
X653501Y211800D02*
Y222201D01*
Y211800D02*
X659501D01*
X639501Y192800D02*
Y203201D01*
X633501D02*
X639501D01*
X633501Y192800D02*
Y203201D01*
Y192800D02*
X639501D01*
X659501Y154800D02*
Y165201D01*
X653501D02*
X659501D01*
X653501Y154800D02*
Y165201D01*
Y154800D02*
X659501D01*
X619501Y306800D02*
Y317201D01*
X613501D02*
X619501D01*
X613501Y306800D02*
Y317201D01*
Y306800D02*
X619501D01*
X639501Y325800D02*
Y336201D01*
X633501D02*
X639501D01*
X633501Y325800D02*
Y336201D01*
Y325800D02*
X639501D01*
X669501Y306800D02*
Y317201D01*
X663501D02*
X669501D01*
X663501Y306800D02*
Y317201D01*
Y306800D02*
X669501D01*
X599501Y173800D02*
Y184201D01*
X593501D02*
X599501D01*
X593501Y173800D02*
Y184201D01*
Y173800D02*
X599501D01*
X649501D02*
Y184201D01*
X643501D02*
X649501D01*
X643501Y173800D02*
Y184201D01*
Y173800D02*
X649501D01*
X599501Y268800D02*
Y279201D01*
X593501D02*
X599501D01*
X593501Y268800D02*
Y279201D01*
Y268800D02*
X599501D01*
X579501Y211800D02*
Y222201D01*
X573501D02*
X579501D01*
X573501Y211800D02*
Y222201D01*
Y211800D02*
X579501D01*
X649501D02*
Y222201D01*
X643501D02*
X649501D01*
X643501Y211800D02*
Y222201D01*
Y211800D02*
X649501D01*
X639501Y249800D02*
Y260201D01*
X633501D02*
X639501D01*
X633501Y249800D02*
Y260201D01*
Y249800D02*
X639501D01*
X589501Y230800D02*
Y241201D01*
X583501D02*
X589501D01*
X583501Y230800D02*
Y241201D01*
Y230800D02*
X589501D01*
X619501Y192800D02*
Y203201D01*
X613501D02*
X619501D01*
X613501Y192800D02*
Y203201D01*
Y192800D02*
X619501D01*
X669501Y211800D02*
Y222201D01*
X663501D02*
X669501D01*
X663501Y211800D02*
Y222201D01*
Y211800D02*
X669501D01*
X649501Y192800D02*
Y203201D01*
X643501D02*
X649501D01*
X643501Y192800D02*
Y203201D01*
Y192800D02*
X649501D01*
X669501Y154800D02*
Y165201D01*
X663501D02*
X669501D01*
X663501Y154800D02*
Y165201D01*
Y154800D02*
X669501D01*
X629501Y306800D02*
Y317201D01*
X623501D02*
X629501D01*
X623501Y306800D02*
Y317201D01*
Y306800D02*
X629501D01*
X649501Y287800D02*
Y298201D01*
X643501D02*
X649501D01*
X643501Y287800D02*
Y298201D01*
Y287800D02*
X649501D01*
X589501D02*
Y298201D01*
X583501D02*
X589501D01*
X583501Y287800D02*
Y298201D01*
Y287800D02*
X589501D01*
Y173800D02*
Y184201D01*
X583501D02*
X589501D01*
X583501Y173800D02*
Y184201D01*
Y173800D02*
X589501D01*
X659501D02*
Y184201D01*
X653501D02*
X659501D01*
X653501Y173800D02*
Y184201D01*
Y173800D02*
X659501D01*
X609501Y268800D02*
Y279201D01*
X603501D02*
X609501D01*
X603501Y268800D02*
Y279201D01*
Y268800D02*
X609501D01*
X669501D02*
Y279201D01*
X663501D02*
X669501D01*
X663501Y268800D02*
Y279201D01*
Y268800D02*
X669501D01*
X659501Y325800D02*
Y336201D01*
X653501D02*
X659501D01*
X653501Y325800D02*
Y336201D01*
Y325800D02*
X659501D01*
X619501Y287800D02*
Y298201D01*
X613501D02*
X619501D01*
X613501Y287800D02*
Y298201D01*
Y287800D02*
X619501D01*
X609501Y173800D02*
Y184201D01*
X603501D02*
X609501D01*
X603501Y173800D02*
Y184201D01*
Y173800D02*
X609501D01*
X669501D02*
Y184201D01*
X663501D02*
X669501D01*
X663501Y173800D02*
Y184201D01*
Y173800D02*
X669501D01*
X649501Y325800D02*
Y336201D01*
X643501D02*
X649501D01*
X643501Y325800D02*
Y336201D01*
Y325800D02*
X649501D01*
X378750Y165001D02*
Y171001D01*
X375751D02*
X378750D01*
X375751Y165001D02*
Y171001D01*
Y165001D02*
X378750D01*
X396750Y198001D02*
Y204001D01*
X393751D02*
X396750D01*
X393751Y198001D02*
Y204001D01*
Y198001D02*
X396750D01*
X372750Y176001D02*
Y182001D01*
X369751D02*
X372750D01*
X369751Y176001D02*
Y182001D01*
Y176001D02*
X372750D01*
X366750D02*
Y182001D01*
X363751D02*
X366750D01*
X363751Y176001D02*
Y182001D01*
Y176001D02*
X366750D01*
X420750Y198001D02*
Y204001D01*
X417751D02*
X420750D01*
X417751Y198001D02*
Y204001D01*
Y198001D02*
X420750D01*
X378750Y110001D02*
Y116001D01*
X375751D02*
X378750D01*
X375751Y110001D02*
Y116001D01*
Y110001D02*
X378750D01*
X402750D02*
Y116001D01*
X399751D02*
X402750D01*
X399751Y110001D02*
Y116001D01*
Y110001D02*
X402750D01*
X408750D02*
Y116001D01*
X405751D02*
X408750D01*
X405751Y110001D02*
Y116001D01*
Y110001D02*
X408750D01*
X390750Y165001D02*
Y171001D01*
X387751D02*
X390750D01*
X387751Y165001D02*
Y171001D01*
Y165001D02*
X390750D01*
X384750D02*
Y171001D01*
X381751D02*
X384750D01*
X381751Y165001D02*
Y171001D01*
Y165001D02*
X384750D01*
X414750Y176001D02*
Y182001D01*
X411751D02*
X414750D01*
X411751Y176001D02*
Y182001D01*
Y176001D02*
X414750D01*
X408750D02*
Y182001D01*
X405751D02*
X408750D01*
X405751Y176001D02*
Y182001D01*
Y176001D02*
X408750D01*
X420750Y187001D02*
Y193001D01*
X417751D02*
X420750D01*
X417751Y187001D02*
Y193001D01*
Y187001D02*
X420750D01*
X414750D02*
Y193001D01*
X411751D02*
X414750D01*
X411751Y187001D02*
Y193001D01*
Y187001D02*
X414750D01*
X408750Y198001D02*
Y204001D01*
X405751D02*
X408750D01*
X405751Y198001D02*
Y204001D01*
Y198001D02*
X408750D01*
X384750Y110001D02*
Y116001D01*
X381751D02*
X384750D01*
X381751Y110001D02*
Y116001D01*
Y110001D02*
X384750D01*
X396750D02*
Y116001D01*
X393751D02*
X396750D01*
X393751Y110001D02*
Y116001D01*
Y110001D02*
X396750D01*
X414750D02*
Y116001D01*
X411751D02*
X414750D01*
X411751Y110001D02*
Y116001D01*
Y110001D02*
X414750D01*
X396750Y165001D02*
Y171001D01*
X393751D02*
X396750D01*
X393751Y165001D02*
Y171001D01*
Y165001D02*
X396750D01*
X372750D02*
Y171001D01*
X369751D02*
X372750D01*
X369751Y165001D02*
Y171001D01*
Y165001D02*
X372750D01*
X402750Y176001D02*
Y182001D01*
X399751D02*
X402750D01*
X399751Y176001D02*
Y182001D01*
Y176001D02*
X402750D01*
X396750D02*
Y182001D01*
X393751D02*
X396750D01*
X393751Y176001D02*
Y182001D01*
Y176001D02*
X396750D01*
Y187001D02*
Y193001D01*
X393751D02*
X396750D01*
X393751Y187001D02*
Y193001D01*
Y187001D02*
X396750D01*
X390750D02*
Y193001D01*
X387751D02*
X390750D01*
X387751Y187001D02*
Y193001D01*
Y187001D02*
X390750D01*
X372750D02*
Y193001D01*
X369751D02*
X372750D01*
X369751Y187001D02*
Y193001D01*
Y187001D02*
X372750D01*
X366750Y110001D02*
Y116001D01*
X363751D02*
X366750D01*
X363751Y110001D02*
Y116001D01*
Y110001D02*
X366750D01*
X390750D02*
Y116001D01*
X387751D02*
X390750D01*
X387751Y110001D02*
Y116001D01*
Y110001D02*
X390750D01*
X420750D02*
Y116001D01*
X417751D02*
X420750D01*
X417751Y110001D02*
Y116001D01*
Y110001D02*
X420750D01*
X366750Y165001D02*
Y171001D01*
X363751D02*
X366750D01*
X363751Y165001D02*
Y171001D01*
Y165001D02*
X366750D01*
X420750Y176001D02*
Y182001D01*
X417751D02*
X420750D01*
X417751Y176001D02*
Y182001D01*
Y176001D02*
X420750D01*
X378750D02*
Y182001D01*
X375751D02*
X378750D01*
X375751Y176001D02*
Y182001D01*
Y176001D02*
X378750D01*
X408750Y187001D02*
Y193001D01*
X405751D02*
X408750D01*
X405751Y187001D02*
Y193001D01*
Y187001D02*
X408750D01*
X384750D02*
Y193001D01*
X381751D02*
X384750D01*
X381751Y187001D02*
Y193001D01*
Y187001D02*
X384750D01*
X414750Y198001D02*
Y204001D01*
X411751D02*
X414750D01*
X411751Y198001D02*
Y204001D01*
Y198001D02*
X414750D01*
X402750D02*
Y204001D01*
X399751D02*
X402750D01*
X399751Y198001D02*
Y204001D01*
Y198001D02*
X402750D01*
X420750Y121001D02*
Y127001D01*
X417751D02*
X420750D01*
X417751Y121001D02*
Y127001D01*
Y121001D02*
X420750D01*
X414750D02*
Y127001D01*
X411751D02*
X414750D01*
X411751Y121001D02*
Y127001D01*
Y121001D02*
X414750D01*
X372750Y110001D02*
Y116001D01*
X369751D02*
X372750D01*
X369751Y110001D02*
Y116001D01*
Y110001D02*
X372750D01*
X390750Y176001D02*
Y182001D01*
X387751D02*
X390750D01*
X387751Y176001D02*
Y182001D01*
Y176001D02*
X390750D01*
X384750D02*
Y182001D01*
X381751D02*
X384750D01*
X381751Y176001D02*
Y182001D01*
Y176001D02*
X384750D01*
X420750Y165001D02*
Y171001D01*
X417751D02*
X420750D01*
X417751Y165001D02*
Y171001D01*
Y165001D02*
X420750D01*
X402750D02*
Y171001D01*
X399751D02*
X402750D01*
X399751Y165001D02*
Y171001D01*
Y165001D02*
X402750D01*
X378750Y209001D02*
Y215001D01*
X375751D02*
X378750D01*
X375751Y209001D02*
Y215001D01*
Y209001D02*
X378750D01*
X372750D02*
Y215001D01*
X369751D02*
X372750D01*
X369751Y209001D02*
Y215001D01*
Y209001D02*
X372750D01*
X366750D02*
Y215001D01*
X363751D02*
X366750D01*
X363751Y209001D02*
Y215001D01*
Y209001D02*
X366750D01*
X378750Y132001D02*
Y138001D01*
X375751D02*
X378750D01*
X375751Y132001D02*
Y138001D01*
Y132001D02*
X378750D01*
X396750Y143001D02*
Y149001D01*
X393751D02*
X396750D01*
X393751Y143001D02*
Y149001D01*
Y143001D02*
X396750D01*
X366750D02*
Y149001D01*
X363751D02*
X366750D01*
X363751Y143001D02*
Y149001D01*
Y143001D02*
X366750D01*
X372750D02*
Y149001D01*
X369751D02*
X372750D01*
X369751Y143001D02*
Y149001D01*
Y143001D02*
X372750D01*
X396750Y154001D02*
Y160001D01*
X393751D02*
X396750D01*
X393751Y154001D02*
Y160001D01*
Y154001D02*
X396750D01*
X366750D02*
Y160001D01*
X363751D02*
X366750D01*
X363751Y154001D02*
Y160001D01*
Y154001D02*
X366750D01*
X408750Y165001D02*
Y171001D01*
X405751D02*
X408750D01*
X405751Y165001D02*
Y171001D01*
Y165001D02*
X408750D01*
Y209001D02*
Y215001D01*
X405751D02*
X408750D01*
X405751Y209001D02*
Y215001D01*
Y209001D02*
X408750D01*
X384750D02*
Y215001D01*
X381751D02*
X384750D01*
X381751Y209001D02*
Y215001D01*
Y209001D02*
X384750D01*
X390750D02*
Y215001D01*
X387751D02*
X390750D01*
X387751Y209001D02*
Y215001D01*
Y209001D02*
X390750D01*
X402750Y143001D02*
Y149001D01*
X399751D02*
X402750D01*
X399751Y143001D02*
Y149001D01*
Y143001D02*
X402750D01*
X420750D02*
Y149001D01*
X417751D02*
X420750D01*
X417751Y143001D02*
Y149001D01*
Y143001D02*
X420750D01*
X390750D02*
Y149001D01*
X387751D02*
X390750D01*
X387751Y143001D02*
Y149001D01*
Y143001D02*
X390750D01*
X378750D02*
Y149001D01*
X375751D02*
X378750D01*
X375751Y143001D02*
Y149001D01*
Y143001D02*
X378750D01*
X402750Y154001D02*
Y160001D01*
X399751D02*
X402750D01*
X399751Y154001D02*
Y160001D01*
Y154001D02*
X402750D01*
X378750D02*
Y160001D01*
X375751D02*
X378750D01*
X375751Y154001D02*
Y160001D01*
Y154001D02*
X378750D01*
X414750Y165001D02*
Y171001D01*
X411751D02*
X414750D01*
X411751Y165001D02*
Y171001D01*
Y165001D02*
X414750D01*
Y209001D02*
Y215001D01*
X411751D02*
X414750D01*
X411751Y209001D02*
Y215001D01*
Y209001D02*
X414750D01*
X402750D02*
Y215001D01*
X399751D02*
X402750D01*
X399751Y209001D02*
Y215001D01*
Y209001D02*
X402750D01*
X396750D02*
Y215001D01*
X393751D02*
X396750D01*
X393751Y209001D02*
Y215001D01*
Y209001D02*
X396750D01*
Y132001D02*
Y138001D01*
X393751D02*
X396750D01*
X393751Y132001D02*
Y138001D01*
Y132001D02*
X396750D01*
X384750D02*
Y138001D01*
X381751D02*
X384750D01*
X381751Y132001D02*
Y138001D01*
Y132001D02*
X384750D01*
X390750D02*
Y138001D01*
X387751D02*
X390750D01*
X387751Y132001D02*
Y138001D01*
Y132001D02*
X390750D01*
X366750D02*
Y138001D01*
X363751D02*
X366750D01*
X363751Y132001D02*
Y138001D01*
Y132001D02*
X366750D01*
X408750Y154001D02*
Y160001D01*
X405751D02*
X408750D01*
X405751Y154001D02*
Y160001D01*
Y154001D02*
X408750D01*
X390750D02*
Y160001D01*
X387751D02*
X390750D01*
X387751Y154001D02*
Y160001D01*
Y154001D02*
X390750D01*
X372750D02*
Y160001D01*
X369751D02*
X372750D01*
X369751Y154001D02*
Y160001D01*
Y154001D02*
X372750D01*
X366750Y198001D02*
Y204001D01*
X363751D02*
X366750D01*
X363751Y198001D02*
Y204001D01*
Y198001D02*
X366750D01*
X372750D02*
Y204001D01*
X369751D02*
X372750D01*
X369751Y198001D02*
Y204001D01*
Y198001D02*
X372750D01*
X420750Y209001D02*
Y215001D01*
X417751D02*
X420750D01*
X417751Y209001D02*
Y215001D01*
Y209001D02*
X420750D01*
X396750Y121001D02*
Y127001D01*
X393751D02*
X396750D01*
X393751Y121001D02*
Y127001D01*
Y121001D02*
X396750D01*
X420750Y132001D02*
Y138001D01*
X417751D02*
X420750D01*
X417751Y132001D02*
Y138001D01*
Y132001D02*
X420750D01*
X408750D02*
Y138001D01*
X405751D02*
X408750D01*
X405751Y132001D02*
Y138001D01*
Y132001D02*
X408750D01*
X378750Y121001D02*
Y127001D01*
X375751D02*
X378750D01*
X375751Y121001D02*
Y127001D01*
Y121001D02*
X378750D01*
X414750Y154001D02*
Y160001D01*
X411751D02*
X414750D01*
X411751Y154001D02*
Y160001D01*
Y154001D02*
X414750D01*
X420750D02*
Y160001D01*
X417751D02*
X420750D01*
X417751Y154001D02*
Y160001D01*
Y154001D02*
X420750D01*
X384750D02*
Y160001D01*
X381751D02*
X384750D01*
X381751Y154001D02*
Y160001D01*
Y154001D02*
X384750D01*
X390750Y198001D02*
Y204001D01*
X387751D02*
X390750D01*
X387751Y198001D02*
Y204001D01*
Y198001D02*
X390750D01*
X384750D02*
Y204001D01*
X381751D02*
X384750D01*
X381751Y198001D02*
Y204001D01*
Y198001D02*
X384750D01*
X378750D02*
Y204001D01*
X375751D02*
X378750D01*
X375751Y198001D02*
Y204001D01*
Y198001D02*
X378750D01*
X408750Y121001D02*
Y127001D01*
X405751D02*
X408750D01*
X405751Y121001D02*
Y127001D01*
Y121001D02*
X408750D01*
X366750D02*
Y127001D01*
X363751D02*
X366750D01*
X363751Y121001D02*
Y127001D01*
Y121001D02*
X366750D01*
X414750Y132001D02*
Y138001D01*
X411751D02*
X414750D01*
X411751Y132001D02*
Y138001D01*
Y132001D02*
X414750D01*
X384750Y121001D02*
Y127001D01*
X381751D02*
X384750D01*
X381751Y121001D02*
Y127001D01*
Y121001D02*
X384750D01*
Y143001D02*
Y149001D01*
X381751D02*
X384750D01*
X381751Y143001D02*
Y149001D01*
Y143001D02*
X384750D01*
X372750Y132001D02*
Y138001D01*
X369751D02*
X372750D01*
X369751Y132001D02*
Y138001D01*
Y132001D02*
X372750D01*
X408750Y143001D02*
Y149001D01*
X405751D02*
X408750D01*
X405751Y143001D02*
Y149001D01*
Y143001D02*
X408750D01*
X402750Y187001D02*
Y193001D01*
X399751D02*
X402750D01*
X399751Y187001D02*
Y193001D01*
Y187001D02*
X402750D01*
X378750D02*
Y193001D01*
X375751D02*
X378750D01*
X375751Y187001D02*
Y193001D01*
Y187001D02*
X378750D01*
X366750D02*
Y193001D01*
X363751D02*
X366750D01*
X363751Y187001D02*
Y193001D01*
Y187001D02*
X366750D01*
X402750Y121001D02*
Y127001D01*
X399751D02*
X402750D01*
X399751Y121001D02*
Y127001D01*
Y121001D02*
X402750D01*
X372750D02*
Y127001D01*
X369751D02*
X372750D01*
X369751Y121001D02*
Y127001D01*
Y121001D02*
X372750D01*
X402750Y132001D02*
Y138001D01*
X399751D02*
X402750D01*
X399751Y132001D02*
Y138001D01*
Y132001D02*
X402750D01*
X390750Y121001D02*
Y127001D01*
X387751D02*
X390750D01*
X387751Y121001D02*
Y127001D01*
Y121001D02*
X390750D01*
X414750Y143001D02*
Y149001D01*
X411751D02*
X414750D01*
X411751Y143001D02*
Y149001D01*
Y143001D02*
X414750D01*
X345750D02*
Y149001D01*
X342751D02*
X345750D01*
X342751Y143001D02*
Y149001D01*
Y143001D02*
X345750D01*
X321750Y121001D02*
Y127001D01*
X318751D02*
X321750D01*
X318751Y121001D02*
Y127001D01*
Y121001D02*
X321750D01*
X333750Y132001D02*
Y138001D01*
X330751D02*
X333750D01*
X330751Y132001D02*
Y138001D01*
Y132001D02*
X333750D01*
X303750Y121001D02*
Y127001D01*
X300751D02*
X303750D01*
X300751Y121001D02*
Y127001D01*
Y121001D02*
X303750D01*
X333750D02*
Y127001D01*
X330751D02*
X333750D01*
X330751Y121001D02*
Y127001D01*
Y121001D02*
X333750D01*
X297750Y187001D02*
Y193001D01*
X294751D02*
X297750D01*
X294751Y187001D02*
Y193001D01*
Y187001D02*
X297750D01*
X309750D02*
Y193001D01*
X306751D02*
X309750D01*
X306751Y187001D02*
Y193001D01*
Y187001D02*
X309750D01*
X333750D02*
Y193001D01*
X330751D02*
X333750D01*
X330751Y187001D02*
Y193001D01*
Y187001D02*
X333750D01*
X339750Y143001D02*
Y149001D01*
X336751D02*
X339750D01*
X336751Y143001D02*
Y149001D01*
Y143001D02*
X339750D01*
X303750Y132001D02*
Y138001D01*
X300751D02*
X303750D01*
X300751Y132001D02*
Y138001D01*
Y132001D02*
X303750D01*
X315750Y143001D02*
Y149001D01*
X312751D02*
X315750D01*
X312751Y143001D02*
Y149001D01*
Y143001D02*
X315750D01*
Y121001D02*
Y127001D01*
X312751D02*
X315750D01*
X312751Y121001D02*
Y127001D01*
Y121001D02*
X315750D01*
X345750Y132001D02*
Y138001D01*
X342751D02*
X345750D01*
X342751Y132001D02*
Y138001D01*
Y132001D02*
X345750D01*
X297750Y121001D02*
Y127001D01*
X294751D02*
X297750D01*
X294751Y121001D02*
Y127001D01*
Y121001D02*
X297750D01*
X339750D02*
Y127001D01*
X336751D02*
X339750D01*
X336751Y121001D02*
Y127001D01*
Y121001D02*
X339750D01*
X309750Y198001D02*
Y204001D01*
X306751D02*
X309750D01*
X306751Y198001D02*
Y204001D01*
Y198001D02*
X309750D01*
X315750D02*
Y204001D01*
X312751D02*
X315750D01*
X312751Y198001D02*
Y204001D01*
Y198001D02*
X315750D01*
X321750D02*
Y204001D01*
X318751D02*
X321750D01*
X318751Y198001D02*
Y204001D01*
Y198001D02*
X321750D01*
X315750Y154001D02*
Y160001D01*
X312751D02*
X315750D01*
X312751Y154001D02*
Y160001D01*
Y154001D02*
X315750D01*
X351750D02*
Y160001D01*
X348751D02*
X351750D01*
X348751Y154001D02*
Y160001D01*
Y154001D02*
X351750D01*
X345750D02*
Y160001D01*
X342751D02*
X345750D01*
X342751Y154001D02*
Y160001D01*
Y154001D02*
X345750D01*
X309750Y121001D02*
Y127001D01*
X306751D02*
X309750D01*
X306751Y121001D02*
Y127001D01*
Y121001D02*
X309750D01*
X339750Y132001D02*
Y138001D01*
X336751D02*
X339750D01*
X336751Y132001D02*
Y138001D01*
Y132001D02*
X339750D01*
X351750D02*
Y138001D01*
X348751D02*
X351750D01*
X348751Y132001D02*
Y138001D01*
Y132001D02*
X351750D01*
X327750Y121001D02*
Y127001D01*
X324751D02*
X327750D01*
X324751Y121001D02*
Y127001D01*
Y121001D02*
X327750D01*
X351750Y209001D02*
Y215001D01*
X348751D02*
X351750D01*
X348751Y209001D02*
Y215001D01*
Y209001D02*
X351750D01*
X303750Y198001D02*
Y204001D01*
X300751D02*
X303750D01*
X300751Y198001D02*
Y204001D01*
Y198001D02*
X303750D01*
X297750D02*
Y204001D01*
X294751D02*
X297750D01*
X294751Y198001D02*
Y204001D01*
Y198001D02*
X297750D01*
X303750Y154001D02*
Y160001D01*
X300751D02*
X303750D01*
X300751Y154001D02*
Y160001D01*
Y154001D02*
X303750D01*
X321750D02*
Y160001D01*
X318751D02*
X321750D01*
X318751Y154001D02*
Y160001D01*
Y154001D02*
X321750D01*
X339750D02*
Y160001D01*
X336751D02*
X339750D01*
X336751Y154001D02*
Y160001D01*
Y154001D02*
X339750D01*
X297750Y132001D02*
Y138001D01*
X294751D02*
X297750D01*
X294751Y132001D02*
Y138001D01*
Y132001D02*
X297750D01*
X321750D02*
Y138001D01*
X318751D02*
X321750D01*
X318751Y132001D02*
Y138001D01*
Y132001D02*
X321750D01*
X315750D02*
Y138001D01*
X312751D02*
X315750D01*
X312751Y132001D02*
Y138001D01*
Y132001D02*
X315750D01*
X327750D02*
Y138001D01*
X324751D02*
X327750D01*
X324751Y132001D02*
Y138001D01*
Y132001D02*
X327750D01*
Y209001D02*
Y215001D01*
X324751D02*
X327750D01*
X324751Y209001D02*
Y215001D01*
Y209001D02*
X327750D01*
X333750D02*
Y215001D01*
X330751D02*
X333750D01*
X330751Y209001D02*
Y215001D01*
Y209001D02*
X333750D01*
X345750D02*
Y215001D01*
X342751D02*
X345750D01*
X342751Y209001D02*
Y215001D01*
Y209001D02*
X345750D01*
Y165001D02*
Y171001D01*
X342751D02*
X345750D01*
X342751Y165001D02*
Y171001D01*
Y165001D02*
X345750D01*
X309750Y154001D02*
Y160001D01*
X306751D02*
X309750D01*
X306751Y154001D02*
Y160001D01*
Y154001D02*
X309750D01*
X333750D02*
Y160001D01*
X330751D02*
X333750D01*
X330751Y154001D02*
Y160001D01*
Y154001D02*
X333750D01*
X309750Y143001D02*
Y149001D01*
X306751D02*
X309750D01*
X306751Y143001D02*
Y149001D01*
Y143001D02*
X309750D01*
X321750D02*
Y149001D01*
X318751D02*
X321750D01*
X318751Y143001D02*
Y149001D01*
Y143001D02*
X321750D01*
X351750D02*
Y149001D01*
X348751D02*
X351750D01*
X348751Y143001D02*
Y149001D01*
Y143001D02*
X351750D01*
X333750D02*
Y149001D01*
X330751D02*
X333750D01*
X330751Y143001D02*
Y149001D01*
Y143001D02*
X333750D01*
X321750Y209001D02*
Y215001D01*
X318751D02*
X321750D01*
X318751Y209001D02*
Y215001D01*
Y209001D02*
X321750D01*
X315750D02*
Y215001D01*
X312751D02*
X315750D01*
X312751Y209001D02*
Y215001D01*
Y209001D02*
X315750D01*
X339750D02*
Y215001D01*
X336751D02*
X339750D01*
X336751Y209001D02*
Y215001D01*
Y209001D02*
X339750D01*
Y165001D02*
Y171001D01*
X336751D02*
X339750D01*
X336751Y165001D02*
Y171001D01*
Y165001D02*
X339750D01*
X297750Y154001D02*
Y160001D01*
X294751D02*
X297750D01*
X294751Y154001D02*
Y160001D01*
Y154001D02*
X297750D01*
X327750D02*
Y160001D01*
X324751D02*
X327750D01*
X324751Y154001D02*
Y160001D01*
Y154001D02*
X327750D01*
X303750Y143001D02*
Y149001D01*
X300751D02*
X303750D01*
X300751Y143001D02*
Y149001D01*
Y143001D02*
X303750D01*
X297750D02*
Y149001D01*
X294751D02*
X297750D01*
X294751Y143001D02*
Y149001D01*
Y143001D02*
X297750D01*
X327750D02*
Y149001D01*
X324751D02*
X327750D01*
X324751Y143001D02*
Y149001D01*
Y143001D02*
X327750D01*
X309750Y132001D02*
Y138001D01*
X306751D02*
X309750D01*
X306751Y132001D02*
Y138001D01*
Y132001D02*
X309750D01*
X297750Y209001D02*
Y215001D01*
X294751D02*
X297750D01*
X294751Y209001D02*
Y215001D01*
Y209001D02*
X297750D01*
X303750D02*
Y215001D01*
X300751D02*
X303750D01*
X300751Y209001D02*
Y215001D01*
Y209001D02*
X303750D01*
X309750D02*
Y215001D01*
X306751D02*
X309750D01*
X306751Y209001D02*
Y215001D01*
Y209001D02*
X309750D01*
X333750Y165001D02*
Y171001D01*
X330751D02*
X333750D01*
X330751Y165001D02*
Y171001D01*
Y165001D02*
X333750D01*
X351750D02*
Y171001D01*
X348751D02*
X351750D01*
X348751Y165001D02*
Y171001D01*
Y165001D02*
X351750D01*
X315750Y176001D02*
Y182001D01*
X312751D02*
X315750D01*
X312751Y176001D02*
Y182001D01*
Y176001D02*
X315750D01*
X321750D02*
Y182001D01*
X318751D02*
X321750D01*
X318751Y176001D02*
Y182001D01*
Y176001D02*
X321750D01*
X303750Y110001D02*
Y116001D01*
X300751D02*
X303750D01*
X300751Y110001D02*
Y116001D01*
Y110001D02*
X303750D01*
X345750Y121001D02*
Y127001D01*
X342751D02*
X345750D01*
X342751Y121001D02*
Y127001D01*
Y121001D02*
X345750D01*
X351750D02*
Y127001D01*
X348751D02*
X351750D01*
X348751Y121001D02*
Y127001D01*
Y121001D02*
X351750D01*
X333750Y198001D02*
Y204001D01*
X330751D02*
X333750D01*
X330751Y198001D02*
Y204001D01*
Y198001D02*
X333750D01*
X345750D02*
Y204001D01*
X342751D02*
X345750D01*
X342751Y198001D02*
Y204001D01*
Y198001D02*
X345750D01*
X315750Y187001D02*
Y193001D01*
X312751D02*
X315750D01*
X312751Y187001D02*
Y193001D01*
Y187001D02*
X315750D01*
X339750D02*
Y193001D01*
X336751D02*
X339750D01*
X336751Y187001D02*
Y193001D01*
Y187001D02*
X339750D01*
X309750Y176001D02*
Y182001D01*
X306751D02*
X309750D01*
X306751Y176001D02*
Y182001D01*
Y176001D02*
X309750D01*
X351750D02*
Y182001D01*
X348751D02*
X351750D01*
X348751Y176001D02*
Y182001D01*
Y176001D02*
X351750D01*
X297750Y165001D02*
Y171001D01*
X294751D02*
X297750D01*
X294751Y165001D02*
Y171001D01*
Y165001D02*
X297750D01*
X351750Y110001D02*
Y116001D01*
X348751D02*
X351750D01*
X348751Y110001D02*
Y116001D01*
Y110001D02*
X351750D01*
X321750D02*
Y116001D01*
X318751D02*
X321750D01*
X318751Y110001D02*
Y116001D01*
Y110001D02*
X321750D01*
X297750D02*
Y116001D01*
X294751D02*
X297750D01*
X294751Y110001D02*
Y116001D01*
Y110001D02*
X297750D01*
X303750Y187001D02*
Y193001D01*
X300751D02*
X303750D01*
X300751Y187001D02*
Y193001D01*
Y187001D02*
X303750D01*
X321750D02*
Y193001D01*
X318751D02*
X321750D01*
X318751Y187001D02*
Y193001D01*
Y187001D02*
X321750D01*
X327750D02*
Y193001D01*
X324751D02*
X327750D01*
X324751Y187001D02*
Y193001D01*
Y187001D02*
X327750D01*
Y176001D02*
Y182001D01*
X324751D02*
X327750D01*
X324751Y176001D02*
Y182001D01*
Y176001D02*
X327750D01*
X333750D02*
Y182001D01*
X330751D02*
X333750D01*
X330751Y176001D02*
Y182001D01*
Y176001D02*
X333750D01*
X303750Y165001D02*
Y171001D01*
X300751D02*
X303750D01*
X300751Y165001D02*
Y171001D01*
Y165001D02*
X303750D01*
X327750D02*
Y171001D01*
X324751D02*
X327750D01*
X324751Y165001D02*
Y171001D01*
Y165001D02*
X327750D01*
X345750Y110001D02*
Y116001D01*
X342751D02*
X345750D01*
X342751Y110001D02*
Y116001D01*
Y110001D02*
X345750D01*
X327750D02*
Y116001D01*
X324751D02*
X327750D01*
X324751Y110001D02*
Y116001D01*
Y110001D02*
X327750D01*
X315750D02*
Y116001D01*
X312751D02*
X315750D01*
X312751Y110001D02*
Y116001D01*
Y110001D02*
X315750D01*
X339750Y198001D02*
Y204001D01*
X336751D02*
X339750D01*
X336751Y198001D02*
Y204001D01*
Y198001D02*
X339750D01*
X345750Y187001D02*
Y193001D01*
X342751D02*
X345750D01*
X342751Y187001D02*
Y193001D01*
Y187001D02*
X345750D01*
X351750D02*
Y193001D01*
X348751D02*
X351750D01*
X348751Y187001D02*
Y193001D01*
Y187001D02*
X351750D01*
X339750Y176001D02*
Y182001D01*
X336751D02*
X339750D01*
X336751Y176001D02*
Y182001D01*
Y176001D02*
X339750D01*
X345750D02*
Y182001D01*
X342751D02*
X345750D01*
X342751Y176001D02*
Y182001D01*
Y176001D02*
X345750D01*
X315750Y165001D02*
Y171001D01*
X312751D02*
X315750D01*
X312751Y165001D02*
Y171001D01*
Y165001D02*
X315750D01*
X321750D02*
Y171001D01*
X318751D02*
X321750D01*
X318751Y165001D02*
Y171001D01*
Y165001D02*
X321750D01*
X339750Y110001D02*
Y116001D01*
X336751D02*
X339750D01*
X336751Y110001D02*
Y116001D01*
Y110001D02*
X339750D01*
X333750D02*
Y116001D01*
X330751D02*
X333750D01*
X330751Y110001D02*
Y116001D01*
Y110001D02*
X333750D01*
X309750D02*
Y116001D01*
X306751D02*
X309750D01*
X306751Y110001D02*
Y116001D01*
Y110001D02*
X309750D01*
X351750Y198001D02*
Y204001D01*
X348751D02*
X351750D01*
X348751Y198001D02*
Y204001D01*
Y198001D02*
X351750D01*
X297750Y176001D02*
Y182001D01*
X294751D02*
X297750D01*
X294751Y176001D02*
Y182001D01*
Y176001D02*
X297750D01*
X303750D02*
Y182001D01*
X300751D02*
X303750D01*
X300751Y176001D02*
Y182001D01*
Y176001D02*
X303750D01*
X327750Y198001D02*
Y204001D01*
X324751D02*
X327750D01*
X324751Y198001D02*
Y204001D01*
Y198001D02*
X327750D01*
X309750Y165001D02*
Y171001D01*
X306751D02*
X309750D01*
X306751Y165001D02*
Y171001D01*
Y165001D02*
X309750D01*
X414750Y269501D02*
Y275501D01*
X411751D02*
X414750D01*
X411751Y269501D02*
Y275501D01*
Y269501D02*
X414750D01*
X390750Y247501D02*
Y253501D01*
X387751D02*
X390750D01*
X387751Y247501D02*
Y253501D01*
Y247501D02*
X390750D01*
X402750Y258501D02*
Y264501D01*
X399751D02*
X402750D01*
X399751Y258501D02*
Y264501D01*
Y258501D02*
X402750D01*
X372750Y247501D02*
Y253501D01*
X369751D02*
X372750D01*
X369751Y247501D02*
Y253501D01*
Y247501D02*
X372750D01*
X402750D02*
Y253501D01*
X399751D02*
X402750D01*
X399751Y247501D02*
Y253501D01*
Y247501D02*
X402750D01*
X366750Y313501D02*
Y319501D01*
X363751D02*
X366750D01*
X363751Y313501D02*
Y319501D01*
Y313501D02*
X366750D01*
X378750D02*
Y319501D01*
X375751D02*
X378750D01*
X375751Y313501D02*
Y319501D01*
Y313501D02*
X378750D01*
X402750D02*
Y319501D01*
X399751D02*
X402750D01*
X399751Y313501D02*
Y319501D01*
Y313501D02*
X402750D01*
X408750Y269501D02*
Y275501D01*
X405751D02*
X408750D01*
X405751Y269501D02*
Y275501D01*
Y269501D02*
X408750D01*
X372750Y258501D02*
Y264501D01*
X369751D02*
X372750D01*
X369751Y258501D02*
Y264501D01*
Y258501D02*
X372750D01*
X384750Y269501D02*
Y275501D01*
X381751D02*
X384750D01*
X381751Y269501D02*
Y275501D01*
Y269501D02*
X384750D01*
Y247501D02*
Y253501D01*
X381751D02*
X384750D01*
X381751Y247501D02*
Y253501D01*
Y247501D02*
X384750D01*
X414750Y258501D02*
Y264501D01*
X411751D02*
X414750D01*
X411751Y258501D02*
Y264501D01*
Y258501D02*
X414750D01*
X366750Y247501D02*
Y253501D01*
X363751D02*
X366750D01*
X363751Y247501D02*
Y253501D01*
Y247501D02*
X366750D01*
X408750D02*
Y253501D01*
X405751D02*
X408750D01*
X405751Y247501D02*
Y253501D01*
Y247501D02*
X408750D01*
X378750Y324501D02*
Y330501D01*
X375751D02*
X378750D01*
X375751Y324501D02*
Y330501D01*
Y324501D02*
X378750D01*
X384750D02*
Y330501D01*
X381751D02*
X384750D01*
X381751Y324501D02*
Y330501D01*
Y324501D02*
X384750D01*
X390750D02*
Y330501D01*
X387751D02*
X390750D01*
X387751Y324501D02*
Y330501D01*
Y324501D02*
X390750D01*
X384750Y280501D02*
Y286501D01*
X381751D02*
X384750D01*
X381751Y280501D02*
Y286501D01*
Y280501D02*
X384750D01*
X420750D02*
Y286501D01*
X417751D02*
X420750D01*
X417751Y280501D02*
Y286501D01*
Y280501D02*
X420750D01*
X414750D02*
Y286501D01*
X411751D02*
X414750D01*
X411751Y280501D02*
Y286501D01*
Y280501D02*
X414750D01*
X378750Y247501D02*
Y253501D01*
X375751D02*
X378750D01*
X375751Y247501D02*
Y253501D01*
Y247501D02*
X378750D01*
X408750Y258501D02*
Y264501D01*
X405751D02*
X408750D01*
X405751Y258501D02*
Y264501D01*
Y258501D02*
X408750D01*
X420750D02*
Y264501D01*
X417751D02*
X420750D01*
X417751Y258501D02*
Y264501D01*
Y258501D02*
X420750D01*
X396750Y247501D02*
Y253501D01*
X393751D02*
X396750D01*
X393751Y247501D02*
Y253501D01*
Y247501D02*
X396750D01*
X420750Y335501D02*
Y341501D01*
X417751D02*
X420750D01*
X417751Y335501D02*
Y341501D01*
Y335501D02*
X420750D01*
X372750Y324501D02*
Y330501D01*
X369751D02*
X372750D01*
X369751Y324501D02*
Y330501D01*
Y324501D02*
X372750D01*
X366750D02*
Y330501D01*
X363751D02*
X366750D01*
X363751Y324501D02*
Y330501D01*
Y324501D02*
X366750D01*
X372750Y280501D02*
Y286501D01*
X369751D02*
X372750D01*
X369751Y280501D02*
Y286501D01*
Y280501D02*
X372750D01*
X390750D02*
Y286501D01*
X387751D02*
X390750D01*
X387751Y280501D02*
Y286501D01*
Y280501D02*
X390750D01*
X408750D02*
Y286501D01*
X405751D02*
X408750D01*
X405751Y280501D02*
Y286501D01*
Y280501D02*
X408750D01*
X366750Y258501D02*
Y264501D01*
X363751D02*
X366750D01*
X363751Y258501D02*
Y264501D01*
Y258501D02*
X366750D01*
X390750D02*
Y264501D01*
X387751D02*
X390750D01*
X387751Y258501D02*
Y264501D01*
Y258501D02*
X390750D01*
X384750D02*
Y264501D01*
X381751D02*
X384750D01*
X381751Y258501D02*
Y264501D01*
Y258501D02*
X384750D01*
X396750D02*
Y264501D01*
X393751D02*
X396750D01*
X393751Y258501D02*
Y264501D01*
Y258501D02*
X396750D01*
Y335501D02*
Y341501D01*
X393751D02*
X396750D01*
X393751Y335501D02*
Y341501D01*
Y335501D02*
X396750D01*
X402750D02*
Y341501D01*
X399751D02*
X402750D01*
X399751Y335501D02*
Y341501D01*
Y335501D02*
X402750D01*
X414750D02*
Y341501D01*
X411751D02*
X414750D01*
X411751Y335501D02*
Y341501D01*
Y335501D02*
X414750D01*
Y291501D02*
Y297501D01*
X411751D02*
X414750D01*
X411751Y291501D02*
Y297501D01*
Y291501D02*
X414750D01*
X378750Y280501D02*
Y286501D01*
X375751D02*
X378750D01*
X375751Y280501D02*
Y286501D01*
Y280501D02*
X378750D01*
X402750D02*
Y286501D01*
X399751D02*
X402750D01*
X399751Y280501D02*
Y286501D01*
Y280501D02*
X402750D01*
X378750Y269501D02*
Y275501D01*
X375751D02*
X378750D01*
X375751Y269501D02*
Y275501D01*
Y269501D02*
X378750D01*
X390750D02*
Y275501D01*
X387751D02*
X390750D01*
X387751Y269501D02*
Y275501D01*
Y269501D02*
X390750D01*
X420750D02*
Y275501D01*
X417751D02*
X420750D01*
X417751Y269501D02*
Y275501D01*
Y269501D02*
X420750D01*
X402750D02*
Y275501D01*
X399751D02*
X402750D01*
X399751Y269501D02*
Y275501D01*
Y269501D02*
X402750D01*
X390750Y335501D02*
Y341501D01*
X387751D02*
X390750D01*
X387751Y335501D02*
Y341501D01*
Y335501D02*
X390750D01*
X384750D02*
Y341501D01*
X381751D02*
X384750D01*
X381751Y335501D02*
Y341501D01*
Y335501D02*
X384750D01*
X408750D02*
Y341501D01*
X405751D02*
X408750D01*
X405751Y335501D02*
Y341501D01*
Y335501D02*
X408750D01*
Y291501D02*
Y297501D01*
X405751D02*
X408750D01*
X405751Y291501D02*
Y297501D01*
Y291501D02*
X408750D01*
X366750Y280501D02*
Y286501D01*
X363751D02*
X366750D01*
X363751Y280501D02*
Y286501D01*
Y280501D02*
X366750D01*
X396750D02*
Y286501D01*
X393751D02*
X396750D01*
X393751Y280501D02*
Y286501D01*
Y280501D02*
X396750D01*
X372750Y269501D02*
Y275501D01*
X369751D02*
X372750D01*
X369751Y269501D02*
Y275501D01*
Y269501D02*
X372750D01*
X366750D02*
Y275501D01*
X363751D02*
X366750D01*
X363751Y269501D02*
Y275501D01*
Y269501D02*
X366750D01*
X396750D02*
Y275501D01*
X393751D02*
X396750D01*
X393751Y269501D02*
Y275501D01*
Y269501D02*
X396750D01*
X378750Y258501D02*
Y264501D01*
X375751D02*
X378750D01*
X375751Y258501D02*
Y264501D01*
Y258501D02*
X378750D01*
X366750Y335501D02*
Y341501D01*
X363751D02*
X366750D01*
X363751Y335501D02*
Y341501D01*
Y335501D02*
X366750D01*
X372750D02*
Y341501D01*
X369751D02*
X372750D01*
X369751Y335501D02*
Y341501D01*
Y335501D02*
X372750D01*
X378750D02*
Y341501D01*
X375751D02*
X378750D01*
X375751Y335501D02*
Y341501D01*
Y335501D02*
X378750D01*
X402750Y291501D02*
Y297501D01*
X399751D02*
X402750D01*
X399751Y291501D02*
Y297501D01*
Y291501D02*
X402750D01*
X420750D02*
Y297501D01*
X417751D02*
X420750D01*
X417751Y291501D02*
Y297501D01*
Y291501D02*
X420750D01*
X384750Y302501D02*
Y308501D01*
X381751D02*
X384750D01*
X381751Y302501D02*
Y308501D01*
Y302501D02*
X384750D01*
X390750D02*
Y308501D01*
X387751D02*
X390750D01*
X387751Y302501D02*
Y308501D01*
Y302501D02*
X390750D01*
X372750Y236501D02*
Y242501D01*
X369751D02*
X372750D01*
X369751Y236501D02*
Y242501D01*
Y236501D02*
X372750D01*
X414750Y247501D02*
Y253501D01*
X411751D02*
X414750D01*
X411751Y247501D02*
Y253501D01*
Y247501D02*
X414750D01*
X420750D02*
Y253501D01*
X417751D02*
X420750D01*
X417751Y247501D02*
Y253501D01*
Y247501D02*
X420750D01*
X402750Y324501D02*
Y330501D01*
X399751D02*
X402750D01*
X399751Y324501D02*
Y330501D01*
Y324501D02*
X402750D01*
X414750D02*
Y330501D01*
X411751D02*
X414750D01*
X411751Y324501D02*
Y330501D01*
Y324501D02*
X414750D01*
X384750Y313501D02*
Y319501D01*
X381751D02*
X384750D01*
X381751Y313501D02*
Y319501D01*
Y313501D02*
X384750D01*
X408750D02*
Y319501D01*
X405751D02*
X408750D01*
X405751Y313501D02*
Y319501D01*
Y313501D02*
X408750D01*
X378750Y302501D02*
Y308501D01*
X375751D02*
X378750D01*
X375751Y302501D02*
Y308501D01*
Y302501D02*
X378750D01*
X420750D02*
Y308501D01*
X417751D02*
X420750D01*
X417751Y302501D02*
Y308501D01*
Y302501D02*
X420750D01*
X366750Y291501D02*
Y297501D01*
X363751D02*
X366750D01*
X363751Y291501D02*
Y297501D01*
Y291501D02*
X366750D01*
X420750Y236501D02*
Y242501D01*
X417751D02*
X420750D01*
X417751Y236501D02*
Y242501D01*
Y236501D02*
X420750D01*
X390750D02*
Y242501D01*
X387751D02*
X390750D01*
X387751Y236501D02*
Y242501D01*
Y236501D02*
X390750D01*
X366750D02*
Y242501D01*
X363751D02*
X366750D01*
X363751Y236501D02*
Y242501D01*
Y236501D02*
X366750D01*
X372750Y313501D02*
Y319501D01*
X369751D02*
X372750D01*
X369751Y313501D02*
Y319501D01*
Y313501D02*
X372750D01*
X390750D02*
Y319501D01*
X387751D02*
X390750D01*
X387751Y313501D02*
Y319501D01*
Y313501D02*
X390750D01*
X396750D02*
Y319501D01*
X393751D02*
X396750D01*
X393751Y313501D02*
Y319501D01*
Y313501D02*
X396750D01*
Y302501D02*
Y308501D01*
X393751D02*
X396750D01*
X393751Y302501D02*
Y308501D01*
Y302501D02*
X396750D01*
X402750D02*
Y308501D01*
X399751D02*
X402750D01*
X399751Y302501D02*
Y308501D01*
Y302501D02*
X402750D01*
X372750Y291501D02*
Y297501D01*
X369751D02*
X372750D01*
X369751Y291501D02*
Y297501D01*
Y291501D02*
X372750D01*
X396750D02*
Y297501D01*
X393751D02*
X396750D01*
X393751Y291501D02*
Y297501D01*
Y291501D02*
X396750D01*
X414750Y236501D02*
Y242501D01*
X411751D02*
X414750D01*
X411751Y236501D02*
Y242501D01*
Y236501D02*
X414750D01*
X396750D02*
Y242501D01*
X393751D02*
X396750D01*
X393751Y236501D02*
Y242501D01*
Y236501D02*
X396750D01*
X384750D02*
Y242501D01*
X381751D02*
X384750D01*
X381751Y236501D02*
Y242501D01*
Y236501D02*
X384750D01*
X408750Y324501D02*
Y330501D01*
X405751D02*
X408750D01*
X405751Y324501D02*
Y330501D01*
Y324501D02*
X408750D01*
X414750Y313501D02*
Y319501D01*
X411751D02*
X414750D01*
X411751Y313501D02*
Y319501D01*
Y313501D02*
X414750D01*
X420750D02*
Y319501D01*
X417751D02*
X420750D01*
X417751Y313501D02*
Y319501D01*
Y313501D02*
X420750D01*
X408750Y302501D02*
Y308501D01*
X405751D02*
X408750D01*
X405751Y302501D02*
Y308501D01*
Y302501D02*
X408750D01*
X414750D02*
Y308501D01*
X411751D02*
X414750D01*
X411751Y302501D02*
Y308501D01*
Y302501D02*
X414750D01*
X384750Y291501D02*
Y297501D01*
X381751D02*
X384750D01*
X381751Y291501D02*
Y297501D01*
Y291501D02*
X384750D01*
X390750D02*
Y297501D01*
X387751D02*
X390750D01*
X387751Y291501D02*
Y297501D01*
Y291501D02*
X390750D01*
X408750Y236501D02*
Y242501D01*
X405751D02*
X408750D01*
X405751Y236501D02*
Y242501D01*
Y236501D02*
X408750D01*
X402750D02*
Y242501D01*
X399751D02*
X402750D01*
X399751Y236501D02*
Y242501D01*
Y236501D02*
X402750D01*
X378750D02*
Y242501D01*
X375751D02*
X378750D01*
X375751Y236501D02*
Y242501D01*
Y236501D02*
X378750D01*
X420750Y324501D02*
Y330501D01*
X417751D02*
X420750D01*
X417751Y324501D02*
Y330501D01*
Y324501D02*
X420750D01*
X366750Y302501D02*
Y308501D01*
X363751D02*
X366750D01*
X363751Y302501D02*
Y308501D01*
Y302501D02*
X366750D01*
X372750D02*
Y308501D01*
X369751D02*
X372750D01*
X369751Y302501D02*
Y308501D01*
Y302501D02*
X372750D01*
X396750Y324501D02*
Y330501D01*
X393751D02*
X396750D01*
X393751Y324501D02*
Y330501D01*
Y324501D02*
X396750D01*
X378750Y291501D02*
Y297501D01*
X375751D02*
X378750D01*
X375751Y291501D02*
Y297501D01*
Y291501D02*
X378750D01*
X1531616Y314465D02*
X1534353Y306948D01*
X1531616Y314465D02*
X1546652Y319938D01*
X1549388Y312420D01*
X1534353Y306948D02*
X1549388Y312420D01*
X1522824Y331881D02*
X1526824Y324953D01*
X1522824Y331881D02*
X1536681Y339882D01*
X1540681Y332954D01*
X1526824Y324953D02*
X1540681Y332954D01*
X1511053Y347421D02*
X1516195Y341293D01*
X1511053Y347421D02*
X1523310Y357706D01*
X1528452Y351578D01*
X1516195Y341293D02*
X1528452Y351578D01*
X1496561Y360692D02*
X1502689Y355550D01*
X1496561Y360692D02*
X1506846Y372950D01*
X1512974Y367808D01*
X1502689Y355550D02*
X1512974Y367808D01*
X1404352Y381929D02*
X1412230Y383318D01*
X1401573Y397686D02*
X1404352Y381929D01*
X1401573Y397686D02*
X1409451Y399076D01*
X1412230Y383318D01*
X1385479Y376128D02*
X1392996Y378864D01*
X1380006Y391164D02*
X1385479Y376128D01*
X1380006Y391164D02*
X1387523Y393900D01*
X1392996Y378864D01*
X1539501Y268329D02*
Y276329D01*
X1555502D01*
Y268329D02*
Y276329D01*
X1539501Y268329D02*
X1555502D01*
X1537429Y295691D02*
X1538818Y287813D01*
X1537429Y295691D02*
X1553186Y298469D01*
X1554576Y290591D01*
X1538818Y287813D02*
X1554576Y290591D01*
X1480205Y371322D02*
X1487133Y367322D01*
X1480205Y371322D02*
X1488205Y385179D01*
X1495133Y381179D01*
X1487133Y367322D02*
X1495133Y381179D01*
X1462215Y379101D02*
X1469732Y376365D01*
X1462215Y379101D02*
X1467688Y394137D01*
X1475205Y391401D01*
X1469732Y376365D02*
X1475205Y391401D01*
X1443254Y383317D02*
X1451132Y381928D01*
X1443254Y383317D02*
X1446032Y399075D01*
X1453910Y397686D01*
X1451132Y381928D02*
X1453910Y397686D01*
X1423752Y384501D02*
X1431752D01*
X1423752D02*
Y400502D01*
X1431752D01*
Y384501D02*
Y400502D01*
X1339137Y341296D02*
X1344279Y347424D01*
X1326879Y351581D02*
X1339137Y341296D01*
X1326879Y351581D02*
X1332021Y357709D01*
X1344279Y347424D01*
X1328678Y324789D02*
X1332678Y331716D01*
X1314821Y332789D02*
X1328678Y324789D01*
X1314821Y332789D02*
X1318821Y339717D01*
X1332678Y331716D01*
X1320918Y307008D02*
X1323655Y314525D01*
X1305883Y312480D02*
X1320918Y307008D01*
X1305883Y312480D02*
X1308619Y319997D01*
X1323655Y314525D01*
X1316683Y287774D02*
X1318072Y295652D01*
X1300925Y290553D02*
X1316683Y287774D01*
X1300925Y290553D02*
X1302314Y298431D01*
X1318072Y295652D01*
X1339103Y203457D02*
X1344245Y197329D01*
X1331988Y187044D02*
X1344245Y197329D01*
X1326846Y193172D02*
X1331988Y187044D01*
X1326846Y193172D02*
X1339103Y203457D01*
X1352544Y189200D02*
X1358672Y184058D01*
X1348387Y171800D02*
X1358672Y184058D01*
X1342259Y176942D02*
X1348387Y171800D01*
X1342259Y176942D02*
X1352544Y189200D01*
X1368287Y367324D02*
X1375215Y371324D01*
X1360287Y381181D02*
X1368287Y367324D01*
X1360287Y381181D02*
X1367215Y385181D01*
X1375215Y371324D01*
X1352723Y355553D02*
X1358851Y360695D01*
X1342437Y367810D02*
X1352723Y355553D01*
X1342437Y367810D02*
X1348566Y372952D01*
X1358851Y360695D01*
X1315499Y268333D02*
Y276332D01*
X1299498Y268333D02*
X1315499D01*
X1299498D02*
Y276332D01*
X1315499D01*
X1316432Y257146D02*
X1317821Y249268D01*
X1302064Y246489D02*
X1317821Y249268D01*
X1300674Y254367D02*
X1302064Y246489D01*
X1300674Y254367D02*
X1316432Y257146D01*
X1320898Y238089D02*
X1323634Y230571D01*
X1308598Y225099D02*
X1323634Y230571D01*
X1305862Y232616D02*
X1308598Y225099D01*
X1305862Y232616D02*
X1320898Y238089D01*
X1328426Y220034D02*
X1332426Y213106D01*
X1318569Y205106D02*
X1332426Y213106D01*
X1314569Y212034D02*
X1318569Y205106D01*
X1314569Y212034D02*
X1328426Y220034D01*
X1404448Y162572D02*
X1412326Y161183D01*
X1409547Y145425D02*
X1412326Y161183D01*
X1401669Y146814D02*
X1409547Y145425D01*
X1401669Y146814D02*
X1404448Y162572D01*
X1423668Y160499D02*
X1431667D01*
Y144498D02*
Y160499D01*
X1423668Y144498D02*
X1431667D01*
X1423668D02*
Y160499D01*
X1442952Y161432D02*
X1450830Y162821D01*
X1453609Y147064D01*
X1445731Y145674D02*
X1453609Y147064D01*
X1442952Y161432D02*
X1445731Y145674D01*
X1462004Y165648D02*
X1469521Y168384D01*
X1474994Y153348D01*
X1467477Y150612D02*
X1474994Y153348D01*
X1462004Y165648D02*
X1467477Y150612D01*
X1531615Y230352D02*
X1534351Y237869D01*
X1549387Y232396D01*
X1546651Y224879D02*
X1549387Y232396D01*
X1531615Y230352D02*
X1546651Y224879D01*
X1537428Y249046D02*
X1538817Y256924D01*
X1554575Y254145D01*
X1553186Y246267D02*
X1554575Y254145D01*
X1537428Y249046D02*
X1553186Y246267D01*
X1368167Y177428D02*
X1375095Y173428D01*
X1367095Y159571D02*
X1375095Y173428D01*
X1360167Y163571D02*
X1367095Y159571D01*
X1360167Y163571D02*
X1368167Y177428D01*
X1385612Y168385D02*
X1393129Y165649D01*
X1387656Y150613D02*
X1393129Y165649D01*
X1380139Y153349D02*
X1387656Y150613D01*
X1380139Y153349D02*
X1385612Y168385D01*
X1480180Y173176D02*
X1487108Y177176D01*
X1495108Y163319D01*
X1488180Y159319D02*
X1495108Y163319D01*
X1480180Y173176D02*
X1488180Y159319D01*
X1496543Y184055D02*
X1502671Y189197D01*
X1512956Y176940D01*
X1506828Y171798D02*
X1512956Y176940D01*
X1496543Y184055D02*
X1506828Y171798D01*
X1511051Y197076D02*
X1516192Y203204D01*
X1528450Y192919D01*
X1523308Y186791D02*
X1528450Y192919D01*
X1511051Y197076D02*
X1523308Y186791D01*
X1522786Y212784D02*
X1526786Y219711D01*
X1540643Y211711D01*
X1536643Y204783D02*
X1540643Y211711D01*
X1522786Y212784D02*
X1536643Y204783D01*
X1489588Y216408D02*
X1497555Y209723D01*
X1501412Y214319D01*
X1493444Y221005D02*
X1501412Y214319D01*
X1489588Y216408D02*
X1493444Y221005D01*
X1498436Y228001D02*
X1507444Y222801D01*
X1510444Y227997D01*
X1501436Y233197D02*
X1510444Y227997D01*
X1498436Y228001D02*
X1501436Y233197D01*
X1505087Y241043D02*
X1514861Y237486D01*
X1516913Y243124D01*
X1507139Y246681D02*
X1516913Y243124D01*
X1505087Y241043D02*
X1507139Y246681D01*
X1509358Y254978D02*
X1519601Y253172D01*
X1520643Y259081D01*
X1510400Y260886D02*
X1520643Y259081D01*
X1509358Y254978D02*
X1510400Y260886D01*
X1458936Y349587D02*
X1462493Y359361D01*
X1456855Y361413D02*
X1462493Y359361D01*
X1453298Y351640D02*
X1456855Y361413D01*
X1453298Y351640D02*
X1458936Y349587D01*
X1365108Y202572D02*
X1371793Y210539D01*
X1365108Y202572D02*
X1369704Y198715D01*
X1376390Y206683D01*
X1371793Y210539D02*
X1376390Y206683D01*
X1408422Y180399D02*
X1410228Y190642D01*
X1408422Y180399D02*
X1414331Y179357D01*
X1416137Y189600D01*
X1410228Y190642D02*
X1416137Y189600D01*
X1424668Y178549D02*
Y188950D01*
Y178549D02*
X1430668D01*
Y188950D01*
X1424668D02*
X1430668D01*
X1439055Y189600D02*
X1440861Y179357D01*
X1446770Y180399D01*
X1444964Y190642D02*
X1446770Y180399D01*
X1439055Y189600D02*
X1444964Y190642D01*
X1453259Y192860D02*
X1456816Y183086D01*
X1462454Y185139D01*
X1458897Y194912D02*
X1462454Y185139D01*
X1453259Y192860D02*
X1458897Y194912D01*
X1466743Y198503D02*
X1471944Y189495D01*
X1477140Y192495D01*
X1471939Y201503D02*
X1477140Y192495D01*
X1466743Y198503D02*
X1471939Y201503D01*
X1478995Y206554D02*
X1485681Y198587D01*
X1490277Y202444D01*
X1483591Y210411D02*
X1490277Y202444D01*
X1478995Y206554D02*
X1483591Y210411D01*
X1471999Y343113D02*
X1477200Y352120D01*
X1472003Y355120D02*
X1477200Y352120D01*
X1466803Y346113D02*
X1472003Y355120D01*
X1466803Y346113D02*
X1471999Y343113D01*
X1353837Y214456D02*
X1361804Y221141D01*
X1353837Y214456D02*
X1357694Y209860D01*
X1365661Y216545D01*
X1361804Y221141D02*
X1365661Y216545D01*
X1378051Y192507D02*
X1383251Y201514D01*
X1378051Y192507D02*
X1383247Y189507D01*
X1388447Y198514D01*
X1383251Y201514D02*
X1388447Y198514D01*
X1392765Y185139D02*
X1396322Y194913D01*
X1392765Y185139D02*
X1398403Y183087D01*
X1401960Y192861D01*
X1396322Y194913D02*
X1401960Y192861D01*
X1333799Y275333D02*
X1344200D01*
X1333799Y269333D02*
Y275333D01*
Y269333D02*
X1344200D01*
Y275333D01*
X1334857Y259283D02*
X1345100Y261089D01*
X1334857Y259283D02*
X1335899Y253374D01*
X1346142Y255180D01*
X1345100Y261089D02*
X1346142Y255180D01*
X1338373Y243291D02*
X1348147Y246849D01*
X1338373Y243291D02*
X1340426Y237653D01*
X1350199Y241210D01*
X1348147Y246849D02*
X1350199Y241210D01*
X1344826Y228249D02*
X1353833Y233449D01*
X1344826Y228249D02*
X1347826Y223053D01*
X1356833Y228253D01*
X1353833Y233449D02*
X1356833Y228253D01*
X1483591Y334338D02*
X1490276Y342305D01*
X1485680Y346162D02*
X1490276Y342305D01*
X1478994Y338194D02*
X1485680Y346162D01*
X1478994Y338194D02*
X1483591Y334338D01*
X1347997Y321829D02*
X1357004Y316628D01*
X1344997Y316632D02*
X1347997Y321829D01*
X1344997Y316632D02*
X1354004Y311432D01*
X1357004Y316628D01*
X1340639Y307259D02*
X1350413Y303701D01*
X1338587Y301620D02*
X1340639Y307259D01*
X1338587Y301620D02*
X1348360Y298063D01*
X1350413Y303701D01*
X1335899Y291512D02*
X1346142Y289706D01*
X1334857Y285603D02*
X1335899Y291512D01*
X1334857Y285603D02*
X1345100Y283797D01*
X1346142Y289706D01*
X1398291Y361502D02*
X1401849Y351729D01*
X1392653Y359450D02*
X1398291Y361502D01*
X1392653Y359450D02*
X1396210Y349677D01*
X1401849Y351729D01*
X1383499Y354945D02*
X1388699Y345938D01*
X1378303Y351945D02*
X1383499Y354945D01*
X1378303Y351945D02*
X1383503Y342938D01*
X1388699Y345938D01*
X1369706Y346163D02*
X1376391Y338196D01*
X1365110Y342306D02*
X1369706Y346163D01*
X1365110Y342306D02*
X1371795Y334339D01*
X1376391Y338196D01*
X1357695Y334888D02*
X1365663Y328203D01*
X1353838Y330292D02*
X1357695Y334888D01*
X1353838Y330292D02*
X1361806Y323606D01*
X1365663Y328203D01*
X1493512Y323609D02*
X1501479Y330294D01*
X1497622Y334890D02*
X1501479Y330294D01*
X1489655Y328205D02*
X1497622Y334890D01*
X1489655Y328205D02*
X1493512Y323609D01*
X1445146Y353858D02*
X1446952Y364101D01*
X1441043Y365143D02*
X1446952Y364101D01*
X1439237Y354900D02*
X1441043Y365143D01*
X1439237Y354900D02*
X1445146Y353858D01*
X1430670Y355800D02*
Y366201D01*
X1424670D02*
X1430670D01*
X1424670Y355800D02*
Y366201D01*
Y355800D02*
X1430670D01*
X1414401Y365143D02*
X1416207Y354900D01*
X1408492Y364101D02*
X1414401Y365143D01*
X1408492Y364101D02*
X1410298Y353858D01*
X1416207Y354900D01*
X1511050Y269249D02*
X1521451D01*
Y275249D01*
X1511050D02*
X1521451D01*
X1511050Y269249D02*
Y275249D01*
X1506890Y298006D02*
X1516664Y301563D01*
X1514611Y307202D02*
X1516664Y301563D01*
X1504838Y303644D02*
X1514611Y307202D01*
X1504838Y303644D02*
X1506890Y298006D01*
X1510400Y283833D02*
X1520643Y285639D01*
X1519601Y291548D02*
X1520643Y285639D01*
X1509358Y289742D02*
X1519601Y291548D01*
X1509358Y289742D02*
X1510400Y283833D01*
X1501497Y311301D02*
X1510505Y316501D01*
X1507505Y321698D02*
X1510505Y316501D01*
X1498497Y316497D02*
X1507505Y321698D01*
X1498497Y316497D02*
X1501497Y311301D01*
X1369401Y307730D02*
X1374598Y304730D01*
X1367902Y305132D02*
X1369401Y307730D01*
X1367902Y305132D02*
X1373098Y302132D01*
X1374598Y304730D01*
X1359499Y273750D02*
X1365499D01*
X1359499Y270751D02*
Y273750D01*
Y270751D02*
X1365499D01*
Y273750D01*
X1403018Y208943D02*
X1405070Y214582D01*
X1403018Y208943D02*
X1405837Y207917D01*
X1407889Y213556D01*
X1405070Y214582D02*
X1407889Y213556D01*
X1436857Y210943D02*
X1437899Y205034D01*
X1440852Y205555D01*
X1439810Y211464D02*
X1440852Y205555D01*
X1436857Y210943D02*
X1439810Y211464D01*
X1482153Y302055D02*
X1487349Y305055D01*
X1485849Y307652D02*
X1487349Y305055D01*
X1480653Y304652D02*
X1485849Y307652D01*
X1480653Y304652D02*
X1482153Y302055D01*
X1488536Y260148D02*
X1494445Y259106D01*
X1494966Y262060D01*
X1489057Y263102D02*
X1494966Y262060D01*
X1488536Y260148D02*
X1489057Y263102D01*
X1468721Y318945D02*
X1472578Y323542D01*
X1470281Y325470D02*
X1472578Y323542D01*
X1466424Y320873D02*
X1470281Y325470D01*
X1466424Y320873D02*
X1468721Y318945D01*
X1376416Y317241D02*
X1381012Y313384D01*
X1374488Y314944D02*
X1376416Y317241D01*
X1374488Y314944D02*
X1379084Y311087D01*
X1381012Y313384D01*
X1414378Y205555D02*
X1415420Y211464D01*
X1414378Y205555D02*
X1417332Y205035D01*
X1418374Y210943D01*
X1415420Y211464D02*
X1418374Y210943D01*
X1457330Y217847D02*
X1460331Y212651D01*
X1462928Y214151D01*
X1459928Y219347D02*
X1462928Y214151D01*
X1457330Y217847D02*
X1459928Y219347D01*
X1466443Y223833D02*
X1470299Y219237D01*
X1472597Y221165D01*
X1468740Y225761D02*
X1472597Y221165D01*
X1466443Y223833D02*
X1468740Y225761D01*
X1474217Y231278D02*
X1478813Y227422D01*
X1480741Y229719D01*
X1476145Y233576D02*
X1480741Y229719D01*
X1474217Y231278D02*
X1476145Y233576D01*
X1360805Y285610D02*
X1366714Y284568D01*
X1360284Y282656D02*
X1360805Y285610D01*
X1360284Y282656D02*
X1366193Y281614D01*
X1366714Y284568D01*
X1360284Y262173D02*
X1366193Y263215D01*
X1360284Y262173D02*
X1360805Y259219D01*
X1366714Y260261D01*
X1366193Y263215D02*
X1366714Y260261D01*
X1382696Y221166D02*
X1386553Y225762D01*
X1382696Y221166D02*
X1384994Y219238D01*
X1388851Y223834D01*
X1386553Y225762D02*
X1388851Y223834D01*
X1392296Y214151D02*
X1395297Y219348D01*
X1392296Y214151D02*
X1394894Y212652D01*
X1397894Y217848D01*
X1395297Y219348D02*
X1397894Y217848D01*
X1374487Y229785D02*
X1379083Y233642D01*
X1374487Y229785D02*
X1376415Y227487D01*
X1381011Y231344D01*
X1379083Y233642D02*
X1381011Y231344D01*
X1480902Y240200D02*
X1486099Y237200D01*
X1487598Y239798D01*
X1482402Y242798D02*
X1487598Y239798D01*
X1480902Y240200D02*
X1482402Y242798D01*
X1485419Y249866D02*
X1491057Y247814D01*
X1492083Y250632D01*
X1486444Y252684D02*
X1492083Y250632D01*
X1485419Y249866D02*
X1486444Y252684D01*
X1364193Y296936D02*
X1369832Y294884D01*
X1363168Y294118D02*
X1364193Y296936D01*
X1363168Y294118D02*
X1368806Y292066D01*
X1369832Y294884D01*
X1429169Y334501D02*
Y340501D01*
X1426170D02*
X1429169D01*
X1426170Y334501D02*
Y340501D01*
Y334501D02*
X1429169D01*
X1460050Y325402D02*
X1463050Y330599D01*
X1460452Y332098D02*
X1463050Y330599D01*
X1457452Y326902D02*
X1460452Y332098D01*
X1457452Y326902D02*
X1460050Y325402D01*
X1363126Y250634D02*
X1368764Y252686D01*
X1363126Y250634D02*
X1364152Y247815D01*
X1369790Y249867D01*
X1368764Y252686D02*
X1369790Y249867D01*
X1367901Y239799D02*
X1373097Y242799D01*
X1367901Y239799D02*
X1369401Y237202D01*
X1374597Y240202D01*
X1373097Y242799D02*
X1374597Y240202D01*
X1405704Y336833D02*
X1407756Y331195D01*
X1402885Y335807D02*
X1405704Y336833D01*
X1402885Y335807D02*
X1404938Y330169D01*
X1407756Y331195D01*
X1385060Y325513D02*
X1388916Y320917D01*
X1382762Y323585D02*
X1385060Y325513D01*
X1382762Y323585D02*
X1386619Y318989D01*
X1388916Y320917D01*
X1394940Y332099D02*
X1397940Y326903D01*
X1392342Y330599D02*
X1394940Y332099D01*
X1392342Y330599D02*
X1395342Y325403D01*
X1397940Y326903D01*
X1417347Y339716D02*
X1418389Y333807D01*
X1414393Y339195D02*
X1417347Y339716D01*
X1414393Y339195D02*
X1415435Y333286D01*
X1418389Y333807D01*
X1439980Y333286D02*
X1441022Y339195D01*
X1438068Y339715D02*
X1441022Y339195D01*
X1437026Y333807D02*
X1438068Y339715D01*
X1437026Y333807D02*
X1439980Y333286D01*
X1450282Y330168D02*
X1452335Y335807D01*
X1449516Y336833D02*
X1452335Y335807D01*
X1447464Y331194D02*
X1449516Y336833D01*
X1447464Y331194D02*
X1450282Y330168D01*
X1476167Y311029D02*
X1480763Y314886D01*
X1478835Y317184D02*
X1480763Y314886D01*
X1474239Y313327D02*
X1478835Y317184D01*
X1474239Y313327D02*
X1476167Y311029D01*
X1486445Y292154D02*
X1492083Y294206D01*
X1491057Y297024D02*
X1492083Y294206D01*
X1485419Y294972D02*
X1491057Y297024D01*
X1485419Y294972D02*
X1486445Y292154D01*
X1447314Y213555D02*
X1449366Y207917D01*
X1452185Y208943D01*
X1450133Y214581D02*
X1452185Y208943D01*
X1447314Y213555D02*
X1450133Y214581D01*
X1426168Y204249D02*
Y210249D01*
Y204249D02*
X1429167D01*
Y210249D01*
X1426168D02*
X1429167D01*
X1489057Y281605D02*
X1494966Y282647D01*
X1494445Y285600D02*
X1494966Y282647D01*
X1488536Y284559D02*
X1494445Y285600D01*
X1488536Y284559D02*
X1489057Y281605D01*
X1489751Y270750D02*
X1495751D01*
Y273749D01*
X1489751D02*
X1495751D01*
X1489751Y270750D02*
Y273749D01*
X551001Y230800D02*
Y241201D01*
X545001D02*
X551001D01*
X545001Y230800D02*
Y241201D01*
Y230800D02*
X551001D01*
X481001Y211800D02*
Y222201D01*
X475001D02*
X481001D01*
X475001Y211800D02*
Y222201D01*
Y211800D02*
X481001D01*
X511001Y249800D02*
Y260201D01*
X505001D02*
X511001D01*
X505001Y249800D02*
Y260201D01*
Y249800D02*
X511001D01*
X541001D02*
Y260201D01*
X535001D02*
X541001D01*
X535001Y249800D02*
Y260201D01*
Y249800D02*
X541001D01*
X491001Y230800D02*
Y241201D01*
X485001D02*
X491001D01*
X485001Y230800D02*
Y241201D01*
Y230800D02*
X491001D01*
X541001D02*
Y241201D01*
X535001D02*
X541001D01*
X535001Y230800D02*
Y241201D01*
Y230800D02*
X541001D01*
X521001Y192800D02*
Y203201D01*
X515001D02*
X521001D01*
X515001Y192800D02*
Y203201D01*
Y192800D02*
X521001D01*
X541001Y154800D02*
Y165201D01*
X535001D02*
X541001D01*
X535001Y154800D02*
Y165201D01*
Y154800D02*
X541001D01*
X501001Y306800D02*
Y317201D01*
X495001D02*
X501001D01*
X495001Y306800D02*
Y317201D01*
Y306800D02*
X501001D01*
X491001Y287800D02*
Y298201D01*
X485001D02*
X491001D01*
X485001Y287800D02*
Y298201D01*
Y287800D02*
X491001D01*
X531001Y306800D02*
Y317201D01*
X525001D02*
X531001D01*
X525001Y306800D02*
Y317201D01*
Y306800D02*
X531001D01*
X471001Y173800D02*
Y184201D01*
X465001D02*
X471001D01*
X465001Y173800D02*
Y184201D01*
Y173800D02*
X471001D01*
X531001D02*
Y184201D01*
X525001D02*
X531001D01*
X525001Y173800D02*
Y184201D01*
Y173800D02*
X531001D01*
X481001Y268800D02*
Y279201D01*
X475001D02*
X481001D01*
X475001Y268800D02*
Y279201D01*
Y268800D02*
X481001D01*
X541001D02*
Y279201D01*
X535001D02*
X541001D01*
X535001Y268800D02*
Y279201D01*
Y268800D02*
X541001D01*
X481001Y154800D02*
Y165201D01*
X475001D02*
X481001D01*
X475001Y154800D02*
Y165201D01*
Y154800D02*
X481001D01*
X511001D02*
Y165201D01*
X505001D02*
X511001D01*
X505001Y154800D02*
Y165201D01*
Y154800D02*
X511001D01*
X471001Y249800D02*
Y260201D01*
X465001D02*
X471001D01*
X465001Y249800D02*
Y260201D01*
Y249800D02*
X471001D01*
X501001D02*
Y260201D01*
X495001D02*
X501001D01*
X495001Y249800D02*
Y260201D01*
Y249800D02*
X501001D01*
X521001Y325800D02*
Y336201D01*
X515001D02*
X521001D01*
X515001Y325800D02*
Y336201D01*
Y325800D02*
X521001D01*
X491001Y211800D02*
Y222201D01*
X485001D02*
X491001D01*
X485001Y211800D02*
Y222201D01*
Y211800D02*
X491001D01*
X521001D02*
Y222201D01*
X515001D02*
X521001D01*
X515001Y211800D02*
Y222201D01*
Y211800D02*
X521001D01*
X551001Y192800D02*
Y203201D01*
X545001D02*
X551001D01*
X545001Y192800D02*
Y203201D01*
Y192800D02*
X551001D01*
X471001Y306800D02*
Y317201D01*
X465001D02*
X471001D01*
X465001Y306800D02*
Y317201D01*
Y306800D02*
X471001D01*
Y287800D02*
Y298201D01*
X465001D02*
X471001D01*
X465001Y287800D02*
Y298201D01*
Y287800D02*
X471001D01*
X561001Y325800D02*
Y336201D01*
X555001D02*
X561001D01*
X555001Y325800D02*
Y336201D01*
Y325800D02*
X561001D01*
X501001Y230800D02*
Y241201D01*
X495001D02*
X501001D01*
X495001Y230800D02*
Y241201D01*
Y230800D02*
X501001D01*
X531001D02*
Y241201D01*
X525001D02*
X531001D01*
X525001Y230800D02*
Y241201D01*
Y230800D02*
X531001D01*
X551001Y287800D02*
Y298201D01*
X545001D02*
X551001D01*
X545001Y287800D02*
Y298201D01*
Y287800D02*
X551001D01*
X511001Y268800D02*
Y279201D01*
X505001D02*
X511001D01*
X505001Y268800D02*
Y279201D01*
Y268800D02*
X511001D01*
X531001Y154800D02*
Y165201D01*
X525001D02*
X531001D01*
X525001Y154800D02*
Y165201D01*
Y154800D02*
X531001D01*
X491001Y249800D02*
Y260201D01*
X485001D02*
X491001D01*
X485001Y249800D02*
Y260201D01*
Y249800D02*
X491001D01*
X551001Y249800D02*
Y260201D01*
X545001D02*
X551001D01*
X545001Y249800D02*
Y260201D01*
Y249800D02*
X551001D01*
X481001Y325800D02*
Y336201D01*
X475001D02*
X481001D01*
X475001Y325800D02*
Y336201D01*
Y325800D02*
X481001D01*
X491001D02*
Y336201D01*
X485001D02*
X491001D01*
X485001Y325800D02*
Y336201D01*
Y325800D02*
X491001D01*
X481001Y192800D02*
Y203201D01*
X475001D02*
X481001D01*
X475001Y192800D02*
Y203201D01*
Y192800D02*
X481001D01*
X471001Y154800D02*
Y165201D01*
X465001D02*
X471001D01*
X465001Y154800D02*
Y165201D01*
Y154800D02*
X471001D01*
X491001Y306800D02*
Y317201D01*
X485001D02*
X491001D01*
X485001Y306800D02*
Y317201D01*
Y306800D02*
X491001D01*
X521001Y287800D02*
Y298201D01*
X515001D02*
X521001D01*
X515001Y287800D02*
Y298201D01*
Y287800D02*
X521001D01*
X501001Y154800D02*
Y165201D01*
X495001D02*
X501001D01*
X495001Y154800D02*
Y165201D01*
Y154800D02*
X501001D01*
X521001Y230800D02*
Y241201D01*
X515001D02*
X521001D01*
X515001Y230800D02*
Y241201D01*
Y230800D02*
X521001D01*
Y173800D02*
Y184201D01*
X515001D02*
X521001D01*
X515001Y173800D02*
Y184201D01*
Y173800D02*
X521001D01*
X471001Y268800D02*
Y279201D01*
X465001D02*
X471001D01*
X465001Y268800D02*
Y279201D01*
Y268800D02*
X471001D01*
X531001D02*
Y279201D01*
X525001D02*
X531001D01*
X525001Y268800D02*
Y279201D01*
Y268800D02*
X531001D01*
X511001Y211800D02*
Y222201D01*
X505001D02*
X511001D01*
X505001Y211800D02*
Y222201D01*
Y211800D02*
X511001D01*
X561001Y249800D02*
Y260201D01*
X555001D02*
X561001D01*
X555001Y249800D02*
Y260201D01*
Y249800D02*
X561001D01*
X491001Y192800D02*
Y203201D01*
X485001D02*
X491001D01*
X485001Y192800D02*
Y203201D01*
Y192800D02*
X491001D01*
X471001Y325800D02*
Y336201D01*
X465001D02*
X471001D01*
X465001Y325800D02*
Y336201D01*
Y325800D02*
X471001D01*
X511001D02*
Y336201D01*
X505001D02*
X511001D01*
X505001Y325800D02*
Y336201D01*
Y325800D02*
X511001D01*
X551001Y306800D02*
Y317201D01*
X545001D02*
X551001D01*
X545001Y306800D02*
Y317201D01*
Y306800D02*
X551001D01*
X481001D02*
Y317201D01*
X475001D02*
X481001D01*
X475001Y306800D02*
Y317201D01*
Y306800D02*
X481001D01*
X501001Y287800D02*
Y298201D01*
X495001D02*
X501001D01*
X495001Y287800D02*
Y298201D01*
Y287800D02*
X501001D01*
X491001Y154800D02*
Y165201D01*
X485001D02*
X491001D01*
X485001Y154800D02*
Y165201D01*
Y154800D02*
X491001D01*
X521001D02*
Y165201D01*
X515001D02*
X521001D01*
X515001Y154800D02*
Y165201D01*
Y154800D02*
X521001D01*
X481001Y249800D02*
Y260201D01*
X475001D02*
X481001D01*
X475001Y249800D02*
Y260201D01*
Y249800D02*
X481001D01*
X561001Y287800D02*
Y298201D01*
X555001D02*
X561001D01*
X555001Y287800D02*
Y298201D01*
Y287800D02*
X561001D01*
X521001Y268800D02*
Y279201D01*
X515001D02*
X521001D01*
X515001Y268800D02*
Y279201D01*
Y268800D02*
X521001D01*
X501001Y211800D02*
Y222201D01*
X495001D02*
X501001D01*
X495001Y211800D02*
Y222201D01*
Y211800D02*
X501001D01*
X471001Y192800D02*
Y203201D01*
X465001D02*
X471001D01*
X465001Y192800D02*
Y203201D01*
Y192800D02*
X471001D01*
X561001D02*
Y203201D01*
X555001D02*
X561001D01*
X555001Y192800D02*
Y203201D01*
Y192800D02*
X561001D01*
X501001D02*
Y203201D01*
X495001D02*
X501001D01*
X495001Y192800D02*
Y203201D01*
Y192800D02*
X501001D01*
Y325800D02*
Y336201D01*
X495001D02*
X501001D01*
X495001Y325800D02*
Y336201D01*
Y325800D02*
X501001D01*
X541001Y306800D02*
Y317201D01*
X535001D02*
X541001D01*
X535001Y306800D02*
Y317201D01*
Y306800D02*
X541001D01*
X511001Y230800D02*
Y241201D01*
X505001D02*
X511001D01*
X505001Y230800D02*
Y241201D01*
Y230800D02*
X511001D01*
Y173800D02*
Y184201D01*
X505001D02*
X511001D01*
X505001Y173800D02*
Y184201D01*
Y173800D02*
X511001D01*
X531001Y287800D02*
Y298201D01*
X525001D02*
X531001D01*
X525001Y287800D02*
Y298201D01*
Y287800D02*
X531001D01*
X561001Y230800D02*
Y241201D01*
X555001D02*
X561001D01*
X555001Y230800D02*
Y241201D01*
Y230800D02*
X561001D01*
X531001Y211800D02*
Y222201D01*
X525001D02*
X531001D01*
X525001Y211800D02*
Y222201D01*
Y211800D02*
X531001D01*
X521001Y249800D02*
Y260201D01*
X515001D02*
X521001D01*
X515001Y249800D02*
Y260201D01*
Y249800D02*
X521001D01*
X471001Y230800D02*
Y241201D01*
X465001D02*
X471001D01*
X465001Y230800D02*
Y241201D01*
Y230800D02*
X471001D01*
X551001Y268800D02*
Y279201D01*
X545001D02*
X551001D01*
X545001Y268800D02*
Y279201D01*
Y268800D02*
X551001D01*
Y211800D02*
Y222201D01*
X545001D02*
X551001D01*
X545001Y211800D02*
Y222201D01*
Y211800D02*
X551001D01*
X531001Y192800D02*
Y203201D01*
X525001D02*
X531001D01*
X525001Y192800D02*
Y203201D01*
Y192800D02*
X531001D01*
X551001Y154800D02*
Y165201D01*
X545001D02*
X551001D01*
X545001Y154800D02*
Y165201D01*
Y154800D02*
X551001D01*
X511001Y306800D02*
Y317201D01*
X505001D02*
X511001D01*
X505001Y306800D02*
Y317201D01*
Y306800D02*
X511001D01*
X531001Y325800D02*
Y336201D01*
X525001D02*
X531001D01*
X525001Y325800D02*
Y336201D01*
Y325800D02*
X531001D01*
X561001Y306800D02*
Y317201D01*
X555001D02*
X561001D01*
X555001Y306800D02*
Y317201D01*
Y306800D02*
X561001D01*
X491001Y173800D02*
Y184201D01*
X485001D02*
X491001D01*
X485001Y173800D02*
Y184201D01*
Y173800D02*
X491001D01*
X541001D02*
Y184201D01*
X535001D02*
X541001D01*
X535001Y173800D02*
Y184201D01*
Y173800D02*
X541001D01*
X491001Y268800D02*
Y279201D01*
X485001D02*
X491001D01*
X485001Y268800D02*
Y279201D01*
Y268800D02*
X491001D01*
X471001Y211800D02*
Y222201D01*
X465001D02*
X471001D01*
X465001Y211800D02*
Y222201D01*
Y211800D02*
X471001D01*
X541001D02*
Y222201D01*
X535001D02*
X541001D01*
X535001Y211800D02*
Y222201D01*
Y211800D02*
X541001D01*
X531001Y249800D02*
Y260201D01*
X525001D02*
X531001D01*
X525001Y249800D02*
Y260201D01*
Y249800D02*
X531001D01*
X481001Y230800D02*
Y241201D01*
X475001D02*
X481001D01*
X475001Y230800D02*
Y241201D01*
Y230800D02*
X481001D01*
X511001Y192800D02*
Y203201D01*
X505001D02*
X511001D01*
X505001Y192800D02*
Y203201D01*
Y192800D02*
X511001D01*
X561001Y211800D02*
Y222201D01*
X555001D02*
X561001D01*
X555001Y211800D02*
Y222201D01*
Y211800D02*
X561001D01*
X541001Y192800D02*
Y203201D01*
X535001D02*
X541001D01*
X535001Y192800D02*
Y203201D01*
Y192800D02*
X541001D01*
X561001Y154800D02*
Y165201D01*
X555001D02*
X561001D01*
X555001Y154800D02*
Y165201D01*
Y154800D02*
X561001D01*
X521001Y306800D02*
Y317201D01*
X515001D02*
X521001D01*
X515001Y306800D02*
Y317201D01*
Y306800D02*
X521001D01*
X541001Y287800D02*
Y298201D01*
X535001D02*
X541001D01*
X535001Y287800D02*
Y298201D01*
Y287800D02*
X541001D01*
X481001D02*
Y298201D01*
X475001D02*
X481001D01*
X475001Y287800D02*
Y298201D01*
Y287800D02*
X481001D01*
Y173800D02*
Y184201D01*
X475001D02*
X481001D01*
X475001Y173800D02*
Y184201D01*
Y173800D02*
X481001D01*
X551001D02*
Y184201D01*
X545001D02*
X551001D01*
X545001Y173800D02*
Y184201D01*
Y173800D02*
X551001D01*
X501001Y268800D02*
Y279201D01*
X495001D02*
X501001D01*
X495001Y268800D02*
Y279201D01*
Y268800D02*
X501001D01*
X561001D02*
Y279201D01*
X555001D02*
X561001D01*
X555001Y268800D02*
Y279201D01*
Y268800D02*
X561001D01*
X551001Y325800D02*
Y336201D01*
X545001D02*
X551001D01*
X545001Y325800D02*
Y336201D01*
Y325800D02*
X551001D01*
X511001Y287800D02*
Y298201D01*
X505001D02*
X511001D01*
X505001Y287800D02*
Y298201D01*
Y287800D02*
X511001D01*
X501001Y173800D02*
Y184201D01*
X495001D02*
X501001D01*
X495001Y173800D02*
Y184201D01*
Y173800D02*
X501001D01*
X561001D02*
Y184201D01*
X555001D02*
X561001D01*
X555001Y173800D02*
Y184201D01*
Y173800D02*
X561001D01*
X541001Y325800D02*
Y336201D01*
X535001D02*
X541001D01*
X535001Y325800D02*
Y336201D01*
Y325800D02*
X541001D01*
X309750Y291501D02*
Y297501D01*
X306751D02*
X309750D01*
X306751Y291501D02*
Y297501D01*
Y291501D02*
X309750D01*
X327750Y324501D02*
Y330501D01*
X324751D02*
X327750D01*
X324751Y324501D02*
Y330501D01*
Y324501D02*
X327750D01*
X303750Y302501D02*
Y308501D01*
X300751D02*
X303750D01*
X300751Y302501D02*
Y308501D01*
Y302501D02*
X303750D01*
X297750D02*
Y308501D01*
X294751D02*
X297750D01*
X294751Y302501D02*
Y308501D01*
Y302501D02*
X297750D01*
X351750Y324501D02*
Y330501D01*
X348751D02*
X351750D01*
X348751Y324501D02*
Y330501D01*
Y324501D02*
X351750D01*
X309750Y236501D02*
Y242501D01*
X306751D02*
X309750D01*
X306751Y236501D02*
Y242501D01*
Y236501D02*
X309750D01*
X333750D02*
Y242501D01*
X330751D02*
X333750D01*
X330751Y236501D02*
Y242501D01*
Y236501D02*
X333750D01*
X339750D02*
Y242501D01*
X336751D02*
X339750D01*
X336751Y236501D02*
Y242501D01*
Y236501D02*
X339750D01*
X321750Y291501D02*
Y297501D01*
X318751D02*
X321750D01*
X318751Y291501D02*
Y297501D01*
Y291501D02*
X321750D01*
X315750D02*
Y297501D01*
X312751D02*
X315750D01*
X312751Y291501D02*
Y297501D01*
Y291501D02*
X315750D01*
X345750Y302501D02*
Y308501D01*
X342751D02*
X345750D01*
X342751Y302501D02*
Y308501D01*
Y302501D02*
X345750D01*
X339750D02*
Y308501D01*
X336751D02*
X339750D01*
X336751Y302501D02*
Y308501D01*
Y302501D02*
X339750D01*
X351750Y313501D02*
Y319501D01*
X348751D02*
X351750D01*
X348751Y313501D02*
Y319501D01*
Y313501D02*
X351750D01*
X345750D02*
Y319501D01*
X342751D02*
X345750D01*
X342751Y313501D02*
Y319501D01*
Y313501D02*
X345750D01*
X339750Y324501D02*
Y330501D01*
X336751D02*
X339750D01*
X336751Y324501D02*
Y330501D01*
Y324501D02*
X339750D01*
X315750Y236501D02*
Y242501D01*
X312751D02*
X315750D01*
X312751Y236501D02*
Y242501D01*
Y236501D02*
X315750D01*
X327750D02*
Y242501D01*
X324751D02*
X327750D01*
X324751Y236501D02*
Y242501D01*
Y236501D02*
X327750D01*
X345750D02*
Y242501D01*
X342751D02*
X345750D01*
X342751Y236501D02*
Y242501D01*
Y236501D02*
X345750D01*
X327750Y291501D02*
Y297501D01*
X324751D02*
X327750D01*
X324751Y291501D02*
Y297501D01*
Y291501D02*
X327750D01*
X303750D02*
Y297501D01*
X300751D02*
X303750D01*
X300751Y291501D02*
Y297501D01*
Y291501D02*
X303750D01*
X333750Y302501D02*
Y308501D01*
X330751D02*
X333750D01*
X330751Y302501D02*
Y308501D01*
Y302501D02*
X333750D01*
X327750D02*
Y308501D01*
X324751D02*
X327750D01*
X324751Y302501D02*
Y308501D01*
Y302501D02*
X327750D01*
Y313501D02*
Y319501D01*
X324751D02*
X327750D01*
X324751Y313501D02*
Y319501D01*
Y313501D02*
X327750D01*
X321750D02*
Y319501D01*
X318751D02*
X321750D01*
X318751Y313501D02*
Y319501D01*
Y313501D02*
X321750D01*
X303750D02*
Y319501D01*
X300751D02*
X303750D01*
X300751Y313501D02*
Y319501D01*
Y313501D02*
X303750D01*
X297750Y236501D02*
Y242501D01*
X294751D02*
X297750D01*
X294751Y236501D02*
Y242501D01*
Y236501D02*
X297750D01*
X321750D02*
Y242501D01*
X318751D02*
X321750D01*
X318751Y236501D02*
Y242501D01*
Y236501D02*
X321750D01*
X351750D02*
Y242501D01*
X348751D02*
X351750D01*
X348751Y236501D02*
Y242501D01*
Y236501D02*
X351750D01*
X297750Y291501D02*
Y297501D01*
X294751D02*
X297750D01*
X294751Y291501D02*
Y297501D01*
Y291501D02*
X297750D01*
X351750Y302501D02*
Y308501D01*
X348751D02*
X351750D01*
X348751Y302501D02*
Y308501D01*
Y302501D02*
X351750D01*
X309750D02*
Y308501D01*
X306751D02*
X309750D01*
X306751Y302501D02*
Y308501D01*
Y302501D02*
X309750D01*
X339750Y313501D02*
Y319501D01*
X336751D02*
X339750D01*
X336751Y313501D02*
Y319501D01*
Y313501D02*
X339750D01*
X315750D02*
Y319501D01*
X312751D02*
X315750D01*
X312751Y313501D02*
Y319501D01*
Y313501D02*
X315750D01*
X345750Y324501D02*
Y330501D01*
X342751D02*
X345750D01*
X342751Y324501D02*
Y330501D01*
Y324501D02*
X345750D01*
X333750D02*
Y330501D01*
X330751D02*
X333750D01*
X330751Y324501D02*
Y330501D01*
Y324501D02*
X333750D01*
X351750Y247501D02*
Y253501D01*
X348751D02*
X351750D01*
X348751Y247501D02*
Y253501D01*
Y247501D02*
X351750D01*
X345750D02*
Y253501D01*
X342751D02*
X345750D01*
X342751Y247501D02*
Y253501D01*
Y247501D02*
X345750D01*
X303750Y236501D02*
Y242501D01*
X300751D02*
X303750D01*
X300751Y236501D02*
Y242501D01*
Y236501D02*
X303750D01*
X321750Y302501D02*
Y308501D01*
X318751D02*
X321750D01*
X318751Y302501D02*
Y308501D01*
Y302501D02*
X321750D01*
X315750D02*
Y308501D01*
X312751D02*
X315750D01*
X312751Y302501D02*
Y308501D01*
Y302501D02*
X315750D01*
X351750Y291501D02*
Y297501D01*
X348751D02*
X351750D01*
X348751Y291501D02*
Y297501D01*
Y291501D02*
X351750D01*
X333750D02*
Y297501D01*
X330751D02*
X333750D01*
X330751Y291501D02*
Y297501D01*
Y291501D02*
X333750D01*
X309750Y335501D02*
Y341501D01*
X306751D02*
X309750D01*
X306751Y335501D02*
Y341501D01*
Y335501D02*
X309750D01*
X303750D02*
Y341501D01*
X300751D02*
X303750D01*
X300751Y335501D02*
Y341501D01*
Y335501D02*
X303750D01*
X297750D02*
Y341501D01*
X294751D02*
X297750D01*
X294751Y335501D02*
Y341501D01*
Y335501D02*
X297750D01*
X309750Y258501D02*
Y264501D01*
X306751D02*
X309750D01*
X306751Y258501D02*
Y264501D01*
Y258501D02*
X309750D01*
X327750Y269501D02*
Y275501D01*
X324751D02*
X327750D01*
X324751Y269501D02*
Y275501D01*
Y269501D02*
X327750D01*
X297750D02*
Y275501D01*
X294751D02*
X297750D01*
X294751Y269501D02*
Y275501D01*
Y269501D02*
X297750D01*
X303750D02*
Y275501D01*
X300751D02*
X303750D01*
X300751Y269501D02*
Y275501D01*
Y269501D02*
X303750D01*
X327750Y280501D02*
Y286501D01*
X324751D02*
X327750D01*
X324751Y280501D02*
Y286501D01*
Y280501D02*
X327750D01*
X297750D02*
Y286501D01*
X294751D02*
X297750D01*
X294751Y280501D02*
Y286501D01*
Y280501D02*
X297750D01*
X339750Y291501D02*
Y297501D01*
X336751D02*
X339750D01*
X336751Y291501D02*
Y297501D01*
Y291501D02*
X339750D01*
Y335501D02*
Y341501D01*
X336751D02*
X339750D01*
X336751Y335501D02*
Y341501D01*
Y335501D02*
X339750D01*
X315750D02*
Y341501D01*
X312751D02*
X315750D01*
X312751Y335501D02*
Y341501D01*
Y335501D02*
X315750D01*
X321750D02*
Y341501D01*
X318751D02*
X321750D01*
X318751Y335501D02*
Y341501D01*
Y335501D02*
X321750D01*
X333750Y269501D02*
Y275501D01*
X330751D02*
X333750D01*
X330751Y269501D02*
Y275501D01*
Y269501D02*
X333750D01*
X351750D02*
Y275501D01*
X348751D02*
X351750D01*
X348751Y269501D02*
Y275501D01*
Y269501D02*
X351750D01*
X321750D02*
Y275501D01*
X318751D02*
X321750D01*
X318751Y269501D02*
Y275501D01*
Y269501D02*
X321750D01*
X309750D02*
Y275501D01*
X306751D02*
X309750D01*
X306751Y269501D02*
Y275501D01*
Y269501D02*
X309750D01*
X333750Y280501D02*
Y286501D01*
X330751D02*
X333750D01*
X330751Y280501D02*
Y286501D01*
Y280501D02*
X333750D01*
X309750D02*
Y286501D01*
X306751D02*
X309750D01*
X306751Y280501D02*
Y286501D01*
Y280501D02*
X309750D01*
X345750Y291501D02*
Y297501D01*
X342751D02*
X345750D01*
X342751Y291501D02*
Y297501D01*
Y291501D02*
X345750D01*
Y335501D02*
Y341501D01*
X342751D02*
X345750D01*
X342751Y335501D02*
Y341501D01*
Y335501D02*
X345750D01*
X333750D02*
Y341501D01*
X330751D02*
X333750D01*
X330751Y335501D02*
Y341501D01*
Y335501D02*
X333750D01*
X327750D02*
Y341501D01*
X324751D02*
X327750D01*
X324751Y335501D02*
Y341501D01*
Y335501D02*
X327750D01*
Y258501D02*
Y264501D01*
X324751D02*
X327750D01*
X324751Y258501D02*
Y264501D01*
Y258501D02*
X327750D01*
X315750D02*
Y264501D01*
X312751D02*
X315750D01*
X312751Y258501D02*
Y264501D01*
Y258501D02*
X315750D01*
X321750D02*
Y264501D01*
X318751D02*
X321750D01*
X318751Y258501D02*
Y264501D01*
Y258501D02*
X321750D01*
X297750D02*
Y264501D01*
X294751D02*
X297750D01*
X294751Y258501D02*
Y264501D01*
Y258501D02*
X297750D01*
X339750Y280501D02*
Y286501D01*
X336751D02*
X339750D01*
X336751Y280501D02*
Y286501D01*
Y280501D02*
X339750D01*
X321750D02*
Y286501D01*
X318751D02*
X321750D01*
X318751Y280501D02*
Y286501D01*
Y280501D02*
X321750D01*
X303750D02*
Y286501D01*
X300751D02*
X303750D01*
X300751Y280501D02*
Y286501D01*
Y280501D02*
X303750D01*
X297750Y324501D02*
Y330501D01*
X294751D02*
X297750D01*
X294751Y324501D02*
Y330501D01*
Y324501D02*
X297750D01*
X303750D02*
Y330501D01*
X300751D02*
X303750D01*
X300751Y324501D02*
Y330501D01*
Y324501D02*
X303750D01*
X351750Y335501D02*
Y341501D01*
X348751D02*
X351750D01*
X348751Y335501D02*
Y341501D01*
Y335501D02*
X351750D01*
X327750Y247501D02*
Y253501D01*
X324751D02*
X327750D01*
X324751Y247501D02*
Y253501D01*
Y247501D02*
X327750D01*
X351750Y258501D02*
Y264501D01*
X348751D02*
X351750D01*
X348751Y258501D02*
Y264501D01*
Y258501D02*
X351750D01*
X339750D02*
Y264501D01*
X336751D02*
X339750D01*
X336751Y258501D02*
Y264501D01*
Y258501D02*
X339750D01*
X309750Y247501D02*
Y253501D01*
X306751D02*
X309750D01*
X306751Y247501D02*
Y253501D01*
Y247501D02*
X309750D01*
X345750Y280501D02*
Y286501D01*
X342751D02*
X345750D01*
X342751Y280501D02*
Y286501D01*
Y280501D02*
X345750D01*
X351750D02*
Y286501D01*
X348751D02*
X351750D01*
X348751Y280501D02*
Y286501D01*
Y280501D02*
X351750D01*
X315750D02*
Y286501D01*
X312751D02*
X315750D01*
X312751Y280501D02*
Y286501D01*
Y280501D02*
X315750D01*
X321750Y324501D02*
Y330501D01*
X318751D02*
X321750D01*
X318751Y324501D02*
Y330501D01*
Y324501D02*
X321750D01*
X315750D02*
Y330501D01*
X312751D02*
X315750D01*
X312751Y324501D02*
Y330501D01*
Y324501D02*
X315750D01*
X309750D02*
Y330501D01*
X306751D02*
X309750D01*
X306751Y324501D02*
Y330501D01*
Y324501D02*
X309750D01*
X339750Y247501D02*
Y253501D01*
X336751D02*
X339750D01*
X336751Y247501D02*
Y253501D01*
Y247501D02*
X339750D01*
X297750D02*
Y253501D01*
X294751D02*
X297750D01*
X294751Y247501D02*
Y253501D01*
Y247501D02*
X297750D01*
X345750Y258501D02*
Y264501D01*
X342751D02*
X345750D01*
X342751Y258501D02*
Y264501D01*
Y258501D02*
X345750D01*
X315750Y247501D02*
Y253501D01*
X312751D02*
X315750D01*
X312751Y247501D02*
Y253501D01*
Y247501D02*
X315750D01*
Y269501D02*
Y275501D01*
X312751D02*
X315750D01*
X312751Y269501D02*
Y275501D01*
Y269501D02*
X315750D01*
X303750Y258501D02*
Y264501D01*
X300751D02*
X303750D01*
X300751Y258501D02*
Y264501D01*
Y258501D02*
X303750D01*
X339750Y269501D02*
Y275501D01*
X336751D02*
X339750D01*
X336751Y269501D02*
Y275501D01*
Y269501D02*
X339750D01*
X333750Y313501D02*
Y319501D01*
X330751D02*
X333750D01*
X330751Y313501D02*
Y319501D01*
Y313501D02*
X333750D01*
X309750D02*
Y319501D01*
X306751D02*
X309750D01*
X306751Y313501D02*
Y319501D01*
Y313501D02*
X309750D01*
X297750D02*
Y319501D01*
X294751D02*
X297750D01*
X294751Y313501D02*
Y319501D01*
Y313501D02*
X297750D01*
X333750Y247501D02*
Y253501D01*
X330751D02*
X333750D01*
X330751Y247501D02*
Y253501D01*
Y247501D02*
X333750D01*
X303750D02*
Y253501D01*
X300751D02*
X303750D01*
X300751Y247501D02*
Y253501D01*
Y247501D02*
X303750D01*
X333750Y258501D02*
Y264501D01*
X330751D02*
X333750D01*
X330751Y258501D02*
Y264501D01*
Y258501D02*
X333750D01*
X321750Y247501D02*
Y253501D01*
X318751D02*
X321750D01*
X318751Y247501D02*
Y253501D01*
Y247501D02*
X321750D01*
X345750Y269501D02*
Y275501D01*
X342751D02*
X345750D01*
X342751Y269501D02*
Y275501D01*
Y269501D02*
X345750D01*
X626999Y269800D02*
Y280201D01*
X632999D01*
Y269800D02*
Y280201D01*
X626999Y269800D02*
X632999D01*
X596999D02*
Y280201D01*
X602999D01*
Y269800D02*
Y280201D01*
X596999Y269800D02*
X602999D01*
X566999D02*
Y280201D01*
X572999D01*
Y269800D02*
Y280201D01*
X566999Y269800D02*
X572999D01*
X536999D02*
Y280201D01*
X542999D01*
Y269800D02*
Y280201D01*
X536999Y269800D02*
X542999D01*
X506999D02*
Y280201D01*
X512999D01*
Y269800D02*
Y280201D01*
X506999Y269800D02*
X512999D01*
X626999Y229800D02*
Y240201D01*
X632999D01*
Y229800D02*
Y240201D01*
X626999Y229800D02*
X632999D01*
X596999D02*
Y240201D01*
X602999D01*
Y229800D02*
Y240201D01*
X596999Y229800D02*
X602999D01*
X566999D02*
Y240201D01*
X572999D01*
Y229800D02*
Y240201D01*
X566999Y229800D02*
X572999D01*
X536999Y229800D02*
Y240201D01*
X542999D01*
Y229800D02*
Y240201D01*
X536999Y229800D02*
X542999D01*
X506999D02*
Y240201D01*
X512999D01*
Y229800D02*
Y240201D01*
X506999Y229800D02*
X512999D01*
X448500Y279001D02*
X451499D01*
Y285001D01*
X448500D02*
X451499D01*
X448500Y279001D02*
Y285001D01*
X423500Y279001D02*
X426499D01*
Y285001D01*
X423500D02*
X426499D01*
X423500Y279001D02*
Y285001D01*
X398500Y279001D02*
X401499D01*
Y285001D01*
X398500D02*
X401499D01*
X398500Y279001D02*
Y285001D01*
X373499Y279251D02*
X376499D01*
Y285251D01*
X373499D02*
X376499D01*
X373499Y279251D02*
Y285251D01*
X348500Y279001D02*
X351499D01*
Y285001D01*
X348500D02*
X351499D01*
X348500Y279001D02*
Y285001D01*
X448500Y253501D02*
X451499D01*
Y259501D01*
X448500D02*
X451499D01*
X448500Y253501D02*
Y259501D01*
X423500Y253501D02*
X426499D01*
Y259501D01*
X423500D02*
X426499D01*
X423500Y253501D02*
Y259501D01*
X398500Y253501D02*
X401499D01*
Y259501D01*
X398500D02*
X401499D01*
X398500Y253501D02*
Y259501D01*
X373500Y253501D02*
X376499D01*
Y259501D01*
X373500D02*
X376499D01*
X373500Y253501D02*
Y259501D01*
X348500Y253501D02*
X351499D01*
Y259501D01*
X348500D02*
X351499D01*
X348500Y253501D02*
Y259501D01*
X448500Y228001D02*
X451499D01*
Y234001D01*
X448500D02*
X451499D01*
X448500Y228001D02*
Y234001D01*
X423500Y228001D02*
X426499D01*
Y234001D01*
X423500D02*
X426499D01*
X423500Y228001D02*
Y234001D01*
X398500Y228001D02*
X401499D01*
Y234001D01*
X398500D02*
X401499D01*
X398500Y228001D02*
Y234001D01*
X373500Y228001D02*
X376499D01*
Y234001D01*
X373500D02*
X376499D01*
X373500Y228001D02*
Y234001D01*
X348500Y228001D02*
X351499D01*
Y234001D01*
X348500D02*
X351499D01*
X348500Y228001D02*
Y234001D01*
X815998Y227001D02*
X823998D01*
Y243002D01*
X815998D02*
X823998D01*
X815998Y227001D02*
Y243002D01*
X775998Y227001D02*
X783998D01*
Y243002D01*
X775998D02*
X783998D01*
X775998Y227001D02*
Y243002D01*
X735998Y227001D02*
X743998D01*
Y243002D01*
X735998D02*
X743998D01*
X735998Y227001D02*
Y243002D01*
X695998Y227001D02*
X703998D01*
Y243002D01*
X695998D02*
X703998D01*
X695998Y227001D02*
Y243002D01*
X855998Y227001D02*
X863998D01*
Y243002D01*
X855998D02*
X863998D01*
X855998Y227001D02*
Y243002D01*
X815998Y267001D02*
X823998D01*
Y283002D01*
X815998D02*
X823998D01*
X815998Y267001D02*
Y283002D01*
X775998Y267001D02*
X783998D01*
Y283002D01*
X775998D02*
X783998D01*
X775998Y267001D02*
Y283002D01*
X735998Y267001D02*
X743998D01*
Y283002D01*
X735998D02*
X743998D01*
X735998Y267001D02*
Y283002D01*
X695998Y267001D02*
X703998D01*
Y283002D01*
X695998D02*
X703998D01*
X695998Y267001D02*
Y283002D01*
X855998Y267001D02*
X863998D01*
Y283002D01*
X855998D02*
X863998D01*
X855998Y267001D02*
Y283002D01*
X825999Y165998D02*
Y173998D01*
X809998D02*
X825999D01*
X809998Y165998D02*
Y173998D01*
Y165998D02*
X825999D01*
Y145998D02*
Y153998D01*
X809998D02*
X825999D01*
X809998Y145998D02*
Y153998D01*
Y145998D02*
X825999D01*
Y125998D02*
Y133998D01*
X809998D02*
X825999D01*
X809998Y125998D02*
Y133998D01*
Y125998D02*
X825999D01*
Y105998D02*
Y113998D01*
X809998D02*
X825999D01*
X809998Y105998D02*
Y113998D01*
Y105998D02*
X825999D01*
Y185998D02*
Y193998D01*
X809998D02*
X825999D01*
X809998Y185998D02*
Y193998D01*
Y185998D02*
X825999D01*
X785999Y165998D02*
Y173998D01*
X769998D02*
X785999D01*
X769998Y165998D02*
Y173998D01*
Y165998D02*
X785999D01*
Y145998D02*
Y153998D01*
X769998D02*
X785999D01*
X769998Y145998D02*
Y153998D01*
Y145998D02*
X785999D01*
Y125998D02*
Y133998D01*
X769998D02*
X785999D01*
X769998Y125998D02*
Y133998D01*
Y125998D02*
X785999D01*
Y105998D02*
Y113998D01*
X769998D02*
X785999D01*
X769998Y105998D02*
Y113998D01*
Y105998D02*
X785999D01*
Y185998D02*
Y193998D01*
X769998D02*
X785999D01*
X769998Y185998D02*
Y193998D01*
Y185998D02*
X785999D01*
X865999Y165998D02*
Y173998D01*
X849998D02*
X865999D01*
X849998Y165998D02*
Y173998D01*
Y165998D02*
X865999D01*
Y145998D02*
Y153998D01*
X849998D02*
X865999D01*
X849998Y145998D02*
Y153998D01*
Y145998D02*
X865999D01*
Y125998D02*
Y133998D01*
X849998D02*
X865999D01*
X849998Y125998D02*
Y133998D01*
Y125998D02*
X865999D01*
Y105998D02*
Y113998D01*
X849998D02*
X865999D01*
X849998Y105998D02*
Y113998D01*
Y105998D02*
X865999D01*
Y185998D02*
Y193998D01*
X849998D02*
X865999D01*
X849998Y185998D02*
Y193998D01*
Y185998D02*
X865999D01*
X745999Y165998D02*
Y173998D01*
X729998D02*
X745999D01*
X729998Y165998D02*
Y173998D01*
Y165998D02*
X745999D01*
Y145998D02*
Y153998D01*
X729998D02*
X745999D01*
X729998Y145998D02*
Y153998D01*
Y145998D02*
X745999D01*
Y125998D02*
Y133998D01*
X729998D02*
X745999D01*
X729998Y125998D02*
Y133998D01*
Y125998D02*
X745999D01*
Y105998D02*
Y113998D01*
X729998D02*
X745999D01*
X729998Y105998D02*
Y113998D01*
Y105998D02*
X745999D01*
Y185998D02*
Y193998D01*
X729998D02*
X745999D01*
X729998Y185998D02*
Y193998D01*
Y185998D02*
X745999D01*
X705999Y165998D02*
Y173998D01*
X689998D02*
X705999D01*
X689998Y165998D02*
Y173998D01*
Y165998D02*
X705999D01*
Y145998D02*
Y153998D01*
X689998D02*
X705999D01*
X689998Y145998D02*
Y153998D01*
Y145998D02*
X705999D01*
Y125998D02*
Y133998D01*
X689998D02*
X705999D01*
X689998Y125998D02*
Y133998D01*
Y125998D02*
X705999D01*
Y105998D02*
Y113998D01*
X689998D02*
X705999D01*
X689998Y105998D02*
Y113998D01*
Y105998D02*
X705999D01*
Y185998D02*
Y193998D01*
X689998D02*
X705999D01*
X689998Y185998D02*
Y193998D01*
Y185998D02*
X705999D01*
X564800Y113001D02*
X575201D01*
Y107001D02*
Y113001D01*
X564800Y107001D02*
X575201D01*
X564800D02*
Y113001D01*
Y133001D02*
X575201D01*
Y127001D02*
Y133001D01*
X564800Y127001D02*
X575201D01*
X564800D02*
Y133001D01*
X534800D02*
X545201D01*
Y127001D02*
Y133001D01*
X534800Y127001D02*
X545201D01*
X534800D02*
Y133001D01*
Y153001D02*
X545201D01*
Y147001D02*
Y153001D01*
X534800Y147001D02*
X545201D01*
X534800D02*
Y153001D01*
X504800Y113001D02*
X515201D01*
Y107001D02*
Y113001D01*
X504800Y107001D02*
X515201D01*
X504800D02*
Y113001D01*
X594800D02*
X605201D01*
Y107001D02*
Y113001D01*
X594800Y107001D02*
X605201D01*
X594800D02*
Y113001D01*
Y133001D02*
X605201D01*
Y127001D02*
Y133001D01*
X594800Y127001D02*
X605201D01*
X594800D02*
Y133001D01*
Y153001D02*
X605201D01*
Y147001D02*
Y153001D01*
X594800Y147001D02*
X605201D01*
X594800D02*
Y153001D01*
Y173001D02*
X605201D01*
Y167001D02*
Y173001D01*
X594800Y167001D02*
X605201D01*
X594800D02*
Y173001D01*
Y193001D02*
X605201D01*
Y187001D02*
Y193001D01*
X594800Y187001D02*
X605201D01*
X594800D02*
Y193001D01*
X624800Y113001D02*
X635201D01*
Y107001D02*
Y113001D01*
X624800Y107001D02*
X635201D01*
X624800D02*
Y113001D01*
X624800Y133001D02*
X635201D01*
Y127001D02*
Y133001D01*
X624800Y127001D02*
X635201D01*
X624800D02*
Y133001D01*
Y153001D02*
X635201D01*
Y147001D02*
Y153001D01*
X624800Y147001D02*
X635201D01*
X624800D02*
Y153001D01*
X624800Y173001D02*
X635201D01*
Y167001D02*
Y173001D01*
X624800Y167001D02*
X635201D01*
X624800D02*
Y173001D01*
Y193001D02*
X635201D01*
Y187001D02*
Y193001D01*
X624800Y187001D02*
X635201D01*
X624800D02*
Y193001D01*
X564800Y153001D02*
X575201D01*
Y147001D02*
Y153001D01*
X564800Y147001D02*
X575201D01*
X564800D02*
Y153001D01*
Y193001D02*
X575201D01*
Y187001D02*
Y193001D01*
X564800Y187001D02*
X575201D01*
X564800D02*
Y193001D01*
X534800Y173001D02*
X545201D01*
Y167001D02*
Y173001D01*
X534800Y167001D02*
X545201D01*
X534800D02*
Y173001D01*
X504800Y153001D02*
X515201D01*
Y147001D02*
Y153001D01*
X504800Y147001D02*
X515201D01*
X504800D02*
Y153001D01*
X504800Y133001D02*
X515201D01*
Y127001D02*
Y133001D01*
X504800Y127001D02*
X515201D01*
X504800D02*
Y133001D01*
X564800Y173001D02*
X575201D01*
Y167001D02*
Y173001D01*
X564800Y167001D02*
X575201D01*
X564800D02*
Y173001D01*
X534800Y113001D02*
X545201D01*
Y107001D02*
Y113001D01*
X534800Y107001D02*
X545201D01*
X534800D02*
Y113001D01*
Y193001D02*
X545201D01*
Y187001D02*
Y193001D01*
X534800Y187001D02*
X545201D01*
X534800D02*
Y193001D01*
X504800Y173001D02*
X515201D01*
Y167001D02*
Y173001D01*
X504800Y167001D02*
X515201D01*
X504800D02*
Y173001D01*
Y193001D02*
X515201D01*
Y187001D02*
Y193001D01*
X504800Y187001D02*
X515201D01*
X504800D02*
Y193001D01*
X372001Y108501D02*
Y111501D01*
Y108501D02*
X378001D01*
Y111501D01*
X372001D02*
X378001D01*
X372001Y128501D02*
Y131501D01*
Y128501D02*
X378001D01*
Y131501D01*
X372001D02*
X378001D01*
X372001Y188501D02*
Y191500D01*
Y188501D02*
X378001D01*
Y191500D01*
X372001D02*
X378001D01*
X347001Y128501D02*
Y131501D01*
Y128501D02*
X353001D01*
Y131501D01*
X347001D02*
X353001D01*
X347001Y148501D02*
Y151501D01*
Y148501D02*
X353001D01*
Y151501D01*
X347001D02*
X353001D01*
X422001Y148501D02*
Y151501D01*
Y148501D02*
X428001D01*
Y151501D01*
X422001D02*
X428001D01*
X422001Y168501D02*
Y171500D01*
Y168501D02*
X428001D01*
Y171500D01*
X422001D02*
X428001D01*
X397001Y148501D02*
Y151501D01*
Y148501D02*
X403001D01*
Y151501D01*
X397001D02*
X403001D01*
X397001Y168501D02*
Y171500D01*
Y168501D02*
X403001D01*
Y171500D01*
X397001D02*
X403001D01*
X397001Y188501D02*
Y191500D01*
Y188501D02*
X403001D01*
Y191500D01*
X397001D02*
X403001D01*
X422001Y108501D02*
Y111501D01*
Y108501D02*
X428001D01*
Y111501D01*
X422001D02*
X428001D01*
X422001Y128501D02*
Y131501D01*
Y128501D02*
X428001D01*
Y131501D01*
X422001D02*
X428001D01*
X397001Y108501D02*
Y111501D01*
Y108501D02*
X403001D01*
Y111501D01*
X397001D02*
X403001D01*
X397001Y128501D02*
Y131501D01*
Y128501D02*
X403001D01*
Y131501D01*
X397001D02*
X403001D01*
X422001Y188501D02*
Y191500D01*
Y188501D02*
X428001D01*
Y191500D01*
X422001D02*
X428001D01*
X372001Y148501D02*
Y151501D01*
Y148501D02*
X378001D01*
Y151501D01*
X372001D02*
X378001D01*
X372001Y168501D02*
Y171500D01*
Y168501D02*
X378001D01*
Y171500D01*
X372001D02*
X378001D01*
X347001Y108501D02*
Y111501D01*
Y108501D02*
X353001D01*
Y111501D01*
X347001D02*
X353001D01*
X347001Y168501D02*
Y171500D01*
Y168501D02*
X353001D01*
Y171500D01*
X347001D02*
X353001D01*
X347001Y188501D02*
Y191500D01*
Y188501D02*
X353001D01*
Y191500D01*
X347001D02*
X353001D01*
X447001Y108501D02*
Y111501D01*
Y108501D02*
X453001D01*
Y111501D01*
X447001D02*
X453001D01*
X447001Y148501D02*
Y151501D01*
Y148501D02*
X453001D01*
Y151501D01*
X447001D02*
X453001D01*
X447001Y128501D02*
Y131501D01*
Y128501D02*
X453001D01*
Y131501D01*
X447001D02*
X453001D01*
X447001Y168501D02*
Y171500D01*
Y168501D02*
X453001D01*
Y171500D01*
X447001D02*
X453001D01*
X447001Y188501D02*
Y191500D01*
Y188501D02*
X453001D01*
Y191500D01*
X447001D02*
X453001D01*
X112700Y739499D02*
Y745499D01*
X102299D02*
X112700D01*
X102299Y739499D02*
Y745499D01*
Y739499D02*
X112700D01*
X157700D02*
Y745499D01*
X147299D02*
X157700D01*
X147299Y739499D02*
Y745499D01*
Y739499D02*
X157700D01*
X200200D02*
Y745499D01*
X189799D02*
X200200D01*
X189799Y739499D02*
Y745499D01*
Y739499D02*
X200200D01*
X202001Y519002D02*
X218002D01*
Y511002D02*
Y519002D01*
X202001Y511002D02*
X218002D01*
X202001D02*
Y519002D01*
X150001D02*
X166002D01*
Y511002D02*
Y519002D01*
X150001Y511002D02*
X166002D01*
X150001D02*
Y519002D01*
X99501D02*
X115502D01*
Y511002D02*
Y519002D01*
X99501Y511002D02*
X115502D01*
X99501D02*
Y519002D01*
X1419499Y574800D02*
X1425499D01*
Y585201D01*
X1419499D02*
X1425499D01*
X1419499Y574800D02*
Y585201D01*
X1474499Y574800D02*
X1480499D01*
Y585201D01*
X1474499D02*
X1480499D01*
X1474499Y574800D02*
Y585201D01*
X1455200Y549499D02*
Y555499D01*
X1444799D02*
X1455200D01*
X1444799Y549499D02*
Y555499D01*
Y549499D02*
X1455200D01*
X1444800Y604501D02*
Y610501D01*
Y604501D02*
X1455201D01*
Y610501D01*
X1444800D02*
X1455201D01*
D293*
X89250Y246250D02*
X90750D01*
Y248750D01*
X89250D02*
X90750D01*
X89250Y246250D02*
Y248750D01*
X169250Y245950D02*
X170750D01*
Y248450D01*
X169250D02*
X170750D01*
X169250Y245950D02*
Y248450D01*
X149250Y246250D02*
X150750D01*
Y248750D01*
X149250D02*
X150750D01*
X149250Y246250D02*
Y248750D01*
X129250Y246250D02*
X130750D01*
Y248750D01*
X129250D02*
X130750D01*
X129250Y246250D02*
Y248750D01*
X109250Y246250D02*
X110750D01*
Y248750D01*
X109250D02*
X110750D01*
X109250Y246250D02*
Y248750D01*
X89250Y264750D02*
X90750D01*
Y267250D01*
X89250D02*
X90750D01*
X89250Y264750D02*
Y267250D01*
X169250Y264750D02*
X170750D01*
Y267250D01*
X169250D02*
X170750D01*
X169250Y264750D02*
Y267250D01*
X149250Y264750D02*
X150750D01*
Y267250D01*
X149250D02*
X150750D01*
X149250Y264750D02*
Y267250D01*
X129250Y264750D02*
X130750D01*
Y267250D01*
X129250D02*
X130750D01*
X129250Y264750D02*
Y267250D01*
X109250Y264750D02*
X110750D01*
Y267250D01*
X109250D02*
X110750D01*
X109250Y264750D02*
Y267250D01*
X89250Y283750D02*
X90750D01*
Y286250D01*
X89250D02*
X90750D01*
X89250Y283750D02*
Y286250D01*
X169250Y283750D02*
X170750D01*
Y286250D01*
X169250D02*
X170750D01*
X169250Y283750D02*
Y286250D01*
X149250Y283750D02*
X150750D01*
Y286250D01*
X149250D02*
X150750D01*
X149250Y283750D02*
Y286250D01*
X129250Y283750D02*
X130750D01*
Y286250D01*
X129250D02*
X130750D01*
X129250Y283750D02*
Y286250D01*
X109250Y283750D02*
X110750D01*
Y286250D01*
X109250D02*
X110750D01*
X109250Y283750D02*
Y286250D01*
X89250Y228750D02*
X90750D01*
Y231250D01*
X89250D02*
X90750D01*
X89250Y228750D02*
Y231250D01*
X169250Y228750D02*
X170750D01*
Y231250D01*
X169250D02*
X170750D01*
X169250Y228750D02*
Y231250D01*
X149250Y228750D02*
X150750D01*
Y231250D01*
X149250D02*
X150750D01*
X149250Y228750D02*
Y231250D01*
X129250Y228750D02*
X130750D01*
Y231250D01*
X129250D02*
X130750D01*
X129250Y228750D02*
Y231250D01*
X109250Y228750D02*
X110750D01*
Y231250D01*
X109250D02*
X110750D01*
X109250Y228750D02*
Y231250D01*
X171250Y109250D02*
Y110750D01*
X168750D02*
X171250D01*
X168750Y109250D02*
Y110750D01*
Y109250D02*
X171250D01*
Y189250D02*
Y190750D01*
X168750D02*
X171250D01*
X168750Y189250D02*
Y190750D01*
Y189250D02*
X171250D01*
Y169250D02*
Y170750D01*
X168750D02*
X171250D01*
X168750Y169250D02*
Y170750D01*
Y169250D02*
X171250D01*
Y149250D02*
Y150750D01*
X168750D02*
X171250D01*
X168750Y149250D02*
Y150750D01*
Y149250D02*
X171250D01*
Y129250D02*
Y130750D01*
X168750D02*
X171250D01*
X168750Y129250D02*
Y130750D01*
Y129250D02*
X171250D01*
X151250Y189250D02*
Y190750D01*
X148750D02*
X151250D01*
X148750Y189250D02*
Y190750D01*
Y189250D02*
X151250D01*
X111250Y129250D02*
Y130750D01*
X108750D02*
X111250D01*
X108750Y129250D02*
Y130750D01*
Y129250D02*
X111250D01*
Y109250D02*
Y110750D01*
X108750D02*
X111250D01*
X108750Y109250D02*
Y110750D01*
Y109250D02*
X111250D01*
X131250Y169250D02*
Y170750D01*
X128750D02*
X131250D01*
X128750Y169250D02*
Y170750D01*
Y169250D02*
X131250D01*
Y149250D02*
Y150750D01*
X128750D02*
X131250D01*
X128750Y149250D02*
Y150750D01*
Y149250D02*
X131250D01*
X151250Y109250D02*
Y110750D01*
X148750D02*
X151250D01*
X148750Y109250D02*
Y110750D01*
Y109250D02*
X151250D01*
X131250D02*
Y110750D01*
X128750D02*
X131250D01*
X128750Y109250D02*
Y110750D01*
Y109250D02*
X131250D01*
X151250Y169250D02*
Y170750D01*
X148750D02*
X151250D01*
X148750Y169250D02*
Y170750D01*
Y169250D02*
X151250D01*
Y149250D02*
Y150750D01*
X148750D02*
X151250D01*
X148750Y149250D02*
Y150750D01*
Y149250D02*
X151250D01*
Y129250D02*
Y130750D01*
X148750D02*
X151250D01*
X148750Y129250D02*
Y130750D01*
Y129250D02*
X151250D01*
X131250D02*
Y130750D01*
X128750D02*
X131250D01*
X128750Y129250D02*
Y130750D01*
Y129250D02*
X131250D01*
X111250Y189250D02*
Y190750D01*
X108750D02*
X111250D01*
X108750Y189250D02*
Y190750D01*
Y189250D02*
X111250D01*
Y169250D02*
Y170750D01*
X108750D02*
X111250D01*
X108750Y169250D02*
Y170750D01*
Y169250D02*
X111250D01*
Y149250D02*
Y150750D01*
X108750D02*
X111250D01*
X108750Y149250D02*
Y150750D01*
Y149250D02*
X111250D01*
X131250Y189250D02*
Y190750D01*
X128750D02*
X131250D01*
X128750Y189250D02*
Y190750D01*
Y189250D02*
X131250D01*
X91250Y169250D02*
Y170750D01*
X88750D02*
X91250D01*
X88750Y169250D02*
Y170750D01*
Y169250D02*
X91250D01*
Y189250D02*
Y190750D01*
X88750D02*
X91250D01*
X88750Y189250D02*
Y190750D01*
Y189250D02*
X91250D01*
Y129250D02*
Y130750D01*
X88750D02*
X91250D01*
X88750Y129250D02*
Y130750D01*
Y129250D02*
X91250D01*
Y149250D02*
Y150750D01*
X88750D02*
X91250D01*
X88750Y149250D02*
Y150750D01*
Y149250D02*
X91250D01*
Y109250D02*
Y110750D01*
X88750D02*
X91250D01*
X88750Y109250D02*
Y110750D01*
Y109250D02*
X91250D01*
M02*
