G04 Layer_Color=32896*
%FSLAX44Y44*%
%MOMM*%
G71*
G01*
G75*
%ADD10C,0.2000*%
%ADD153C,0.2540*%
%ADD289C,0.0500*%
%ADD290R,0.6750X0.6500*%
%ADD291R,37.0000X23.0000*%
G36*
X1609812Y1085938D02*
X1586187Y1109563D01*
X1609812D01*
Y1085938D01*
D02*
G37*
D10*
X1641750Y272500D02*
G03*
X1641750Y272500I-214000J0D01*
G01*
X1608256Y1103000D02*
G03*
X1608256Y1103000I-5256J0D01*
G01*
X1606750D02*
G03*
X1606750Y1103000I-3750J0D01*
G01*
X720000Y350000D02*
X1192500D01*
X720000Y70000D02*
Y350000D01*
Y70000D02*
X1192500D01*
Y350000D01*
X678000Y70000D02*
Y350000D01*
X140000Y70000D02*
X678000D01*
X140000D02*
Y350000D01*
X678000D01*
X1425167Y265335D02*
X1430167D01*
X1435667Y279335D02*
X1444667D01*
Y265335D02*
Y279335D01*
X1410667D02*
X1420417D01*
X1410667Y265335D02*
Y279335D01*
X1314750Y815000D02*
X1585250D01*
Y1071500D01*
X1571250Y1085500D02*
X1585250Y1071500D01*
X1314750Y1085500D02*
X1571250D01*
X1314750Y815000D02*
Y1085500D01*
X1054000Y810000D02*
Y970000D01*
X1060000Y976000D01*
X1226000Y810000D02*
Y976000D01*
X1220000Y804000D02*
X1226000Y810000D01*
X1060000Y804000D02*
X1220000D01*
X1054000Y810000D02*
X1060000Y804000D01*
Y976000D02*
X1226000D01*
D153*
X1234000Y981000D02*
G03*
X1234000Y981000I-3000J0D01*
G01*
D289*
X1850500Y1027000D02*
Y1027000D01*
X1850500Y1027000D02*
X1850500D01*
D290*
X1602875Y1103000D02*
D03*
D291*
X1426250Y620250D02*
D03*
M02*
