G04 Layer_Color=2752767*
%FSLAX44Y44*%
%MOMM*%
G71*
G01*
G75*
%ADD41C,0.0508*%
%ADD294C,0.0677*%
D41*
X1180668Y732268D02*
Y736332D01*
X1184732D01*
Y732268D01*
X1180668D01*
Y706868D02*
Y710932D01*
X1184732D01*
Y706868D01*
X1180668D01*
Y681468D02*
Y685532D01*
X1184732D01*
Y681468D01*
X1180668D01*
Y656068D02*
Y660132D01*
X1184732D01*
Y656068D01*
X1180668D01*
Y630668D02*
Y634732D01*
X1184732D01*
Y630668D01*
X1180668D01*
Y605268D02*
Y609332D01*
X1184732D01*
Y605268D01*
X1180668D01*
Y579868D02*
Y583932D01*
X1184732D01*
Y579868D01*
X1180668D01*
Y554468D02*
Y558532D01*
X1184732D01*
Y554468D01*
X1180668D01*
Y529068D02*
Y533132D01*
X1184732D01*
Y529068D01*
X1180668D01*
Y503668D02*
Y507732D01*
X1184732D01*
Y503668D01*
X1180668D01*
X1155268Y732268D02*
Y736332D01*
X1159332D01*
Y732268D01*
X1155268D01*
Y706868D02*
Y710932D01*
X1159332D01*
Y706868D01*
X1155268D01*
Y681468D02*
Y685532D01*
X1159332D01*
Y681468D01*
X1155268D01*
Y656068D02*
Y660132D01*
X1159332D01*
Y656068D01*
X1155268D01*
Y630668D02*
Y634732D01*
X1159332D01*
Y630668D01*
X1155268D01*
Y605268D02*
Y609332D01*
X1159332D01*
Y605268D01*
X1155268D01*
Y579868D02*
Y583932D01*
X1159332D01*
Y579868D01*
X1155268D01*
Y554468D02*
Y558532D01*
X1159332D01*
Y554468D01*
X1155268D01*
Y529068D02*
Y533132D01*
X1159332D01*
Y529068D01*
X1155268D01*
Y503668D02*
Y507732D01*
X1159332D01*
Y503668D01*
X1155268D01*
X158300Y592168D02*
X156268Y596232D01*
X160332D01*
X158300Y592168D01*
Y612568D02*
X156268Y616632D01*
X160332D01*
X158300Y612568D01*
Y632968D02*
X156268Y637032D01*
X160332D01*
X158300Y632968D01*
Y653368D02*
X156268Y657432D01*
X160332D01*
X158300Y653368D01*
X176100Y602368D02*
X174068Y606432D01*
X178132D01*
X176100Y602368D01*
Y622768D02*
X174068Y626832D01*
X178132D01*
X176100Y622768D01*
Y643168D02*
X174068Y647232D01*
X178132D01*
X176100Y643168D01*
Y663568D02*
X174068Y667632D01*
X178132D01*
X176100Y663568D01*
X167200Y709268D02*
X168216Y710284D01*
X169232D01*
X168216Y711300D01*
X169232Y712316D01*
X168216D01*
X167200Y713332D01*
X166184Y712316D01*
X165168D01*
X166184Y711300D01*
X165168Y710284D01*
X166184D01*
X167200Y709268D01*
Y546668D02*
X168216Y547684D01*
X169232D01*
X168216Y548700D01*
X169232Y549716D01*
X168216D01*
X167200Y550732D01*
X166184Y549716D01*
X165168D01*
X166184Y548700D01*
X165168Y547684D01*
X166184D01*
X167200Y546668D01*
X594768Y404968D02*
X595784Y407000D01*
X594768Y409032D01*
X596800Y408016D01*
X598832Y409032D01*
X597816Y407000D01*
X598832Y404968D01*
X596800Y405984D01*
X594768Y404968D01*
X158484Y434384D02*
Y433368D01*
X160516D01*
Y434384D01*
X161532D01*
Y436416D01*
X160516D01*
Y437432D01*
X158484D01*
Y436416D01*
X157468D01*
Y434384D01*
X158484D01*
X183884D02*
Y433368D01*
X185916D01*
Y434384D01*
X186932D01*
Y436416D01*
X185916D01*
Y437432D01*
X183884D01*
Y436416D01*
X182868D01*
Y434384D01*
X183884D01*
X209284D02*
Y433368D01*
X211316D01*
Y434384D01*
X212332D01*
Y436416D01*
X211316D01*
Y437432D01*
X209284D01*
Y436416D01*
X208268D01*
Y434384D01*
X209284D01*
X234684D02*
Y433368D01*
X236716D01*
Y434384D01*
X237732D01*
Y436416D01*
X236716D01*
Y437432D01*
X234684D01*
Y436416D01*
X233668D01*
Y434384D01*
X234684D01*
X260084D02*
Y433368D01*
X262116D01*
Y434384D01*
X263132D01*
Y436416D01*
X262116D01*
Y437432D01*
X260084D01*
Y436416D01*
X259068D01*
Y434384D01*
X260084D01*
X285484D02*
Y433368D01*
X287516D01*
Y434384D01*
X288532D01*
Y436416D01*
X287516D01*
Y437432D01*
X285484D01*
Y436416D01*
X284468D01*
Y434384D01*
X285484D01*
X310884D02*
Y433368D01*
X312916D01*
Y434384D01*
X313932D01*
Y436416D01*
X312916D01*
Y437432D01*
X310884D01*
Y436416D01*
X309868D01*
Y434384D01*
X310884D01*
X336284D02*
Y433368D01*
X338316D01*
Y434384D01*
X339332D01*
Y436416D01*
X338316D01*
Y437432D01*
X336284D01*
Y436416D01*
X335268D01*
Y434384D01*
X336284D01*
X361684D02*
Y433368D01*
X363716D01*
Y434384D01*
X364732D01*
Y436416D01*
X363716D01*
Y437432D01*
X361684D01*
Y436416D01*
X360668D01*
Y434384D01*
X361684D01*
X387084D02*
Y433368D01*
X389116D01*
Y434384D01*
X390132D01*
Y436416D01*
X389116D01*
Y437432D01*
X387084D01*
Y436416D01*
X386068D01*
Y434384D01*
X387084D01*
X412484D02*
Y433368D01*
X414516D01*
Y434384D01*
X415532D01*
Y436416D01*
X414516D01*
Y437432D01*
X412484D01*
Y436416D01*
X411468D01*
Y434384D01*
X412484D01*
X437884D02*
Y433368D01*
X439916D01*
Y434384D01*
X440932D01*
Y436416D01*
X439916D01*
Y437432D01*
X437884D01*
Y436416D01*
X436868D01*
Y434384D01*
X437884D01*
X463284D02*
Y433368D01*
X465316D01*
Y434384D01*
X466332D01*
Y436416D01*
X465316D01*
Y437432D01*
X463284D01*
Y436416D01*
X462268D01*
Y434384D01*
X463284D01*
X488684D02*
Y433368D01*
X490716D01*
Y434384D01*
X491732D01*
Y436416D01*
X490716D01*
Y437432D01*
X488684D01*
Y436416D01*
X487668D01*
Y434384D01*
X488684D01*
X514084D02*
Y433368D01*
X516116D01*
Y434384D01*
X517132D01*
Y436416D01*
X516116D01*
Y437432D01*
X514084D01*
Y436416D01*
X513068D01*
Y434384D01*
X514084D01*
X539484Y434384D02*
Y433368D01*
X541516D01*
Y434384D01*
X542532D01*
Y436416D01*
X541516D01*
Y437432D01*
X539484D01*
Y436416D01*
X538468D01*
Y434384D01*
X539484D01*
Y408984D02*
Y407968D01*
X541516D01*
Y408984D01*
X542532D01*
Y411016D01*
X541516D01*
Y412032D01*
X539484D01*
Y411016D01*
X538468D01*
Y408984D01*
X539484D01*
X158484D02*
Y407968D01*
X160516D01*
Y408984D01*
X161532D01*
Y411016D01*
X160516D01*
Y412032D01*
X158484D01*
Y411016D01*
X157468D01*
Y408984D01*
X158484D01*
X183884D02*
Y407968D01*
X185916D01*
Y408984D01*
X186932D01*
Y411016D01*
X185916D01*
Y412032D01*
X183884D01*
Y411016D01*
X182868D01*
Y408984D01*
X183884D01*
X209284D02*
Y407968D01*
X211316D01*
Y408984D01*
X212332D01*
Y411016D01*
X211316D01*
Y412032D01*
X209284D01*
Y411016D01*
X208268D01*
Y408984D01*
X209284D01*
X234684D02*
Y407968D01*
X236716D01*
Y408984D01*
X237732D01*
Y411016D01*
X236716D01*
Y412032D01*
X234684D01*
Y411016D01*
X233668D01*
Y408984D01*
X234684D01*
X260084D02*
Y407968D01*
X262116D01*
Y408984D01*
X263132D01*
Y411016D01*
X262116D01*
Y412032D01*
X260084D01*
Y411016D01*
X259068D01*
Y408984D01*
X260084D01*
X285484D02*
Y407968D01*
X287516D01*
Y408984D01*
X288532D01*
Y411016D01*
X287516D01*
Y412032D01*
X285484D01*
Y411016D01*
X284468D01*
Y408984D01*
X285484D01*
X310884D02*
Y407968D01*
X312916D01*
Y408984D01*
X313932D01*
Y411016D01*
X312916D01*
Y412032D01*
X310884D01*
Y411016D01*
X309868D01*
Y408984D01*
X310884D01*
X336284D02*
Y407968D01*
X338316D01*
Y408984D01*
X339332D01*
Y411016D01*
X338316D01*
Y412032D01*
X336284D01*
Y411016D01*
X335268D01*
Y408984D01*
X336284D01*
X361684D02*
Y407968D01*
X363716D01*
Y408984D01*
X364732D01*
Y411016D01*
X363716D01*
Y412032D01*
X361684D01*
Y411016D01*
X360668D01*
Y408984D01*
X361684D01*
X387084D02*
Y407968D01*
X389116D01*
Y408984D01*
X390132D01*
Y411016D01*
X389116D01*
Y412032D01*
X387084D01*
Y411016D01*
X386068D01*
Y408984D01*
X387084D01*
X412484D02*
Y407968D01*
X414516D01*
Y408984D01*
X415532D01*
Y411016D01*
X414516D01*
Y412032D01*
X412484D01*
Y411016D01*
X411468D01*
Y408984D01*
X412484D01*
X437884D02*
Y407968D01*
X439916D01*
Y408984D01*
X440932D01*
Y411016D01*
X439916D01*
Y412032D01*
X437884D01*
Y411016D01*
X436868D01*
Y408984D01*
X437884D01*
X463284D02*
Y407968D01*
X465316D01*
Y408984D01*
X466332D01*
Y411016D01*
X465316D01*
Y412032D01*
X463284D01*
Y411016D01*
X462268D01*
Y408984D01*
X463284D01*
X488684D02*
Y407968D01*
X490716D01*
Y408984D01*
X491732D01*
Y411016D01*
X490716D01*
Y412032D01*
X488684D01*
Y411016D01*
X487668D01*
Y408984D01*
X488684D01*
X514084D02*
Y407968D01*
X516116D01*
Y408984D01*
X517132D01*
Y411016D01*
X516116D01*
Y412032D01*
X514084D01*
Y411016D01*
X513068D01*
Y408984D01*
X514084D01*
X158484Y383584D02*
Y382568D01*
X160516D01*
Y383584D01*
X161532D01*
Y385616D01*
X160516D01*
Y386632D01*
X158484D01*
Y385616D01*
X157468D01*
Y383584D01*
X158484D01*
X183884D02*
Y382568D01*
X185916D01*
Y383584D01*
X186932D01*
Y385616D01*
X185916D01*
Y386632D01*
X183884D01*
Y385616D01*
X182868D01*
Y383584D01*
X183884D01*
X209284D02*
Y382568D01*
X211316D01*
Y383584D01*
X212332D01*
Y385616D01*
X211316D01*
Y386632D01*
X209284D01*
Y385616D01*
X208268D01*
Y383584D01*
X209284D01*
X234684D02*
Y382568D01*
X236716D01*
Y383584D01*
X237732D01*
Y385616D01*
X236716D01*
Y386632D01*
X234684D01*
Y385616D01*
X233668D01*
Y383584D01*
X234684D01*
X260084D02*
Y382568D01*
X262116D01*
Y383584D01*
X263132D01*
Y385616D01*
X262116D01*
Y386632D01*
X260084D01*
Y385616D01*
X259068D01*
Y383584D01*
X260084D01*
X285484D02*
Y382568D01*
X287516D01*
Y383584D01*
X288532D01*
Y385616D01*
X287516D01*
Y386632D01*
X285484D01*
Y385616D01*
X284468D01*
Y383584D01*
X285484D01*
X310884D02*
Y382568D01*
X312916D01*
Y383584D01*
X313932D01*
Y385616D01*
X312916D01*
Y386632D01*
X310884D01*
Y385616D01*
X309868D01*
Y383584D01*
X310884D01*
X336284D02*
Y382568D01*
X338316D01*
Y383584D01*
X339332D01*
Y385616D01*
X338316D01*
Y386632D01*
X336284D01*
Y385616D01*
X335268D01*
Y383584D01*
X336284D01*
X361684D02*
Y382568D01*
X363716D01*
Y383584D01*
X364732D01*
Y385616D01*
X363716D01*
Y386632D01*
X361684D01*
Y385616D01*
X360668D01*
Y383584D01*
X361684D01*
X387084D02*
Y382568D01*
X389116D01*
Y383584D01*
X390132D01*
Y385616D01*
X389116D01*
Y386632D01*
X387084D01*
Y385616D01*
X386068D01*
Y383584D01*
X387084D01*
X412484D02*
Y382568D01*
X414516D01*
Y383584D01*
X415532D01*
Y385616D01*
X414516D01*
Y386632D01*
X412484D01*
Y385616D01*
X411468D01*
Y383584D01*
X412484D01*
X437884D02*
Y382568D01*
X439916D01*
Y383584D01*
X440932D01*
Y385616D01*
X439916D01*
Y386632D01*
X437884D01*
Y385616D01*
X436868D01*
Y383584D01*
X437884D01*
X463284D02*
Y382568D01*
X465316D01*
Y383584D01*
X466332D01*
Y385616D01*
X465316D01*
Y386632D01*
X463284D01*
Y385616D01*
X462268D01*
Y383584D01*
X463284D01*
X488684D02*
Y382568D01*
X490716D01*
Y383584D01*
X491732D01*
Y385616D01*
X490716D01*
Y386632D01*
X488684D01*
Y385616D01*
X487668D01*
Y383584D01*
X488684D01*
X514084D02*
Y382568D01*
X516116D01*
Y383584D01*
X517132D01*
Y385616D01*
X516116D01*
Y386632D01*
X514084D01*
Y385616D01*
X513068D01*
Y383584D01*
X514084D01*
X539484D02*
Y382568D01*
X541516D01*
Y383584D01*
X542532D01*
Y385616D01*
X541516D01*
Y386632D01*
X539484D01*
Y385616D01*
X538468D01*
Y383584D01*
X539484D01*
X101168Y404968D02*
X102184Y407000D01*
X101168Y409032D01*
X103200Y408016D01*
X105232Y409032D01*
X104216Y407000D01*
X105232Y404968D01*
X103200Y405984D01*
X101168Y404968D01*
X1025268Y503668D02*
Y507732D01*
X1029332D01*
Y503668D01*
X1025268D01*
Y529068D02*
Y533132D01*
X1029332D01*
Y529068D01*
X1025268D01*
Y554468D02*
Y558532D01*
X1029332D01*
Y554468D01*
X1025268D01*
Y579868D02*
Y583932D01*
X1029332D01*
Y579868D01*
X1025268D01*
Y605268D02*
Y609332D01*
X1029332D01*
Y605268D01*
X1025268D01*
Y630668D02*
Y634732D01*
X1029332D01*
Y630668D01*
X1025268D01*
Y656068D02*
Y660132D01*
X1029332D01*
Y656068D01*
X1025268D01*
Y681468D02*
Y685532D01*
X1029332D01*
Y681468D01*
X1025268D01*
Y706868D02*
Y710932D01*
X1029332D01*
Y706868D01*
X1025268D01*
Y732268D02*
Y736332D01*
X1029332D01*
Y732268D01*
X1025268D01*
X1050668Y503668D02*
Y507732D01*
X1054732D01*
Y503668D01*
X1050668D01*
Y529068D02*
Y533132D01*
X1054732D01*
Y529068D01*
X1050668D01*
Y554468D02*
Y558532D01*
X1054732D01*
Y554468D01*
X1050668D01*
Y579868D02*
Y583932D01*
X1054732D01*
Y579868D01*
X1050668D01*
Y605268D02*
Y609332D01*
X1054732D01*
Y605268D01*
X1050668D01*
Y630668D02*
Y634732D01*
X1054732D01*
Y630668D01*
X1050668D01*
Y656068D02*
Y660132D01*
X1054732D01*
Y656068D01*
X1050668D01*
Y681468D02*
Y685532D01*
X1054732D01*
Y681468D01*
X1050668D01*
Y706868D02*
Y710932D01*
X1054732D01*
Y706868D01*
X1050668D01*
Y732268D02*
Y736332D01*
X1054732D01*
Y732268D01*
X1050668D01*
X706968Y407968D02*
X707984D01*
X709000Y408984D01*
X710016Y407968D01*
X711032D01*
Y408984D01*
X710016Y410000D01*
X711032Y411016D01*
Y412032D01*
X710016D01*
X709000Y411016D01*
X707984Y412032D01*
X706968D01*
Y411016D01*
X707984Y410000D01*
X706968Y408984D01*
Y407968D01*
X908968Y410000D02*
X911000Y412032D01*
X913032Y410000D01*
X911000Y407968D01*
X908968Y410000D01*
X1142568Y382568D02*
Y386632D01*
X1146632D01*
Y382568D01*
X1142568D01*
X1143584Y383584D02*
Y385616D01*
X1145616D01*
Y383584D01*
X1143584D01*
X1193368Y382568D02*
Y386632D01*
X1197432D01*
Y382568D01*
X1193368D01*
X1194384Y383584D02*
Y385616D01*
X1196416D01*
Y383584D01*
X1194384D01*
X1193368Y433368D02*
Y437432D01*
X1197432D01*
Y433368D01*
X1193368D01*
X1194384Y434384D02*
Y436416D01*
X1196416D01*
Y434384D01*
X1194384D01*
X1142568Y433368D02*
Y437432D01*
X1146632D01*
Y433368D01*
X1142568D01*
X1143584Y434384D02*
Y436416D01*
X1145616D01*
Y434384D01*
X1143584D01*
X1167968Y407968D02*
Y412032D01*
X1172032D01*
Y407968D01*
X1167968D01*
X1168984Y408984D02*
Y411016D01*
X1171016D01*
Y408984D01*
X1168984D01*
X1012568Y382568D02*
Y386632D01*
X1016632D01*
Y382568D01*
X1012568D01*
X1013584Y383584D02*
Y385616D01*
X1015616D01*
Y383584D01*
X1013584D01*
X1063368Y382568D02*
Y386632D01*
X1067432D01*
Y382568D01*
X1063368D01*
X1064384Y383584D02*
Y385616D01*
X1066416D01*
Y383584D01*
X1064384D01*
X1063368Y433368D02*
Y437432D01*
X1067432D01*
Y433368D01*
X1063368D01*
X1064384Y434384D02*
Y436416D01*
X1066416D01*
Y434384D01*
X1064384D01*
X1012568Y433368D02*
Y437432D01*
X1016632D01*
Y433368D01*
X1012568D01*
X1013584Y434384D02*
Y436416D01*
X1015616D01*
Y434384D01*
X1013584D01*
X1037968Y407968D02*
Y412032D01*
X1042032D01*
Y407968D01*
X1037968D01*
X1038984Y408984D02*
Y411016D01*
X1041016D01*
Y408984D01*
X1038984D01*
X899168Y745468D02*
Y749532D01*
X903232D01*
Y745468D01*
X899168D01*
X873768D02*
Y749532D01*
X877832D01*
Y745468D01*
X873768D01*
X848368D02*
Y749532D01*
X852432D01*
Y745468D01*
X848368D01*
X822968D02*
Y749532D01*
X827032D01*
Y745468D01*
X822968D01*
X797568D02*
Y749532D01*
X801632D01*
Y745468D01*
X797568D01*
X772168D02*
Y749532D01*
X776232D01*
Y745468D01*
X772168D01*
X721368D02*
Y749532D01*
X725432D01*
Y745468D01*
X721368D01*
X670568D02*
Y749532D01*
X674632D01*
Y745468D01*
X670568D01*
X645168D02*
Y749532D01*
X649232D01*
Y745468D01*
X645168D01*
X594368D02*
Y749532D01*
X598432D01*
Y745468D01*
X594368D01*
X568768Y744768D02*
Y748832D01*
X572832D01*
Y744768D01*
X568768D01*
X517968D02*
Y748832D01*
X522032D01*
Y744768D01*
X517968D01*
X467168D02*
Y748832D01*
X471232D01*
Y744768D01*
X467168D01*
X416368D02*
Y748832D01*
X420432D01*
Y744768D01*
X416368D01*
X340168D02*
Y748832D01*
X344232D01*
Y744768D01*
X340168D01*
X263968D02*
Y748832D01*
X268032D01*
Y744768D01*
X263968D01*
X746768Y745468D02*
Y749532D01*
X750832D01*
Y745468D01*
X746768D01*
X899168Y720068D02*
Y724132D01*
X903232D01*
Y720068D01*
X899168D01*
X873768D02*
Y724132D01*
X877832D01*
Y720068D01*
X873768D01*
X848368D02*
Y724132D01*
X852432D01*
Y720068D01*
X848368D01*
X822968D02*
Y724132D01*
X827032D01*
Y720068D01*
X822968D01*
X797568D02*
Y724132D01*
X801632D01*
Y720068D01*
X797568D01*
X772168D02*
Y724132D01*
X776232D01*
Y720068D01*
X772168D01*
X746768D02*
Y724132D01*
X750832D01*
Y720068D01*
X746768D01*
X721368D02*
Y724132D01*
X725432D01*
Y720068D01*
X721368D01*
X899168Y694668D02*
Y698732D01*
X903232D01*
Y694668D01*
X899168D01*
X873768D02*
Y698732D01*
X877832D01*
Y694668D01*
X873768D01*
X848368D02*
Y698732D01*
X852432D01*
Y694668D01*
X848368D01*
X822968D02*
Y698732D01*
X827032D01*
Y694668D01*
X822968D01*
X797568D02*
Y698732D01*
X801632D01*
Y694668D01*
X797568D01*
X772168D02*
Y698732D01*
X776232D01*
Y694668D01*
X772168D01*
X721368D02*
Y698732D01*
X725432D01*
Y694668D01*
X721368D01*
X670568D02*
Y698732D01*
X674632D01*
Y694668D01*
X670568D01*
X645168D02*
Y698732D01*
X649232D01*
Y694668D01*
X645168D01*
X594368D02*
Y698732D01*
X598432D01*
Y694668D01*
X594368D01*
X568768Y693968D02*
Y698032D01*
X572832D01*
Y693968D01*
X568768D01*
X517968D02*
Y698032D01*
X522032D01*
Y693968D01*
X517968D01*
X467168D02*
Y698032D01*
X471232D01*
Y693968D01*
X467168D01*
X416368D02*
Y698032D01*
X420432D01*
Y693968D01*
X416368D01*
X746768Y694668D02*
Y698732D01*
X750832D01*
Y694668D01*
X746768D01*
X899168Y669268D02*
Y673332D01*
X903232D01*
Y669268D01*
X899168D01*
X873768D02*
Y673332D01*
X877832D01*
Y669268D01*
X873768D01*
X848368D02*
Y673332D01*
X852432D01*
Y669268D01*
X848368D01*
X822968D02*
Y673332D01*
X827032D01*
Y669268D01*
X822968D01*
X797568D02*
Y673332D01*
X801632D01*
Y669268D01*
X797568D01*
X772168D02*
Y673332D01*
X776232D01*
Y669268D01*
X772168D01*
X746768D02*
Y673332D01*
X750832D01*
Y669268D01*
X746768D01*
X340168Y660168D02*
Y664232D01*
X344232D01*
Y660168D01*
X340168D01*
X263968D02*
Y664232D01*
X268032D01*
Y660168D01*
X263968D01*
X899168Y643868D02*
Y647932D01*
X903232D01*
Y643868D01*
X899168D01*
X873768D02*
Y647932D01*
X877832D01*
Y643868D01*
X873768D01*
X848368D02*
Y647932D01*
X852432D01*
Y643868D01*
X848368D01*
X822968D02*
Y647932D01*
X827032D01*
Y643868D01*
X822968D01*
X797568D02*
Y647932D01*
X801632D01*
Y643868D01*
X797568D01*
X772168D02*
Y647932D01*
X776232D01*
Y643868D01*
X772168D01*
X721368D02*
Y647932D01*
X725432D01*
Y643868D01*
X721368D01*
X670568D02*
Y647932D01*
X674632D01*
Y643868D01*
X670568D01*
X645168D02*
Y647932D01*
X649232D01*
Y643868D01*
X645168D01*
X594368D02*
Y647932D01*
X598432D01*
Y643868D01*
X594368D01*
X517968Y643168D02*
Y647232D01*
X522032D01*
Y643168D01*
X517968D01*
X467168D02*
Y647232D01*
X471232D01*
Y643168D01*
X467168D01*
X416368D02*
Y647232D01*
X420432D01*
Y643168D01*
X416368D01*
X746768Y643868D02*
Y647932D01*
X750832D01*
Y643868D01*
X746768D01*
X899168Y618468D02*
Y622532D01*
X903232D01*
Y618468D01*
X899168D01*
X873768D02*
Y622532D01*
X877832D01*
Y618468D01*
X873768D01*
X848368D02*
Y622532D01*
X852432D01*
Y618468D01*
X848368D01*
X822968D02*
Y622532D01*
X827032D01*
Y618468D01*
X822968D01*
X797568D02*
Y622532D01*
X801632D01*
Y618468D01*
X797568D01*
X772168D02*
Y622532D01*
X776232D01*
Y618468D01*
X772168D01*
X746768D02*
Y622532D01*
X750832D01*
Y618468D01*
X746768D01*
X721368D02*
Y622532D01*
X725432D01*
Y618468D01*
X721368D01*
X899168Y593068D02*
Y597132D01*
X903232D01*
Y593068D01*
X899168D01*
X873768D02*
Y597132D01*
X877832D01*
Y593068D01*
X873768D01*
X848368D02*
Y597132D01*
X852432D01*
Y593068D01*
X848368D01*
X822968D02*
Y597132D01*
X827032D01*
Y593068D01*
X822968D01*
X797568D02*
Y597132D01*
X801632D01*
Y593068D01*
X797568D01*
X772168D02*
Y597132D01*
X776232D01*
Y593068D01*
X772168D01*
X721368D02*
Y597132D01*
X725432D01*
Y593068D01*
X721368D01*
X670568D02*
Y597132D01*
X674632D01*
Y593068D01*
X670568D01*
X645168D02*
Y597132D01*
X649232D01*
Y593068D01*
X645168D01*
X594368D02*
Y597132D01*
X598432D01*
Y593068D01*
X594368D01*
X568768Y592368D02*
Y596432D01*
X572832D01*
Y592368D01*
X568768D01*
X517968D02*
Y596432D01*
X522032D01*
Y592368D01*
X517968D01*
X467168D02*
Y596432D01*
X471232D01*
Y592368D01*
X467168D01*
X340168Y575468D02*
Y579532D01*
X344232D01*
Y575468D01*
X340168D01*
X263968D02*
Y579532D01*
X268032D01*
Y575468D01*
X263968D01*
X746768Y593068D02*
Y597132D01*
X750832D01*
Y593068D01*
X746768D01*
X899168Y567668D02*
Y571732D01*
X903232D01*
Y567668D01*
X899168D01*
X873768D02*
Y571732D01*
X877832D01*
Y567668D01*
X873768D01*
X848368D02*
Y571732D01*
X852432D01*
Y567668D01*
X848368D01*
X822968D02*
Y571732D01*
X827032D01*
Y567668D01*
X822968D01*
X797568D02*
Y571732D01*
X801632D01*
Y567668D01*
X797568D01*
X772168D02*
Y571732D01*
X776232D01*
Y567668D01*
X772168D01*
X746768D02*
Y571732D01*
X750832D01*
Y567668D01*
X746768D01*
X721368D02*
Y571732D01*
X725432D01*
Y567668D01*
X721368D01*
X899168Y542268D02*
Y546332D01*
X903232D01*
Y542268D01*
X899168D01*
X873768D02*
Y546332D01*
X877832D01*
Y542268D01*
X873768D01*
X848368D02*
Y546332D01*
X852432D01*
Y542268D01*
X848368D01*
X822968D02*
Y546332D01*
X827032D01*
Y542268D01*
X822968D01*
X797568D02*
Y546332D01*
X801632D01*
Y542268D01*
X797568D01*
X772168D02*
Y546332D01*
X776232D01*
Y542268D01*
X772168D01*
X721368D02*
Y546332D01*
X725432D01*
Y542268D01*
X721368D01*
X670568D02*
Y546332D01*
X674632D01*
Y542268D01*
X670568D01*
X645168D02*
Y546332D01*
X649232D01*
Y542268D01*
X645168D01*
X594368D02*
Y546332D01*
X598432D01*
Y542268D01*
X594368D01*
X568768Y541568D02*
Y545632D01*
X572832D01*
Y541568D01*
X568768D01*
X517968D02*
Y545632D01*
X522032D01*
Y541568D01*
X517968D01*
X467168D02*
Y545632D01*
X471232D01*
Y541568D01*
X467168D01*
X746768Y542268D02*
Y546332D01*
X750832D01*
Y542268D01*
X746768D01*
X899168Y516868D02*
Y520932D01*
X903232D01*
Y516868D01*
X899168D01*
X873768D02*
Y520932D01*
X877832D01*
Y516868D01*
X873768D01*
X848368D02*
Y520932D01*
X852432D01*
Y516868D01*
X848368D01*
X822968D02*
Y520932D01*
X827032D01*
Y516868D01*
X822968D01*
X797568D02*
Y520932D01*
X801632D01*
Y516868D01*
X797568D01*
X772168D02*
Y520932D01*
X776232D01*
Y516868D01*
X772168D01*
X746768D02*
Y520932D01*
X750832D01*
Y516868D01*
X746768D01*
X721368D02*
Y520932D01*
X725432D01*
Y516868D01*
X721368D01*
X899168Y491468D02*
Y495532D01*
X903232D01*
Y491468D01*
X899168D01*
X873768D02*
Y495532D01*
X877832D01*
Y491468D01*
X873768D01*
X848368D02*
Y495532D01*
X852432D01*
Y491468D01*
X848368D01*
X822968D02*
Y495532D01*
X827032D01*
Y491468D01*
X822968D01*
X797568D02*
Y495532D01*
X801632D01*
Y491468D01*
X797568D01*
X772168D02*
Y495532D01*
X776232D01*
Y491468D01*
X772168D01*
X721368D02*
Y495532D01*
X725432D01*
Y491468D01*
X721368D01*
X670568D02*
Y495532D01*
X674632D01*
Y491468D01*
X670568D01*
X645168D02*
Y495532D01*
X649232D01*
Y491468D01*
X645168D01*
X594368D02*
Y495532D01*
X598432D01*
Y491468D01*
X594368D01*
X568768Y490768D02*
Y494832D01*
X572832D01*
Y490768D01*
X568768D01*
X517968D02*
Y494832D01*
X522032D01*
Y490768D01*
X517968D01*
X467168D02*
Y494832D01*
X471232D01*
Y490768D01*
X467168D01*
X416368D02*
Y494832D01*
X420432D01*
Y490768D01*
X416368D01*
Y494832D01*
X420432D01*
Y490768D01*
X416368D01*
X340168D02*
Y494832D01*
X344232D01*
Y490768D01*
X340168D01*
X263968D02*
Y494832D01*
X268032D01*
Y490768D01*
X263968D01*
X746768Y491468D02*
Y495532D01*
X750832D01*
Y491468D01*
X746768D01*
X416368Y541568D02*
Y545632D01*
X420432D01*
Y541568D01*
X416368D01*
Y592368D02*
Y596432D01*
X420432D01*
Y592368D01*
X416368D01*
X568768Y643168D02*
Y647232D01*
X572832D01*
Y643168D01*
X568768D01*
X721368Y669268D02*
Y673332D01*
X725432D01*
Y669268D01*
X721368D01*
X949968Y745468D02*
Y749532D01*
X954032D01*
Y745468D01*
X949968D01*
X924568D02*
Y749532D01*
X928632D01*
Y745468D01*
X924568D01*
X949968Y720068D02*
Y724132D01*
X954032D01*
Y720068D01*
X949968D01*
X924568D02*
Y724132D01*
X928632D01*
Y720068D01*
X924568D01*
X949968Y694668D02*
Y698732D01*
X954032D01*
Y694668D01*
X949968D01*
X924568D02*
Y698732D01*
X928632D01*
Y694668D01*
X924568D01*
X949968Y669268D02*
Y673332D01*
X954032D01*
Y669268D01*
X949968D01*
X924568D02*
Y673332D01*
X928632D01*
Y669268D01*
X924568D01*
X949968Y643868D02*
Y647932D01*
X954032D01*
Y643868D01*
X949968D01*
X924568D02*
Y647932D01*
X928632D01*
Y643868D01*
X924568D01*
X949968Y618468D02*
Y622532D01*
X954032D01*
Y618468D01*
X949968D01*
X924568D02*
Y622532D01*
X928632D01*
Y618468D01*
X924568D01*
X949968Y593068D02*
Y597132D01*
X954032D01*
Y593068D01*
X949968D01*
X924568D02*
Y597132D01*
X928632D01*
Y593068D01*
X924568D01*
X949968Y567668D02*
Y571732D01*
X954032D01*
Y567668D01*
X949968D01*
X924568D02*
Y571732D01*
X928632D01*
Y567668D01*
X924568D01*
X949968Y542268D02*
Y546332D01*
X954032D01*
Y542268D01*
X949968D01*
X924568D02*
Y546332D01*
X928632D01*
Y542268D01*
X924568D01*
X949968Y516868D02*
Y520932D01*
X954032D01*
Y516868D01*
X949968D01*
X924568D02*
Y520932D01*
X928632D01*
Y516868D01*
X924568D01*
X949968Y491468D02*
Y495532D01*
X954032D01*
Y491468D01*
X949968D01*
X924568D02*
Y495532D01*
X928632D01*
Y491468D01*
X924568D01*
D294*
X134932Y566500D02*
G03*
X134932Y566500I-2032J0D01*
G01*
Y693500D02*
G03*
X134932Y693500I-2032J0D01*
G01*
M02*
