G04 Layer_Color=255*
%FSLAX44Y44*%
%MOMM*%
G71*
G01*
G75*
%ADD11C,1.0000*%
%ADD18R,0.6000X0.5000*%
%ADD20R,0.3000X0.3000*%
G04:AMPARAMS|DCode=21|XSize=0.2mm|YSize=0.18mm|CornerRadius=0.0225mm|HoleSize=0mm|Usage=FLASHONLY|Rotation=0.000|XOffset=0mm|YOffset=0mm|HoleType=Round|Shape=RoundedRectangle|*
%AMROUNDEDRECTD21*
21,1,0.2000,0.1350,0,0,0.0*
21,1,0.1550,0.1800,0,0,0.0*
1,1,0.0450,0.0775,-0.0675*
1,1,0.0450,-0.0775,-0.0675*
1,1,0.0450,-0.0775,0.0675*
1,1,0.0450,0.0775,0.0675*
%
%ADD21ROUNDEDRECTD21*%
%ADD22R,0.9000X0.6000*%
%ADD23R,0.9500X1.4000*%
%ADD24R,0.6000X0.9000*%
%ADD25R,0.5000X0.6000*%
%ADD27R,0.3000X0.3000*%
G04:AMPARAMS|DCode=28|XSize=0.2mm|YSize=0.18mm|CornerRadius=0.0225mm|HoleSize=0mm|Usage=FLASHONLY|Rotation=90.000|XOffset=0mm|YOffset=0mm|HoleType=Round|Shape=RoundedRectangle|*
%AMROUNDEDRECTD28*
21,1,0.2000,0.1350,0,0,90.0*
21,1,0.1550,0.1800,0,0,90.0*
1,1,0.0450,0.0675,0.0775*
1,1,0.0450,0.0675,-0.0775*
1,1,0.0450,-0.0675,-0.0775*
1,1,0.0450,-0.0675,0.0775*
%
%ADD28ROUNDEDRECTD28*%
%ADD35C,0.4600*%
%ADD54C,1.8500*%
%ADD55C,3.2500*%
%ADD56C,1.5000*%
%ADD57C,2.2000*%
%ADD58C,1.7500*%
%ADD59C,0.8000*%
%ADD60C,1.2000*%
%ADD61C,2.5400*%
%ADD62C,1.8000*%
G04:AMPARAMS|DCode=83|XSize=1.7mm|YSize=0.35mm|CornerRadius=0.0875mm|HoleSize=0mm|Usage=FLASHONLY|Rotation=0.000|XOffset=0mm|YOffset=0mm|HoleType=Round|Shape=RoundedRectangle|*
%AMROUNDEDRECTD83*
21,1,1.7000,0.1750,0,0,0.0*
21,1,1.5250,0.3500,0,0,0.0*
1,1,0.1750,0.7625,-0.0875*
1,1,0.1750,-0.7625,-0.0875*
1,1,0.1750,-0.7625,0.0875*
1,1,0.1750,0.7625,0.0875*
%
%ADD83ROUNDEDRECTD83*%
G04:AMPARAMS|DCode=84|XSize=1.7mm|YSize=0.5mm|CornerRadius=0.125mm|HoleSize=0mm|Usage=FLASHONLY|Rotation=0.000|XOffset=0mm|YOffset=0mm|HoleType=Round|Shape=RoundedRectangle|*
%AMROUNDEDRECTD84*
21,1,1.7000,0.2500,0,0,0.0*
21,1,1.4500,0.5000,0,0,0.0*
1,1,0.2500,0.7250,-0.1250*
1,1,0.2500,-0.7250,-0.1250*
1,1,0.2500,-0.7250,0.1250*
1,1,0.2500,0.7250,0.1250*
%
%ADD84ROUNDEDRECTD84*%
G04:AMPARAMS|DCode=85|XSize=1.7mm|YSize=0.2mm|CornerRadius=0.05mm|HoleSize=0mm|Usage=FLASHONLY|Rotation=0.000|XOffset=0mm|YOffset=0mm|HoleType=Round|Shape=RoundedRectangle|*
%AMROUNDEDRECTD85*
21,1,1.7000,0.1000,0,0,0.0*
21,1,1.6000,0.2000,0,0,0.0*
1,1,0.1000,0.8000,-0.0500*
1,1,0.1000,-0.8000,-0.0500*
1,1,0.1000,-0.8000,0.0500*
1,1,0.1000,0.8000,0.0500*
%
%ADD85ROUNDEDRECTD85*%
G04:AMPARAMS|DCode=86|XSize=0.9mm|YSize=0.6mm|CornerRadius=0mm|HoleSize=0mm|Usage=FLASHONLY|Rotation=110.000|XOffset=0mm|YOffset=0mm|HoleType=Round|Shape=Rectangle|*
%AMROTATEDRECTD86*
4,1,4,0.4358,-0.3203,-0.1280,-0.5255,-0.4358,0.3203,0.1280,0.5255,0.4358,-0.3203,0.0*
%
%ADD86ROTATEDRECTD86*%

G04:AMPARAMS|DCode=87|XSize=0.9mm|YSize=0.6mm|CornerRadius=0mm|HoleSize=0mm|Usage=FLASHONLY|Rotation=120.000|XOffset=0mm|YOffset=0mm|HoleType=Round|Shape=Rectangle|*
%AMROTATEDRECTD87*
4,1,4,0.4848,-0.2397,-0.0348,-0.5397,-0.4848,0.2397,0.0348,0.5397,0.4848,-0.2397,0.0*
%
%ADD87ROTATEDRECTD87*%

G04:AMPARAMS|DCode=88|XSize=0.9mm|YSize=0.6mm|CornerRadius=0mm|HoleSize=0mm|Usage=FLASHONLY|Rotation=130.000|XOffset=0mm|YOffset=0mm|HoleType=Round|Shape=Rectangle|*
%AMROTATEDRECTD88*
4,1,4,0.5191,-0.1519,0.0594,-0.5376,-0.5191,0.1519,-0.0594,0.5376,0.5191,-0.1519,0.0*
%
%ADD88ROTATEDRECTD88*%

G04:AMPARAMS|DCode=89|XSize=0.9mm|YSize=0.6mm|CornerRadius=0mm|HoleSize=0mm|Usage=FLASHONLY|Rotation=140.000|XOffset=0mm|YOffset=0mm|HoleType=Round|Shape=Rectangle|*
%AMROTATEDRECTD89*
4,1,4,0.5376,-0.0594,0.1519,-0.5191,-0.5376,0.0594,-0.1519,0.5191,0.5376,-0.0594,0.0*
%
%ADD89ROTATEDRECTD89*%

G04:AMPARAMS|DCode=90|XSize=0.9mm|YSize=0.6mm|CornerRadius=0mm|HoleSize=0mm|Usage=FLASHONLY|Rotation=190.000|XOffset=0mm|YOffset=0mm|HoleType=Round|Shape=Rectangle|*
%AMROTATEDRECTD90*
4,1,4,0.3911,0.3736,0.4953,-0.2173,-0.3911,-0.3736,-0.4953,0.2173,0.3911,0.3736,0.0*
%
%ADD90ROTATEDRECTD90*%

G04:AMPARAMS|DCode=91|XSize=0.9mm|YSize=0.6mm|CornerRadius=0mm|HoleSize=0mm|Usage=FLASHONLY|Rotation=200.000|XOffset=0mm|YOffset=0mm|HoleType=Round|Shape=Rectangle|*
%AMROTATEDRECTD91*
4,1,4,0.3203,0.4358,0.5255,-0.1280,-0.3203,-0.4358,-0.5255,0.1280,0.3203,0.4358,0.0*
%
%ADD91ROTATEDRECTD91*%

G04:AMPARAMS|DCode=92|XSize=0.9mm|YSize=0.6mm|CornerRadius=0mm|HoleSize=0mm|Usage=FLASHONLY|Rotation=100.000|XOffset=0mm|YOffset=0mm|HoleType=Round|Shape=Rectangle|*
%AMROTATEDRECTD92*
4,1,4,0.3736,-0.3911,-0.2173,-0.4953,-0.3736,0.3911,0.2173,0.4953,0.3736,-0.3911,0.0*
%
%ADD92ROTATEDRECTD92*%

G04:AMPARAMS|DCode=93|XSize=0.9mm|YSize=0.6mm|CornerRadius=0mm|HoleSize=0mm|Usage=FLASHONLY|Rotation=150.000|XOffset=0mm|YOffset=0mm|HoleType=Round|Shape=Rectangle|*
%AMROTATEDRECTD93*
4,1,4,0.5397,0.0348,0.2397,-0.4848,-0.5397,-0.0348,-0.2397,0.4848,0.5397,0.0348,0.0*
%
%ADD93ROTATEDRECTD93*%

G04:AMPARAMS|DCode=94|XSize=0.9mm|YSize=0.6mm|CornerRadius=0mm|HoleSize=0mm|Usage=FLASHONLY|Rotation=160.000|XOffset=0mm|YOffset=0mm|HoleType=Round|Shape=Rectangle|*
%AMROTATEDRECTD94*
4,1,4,0.5255,0.1280,0.3203,-0.4358,-0.5255,-0.1280,-0.3203,0.4358,0.5255,0.1280,0.0*
%
%ADD94ROTATEDRECTD94*%

G04:AMPARAMS|DCode=95|XSize=0.9mm|YSize=0.6mm|CornerRadius=0mm|HoleSize=0mm|Usage=FLASHONLY|Rotation=170.000|XOffset=0mm|YOffset=0mm|HoleType=Round|Shape=Rectangle|*
%AMROTATEDRECTD95*
4,1,4,0.4953,0.2173,0.3911,-0.3736,-0.4953,-0.2173,-0.3911,0.3736,0.4953,0.2173,0.0*
%
%ADD95ROTATEDRECTD95*%

G04:AMPARAMS|DCode=96|XSize=0.9mm|YSize=0.6mm|CornerRadius=0mm|HoleSize=0mm|Usage=FLASHONLY|Rotation=230.000|XOffset=0mm|YOffset=0mm|HoleType=Round|Shape=Rectangle|*
%AMROTATEDRECTD96*
4,1,4,0.0594,0.5376,0.5191,0.1519,-0.0594,-0.5376,-0.5191,-0.1519,0.0594,0.5376,0.0*
%
%ADD96ROTATEDRECTD96*%

G04:AMPARAMS|DCode=97|XSize=0.9mm|YSize=0.6mm|CornerRadius=0mm|HoleSize=0mm|Usage=FLASHONLY|Rotation=240.000|XOffset=0mm|YOffset=0mm|HoleType=Round|Shape=Rectangle|*
%AMROTATEDRECTD97*
4,1,4,-0.0348,0.5397,0.4848,0.2397,0.0348,-0.5397,-0.4848,-0.2397,-0.0348,0.5397,0.0*
%
%ADD97ROTATEDRECTD97*%

G04:AMPARAMS|DCode=98|XSize=0.9mm|YSize=0.6mm|CornerRadius=0mm|HoleSize=0mm|Usage=FLASHONLY|Rotation=250.000|XOffset=0mm|YOffset=0mm|HoleType=Round|Shape=Rectangle|*
%AMROTATEDRECTD98*
4,1,4,-0.1280,0.5255,0.4358,0.3203,0.1280,-0.5255,-0.4358,-0.3203,-0.1280,0.5255,0.0*
%
%ADD98ROTATEDRECTD98*%

G04:AMPARAMS|DCode=99|XSize=0.9mm|YSize=0.6mm|CornerRadius=0mm|HoleSize=0mm|Usage=FLASHONLY|Rotation=260.000|XOffset=0mm|YOffset=0mm|HoleType=Round|Shape=Rectangle|*
%AMROTATEDRECTD99*
4,1,4,-0.2173,0.4953,0.3736,0.3911,0.2173,-0.4953,-0.3736,-0.3911,-0.2173,0.4953,0.0*
%
%ADD99ROTATEDRECTD99*%

G04:AMPARAMS|DCode=100|XSize=0.9mm|YSize=0.6mm|CornerRadius=0mm|HoleSize=0mm|Usage=FLASHONLY|Rotation=210.000|XOffset=0mm|YOffset=0mm|HoleType=Round|Shape=Rectangle|*
%AMROTATEDRECTD100*
4,1,4,0.2397,0.4848,0.5397,-0.0348,-0.2397,-0.4848,-0.5397,0.0348,0.2397,0.4848,0.0*
%
%ADD100ROTATEDRECTD100*%

G04:AMPARAMS|DCode=101|XSize=0.9mm|YSize=0.6mm|CornerRadius=0mm|HoleSize=0mm|Usage=FLASHONLY|Rotation=220.000|XOffset=0mm|YOffset=0mm|HoleType=Round|Shape=Rectangle|*
%AMROTATEDRECTD101*
4,1,4,0.1519,0.5191,0.5376,0.0594,-0.1519,-0.5191,-0.5376,-0.0594,0.1519,0.5191,0.0*
%
%ADD101ROTATEDRECTD101*%

G04:AMPARAMS|DCode=102|XSize=0.6mm|YSize=0.5mm|CornerRadius=0mm|HoleSize=0mm|Usage=FLASHONLY|Rotation=50.000|XOffset=0mm|YOffset=0mm|HoleType=Round|Shape=Rectangle|*
%AMROTATEDRECTD102*
4,1,4,-0.0013,-0.3905,-0.3844,-0.0691,0.0013,0.3905,0.3844,0.0691,-0.0013,-0.3905,0.0*
%
%ADD102ROTATEDRECTD102*%

G04:AMPARAMS|DCode=103|XSize=0.6mm|YSize=0.5mm|CornerRadius=0mm|HoleSize=0mm|Usage=FLASHONLY|Rotation=60.000|XOffset=0mm|YOffset=0mm|HoleType=Round|Shape=Rectangle|*
%AMROTATEDRECTD103*
4,1,4,0.0665,-0.3848,-0.3665,-0.1348,-0.0665,0.3848,0.3665,0.1348,0.0665,-0.3848,0.0*
%
%ADD103ROTATEDRECTD103*%

G04:AMPARAMS|DCode=104|XSize=0.6mm|YSize=0.5mm|CornerRadius=0mm|HoleSize=0mm|Usage=FLASHONLY|Rotation=70.000|XOffset=0mm|YOffset=0mm|HoleType=Round|Shape=Rectangle|*
%AMROTATEDRECTD104*
4,1,4,0.1323,-0.3674,-0.3375,-0.1964,-0.1323,0.3674,0.3375,0.1964,0.1323,-0.3674,0.0*
%
%ADD104ROTATEDRECTD104*%

G04:AMPARAMS|DCode=105|XSize=0.6mm|YSize=0.5mm|CornerRadius=0mm|HoleSize=0mm|Usage=FLASHONLY|Rotation=80.000|XOffset=0mm|YOffset=0mm|HoleType=Round|Shape=Rectangle|*
%AMROTATEDRECTD105*
4,1,4,0.1941,-0.3388,-0.2983,-0.2520,-0.1941,0.3388,0.2983,0.2520,0.1941,-0.3388,0.0*
%
%ADD105ROTATEDRECTD105*%

G04:AMPARAMS|DCode=106|XSize=0.6mm|YSize=0.5mm|CornerRadius=0mm|HoleSize=0mm|Usage=FLASHONLY|Rotation=160.000|XOffset=0mm|YOffset=0mm|HoleType=Round|Shape=Rectangle|*
%AMROTATEDRECTD106*
4,1,4,0.3674,0.1323,0.1964,-0.3375,-0.3674,-0.1323,-0.1964,0.3375,0.3674,0.1323,0.0*
%
%ADD106ROTATEDRECTD106*%

G04:AMPARAMS|DCode=107|XSize=0.6mm|YSize=0.5mm|CornerRadius=0mm|HoleSize=0mm|Usage=FLASHONLY|Rotation=320.000|XOffset=0mm|YOffset=0mm|HoleType=Round|Shape=Rectangle|*
%AMROTATEDRECTD107*
4,1,4,-0.3905,0.0013,-0.0691,0.3844,0.3905,-0.0013,0.0691,-0.3844,-0.3905,0.0013,0.0*
%
%ADD107ROTATEDRECTD107*%

G04:AMPARAMS|DCode=108|XSize=0.6mm|YSize=0.5mm|CornerRadius=0mm|HoleSize=0mm|Usage=FLASHONLY|Rotation=350.000|XOffset=0mm|YOffset=0mm|HoleType=Round|Shape=Rectangle|*
%AMROTATEDRECTD108*
4,1,4,-0.3388,-0.1941,-0.2520,0.2983,0.3388,0.1941,0.2520,-0.2983,-0.3388,-0.1941,0.0*
%
%ADD108ROTATEDRECTD108*%

G04:AMPARAMS|DCode=109|XSize=0.6mm|YSize=0.5mm|CornerRadius=0mm|HoleSize=0mm|Usage=FLASHONLY|Rotation=10.000|XOffset=0mm|YOffset=0mm|HoleType=Round|Shape=Rectangle|*
%AMROTATEDRECTD109*
4,1,4,-0.2520,-0.2983,-0.3388,0.1941,0.2520,0.2983,0.3388,-0.1941,-0.2520,-0.2983,0.0*
%
%ADD109ROTATEDRECTD109*%

G04:AMPARAMS|DCode=110|XSize=0.6mm|YSize=0.5mm|CornerRadius=0mm|HoleSize=0mm|Usage=FLASHONLY|Rotation=20.000|XOffset=0mm|YOffset=0mm|HoleType=Round|Shape=Rectangle|*
%AMROTATEDRECTD110*
4,1,4,-0.1964,-0.3375,-0.3674,0.1323,0.1964,0.3375,0.3674,-0.1323,-0.1964,-0.3375,0.0*
%
%ADD110ROTATEDRECTD110*%

G04:AMPARAMS|DCode=111|XSize=0.6mm|YSize=0.5mm|CornerRadius=0mm|HoleSize=0mm|Usage=FLASHONLY|Rotation=30.000|XOffset=0mm|YOffset=0mm|HoleType=Round|Shape=Rectangle|*
%AMROTATEDRECTD111*
4,1,4,-0.1348,-0.3665,-0.3848,0.0665,0.1348,0.3665,0.3848,-0.0665,-0.1348,-0.3665,0.0*
%
%ADD111ROTATEDRECTD111*%

G04:AMPARAMS|DCode=112|XSize=0.6mm|YSize=0.5mm|CornerRadius=0mm|HoleSize=0mm|Usage=FLASHONLY|Rotation=40.000|XOffset=0mm|YOffset=0mm|HoleType=Round|Shape=Rectangle|*
%AMROTATEDRECTD112*
4,1,4,-0.0691,-0.3844,-0.3905,-0.0013,0.0691,0.3844,0.3905,0.0013,-0.0691,-0.3844,0.0*
%
%ADD112ROTATEDRECTD112*%

G04:AMPARAMS|DCode=113|XSize=0.6mm|YSize=0.5mm|CornerRadius=0mm|HoleSize=0mm|Usage=FLASHONLY|Rotation=150.000|XOffset=0mm|YOffset=0mm|HoleType=Round|Shape=Rectangle|*
%AMROTATEDRECTD113*
4,1,4,0.3848,0.0665,0.1348,-0.3665,-0.3848,-0.0665,-0.1348,0.3665,0.3848,0.0665,0.0*
%
%ADD113ROTATEDRECTD113*%

G04:AMPARAMS|DCode=114|XSize=0.6mm|YSize=0.5mm|CornerRadius=0mm|HoleSize=0mm|Usage=FLASHONLY|Rotation=310.000|XOffset=0mm|YOffset=0mm|HoleType=Round|Shape=Rectangle|*
%AMROTATEDRECTD114*
4,1,4,-0.3844,0.0691,-0.0013,0.3905,0.3844,-0.0691,0.0013,-0.3905,-0.3844,0.0691,0.0*
%
%ADD114ROTATEDRECTD114*%

G04:AMPARAMS|DCode=115|XSize=0.6mm|YSize=0.5mm|CornerRadius=0mm|HoleSize=0mm|Usage=FLASHONLY|Rotation=280.000|XOffset=0mm|YOffset=0mm|HoleType=Round|Shape=Rectangle|*
%AMROTATEDRECTD115*
4,1,4,-0.2983,0.2520,0.1941,0.3388,0.2983,-0.2520,-0.1941,-0.3388,-0.2983,0.2520,0.0*
%
%ADD115ROTATEDRECTD115*%

G04:AMPARAMS|DCode=116|XSize=0.6mm|YSize=0.5mm|CornerRadius=0mm|HoleSize=0mm|Usage=FLASHONLY|Rotation=290.000|XOffset=0mm|YOffset=0mm|HoleType=Round|Shape=Rectangle|*
%AMROTATEDRECTD116*
4,1,4,-0.3375,0.1964,0.1323,0.3674,0.3375,-0.1964,-0.1323,-0.3674,-0.3375,0.1964,0.0*
%
%ADD116ROTATEDRECTD116*%

G04:AMPARAMS|DCode=117|XSize=0.6mm|YSize=0.5mm|CornerRadius=0mm|HoleSize=0mm|Usage=FLASHONLY|Rotation=300.000|XOffset=0mm|YOffset=0mm|HoleType=Round|Shape=Rectangle|*
%AMROTATEDRECTD117*
4,1,4,-0.3665,0.1348,0.0665,0.3848,0.3665,-0.1348,-0.0665,-0.3848,-0.3665,0.1348,0.0*
%
%ADD117ROTATEDRECTD117*%

%ADD118P,0.4243X4X285.0*%
%ADD119P,0.4243X4X385.0*%
%ADD120P,0.4243X4X55.0*%
%ADD121P,0.4243X4X165.0*%
%ADD122P,0.4243X4X125.0*%
%ADD123P,0.4243X4X185.0*%
%ADD124P,0.4243X4X275.0*%
%ADD125P,0.4243X4X395.0*%
%ADD126P,0.4243X4X75.0*%
%ADD127P,0.4243X4X85.0*%
%ADD128P,0.4243X4X325.0*%
%ADD129P,0.4243X4X375.0*%
%ADD130P,0.4243X4X355.0*%
%ADD131P,0.4243X4X115.0*%
%ADD132P,0.4243X4X335.0*%
%ADD133P,0.4243X4X245.0*%
G04:AMPARAMS|DCode=134|XSize=0.2mm|YSize=0.18mm|CornerRadius=0.0225mm|HoleSize=0mm|Usage=FLASHONLY|Rotation=150.000|XOffset=0mm|YOffset=0mm|HoleType=Round|Shape=RoundedRectangle|*
%AMROUNDEDRECTD134*
21,1,0.2000,0.1350,0,0,150.0*
21,1,0.1550,0.1800,0,0,150.0*
1,1,0.0450,-0.0334,0.0972*
1,1,0.0450,0.1009,0.0197*
1,1,0.0450,0.0334,-0.0972*
1,1,0.0450,-0.1009,-0.0197*
%
%ADD134ROUNDEDRECTD134*%
G04:AMPARAMS|DCode=135|XSize=0.2mm|YSize=0.18mm|CornerRadius=0.0225mm|HoleSize=0mm|Usage=FLASHONLY|Rotation=120.000|XOffset=0mm|YOffset=0mm|HoleType=Round|Shape=RoundedRectangle|*
%AMROUNDEDRECTD135*
21,1,0.2000,0.1350,0,0,120.0*
21,1,0.1550,0.1800,0,0,120.0*
1,1,0.0450,0.0197,0.1009*
1,1,0.0450,0.0972,-0.0334*
1,1,0.0450,-0.0197,-0.1009*
1,1,0.0450,-0.0972,0.0334*
%
%ADD135ROUNDEDRECTD135*%
G04:AMPARAMS|DCode=136|XSize=0.2mm|YSize=0.18mm|CornerRadius=0.0225mm|HoleSize=0mm|Usage=FLASHONLY|Rotation=20.000|XOffset=0mm|YOffset=0mm|HoleType=Round|Shape=RoundedRectangle|*
%AMROUNDEDRECTD136*
21,1,0.2000,0.1350,0,0,20.0*
21,1,0.1550,0.1800,0,0,20.0*
1,1,0.0450,0.0959,-0.0369*
1,1,0.0450,-0.0497,-0.0899*
1,1,0.0450,-0.0959,0.0369*
1,1,0.0450,0.0497,0.0899*
%
%ADD136ROUNDEDRECTD136*%
G04:AMPARAMS|DCode=137|XSize=0.2mm|YSize=0.18mm|CornerRadius=0.0225mm|HoleSize=0mm|Usage=FLASHONLY|Rotation=130.000|XOffset=0mm|YOffset=0mm|HoleType=Round|Shape=RoundedRectangle|*
%AMROUNDEDRECTD137*
21,1,0.2000,0.1350,0,0,130.0*
21,1,0.1550,0.1800,0,0,130.0*
1,1,0.0450,0.0019,0.1028*
1,1,0.0450,0.1015,-0.0160*
1,1,0.0450,-0.0019,-0.1028*
1,1,0.0450,-0.1015,0.0160*
%
%ADD137ROUNDEDRECTD137*%
G04:AMPARAMS|DCode=138|XSize=0.2mm|YSize=0.18mm|CornerRadius=0.0225mm|HoleSize=0mm|Usage=FLASHONLY|Rotation=10.000|XOffset=0mm|YOffset=0mm|HoleType=Round|Shape=RoundedRectangle|*
%AMROUNDEDRECTD138*
21,1,0.2000,0.1350,0,0,10.0*
21,1,0.1550,0.1800,0,0,10.0*
1,1,0.0450,0.0880,-0.0530*
1,1,0.0450,-0.0646,-0.0799*
1,1,0.0450,-0.0880,0.0530*
1,1,0.0450,0.0646,0.0799*
%
%ADD138ROUNDEDRECTD138*%
G04:AMPARAMS|DCode=139|XSize=0.2mm|YSize=0.18mm|CornerRadius=0.0225mm|HoleSize=0mm|Usage=FLASHONLY|Rotation=110.000|XOffset=0mm|YOffset=0mm|HoleType=Round|Shape=RoundedRectangle|*
%AMROUNDEDRECTD139*
21,1,0.2000,0.1350,0,0,110.0*
21,1,0.1550,0.1800,0,0,110.0*
1,1,0.0450,0.0369,0.0959*
1,1,0.0450,0.0899,-0.0497*
1,1,0.0450,-0.0369,-0.0959*
1,1,0.0450,-0.0899,0.0497*
%
%ADD139ROUNDEDRECTD139*%
G04:AMPARAMS|DCode=140|XSize=0.2mm|YSize=0.18mm|CornerRadius=0.0225mm|HoleSize=0mm|Usage=FLASHONLY|Rotation=140.000|XOffset=0mm|YOffset=0mm|HoleType=Round|Shape=RoundedRectangle|*
%AMROUNDEDRECTD140*
21,1,0.2000,0.1350,0,0,140.0*
21,1,0.1550,0.1800,0,0,140.0*
1,1,0.0450,-0.0160,0.1015*
1,1,0.0450,0.1028,0.0019*
1,1,0.0450,0.0160,-0.1015*
1,1,0.0450,-0.1028,-0.0019*
%
%ADD140ROUNDEDRECTD140*%
G04:AMPARAMS|DCode=141|XSize=0.2mm|YSize=0.18mm|CornerRadius=0.0225mm|HoleSize=0mm|Usage=FLASHONLY|Rotation=160.000|XOffset=0mm|YOffset=0mm|HoleType=Round|Shape=RoundedRectangle|*
%AMROUNDEDRECTD141*
21,1,0.2000,0.1350,0,0,160.0*
21,1,0.1550,0.1800,0,0,160.0*
1,1,0.0450,-0.0497,0.0899*
1,1,0.0450,0.0959,0.0369*
1,1,0.0450,0.0497,-0.0899*
1,1,0.0450,-0.0959,-0.0369*
%
%ADD141ROUNDEDRECTD141*%
G04:AMPARAMS|DCode=142|XSize=0.2mm|YSize=0.18mm|CornerRadius=0.0225mm|HoleSize=0mm|Usage=FLASHONLY|Rotation=100.000|XOffset=0mm|YOffset=0mm|HoleType=Round|Shape=RoundedRectangle|*
%AMROUNDEDRECTD142*
21,1,0.2000,0.1350,0,0,100.0*
21,1,0.1550,0.1800,0,0,100.0*
1,1,0.0450,0.0530,0.0880*
1,1,0.0450,0.0799,-0.0646*
1,1,0.0450,-0.0530,-0.0880*
1,1,0.0450,-0.0799,0.0646*
%
%ADD142ROUNDEDRECTD142*%
G04:AMPARAMS|DCode=143|XSize=0.2mm|YSize=0.18mm|CornerRadius=0.0225mm|HoleSize=0mm|Usage=FLASHONLY|Rotation=170.000|XOffset=0mm|YOffset=0mm|HoleType=Round|Shape=RoundedRectangle|*
%AMROUNDEDRECTD143*
21,1,0.2000,0.1350,0,0,170.0*
21,1,0.1550,0.1800,0,0,170.0*
1,1,0.0450,-0.0646,0.0799*
1,1,0.0450,0.0880,0.0530*
1,1,0.0450,0.0646,-0.0799*
1,1,0.0450,-0.0880,-0.0530*
%
%ADD143ROUNDEDRECTD143*%
G04:AMPARAMS|DCode=144|XSize=0.2mm|YSize=0.18mm|CornerRadius=0.0225mm|HoleSize=0mm|Usage=FLASHONLY|Rotation=240.000|XOffset=0mm|YOffset=0mm|HoleType=Round|Shape=RoundedRectangle|*
%AMROUNDEDRECTD144*
21,1,0.2000,0.1350,0,0,240.0*
21,1,0.1550,0.1800,0,0,240.0*
1,1,0.0450,-0.0972,-0.0334*
1,1,0.0450,-0.0197,0.1009*
1,1,0.0450,0.0972,0.0334*
1,1,0.0450,0.0197,-0.1009*
%
%ADD144ROUNDEDRECTD144*%
G04:AMPARAMS|DCode=145|XSize=0.2mm|YSize=0.18mm|CornerRadius=0.0225mm|HoleSize=0mm|Usage=FLASHONLY|Rotation=250.000|XOffset=0mm|YOffset=0mm|HoleType=Round|Shape=RoundedRectangle|*
%AMROUNDEDRECTD145*
21,1,0.2000,0.1350,0,0,250.0*
21,1,0.1550,0.1800,0,0,250.0*
1,1,0.0450,-0.0899,-0.0497*
1,1,0.0450,-0.0369,0.0959*
1,1,0.0450,0.0899,0.0497*
1,1,0.0450,0.0369,-0.0959*
%
%ADD145ROUNDEDRECTD145*%
G04:AMPARAMS|DCode=146|XSize=0.2mm|YSize=0.18mm|CornerRadius=0.0225mm|HoleSize=0mm|Usage=FLASHONLY|Rotation=210.000|XOffset=0mm|YOffset=0mm|HoleType=Round|Shape=RoundedRectangle|*
%AMROUNDEDRECTD146*
21,1,0.2000,0.1350,0,0,210.0*
21,1,0.1550,0.1800,0,0,210.0*
1,1,0.0450,-0.1009,0.0197*
1,1,0.0450,0.0334,0.0972*
1,1,0.0450,0.1009,-0.0197*
1,1,0.0450,-0.0334,-0.0972*
%
%ADD146ROUNDEDRECTD146*%
G04:AMPARAMS|DCode=147|XSize=0.2mm|YSize=0.18mm|CornerRadius=0.0225mm|HoleSize=0mm|Usage=FLASHONLY|Rotation=220.000|XOffset=0mm|YOffset=0mm|HoleType=Round|Shape=RoundedRectangle|*
%AMROUNDEDRECTD147*
21,1,0.2000,0.1350,0,0,220.0*
21,1,0.1550,0.1800,0,0,220.0*
1,1,0.0450,-0.1028,0.0019*
1,1,0.0450,0.0160,0.1015*
1,1,0.0450,0.1028,-0.0019*
1,1,0.0450,-0.0160,-0.1015*
%
%ADD147ROUNDEDRECTD147*%
G04:AMPARAMS|DCode=148|XSize=0.2mm|YSize=0.18mm|CornerRadius=0.0225mm|HoleSize=0mm|Usage=FLASHONLY|Rotation=230.000|XOffset=0mm|YOffset=0mm|HoleType=Round|Shape=RoundedRectangle|*
%AMROUNDEDRECTD148*
21,1,0.2000,0.1350,0,0,230.0*
21,1,0.1550,0.1800,0,0,230.0*
1,1,0.0450,-0.1015,-0.0160*
1,1,0.0450,-0.0019,0.1028*
1,1,0.0450,0.1015,0.0160*
1,1,0.0450,0.0019,-0.1028*
%
%ADD148ROUNDEDRECTD148*%
G04:AMPARAMS|DCode=149|XSize=0.2mm|YSize=0.18mm|CornerRadius=0.0225mm|HoleSize=0mm|Usage=FLASHONLY|Rotation=80.000|XOffset=0mm|YOffset=0mm|HoleType=Round|Shape=RoundedRectangle|*
%AMROUNDEDRECTD149*
21,1,0.2000,0.1350,0,0,80.0*
21,1,0.1550,0.1800,0,0,80.0*
1,1,0.0450,0.0799,0.0646*
1,1,0.0450,0.0530,-0.0880*
1,1,0.0450,-0.0799,-0.0646*
1,1,0.0450,-0.0530,0.0880*
%
%ADD149ROUNDEDRECTD149*%
G04:AMPARAMS|DCode=150|XSize=0.254mm|YSize=1.65mm|CornerRadius=0.0508mm|HoleSize=0mm|Usage=FLASHONLY|Rotation=180.000|XOffset=0mm|YOffset=0mm|HoleType=Round|Shape=RoundedRectangle|*
%AMROUNDEDRECTD150*
21,1,0.2540,1.5484,0,0,180.0*
21,1,0.1524,1.6500,0,0,180.0*
1,1,0.1016,-0.0762,0.7742*
1,1,0.1016,0.0762,0.7742*
1,1,0.1016,0.0762,-0.7742*
1,1,0.1016,-0.0762,-0.7742*
%
%ADD150ROUNDEDRECTD150*%
G04:AMPARAMS|DCode=151|XSize=0.254mm|YSize=1.65mm|CornerRadius=0.0508mm|HoleSize=0mm|Usage=FLASHONLY|Rotation=90.000|XOffset=0mm|YOffset=0mm|HoleType=Round|Shape=RoundedRectangle|*
%AMROUNDEDRECTD151*
21,1,0.2540,1.5484,0,0,90.0*
21,1,0.1524,1.6500,0,0,90.0*
1,1,0.1016,0.7742,0.0762*
1,1,0.1016,0.7742,-0.0762*
1,1,0.1016,-0.7742,-0.0762*
1,1,0.1016,-0.7742,0.0762*
%
%ADD151ROUNDEDRECTD151*%
D11*
X100000Y150000D02*
D03*
X1630000Y1130000D02*
D03*
X1595000Y805250D02*
D03*
X1305000Y1095250D02*
D03*
D18*
X538000Y116500D02*
D03*
Y126500D02*
D03*
X468000Y135500D02*
D03*
Y145500D02*
D03*
X528000Y135500D02*
D03*
Y145500D02*
D03*
X478000Y116500D02*
D03*
Y126500D02*
D03*
X508000Y116500D02*
D03*
Y126500D02*
D03*
X528000Y116500D02*
D03*
Y126500D02*
D03*
X468000Y116500D02*
D03*
Y126500D02*
D03*
X498000Y116500D02*
D03*
Y126500D02*
D03*
X518000Y135500D02*
D03*
Y145500D02*
D03*
X488000Y116500D02*
D03*
Y126500D02*
D03*
X518000Y116500D02*
D03*
Y126500D02*
D03*
X508000Y135500D02*
D03*
Y145500D02*
D03*
X548000Y116500D02*
D03*
Y126500D02*
D03*
X488000Y135500D02*
D03*
Y145500D02*
D03*
X538000Y135500D02*
D03*
Y145500D02*
D03*
X558000Y116500D02*
D03*
Y126500D02*
D03*
X478000Y135500D02*
D03*
Y145500D02*
D03*
X548000Y135500D02*
D03*
Y145500D02*
D03*
X498000Y135500D02*
D03*
Y145500D02*
D03*
X558000Y135500D02*
D03*
Y145500D02*
D03*
X666500Y135500D02*
D03*
Y145500D02*
D03*
X606500Y135500D02*
D03*
Y145500D02*
D03*
X656500Y135500D02*
D03*
Y145500D02*
D03*
X586500Y135500D02*
D03*
Y145500D02*
D03*
X666500Y116500D02*
D03*
Y126500D02*
D03*
X646500Y135500D02*
D03*
Y145500D02*
D03*
X596500Y135500D02*
D03*
Y145500D02*
D03*
X656500Y116500D02*
D03*
Y126500D02*
D03*
X616500Y135500D02*
D03*
Y145500D02*
D03*
X626500Y116500D02*
D03*
Y126500D02*
D03*
X596500Y116500D02*
D03*
Y126500D02*
D03*
X626500Y135500D02*
D03*
Y145500D02*
D03*
X606500Y116500D02*
D03*
Y126500D02*
D03*
X576500Y116500D02*
D03*
Y126500D02*
D03*
X636500Y116500D02*
D03*
Y126500D02*
D03*
X616500Y116500D02*
D03*
Y126500D02*
D03*
X586500Y116500D02*
D03*
Y126500D02*
D03*
X636500Y135500D02*
D03*
Y145500D02*
D03*
X576500Y135500D02*
D03*
Y145500D02*
D03*
X646500Y116500D02*
D03*
Y126500D02*
D03*
X656500Y231000D02*
D03*
Y241000D02*
D03*
X586500Y212000D02*
D03*
Y222000D02*
D03*
X616500Y250000D02*
D03*
Y260000D02*
D03*
X646500Y250000D02*
D03*
Y260000D02*
D03*
X596500Y231000D02*
D03*
Y241000D02*
D03*
X646500Y231000D02*
D03*
Y241000D02*
D03*
X626500Y193000D02*
D03*
Y203000D02*
D03*
X646500Y155000D02*
D03*
Y165000D02*
D03*
X606500Y307000D02*
D03*
Y317000D02*
D03*
X596500Y288000D02*
D03*
Y298000D02*
D03*
X636500Y307000D02*
D03*
Y317000D02*
D03*
X576500Y174000D02*
D03*
Y184000D02*
D03*
X636500Y174000D02*
D03*
Y184000D02*
D03*
X586500Y269000D02*
D03*
Y279000D02*
D03*
X646500Y269000D02*
D03*
Y279000D02*
D03*
X586500Y155000D02*
D03*
Y165000D02*
D03*
X616500Y155000D02*
D03*
Y165000D02*
D03*
X576500Y250000D02*
D03*
Y260000D02*
D03*
X606500Y250000D02*
D03*
Y260000D02*
D03*
X626500Y326000D02*
D03*
Y336000D02*
D03*
X596500Y212000D02*
D03*
Y222000D02*
D03*
X626500Y212000D02*
D03*
Y222000D02*
D03*
X656500Y193000D02*
D03*
Y203000D02*
D03*
X576500Y307000D02*
D03*
Y317000D02*
D03*
Y288000D02*
D03*
Y298000D02*
D03*
X666500Y326000D02*
D03*
Y336000D02*
D03*
X606500Y231000D02*
D03*
Y241000D02*
D03*
X636500Y231000D02*
D03*
Y241000D02*
D03*
X656500Y288000D02*
D03*
Y298000D02*
D03*
X616500Y269000D02*
D03*
Y279000D02*
D03*
X636500Y155000D02*
D03*
Y165000D02*
D03*
X596500Y250000D02*
D03*
Y260000D02*
D03*
X656500Y250000D02*
D03*
Y260000D02*
D03*
X586500Y326000D02*
D03*
Y336000D02*
D03*
X596500Y326000D02*
D03*
Y336000D02*
D03*
X586500Y193000D02*
D03*
Y203000D02*
D03*
X576500Y155000D02*
D03*
Y165000D02*
D03*
X596500Y307000D02*
D03*
Y317000D02*
D03*
X626500Y288000D02*
D03*
Y298000D02*
D03*
X606500Y155000D02*
D03*
Y165000D02*
D03*
X626500Y231000D02*
D03*
Y241000D02*
D03*
Y174000D02*
D03*
Y184000D02*
D03*
X576500Y269000D02*
D03*
Y279000D02*
D03*
X636500Y269000D02*
D03*
Y279000D02*
D03*
X616500Y212000D02*
D03*
Y222000D02*
D03*
X666500Y250000D02*
D03*
Y260000D02*
D03*
X596500Y193000D02*
D03*
Y203000D02*
D03*
X576500Y326000D02*
D03*
Y336000D02*
D03*
X616500Y326000D02*
D03*
Y336000D02*
D03*
X656500Y307000D02*
D03*
Y317000D02*
D03*
X586500Y307000D02*
D03*
Y317000D02*
D03*
X606500Y288000D02*
D03*
Y298000D02*
D03*
X596500Y155000D02*
D03*
Y165000D02*
D03*
X626500Y155000D02*
D03*
Y165000D02*
D03*
X586500Y250000D02*
D03*
Y260000D02*
D03*
X666500Y288000D02*
D03*
Y298000D02*
D03*
X626500Y269000D02*
D03*
Y279000D02*
D03*
X606500Y212000D02*
D03*
Y222000D02*
D03*
X576500Y193000D02*
D03*
Y203000D02*
D03*
X666500Y193000D02*
D03*
Y203000D02*
D03*
X606500Y193000D02*
D03*
Y203000D02*
D03*
Y326000D02*
D03*
Y336000D02*
D03*
X646500Y307000D02*
D03*
Y317000D02*
D03*
X616500Y231000D02*
D03*
Y241000D02*
D03*
Y174000D02*
D03*
Y184000D02*
D03*
X636500Y288000D02*
D03*
Y298000D02*
D03*
X666500Y231000D02*
D03*
Y241000D02*
D03*
X636500Y212000D02*
D03*
Y222000D02*
D03*
X626500Y250000D02*
D03*
Y260000D02*
D03*
X576500Y231000D02*
D03*
Y241000D02*
D03*
X656500Y269000D02*
D03*
Y279000D02*
D03*
Y212000D02*
D03*
Y222000D02*
D03*
X636500Y193000D02*
D03*
Y203000D02*
D03*
X656500Y155000D02*
D03*
Y165000D02*
D03*
X616500Y307000D02*
D03*
Y317000D02*
D03*
X636500Y326000D02*
D03*
Y336000D02*
D03*
X666500Y307000D02*
D03*
Y317000D02*
D03*
X596500Y174000D02*
D03*
Y184000D02*
D03*
X646500Y174000D02*
D03*
Y184000D02*
D03*
X596500Y269000D02*
D03*
Y279000D02*
D03*
X576500Y212000D02*
D03*
Y222000D02*
D03*
X646500Y212000D02*
D03*
Y222000D02*
D03*
X636500Y250000D02*
D03*
Y260000D02*
D03*
X586500Y231000D02*
D03*
Y241000D02*
D03*
X616500Y193000D02*
D03*
Y203000D02*
D03*
X666500Y212000D02*
D03*
Y222000D02*
D03*
X646500Y193000D02*
D03*
Y203000D02*
D03*
X666500Y155000D02*
D03*
Y165000D02*
D03*
X626500Y307000D02*
D03*
Y317000D02*
D03*
X646500Y288000D02*
D03*
Y298000D02*
D03*
X586500Y288000D02*
D03*
Y298000D02*
D03*
Y174000D02*
D03*
Y184000D02*
D03*
X656500Y174000D02*
D03*
Y184000D02*
D03*
X606500Y269000D02*
D03*
Y279000D02*
D03*
X666500Y269000D02*
D03*
Y279000D02*
D03*
X656500Y326000D02*
D03*
Y336000D02*
D03*
X616500Y288000D02*
D03*
Y298000D02*
D03*
X606500Y174000D02*
D03*
Y184000D02*
D03*
X666500Y174000D02*
D03*
Y184000D02*
D03*
X646500Y326000D02*
D03*
Y336000D02*
D03*
X1427669Y188750D02*
D03*
Y178750D02*
D03*
X1427669Y356000D02*
D03*
Y366000D02*
D03*
X548000Y231000D02*
D03*
Y241000D02*
D03*
X478000Y212000D02*
D03*
Y222000D02*
D03*
X508000Y250000D02*
D03*
Y260000D02*
D03*
X538000Y250000D02*
D03*
Y260000D02*
D03*
X488000Y231000D02*
D03*
Y241000D02*
D03*
X538000Y231000D02*
D03*
Y241000D02*
D03*
X518000Y193000D02*
D03*
Y203000D02*
D03*
X538000Y155000D02*
D03*
Y165000D02*
D03*
X498000Y307000D02*
D03*
Y317000D02*
D03*
X488000Y288000D02*
D03*
Y298000D02*
D03*
X528000Y307000D02*
D03*
Y317000D02*
D03*
X468000Y174000D02*
D03*
Y184000D02*
D03*
X528000Y174000D02*
D03*
Y184000D02*
D03*
X478000Y269000D02*
D03*
Y279000D02*
D03*
X538000Y269000D02*
D03*
Y279000D02*
D03*
X478000Y155000D02*
D03*
Y165000D02*
D03*
X508000Y155000D02*
D03*
Y165000D02*
D03*
X468000Y250000D02*
D03*
Y260000D02*
D03*
X498000Y250000D02*
D03*
Y260000D02*
D03*
X518000Y326000D02*
D03*
Y336000D02*
D03*
X488000Y212000D02*
D03*
Y222000D02*
D03*
X518000Y212000D02*
D03*
Y222000D02*
D03*
X548000Y193000D02*
D03*
Y203000D02*
D03*
X468000Y307000D02*
D03*
Y317000D02*
D03*
Y288000D02*
D03*
Y298000D02*
D03*
X558000Y326000D02*
D03*
Y336000D02*
D03*
X498000Y231000D02*
D03*
Y241000D02*
D03*
X528000Y231000D02*
D03*
Y241000D02*
D03*
X548000Y288000D02*
D03*
Y298000D02*
D03*
X508000Y269000D02*
D03*
Y279000D02*
D03*
X528000Y155000D02*
D03*
Y165000D02*
D03*
X488000Y250000D02*
D03*
Y260000D02*
D03*
X548000Y250000D02*
D03*
Y260000D02*
D03*
X478000Y326000D02*
D03*
Y336000D02*
D03*
X488000Y326000D02*
D03*
Y336000D02*
D03*
X478000Y193000D02*
D03*
Y203000D02*
D03*
X468000Y155000D02*
D03*
Y165000D02*
D03*
X488000Y307000D02*
D03*
Y317000D02*
D03*
X518000Y288000D02*
D03*
Y298000D02*
D03*
X498000Y155000D02*
D03*
Y165000D02*
D03*
X518000Y231000D02*
D03*
Y241000D02*
D03*
Y174000D02*
D03*
Y184000D02*
D03*
X468000Y269000D02*
D03*
Y279000D02*
D03*
X528000Y269000D02*
D03*
Y279000D02*
D03*
X508000Y212000D02*
D03*
Y222000D02*
D03*
X558000Y250000D02*
D03*
Y260000D02*
D03*
X488000Y193000D02*
D03*
Y203000D02*
D03*
X468000Y326000D02*
D03*
Y336000D02*
D03*
X508000Y326000D02*
D03*
Y336000D02*
D03*
X548000Y307000D02*
D03*
Y317000D02*
D03*
X478000Y307000D02*
D03*
Y317000D02*
D03*
X498000Y288000D02*
D03*
Y298000D02*
D03*
X488000Y155000D02*
D03*
Y165000D02*
D03*
X518000Y155000D02*
D03*
Y165000D02*
D03*
X478000Y250000D02*
D03*
Y260000D02*
D03*
X558000Y288000D02*
D03*
Y298000D02*
D03*
X518000Y269000D02*
D03*
Y279000D02*
D03*
X498000Y212000D02*
D03*
Y222000D02*
D03*
X468000Y193000D02*
D03*
Y203000D02*
D03*
X558000Y193000D02*
D03*
Y203000D02*
D03*
X498000Y193000D02*
D03*
Y203000D02*
D03*
Y326000D02*
D03*
Y336000D02*
D03*
X538000Y307000D02*
D03*
Y317000D02*
D03*
X508000Y231000D02*
D03*
Y241000D02*
D03*
Y174000D02*
D03*
Y184000D02*
D03*
X528000Y288000D02*
D03*
Y298000D02*
D03*
X558000Y231000D02*
D03*
Y241000D02*
D03*
X528000Y212000D02*
D03*
Y222000D02*
D03*
X518000Y250000D02*
D03*
Y260000D02*
D03*
X468000Y231000D02*
D03*
Y241000D02*
D03*
X548000Y269000D02*
D03*
Y279000D02*
D03*
Y212000D02*
D03*
Y222000D02*
D03*
X528000Y193000D02*
D03*
Y203000D02*
D03*
X548000Y155000D02*
D03*
Y165000D02*
D03*
X508000Y307000D02*
D03*
Y317000D02*
D03*
X528000Y326000D02*
D03*
Y336000D02*
D03*
X558000Y307000D02*
D03*
Y317000D02*
D03*
X488000Y174000D02*
D03*
Y184000D02*
D03*
X538000Y174000D02*
D03*
Y184000D02*
D03*
X488000Y269000D02*
D03*
Y279000D02*
D03*
X468000Y212000D02*
D03*
Y222000D02*
D03*
X538000Y212000D02*
D03*
Y222000D02*
D03*
X528000Y250000D02*
D03*
Y260000D02*
D03*
X478000Y231000D02*
D03*
Y241000D02*
D03*
X508000Y193000D02*
D03*
Y203000D02*
D03*
X558000Y212000D02*
D03*
Y222000D02*
D03*
X538000Y193000D02*
D03*
Y203000D02*
D03*
X558000Y155000D02*
D03*
Y165000D02*
D03*
X518000Y307000D02*
D03*
Y317000D02*
D03*
X538000Y288000D02*
D03*
Y298000D02*
D03*
X478000Y288000D02*
D03*
Y298000D02*
D03*
Y174000D02*
D03*
Y184000D02*
D03*
X548000Y174000D02*
D03*
Y184000D02*
D03*
X498000Y269000D02*
D03*
Y279000D02*
D03*
X558000Y269000D02*
D03*
Y279000D02*
D03*
X548000Y326000D02*
D03*
Y336000D02*
D03*
X508000Y288000D02*
D03*
Y298000D02*
D03*
X498000Y174000D02*
D03*
Y184000D02*
D03*
X558000Y174000D02*
D03*
Y184000D02*
D03*
X538000Y326000D02*
D03*
Y336000D02*
D03*
D20*
X377250Y165750D02*
D03*
Y170250D02*
D03*
X395250Y198750D02*
D03*
Y203250D02*
D03*
X371250Y176750D02*
D03*
Y181250D02*
D03*
X365250Y176750D02*
D03*
Y181250D02*
D03*
X419250Y198750D02*
D03*
Y203250D02*
D03*
X377250Y110750D02*
D03*
Y115250D02*
D03*
X401250Y110750D02*
D03*
Y115250D02*
D03*
X407250Y110750D02*
D03*
Y115250D02*
D03*
X389250Y165750D02*
D03*
Y170250D02*
D03*
X383250Y165750D02*
D03*
Y170250D02*
D03*
X413250Y176750D02*
D03*
Y181250D02*
D03*
X407250Y176750D02*
D03*
Y181250D02*
D03*
X419250Y187750D02*
D03*
Y192250D02*
D03*
X413250Y187750D02*
D03*
Y192250D02*
D03*
X407250Y198750D02*
D03*
Y203250D02*
D03*
X383250Y110750D02*
D03*
Y115250D02*
D03*
X395250Y110750D02*
D03*
Y115250D02*
D03*
X413250Y110750D02*
D03*
Y115250D02*
D03*
X395250Y165750D02*
D03*
Y170250D02*
D03*
X371250Y165750D02*
D03*
Y170250D02*
D03*
X401250Y176750D02*
D03*
Y181250D02*
D03*
X395250Y176750D02*
D03*
Y181250D02*
D03*
Y187750D02*
D03*
Y192250D02*
D03*
X389250Y187750D02*
D03*
Y192250D02*
D03*
X371250Y187750D02*
D03*
Y192250D02*
D03*
X365250Y110750D02*
D03*
Y115250D02*
D03*
X389250Y110750D02*
D03*
Y115250D02*
D03*
X419250Y110750D02*
D03*
Y115250D02*
D03*
X365250Y165750D02*
D03*
Y170250D02*
D03*
X419250Y176750D02*
D03*
Y181250D02*
D03*
X377250Y176750D02*
D03*
Y181250D02*
D03*
X407250Y187750D02*
D03*
Y192250D02*
D03*
X383250Y187750D02*
D03*
Y192250D02*
D03*
X413250Y198750D02*
D03*
Y203250D02*
D03*
X401250Y198750D02*
D03*
Y203250D02*
D03*
X419250Y121750D02*
D03*
Y126250D02*
D03*
X413250Y121750D02*
D03*
Y126250D02*
D03*
X371250Y110750D02*
D03*
Y115250D02*
D03*
X389250Y176750D02*
D03*
Y181250D02*
D03*
X383250Y176750D02*
D03*
Y181250D02*
D03*
X419250Y165750D02*
D03*
Y170250D02*
D03*
X401250Y165750D02*
D03*
Y170250D02*
D03*
X377250Y209750D02*
D03*
Y214250D02*
D03*
X371250Y209750D02*
D03*
Y214250D02*
D03*
X365250Y209750D02*
D03*
Y214250D02*
D03*
X377250Y132750D02*
D03*
Y137250D02*
D03*
X395250Y143750D02*
D03*
Y148250D02*
D03*
X365250Y143750D02*
D03*
Y148250D02*
D03*
X371250Y143750D02*
D03*
Y148250D02*
D03*
X395250Y154750D02*
D03*
Y159250D02*
D03*
X365250Y154750D02*
D03*
Y159250D02*
D03*
X407250Y165750D02*
D03*
Y170250D02*
D03*
Y209750D02*
D03*
Y214250D02*
D03*
X383250Y209750D02*
D03*
Y214250D02*
D03*
X389250Y209750D02*
D03*
Y214250D02*
D03*
X401250Y143750D02*
D03*
Y148250D02*
D03*
X419250Y143750D02*
D03*
Y148250D02*
D03*
X389250Y143750D02*
D03*
Y148250D02*
D03*
X377250Y143750D02*
D03*
Y148250D02*
D03*
X401250Y154750D02*
D03*
Y159250D02*
D03*
X377250Y154750D02*
D03*
Y159250D02*
D03*
X413250Y165750D02*
D03*
Y170250D02*
D03*
Y209750D02*
D03*
Y214250D02*
D03*
X401250Y209750D02*
D03*
Y214250D02*
D03*
X395250Y209750D02*
D03*
Y214250D02*
D03*
Y132750D02*
D03*
Y137250D02*
D03*
X383250Y132750D02*
D03*
Y137250D02*
D03*
X389250Y132750D02*
D03*
Y137250D02*
D03*
X365250Y132750D02*
D03*
Y137250D02*
D03*
X407250Y154750D02*
D03*
Y159250D02*
D03*
X389250Y154750D02*
D03*
Y159250D02*
D03*
X371250Y154750D02*
D03*
Y159250D02*
D03*
X365250Y198750D02*
D03*
Y203250D02*
D03*
X371250Y198750D02*
D03*
Y203250D02*
D03*
X419250Y209750D02*
D03*
Y214250D02*
D03*
X395250Y121750D02*
D03*
Y126250D02*
D03*
X419250Y132750D02*
D03*
Y137250D02*
D03*
X407250Y132750D02*
D03*
Y137250D02*
D03*
X377250Y121750D02*
D03*
Y126250D02*
D03*
X413250Y154750D02*
D03*
Y159250D02*
D03*
X419250Y154750D02*
D03*
Y159250D02*
D03*
X383250Y154750D02*
D03*
Y159250D02*
D03*
X389250Y198750D02*
D03*
Y203250D02*
D03*
X383250Y198750D02*
D03*
Y203250D02*
D03*
X377250Y198750D02*
D03*
Y203250D02*
D03*
X407250Y121750D02*
D03*
Y126250D02*
D03*
X365250Y121750D02*
D03*
Y126250D02*
D03*
X413250Y132750D02*
D03*
Y137250D02*
D03*
X383250Y121750D02*
D03*
Y126250D02*
D03*
Y143750D02*
D03*
Y148250D02*
D03*
X371250Y132750D02*
D03*
Y137250D02*
D03*
X407250Y143750D02*
D03*
Y148250D02*
D03*
X401250Y187750D02*
D03*
Y192250D02*
D03*
X377250Y187750D02*
D03*
Y192250D02*
D03*
X365250Y187750D02*
D03*
Y192250D02*
D03*
X401250Y121750D02*
D03*
Y126250D02*
D03*
X371250Y121750D02*
D03*
Y126250D02*
D03*
X401250Y132750D02*
D03*
Y137250D02*
D03*
X389250Y121750D02*
D03*
Y126250D02*
D03*
X413250Y143750D02*
D03*
Y148250D02*
D03*
X344250Y143750D02*
D03*
Y148250D02*
D03*
X320250Y121750D02*
D03*
Y126250D02*
D03*
X332250Y132750D02*
D03*
Y137250D02*
D03*
X302250Y121750D02*
D03*
Y126250D02*
D03*
X332250Y121750D02*
D03*
Y126250D02*
D03*
X296250Y187750D02*
D03*
Y192250D02*
D03*
X308250Y187750D02*
D03*
Y192250D02*
D03*
X332250Y187750D02*
D03*
Y192250D02*
D03*
X338250Y143750D02*
D03*
Y148250D02*
D03*
X302250Y132750D02*
D03*
Y137250D02*
D03*
X314250Y143750D02*
D03*
Y148250D02*
D03*
Y121750D02*
D03*
Y126250D02*
D03*
X344250Y132750D02*
D03*
Y137250D02*
D03*
X296250Y121750D02*
D03*
Y126250D02*
D03*
X338250Y121750D02*
D03*
Y126250D02*
D03*
X308250Y198750D02*
D03*
Y203250D02*
D03*
X314250Y198750D02*
D03*
Y203250D02*
D03*
X320250Y198750D02*
D03*
Y203250D02*
D03*
X314250Y154750D02*
D03*
Y159250D02*
D03*
X350250Y154750D02*
D03*
Y159250D02*
D03*
X344250Y154750D02*
D03*
Y159250D02*
D03*
X308250Y121750D02*
D03*
Y126250D02*
D03*
X338250Y132750D02*
D03*
Y137250D02*
D03*
X350250Y132750D02*
D03*
Y137250D02*
D03*
X326250Y121750D02*
D03*
Y126250D02*
D03*
X350250Y209750D02*
D03*
Y214250D02*
D03*
X302250Y198750D02*
D03*
Y203250D02*
D03*
X296250Y198750D02*
D03*
Y203250D02*
D03*
X302250Y154750D02*
D03*
Y159250D02*
D03*
X320250Y154750D02*
D03*
Y159250D02*
D03*
X338250Y154750D02*
D03*
Y159250D02*
D03*
X296250Y132750D02*
D03*
Y137250D02*
D03*
X320250Y132750D02*
D03*
Y137250D02*
D03*
X314250Y132750D02*
D03*
Y137250D02*
D03*
X326250Y132750D02*
D03*
Y137250D02*
D03*
Y209750D02*
D03*
Y214250D02*
D03*
X332250Y209750D02*
D03*
Y214250D02*
D03*
X344250Y209750D02*
D03*
Y214250D02*
D03*
Y165750D02*
D03*
Y170250D02*
D03*
X308250Y154750D02*
D03*
Y159250D02*
D03*
X332250Y154750D02*
D03*
Y159250D02*
D03*
X308250Y143750D02*
D03*
Y148250D02*
D03*
X320250Y143750D02*
D03*
Y148250D02*
D03*
X350250Y143750D02*
D03*
Y148250D02*
D03*
X332250Y143750D02*
D03*
Y148250D02*
D03*
X320250Y209750D02*
D03*
Y214250D02*
D03*
X314250Y209750D02*
D03*
Y214250D02*
D03*
X338250Y209750D02*
D03*
Y214250D02*
D03*
Y165750D02*
D03*
Y170250D02*
D03*
X296250Y154750D02*
D03*
Y159250D02*
D03*
X326250Y154750D02*
D03*
Y159250D02*
D03*
X302250Y143750D02*
D03*
Y148250D02*
D03*
X296250Y143750D02*
D03*
Y148250D02*
D03*
X326250Y143750D02*
D03*
Y148250D02*
D03*
X308250Y132750D02*
D03*
Y137250D02*
D03*
X296250Y209750D02*
D03*
Y214250D02*
D03*
X302250Y209750D02*
D03*
Y214250D02*
D03*
X308250Y209750D02*
D03*
Y214250D02*
D03*
X332250Y165750D02*
D03*
Y170250D02*
D03*
X350250Y165750D02*
D03*
Y170250D02*
D03*
X314250Y176750D02*
D03*
Y181250D02*
D03*
X320250Y176750D02*
D03*
Y181250D02*
D03*
X302250Y110750D02*
D03*
Y115250D02*
D03*
X344250Y121750D02*
D03*
Y126250D02*
D03*
X350250Y121750D02*
D03*
Y126250D02*
D03*
X332250Y198750D02*
D03*
Y203250D02*
D03*
X344250Y198750D02*
D03*
Y203250D02*
D03*
X314250Y187750D02*
D03*
Y192250D02*
D03*
X338250Y187750D02*
D03*
Y192250D02*
D03*
X308250Y176750D02*
D03*
Y181250D02*
D03*
X350250Y176750D02*
D03*
Y181250D02*
D03*
X296250Y165750D02*
D03*
Y170250D02*
D03*
X350250Y110750D02*
D03*
Y115250D02*
D03*
X320250Y110750D02*
D03*
Y115250D02*
D03*
X296250Y110750D02*
D03*
Y115250D02*
D03*
X302250Y187750D02*
D03*
Y192250D02*
D03*
X320250Y187750D02*
D03*
Y192250D02*
D03*
X326250Y187750D02*
D03*
Y192250D02*
D03*
Y176750D02*
D03*
Y181250D02*
D03*
X332250Y176750D02*
D03*
Y181250D02*
D03*
X302250Y165750D02*
D03*
Y170250D02*
D03*
X326250Y165750D02*
D03*
Y170250D02*
D03*
X344250Y110750D02*
D03*
Y115250D02*
D03*
X326250Y110750D02*
D03*
Y115250D02*
D03*
X314250Y110750D02*
D03*
Y115250D02*
D03*
X338250Y198750D02*
D03*
Y203250D02*
D03*
X344250Y187750D02*
D03*
Y192250D02*
D03*
X350250Y187750D02*
D03*
Y192250D02*
D03*
X338250Y176750D02*
D03*
Y181250D02*
D03*
X344250Y176750D02*
D03*
Y181250D02*
D03*
X314250Y165750D02*
D03*
Y170250D02*
D03*
X320250Y165750D02*
D03*
Y170250D02*
D03*
X338250Y110750D02*
D03*
Y115250D02*
D03*
X332250Y110750D02*
D03*
Y115250D02*
D03*
X308250Y110750D02*
D03*
Y115250D02*
D03*
X350250Y198750D02*
D03*
Y203250D02*
D03*
X296250Y176750D02*
D03*
Y181250D02*
D03*
X302250Y176750D02*
D03*
Y181250D02*
D03*
X326250Y198750D02*
D03*
Y203250D02*
D03*
X308250Y165750D02*
D03*
Y170250D02*
D03*
X413250Y270250D02*
D03*
Y274750D02*
D03*
X389250Y248250D02*
D03*
Y252750D02*
D03*
X401250Y259250D02*
D03*
Y263750D02*
D03*
X371250Y248250D02*
D03*
Y252750D02*
D03*
X401250Y248250D02*
D03*
Y252750D02*
D03*
X365250Y314250D02*
D03*
Y318750D02*
D03*
X377250Y314250D02*
D03*
Y318750D02*
D03*
X401250Y314250D02*
D03*
Y318750D02*
D03*
X407250Y270250D02*
D03*
Y274750D02*
D03*
X371250Y259250D02*
D03*
Y263750D02*
D03*
X383250Y270250D02*
D03*
Y274750D02*
D03*
Y248250D02*
D03*
Y252750D02*
D03*
X413250Y259250D02*
D03*
Y263750D02*
D03*
X365250Y248250D02*
D03*
Y252750D02*
D03*
X407250Y248250D02*
D03*
Y252750D02*
D03*
X377250Y325250D02*
D03*
Y329750D02*
D03*
X383250Y325250D02*
D03*
Y329750D02*
D03*
X389250Y325250D02*
D03*
Y329750D02*
D03*
X383250Y281250D02*
D03*
Y285750D02*
D03*
X419250Y281250D02*
D03*
Y285750D02*
D03*
X413250Y281250D02*
D03*
Y285750D02*
D03*
X377250Y248250D02*
D03*
Y252750D02*
D03*
X407250Y259250D02*
D03*
Y263750D02*
D03*
X419250Y259250D02*
D03*
Y263750D02*
D03*
X395250Y248250D02*
D03*
Y252750D02*
D03*
X419250Y336250D02*
D03*
Y340750D02*
D03*
X371250Y325250D02*
D03*
Y329750D02*
D03*
X365250Y325250D02*
D03*
Y329750D02*
D03*
X371250Y281250D02*
D03*
Y285750D02*
D03*
X389250Y281250D02*
D03*
Y285750D02*
D03*
X407250Y281250D02*
D03*
Y285750D02*
D03*
X365250Y259250D02*
D03*
Y263750D02*
D03*
X389250Y259250D02*
D03*
Y263750D02*
D03*
X383250Y259250D02*
D03*
Y263750D02*
D03*
X395250Y259250D02*
D03*
Y263750D02*
D03*
Y336250D02*
D03*
Y340750D02*
D03*
X401250Y336250D02*
D03*
Y340750D02*
D03*
X413250Y336250D02*
D03*
Y340750D02*
D03*
Y292250D02*
D03*
Y296750D02*
D03*
X377250Y281250D02*
D03*
Y285750D02*
D03*
X401250Y281250D02*
D03*
Y285750D02*
D03*
X377250Y270250D02*
D03*
Y274750D02*
D03*
X389250Y270250D02*
D03*
Y274750D02*
D03*
X419250Y270250D02*
D03*
Y274750D02*
D03*
X401250Y270250D02*
D03*
Y274750D02*
D03*
X389250Y336250D02*
D03*
Y340750D02*
D03*
X383250Y336250D02*
D03*
Y340750D02*
D03*
X407250Y336250D02*
D03*
Y340750D02*
D03*
Y292250D02*
D03*
Y296750D02*
D03*
X365250Y281250D02*
D03*
Y285750D02*
D03*
X395250Y281250D02*
D03*
Y285750D02*
D03*
X371250Y270250D02*
D03*
Y274750D02*
D03*
X365250Y270250D02*
D03*
Y274750D02*
D03*
X395250Y270250D02*
D03*
Y274750D02*
D03*
X377250Y259250D02*
D03*
Y263750D02*
D03*
X365250Y336250D02*
D03*
Y340750D02*
D03*
X371250Y336250D02*
D03*
Y340750D02*
D03*
X377250Y336250D02*
D03*
Y340750D02*
D03*
X401250Y292250D02*
D03*
Y296750D02*
D03*
X419250Y292250D02*
D03*
Y296750D02*
D03*
X383250Y303250D02*
D03*
Y307750D02*
D03*
X389250Y303250D02*
D03*
Y307750D02*
D03*
X371250Y237250D02*
D03*
Y241750D02*
D03*
X413250Y248250D02*
D03*
Y252750D02*
D03*
X419250Y248250D02*
D03*
Y252750D02*
D03*
X401250Y325250D02*
D03*
Y329750D02*
D03*
X413250Y325250D02*
D03*
Y329750D02*
D03*
X383250Y314250D02*
D03*
Y318750D02*
D03*
X407250Y314250D02*
D03*
Y318750D02*
D03*
X377250Y303250D02*
D03*
Y307750D02*
D03*
X419250Y303250D02*
D03*
Y307750D02*
D03*
X365250Y292250D02*
D03*
Y296750D02*
D03*
X419250Y237250D02*
D03*
Y241750D02*
D03*
X389250Y237250D02*
D03*
Y241750D02*
D03*
X365250Y237250D02*
D03*
Y241750D02*
D03*
X371250Y314250D02*
D03*
Y318750D02*
D03*
X389250Y314250D02*
D03*
Y318750D02*
D03*
X395250Y314250D02*
D03*
Y318750D02*
D03*
Y303250D02*
D03*
Y307750D02*
D03*
X401250Y303250D02*
D03*
Y307750D02*
D03*
X371250Y292250D02*
D03*
Y296750D02*
D03*
X395250Y292250D02*
D03*
Y296750D02*
D03*
X413250Y237250D02*
D03*
Y241750D02*
D03*
X395250Y237250D02*
D03*
Y241750D02*
D03*
X383250Y237250D02*
D03*
Y241750D02*
D03*
X407250Y325250D02*
D03*
Y329750D02*
D03*
X413250Y314250D02*
D03*
Y318750D02*
D03*
X419250Y314250D02*
D03*
Y318750D02*
D03*
X407250Y303250D02*
D03*
Y307750D02*
D03*
X413250Y303250D02*
D03*
Y307750D02*
D03*
X383250Y292250D02*
D03*
Y296750D02*
D03*
X389250Y292250D02*
D03*
Y296750D02*
D03*
X407250Y237250D02*
D03*
Y241750D02*
D03*
X401250Y237250D02*
D03*
Y241750D02*
D03*
X377250Y237250D02*
D03*
Y241750D02*
D03*
X419250Y325250D02*
D03*
Y329750D02*
D03*
X365250Y303250D02*
D03*
Y307750D02*
D03*
X371250Y303250D02*
D03*
Y307750D02*
D03*
X395250Y325250D02*
D03*
Y329750D02*
D03*
X377250Y292250D02*
D03*
Y296750D02*
D03*
X1427669Y335250D02*
D03*
Y339750D02*
D03*
X1427669Y209500D02*
D03*
Y205000D02*
D03*
X308250Y292250D02*
D03*
Y296750D02*
D03*
X326250Y325250D02*
D03*
Y329750D02*
D03*
X302250Y303250D02*
D03*
Y307750D02*
D03*
X296250Y303250D02*
D03*
Y307750D02*
D03*
X350250Y325250D02*
D03*
Y329750D02*
D03*
X308250Y237250D02*
D03*
Y241750D02*
D03*
X332250Y237250D02*
D03*
Y241750D02*
D03*
X338250Y237250D02*
D03*
Y241750D02*
D03*
X320250Y292250D02*
D03*
Y296750D02*
D03*
X314250Y292250D02*
D03*
Y296750D02*
D03*
X344250Y303250D02*
D03*
Y307750D02*
D03*
X338250Y303250D02*
D03*
Y307750D02*
D03*
X350250Y314250D02*
D03*
Y318750D02*
D03*
X344250Y314250D02*
D03*
Y318750D02*
D03*
X338250Y325250D02*
D03*
Y329750D02*
D03*
X314250Y237250D02*
D03*
Y241750D02*
D03*
X326250Y237250D02*
D03*
Y241750D02*
D03*
X344250Y237250D02*
D03*
Y241750D02*
D03*
X326250Y292250D02*
D03*
Y296750D02*
D03*
X302250Y292250D02*
D03*
Y296750D02*
D03*
X332250Y303250D02*
D03*
Y307750D02*
D03*
X326250Y303250D02*
D03*
Y307750D02*
D03*
Y314250D02*
D03*
Y318750D02*
D03*
X320250Y314250D02*
D03*
Y318750D02*
D03*
X302250Y314250D02*
D03*
Y318750D02*
D03*
X296250Y237250D02*
D03*
Y241750D02*
D03*
X320250Y237250D02*
D03*
Y241750D02*
D03*
X350250Y237250D02*
D03*
Y241750D02*
D03*
X296250Y292250D02*
D03*
Y296750D02*
D03*
X350250Y303250D02*
D03*
Y307750D02*
D03*
X308250Y303250D02*
D03*
Y307750D02*
D03*
X338250Y314250D02*
D03*
Y318750D02*
D03*
X314250Y314250D02*
D03*
Y318750D02*
D03*
X344250Y325250D02*
D03*
Y329750D02*
D03*
X332250Y325250D02*
D03*
Y329750D02*
D03*
X350250Y248250D02*
D03*
Y252750D02*
D03*
X344250Y248250D02*
D03*
Y252750D02*
D03*
X302250Y237250D02*
D03*
Y241750D02*
D03*
X320250Y303250D02*
D03*
Y307750D02*
D03*
X314250Y303250D02*
D03*
Y307750D02*
D03*
X350250Y292250D02*
D03*
Y296750D02*
D03*
X332250Y292250D02*
D03*
Y296750D02*
D03*
X308250Y336250D02*
D03*
Y340750D02*
D03*
X302250Y336250D02*
D03*
Y340750D02*
D03*
X296250Y336250D02*
D03*
Y340750D02*
D03*
X308250Y259250D02*
D03*
Y263750D02*
D03*
X326250Y270250D02*
D03*
Y274750D02*
D03*
X296250Y270250D02*
D03*
Y274750D02*
D03*
X302250Y270250D02*
D03*
Y274750D02*
D03*
X326250Y281250D02*
D03*
Y285750D02*
D03*
X296250Y281250D02*
D03*
Y285750D02*
D03*
X338250Y292250D02*
D03*
Y296750D02*
D03*
Y336250D02*
D03*
Y340750D02*
D03*
X314250Y336250D02*
D03*
Y340750D02*
D03*
X320250Y336250D02*
D03*
Y340750D02*
D03*
X332250Y270250D02*
D03*
Y274750D02*
D03*
X350250Y270250D02*
D03*
Y274750D02*
D03*
X320250Y270250D02*
D03*
Y274750D02*
D03*
X308250Y270250D02*
D03*
Y274750D02*
D03*
X332250Y281250D02*
D03*
Y285750D02*
D03*
X308250Y281250D02*
D03*
Y285750D02*
D03*
X344250Y292250D02*
D03*
Y296750D02*
D03*
Y336250D02*
D03*
Y340750D02*
D03*
X332250Y336250D02*
D03*
Y340750D02*
D03*
X326250Y336250D02*
D03*
Y340750D02*
D03*
Y259250D02*
D03*
Y263750D02*
D03*
X314250Y259250D02*
D03*
Y263750D02*
D03*
X320250Y259250D02*
D03*
Y263750D02*
D03*
X296250Y259250D02*
D03*
Y263750D02*
D03*
X338250Y281250D02*
D03*
Y285750D02*
D03*
X320250Y281250D02*
D03*
Y285750D02*
D03*
X302250Y281250D02*
D03*
Y285750D02*
D03*
X296250Y325250D02*
D03*
Y329750D02*
D03*
X302250Y325250D02*
D03*
Y329750D02*
D03*
X350250Y336250D02*
D03*
Y340750D02*
D03*
X326250Y248250D02*
D03*
Y252750D02*
D03*
X350250Y259250D02*
D03*
Y263750D02*
D03*
X338250Y259250D02*
D03*
Y263750D02*
D03*
X308250Y248250D02*
D03*
Y252750D02*
D03*
X344250Y281250D02*
D03*
Y285750D02*
D03*
X350250Y281250D02*
D03*
Y285750D02*
D03*
X314250Y281250D02*
D03*
Y285750D02*
D03*
X320250Y325250D02*
D03*
Y329750D02*
D03*
X314250Y325250D02*
D03*
Y329750D02*
D03*
X308250Y325250D02*
D03*
Y329750D02*
D03*
X338250Y248250D02*
D03*
Y252750D02*
D03*
X296250Y248250D02*
D03*
Y252750D02*
D03*
X344250Y259250D02*
D03*
Y263750D02*
D03*
X314250Y248250D02*
D03*
Y252750D02*
D03*
Y270250D02*
D03*
Y274750D02*
D03*
X302250Y259250D02*
D03*
Y263750D02*
D03*
X338250Y270250D02*
D03*
Y274750D02*
D03*
X332250Y314250D02*
D03*
Y318750D02*
D03*
X308250Y314250D02*
D03*
Y318750D02*
D03*
X296250Y314250D02*
D03*
Y318750D02*
D03*
X332250Y248250D02*
D03*
Y252750D02*
D03*
X302250Y248250D02*
D03*
Y252750D02*
D03*
X332250Y259250D02*
D03*
Y263750D02*
D03*
X320250Y248250D02*
D03*
Y252750D02*
D03*
X344250Y270250D02*
D03*
Y274750D02*
D03*
D21*
X156750Y129000D02*
D03*
Y126000D02*
D03*
X151750Y121000D02*
D03*
Y118000D02*
D03*
X161750Y121000D02*
D03*
Y118000D02*
D03*
X176750Y121000D02*
D03*
Y118000D02*
D03*
X186750Y121000D02*
D03*
Y118000D02*
D03*
X171750Y153000D02*
D03*
Y150000D02*
D03*
X176750Y153000D02*
D03*
Y150000D02*
D03*
X191750Y137000D02*
D03*
Y134000D02*
D03*
X196750Y137000D02*
D03*
Y134000D02*
D03*
X151750Y129000D02*
D03*
Y126000D02*
D03*
X161750Y177000D02*
D03*
Y174000D02*
D03*
X171750Y177000D02*
D03*
Y174000D02*
D03*
X176750Y177000D02*
D03*
Y174000D02*
D03*
X156750Y153000D02*
D03*
Y150000D02*
D03*
X161750Y153000D02*
D03*
Y150000D02*
D03*
X181750Y113000D02*
D03*
Y110000D02*
D03*
X186750Y113000D02*
D03*
Y110000D02*
D03*
X196750Y113000D02*
D03*
Y110000D02*
D03*
X176750Y113000D02*
D03*
Y110000D02*
D03*
X156750Y177000D02*
D03*
Y174000D02*
D03*
X191750Y161000D02*
D03*
Y158000D02*
D03*
X171750Y137000D02*
D03*
Y134000D02*
D03*
X176750Y137000D02*
D03*
Y134000D02*
D03*
X181750Y137000D02*
D03*
Y134000D02*
D03*
X186750Y137000D02*
D03*
Y134000D02*
D03*
X151750Y177000D02*
D03*
Y174000D02*
D03*
X166750Y177000D02*
D03*
Y174000D02*
D03*
X151750Y153000D02*
D03*
Y150000D02*
D03*
X196750Y161000D02*
D03*
Y158000D02*
D03*
X166750Y153000D02*
D03*
Y150000D02*
D03*
X151750Y113000D02*
D03*
Y110000D02*
D03*
X161750Y113000D02*
D03*
Y110000D02*
D03*
X171750Y113000D02*
D03*
Y110000D02*
D03*
X191750Y185000D02*
D03*
Y182000D02*
D03*
X196750Y185000D02*
D03*
Y182000D02*
D03*
Y145000D02*
D03*
Y142000D02*
D03*
X156750Y137000D02*
D03*
Y134000D02*
D03*
X161750Y137000D02*
D03*
Y134000D02*
D03*
X166750Y137000D02*
D03*
Y134000D02*
D03*
X196750Y121000D02*
D03*
Y118000D02*
D03*
X186750Y185000D02*
D03*
Y182000D02*
D03*
X161750Y161000D02*
D03*
Y158000D02*
D03*
X166750Y161000D02*
D03*
Y158000D02*
D03*
X181750Y161000D02*
D03*
Y158000D02*
D03*
X186750Y161000D02*
D03*
Y158000D02*
D03*
X171750Y121000D02*
D03*
Y118000D02*
D03*
X181750Y121000D02*
D03*
Y118000D02*
D03*
X171750Y185000D02*
D03*
Y182000D02*
D03*
X176750Y185000D02*
D03*
Y182000D02*
D03*
X181750Y185000D02*
D03*
Y182000D02*
D03*
X186750Y145000D02*
D03*
Y142000D02*
D03*
X191750Y145000D02*
D03*
Y142000D02*
D03*
X151750Y137000D02*
D03*
Y134000D02*
D03*
X156750Y121000D02*
D03*
Y118000D02*
D03*
X166750Y121000D02*
D03*
Y118000D02*
D03*
X151750Y161000D02*
D03*
Y158000D02*
D03*
X156750Y161000D02*
D03*
Y158000D02*
D03*
X171750Y161000D02*
D03*
Y158000D02*
D03*
X176750Y161000D02*
D03*
Y158000D02*
D03*
X181750Y145000D02*
D03*
Y142000D02*
D03*
X166750Y113000D02*
D03*
Y110000D02*
D03*
X151750Y185000D02*
D03*
Y182000D02*
D03*
X156750Y185000D02*
D03*
Y182000D02*
D03*
X161750Y185000D02*
D03*
Y182000D02*
D03*
X166750Y185000D02*
D03*
Y182000D02*
D03*
Y129000D02*
D03*
Y126000D02*
D03*
X171750Y129000D02*
D03*
Y126000D02*
D03*
X176750Y129000D02*
D03*
Y126000D02*
D03*
X191750Y121000D02*
D03*
Y118000D02*
D03*
X156750Y113000D02*
D03*
Y110000D02*
D03*
X186750Y153000D02*
D03*
Y150000D02*
D03*
X191750Y153000D02*
D03*
Y150000D02*
D03*
X196750Y153000D02*
D03*
Y150000D02*
D03*
X171750Y145000D02*
D03*
Y142000D02*
D03*
X161750Y129000D02*
D03*
Y126000D02*
D03*
X181750Y177000D02*
D03*
Y174000D02*
D03*
X186750Y177000D02*
D03*
Y174000D02*
D03*
X191750Y177000D02*
D03*
Y174000D02*
D03*
X151750Y169000D02*
D03*
Y166000D02*
D03*
X181750Y153000D02*
D03*
Y150000D02*
D03*
Y129000D02*
D03*
Y126000D02*
D03*
X186750Y129000D02*
D03*
Y126000D02*
D03*
X191750Y129000D02*
D03*
Y126000D02*
D03*
X196750Y129000D02*
D03*
Y126000D02*
D03*
X191750Y113000D02*
D03*
Y110000D02*
D03*
X151750Y145000D02*
D03*
Y142000D02*
D03*
X156750Y145000D02*
D03*
Y142000D02*
D03*
X161750Y145000D02*
D03*
Y142000D02*
D03*
X166750Y145000D02*
D03*
Y142000D02*
D03*
X176750Y145000D02*
D03*
Y142000D02*
D03*
X156750Y169000D02*
D03*
Y166000D02*
D03*
X196750Y177000D02*
D03*
Y174000D02*
D03*
X171750Y169000D02*
D03*
Y166000D02*
D03*
X161750Y169000D02*
D03*
Y166000D02*
D03*
X166750Y169000D02*
D03*
Y166000D02*
D03*
X176750Y169000D02*
D03*
Y166000D02*
D03*
X186750Y169000D02*
D03*
Y166000D02*
D03*
X196750Y169000D02*
D03*
Y166000D02*
D03*
X181750Y169000D02*
D03*
Y166000D02*
D03*
X191750Y169000D02*
D03*
Y166000D02*
D03*
X245500Y169000D02*
D03*
Y166000D02*
D03*
X235500Y169000D02*
D03*
Y166000D02*
D03*
X250500Y169000D02*
D03*
Y166000D02*
D03*
X240500Y169000D02*
D03*
Y166000D02*
D03*
X230500Y169000D02*
D03*
Y166000D02*
D03*
X220500Y169000D02*
D03*
Y166000D02*
D03*
X215500Y169000D02*
D03*
Y166000D02*
D03*
X225500Y169000D02*
D03*
Y166000D02*
D03*
X250500Y177000D02*
D03*
Y174000D02*
D03*
X210500Y169000D02*
D03*
Y166000D02*
D03*
X230500Y145000D02*
D03*
Y142000D02*
D03*
X220500Y145000D02*
D03*
Y142000D02*
D03*
X215500Y145000D02*
D03*
Y142000D02*
D03*
X210500Y145000D02*
D03*
Y142000D02*
D03*
X205500Y145000D02*
D03*
Y142000D02*
D03*
X245500Y113000D02*
D03*
Y110000D02*
D03*
X250500Y129000D02*
D03*
Y126000D02*
D03*
X245500Y129000D02*
D03*
Y126000D02*
D03*
X240500Y129000D02*
D03*
Y126000D02*
D03*
X235500Y129000D02*
D03*
Y126000D02*
D03*
Y153000D02*
D03*
Y150000D02*
D03*
X205500Y169000D02*
D03*
Y166000D02*
D03*
X245500Y177000D02*
D03*
Y174000D02*
D03*
X240500Y177000D02*
D03*
Y174000D02*
D03*
X235500Y177000D02*
D03*
Y174000D02*
D03*
X215500Y129000D02*
D03*
Y126000D02*
D03*
X225500Y145000D02*
D03*
Y142000D02*
D03*
X250500Y153000D02*
D03*
Y150000D02*
D03*
X245500Y153000D02*
D03*
Y150000D02*
D03*
X240500Y153000D02*
D03*
Y150000D02*
D03*
X210500Y113000D02*
D03*
Y110000D02*
D03*
X245500Y121000D02*
D03*
Y118000D02*
D03*
X230500Y129000D02*
D03*
Y126000D02*
D03*
X225500Y129000D02*
D03*
Y126000D02*
D03*
X220500Y129000D02*
D03*
Y126000D02*
D03*
Y185000D02*
D03*
Y182000D02*
D03*
X215500Y185000D02*
D03*
Y182000D02*
D03*
X210500Y185000D02*
D03*
Y182000D02*
D03*
X205500Y185000D02*
D03*
Y182000D02*
D03*
X220500Y113000D02*
D03*
Y110000D02*
D03*
X235500Y145000D02*
D03*
Y142000D02*
D03*
X230500Y161000D02*
D03*
Y158000D02*
D03*
X225500Y161000D02*
D03*
Y158000D02*
D03*
X210500Y161000D02*
D03*
Y158000D02*
D03*
X205500Y161000D02*
D03*
Y158000D02*
D03*
X220500Y121000D02*
D03*
Y118000D02*
D03*
X210500Y121000D02*
D03*
Y118000D02*
D03*
X205500Y137000D02*
D03*
Y134000D02*
D03*
X245500Y145000D02*
D03*
Y142000D02*
D03*
X240500Y145000D02*
D03*
Y142000D02*
D03*
X235500Y185000D02*
D03*
Y182000D02*
D03*
X230500Y185000D02*
D03*
Y182000D02*
D03*
X225500Y185000D02*
D03*
Y182000D02*
D03*
X235500Y121000D02*
D03*
Y118000D02*
D03*
X225500Y121000D02*
D03*
Y118000D02*
D03*
X240500Y161000D02*
D03*
Y158000D02*
D03*
X235500Y161000D02*
D03*
Y158000D02*
D03*
X220500Y161000D02*
D03*
Y158000D02*
D03*
X215500Y161000D02*
D03*
Y158000D02*
D03*
X240500Y185000D02*
D03*
Y182000D02*
D03*
X250500Y121000D02*
D03*
Y118000D02*
D03*
X220500Y137000D02*
D03*
Y134000D02*
D03*
X215500Y137000D02*
D03*
Y134000D02*
D03*
X210500Y137000D02*
D03*
Y134000D02*
D03*
X250500Y145000D02*
D03*
Y142000D02*
D03*
Y185000D02*
D03*
Y182000D02*
D03*
X245500Y185000D02*
D03*
Y182000D02*
D03*
X225500Y113000D02*
D03*
Y110000D02*
D03*
X215500Y113000D02*
D03*
Y110000D02*
D03*
X205500Y113000D02*
D03*
Y110000D02*
D03*
X220500Y153000D02*
D03*
Y150000D02*
D03*
X250500Y161000D02*
D03*
Y158000D02*
D03*
X205500Y153000D02*
D03*
Y150000D02*
D03*
X220500Y177000D02*
D03*
Y174000D02*
D03*
X205500Y177000D02*
D03*
Y174000D02*
D03*
X240500Y137000D02*
D03*
Y134000D02*
D03*
X235500Y137000D02*
D03*
Y134000D02*
D03*
X230500Y137000D02*
D03*
Y134000D02*
D03*
X225500Y137000D02*
D03*
Y134000D02*
D03*
X245500Y161000D02*
D03*
Y158000D02*
D03*
X210500Y177000D02*
D03*
Y174000D02*
D03*
X230500Y113000D02*
D03*
Y110000D02*
D03*
X250500Y113000D02*
D03*
Y110000D02*
D03*
X240500Y113000D02*
D03*
Y110000D02*
D03*
X235500Y113000D02*
D03*
Y110000D02*
D03*
X215500Y153000D02*
D03*
Y150000D02*
D03*
X210500Y153000D02*
D03*
Y150000D02*
D03*
X230500Y177000D02*
D03*
Y174000D02*
D03*
X225500Y177000D02*
D03*
Y174000D02*
D03*
X215500Y177000D02*
D03*
Y174000D02*
D03*
X205500Y129000D02*
D03*
Y126000D02*
D03*
X250500Y137000D02*
D03*
Y134000D02*
D03*
X245500Y137000D02*
D03*
Y134000D02*
D03*
X230500Y153000D02*
D03*
Y150000D02*
D03*
X225500Y153000D02*
D03*
Y150000D02*
D03*
X240500Y121000D02*
D03*
Y118000D02*
D03*
X230500Y121000D02*
D03*
Y118000D02*
D03*
X215500Y121000D02*
D03*
Y118000D02*
D03*
X205500Y121000D02*
D03*
Y118000D02*
D03*
X210500Y129000D02*
D03*
Y126000D02*
D03*
Y285750D02*
D03*
Y282750D02*
D03*
X205500Y277750D02*
D03*
Y274750D02*
D03*
X215500Y277750D02*
D03*
Y274750D02*
D03*
X230500Y277750D02*
D03*
Y274750D02*
D03*
X240500Y277750D02*
D03*
Y274750D02*
D03*
X225500Y309750D02*
D03*
Y306750D02*
D03*
X230500Y309750D02*
D03*
Y306750D02*
D03*
X245500Y293750D02*
D03*
Y290750D02*
D03*
X250500Y293750D02*
D03*
Y290750D02*
D03*
X205500Y285750D02*
D03*
Y282750D02*
D03*
X215500Y333750D02*
D03*
Y330750D02*
D03*
X225500Y333750D02*
D03*
Y330750D02*
D03*
X230500Y333750D02*
D03*
Y330750D02*
D03*
X210500Y309750D02*
D03*
Y306750D02*
D03*
X215500Y309750D02*
D03*
Y306750D02*
D03*
X235500Y269750D02*
D03*
Y266750D02*
D03*
X240500Y269750D02*
D03*
Y266750D02*
D03*
X250500Y269750D02*
D03*
Y266750D02*
D03*
X230500Y269750D02*
D03*
Y266750D02*
D03*
X210500Y333750D02*
D03*
Y330750D02*
D03*
X245500Y317750D02*
D03*
Y314750D02*
D03*
X225500Y293750D02*
D03*
Y290750D02*
D03*
X230500Y293750D02*
D03*
Y290750D02*
D03*
X235500Y293750D02*
D03*
Y290750D02*
D03*
X240500Y293750D02*
D03*
Y290750D02*
D03*
X205500Y333750D02*
D03*
Y330750D02*
D03*
X220500Y333750D02*
D03*
Y330750D02*
D03*
X205500Y309750D02*
D03*
Y306750D02*
D03*
X250500Y317750D02*
D03*
Y314750D02*
D03*
X220500Y309750D02*
D03*
Y306750D02*
D03*
X205500Y269750D02*
D03*
Y266750D02*
D03*
X215500Y269750D02*
D03*
Y266750D02*
D03*
X225500Y269750D02*
D03*
Y266750D02*
D03*
X245500Y341750D02*
D03*
Y338750D02*
D03*
X250500Y341750D02*
D03*
Y338750D02*
D03*
Y301750D02*
D03*
Y298750D02*
D03*
X210500Y293750D02*
D03*
Y290750D02*
D03*
X215500Y293750D02*
D03*
Y290750D02*
D03*
X220500Y293750D02*
D03*
Y290750D02*
D03*
X250500Y277750D02*
D03*
Y274750D02*
D03*
X240500Y341750D02*
D03*
Y338750D02*
D03*
X215500Y317750D02*
D03*
Y314750D02*
D03*
X220500Y317750D02*
D03*
Y314750D02*
D03*
X235500Y317750D02*
D03*
Y314750D02*
D03*
X240500Y317750D02*
D03*
Y314750D02*
D03*
X225500Y277750D02*
D03*
Y274750D02*
D03*
X235500Y277750D02*
D03*
Y274750D02*
D03*
X225500Y341750D02*
D03*
Y338750D02*
D03*
X230500Y341750D02*
D03*
Y338750D02*
D03*
X235500Y341750D02*
D03*
Y338750D02*
D03*
X240500Y301750D02*
D03*
Y298750D02*
D03*
X245500Y301750D02*
D03*
Y298750D02*
D03*
X205500Y293750D02*
D03*
Y290750D02*
D03*
X210500Y277750D02*
D03*
Y274750D02*
D03*
X220500Y277750D02*
D03*
Y274750D02*
D03*
X205500Y317750D02*
D03*
Y314750D02*
D03*
X210500Y317750D02*
D03*
Y314750D02*
D03*
X225500Y317750D02*
D03*
Y314750D02*
D03*
X230500Y317750D02*
D03*
Y314750D02*
D03*
X235500Y301750D02*
D03*
Y298750D02*
D03*
X220500Y269750D02*
D03*
Y266750D02*
D03*
X205500Y341750D02*
D03*
Y338750D02*
D03*
X210500Y341750D02*
D03*
Y338750D02*
D03*
X215500Y341750D02*
D03*
Y338750D02*
D03*
X220500Y341750D02*
D03*
Y338750D02*
D03*
Y285750D02*
D03*
Y282750D02*
D03*
X225500Y285750D02*
D03*
Y282750D02*
D03*
X230500Y285750D02*
D03*
Y282750D02*
D03*
X245500Y277750D02*
D03*
Y274750D02*
D03*
X210500Y269750D02*
D03*
Y266750D02*
D03*
X240500Y309750D02*
D03*
Y306750D02*
D03*
X245500Y309750D02*
D03*
Y306750D02*
D03*
X250500Y309750D02*
D03*
Y306750D02*
D03*
X225500Y301750D02*
D03*
Y298750D02*
D03*
X215500Y285750D02*
D03*
Y282750D02*
D03*
X235500Y333750D02*
D03*
Y330750D02*
D03*
X240500Y333750D02*
D03*
Y330750D02*
D03*
X245500Y333750D02*
D03*
Y330750D02*
D03*
X205500Y325750D02*
D03*
Y322750D02*
D03*
X235500Y309750D02*
D03*
Y306750D02*
D03*
Y285750D02*
D03*
Y282750D02*
D03*
X240500Y285750D02*
D03*
Y282750D02*
D03*
X245500Y285750D02*
D03*
Y282750D02*
D03*
X250500Y285750D02*
D03*
Y282750D02*
D03*
X245500Y269750D02*
D03*
Y266750D02*
D03*
X205500Y301750D02*
D03*
Y298750D02*
D03*
X210500Y301750D02*
D03*
Y298750D02*
D03*
X215500Y301750D02*
D03*
Y298750D02*
D03*
X220500Y301750D02*
D03*
Y298750D02*
D03*
X230500Y301750D02*
D03*
Y298750D02*
D03*
X210500Y325750D02*
D03*
Y322750D02*
D03*
X250500Y333750D02*
D03*
Y330750D02*
D03*
X225500Y325750D02*
D03*
Y322750D02*
D03*
X215500Y325750D02*
D03*
Y322750D02*
D03*
X220500Y325750D02*
D03*
Y322750D02*
D03*
X230500Y325750D02*
D03*
Y322750D02*
D03*
X240500Y325750D02*
D03*
Y322750D02*
D03*
X250500Y325750D02*
D03*
Y322750D02*
D03*
X235500Y325750D02*
D03*
Y322750D02*
D03*
X245500Y325750D02*
D03*
Y322750D02*
D03*
X1427750Y321250D02*
D03*
Y318250D02*
D03*
Y223500D02*
D03*
Y226500D02*
D03*
X191750Y325750D02*
D03*
Y322750D02*
D03*
X181750Y325750D02*
D03*
Y322750D02*
D03*
X196750Y325750D02*
D03*
Y322750D02*
D03*
X186750Y325750D02*
D03*
Y322750D02*
D03*
X176750Y325750D02*
D03*
Y322750D02*
D03*
X166750Y325750D02*
D03*
Y322750D02*
D03*
X161750Y325750D02*
D03*
Y322750D02*
D03*
X171750Y325750D02*
D03*
Y322750D02*
D03*
X196750Y333750D02*
D03*
Y330750D02*
D03*
X156750Y325750D02*
D03*
Y322750D02*
D03*
X176750Y301750D02*
D03*
Y298750D02*
D03*
X166750Y301750D02*
D03*
Y298750D02*
D03*
X161750Y301750D02*
D03*
Y298750D02*
D03*
X156750Y301750D02*
D03*
Y298750D02*
D03*
X151750Y301750D02*
D03*
Y298750D02*
D03*
X191750Y269750D02*
D03*
Y266750D02*
D03*
X196750Y285750D02*
D03*
Y282750D02*
D03*
X191750Y285750D02*
D03*
Y282750D02*
D03*
X186750Y285750D02*
D03*
Y282750D02*
D03*
X181750Y285750D02*
D03*
Y282750D02*
D03*
Y309750D02*
D03*
Y306750D02*
D03*
X151750Y325750D02*
D03*
Y322750D02*
D03*
X191750Y333750D02*
D03*
Y330750D02*
D03*
X186750Y333750D02*
D03*
Y330750D02*
D03*
X181750Y333750D02*
D03*
Y330750D02*
D03*
X161750Y285750D02*
D03*
Y282750D02*
D03*
X171750Y301750D02*
D03*
Y298750D02*
D03*
X196750Y309750D02*
D03*
Y306750D02*
D03*
X191750Y309750D02*
D03*
Y306750D02*
D03*
X186750Y309750D02*
D03*
Y306750D02*
D03*
X156750Y269750D02*
D03*
Y266750D02*
D03*
X191750Y277750D02*
D03*
Y274750D02*
D03*
X176750Y285750D02*
D03*
Y282750D02*
D03*
X171750Y285750D02*
D03*
Y282750D02*
D03*
X166750Y285750D02*
D03*
Y282750D02*
D03*
Y341750D02*
D03*
Y338750D02*
D03*
X161750Y341750D02*
D03*
Y338750D02*
D03*
X156750Y341750D02*
D03*
Y338750D02*
D03*
X151750Y341750D02*
D03*
Y338750D02*
D03*
X166750Y269750D02*
D03*
Y266750D02*
D03*
X181750Y301750D02*
D03*
Y298750D02*
D03*
X176750Y317750D02*
D03*
Y314750D02*
D03*
X171750Y317750D02*
D03*
Y314750D02*
D03*
X156750Y317750D02*
D03*
Y314750D02*
D03*
X151750Y317750D02*
D03*
Y314750D02*
D03*
X166750Y277750D02*
D03*
Y274750D02*
D03*
X156750Y277750D02*
D03*
Y274750D02*
D03*
X151750Y293750D02*
D03*
Y290750D02*
D03*
X191750Y301750D02*
D03*
Y298750D02*
D03*
X186750Y301750D02*
D03*
Y298750D02*
D03*
X181750Y341750D02*
D03*
Y338750D02*
D03*
X176750Y341750D02*
D03*
Y338750D02*
D03*
X171750Y341750D02*
D03*
Y338750D02*
D03*
X181750Y277750D02*
D03*
Y274750D02*
D03*
X171750Y277750D02*
D03*
Y274750D02*
D03*
X186750Y317750D02*
D03*
Y314750D02*
D03*
X181750Y317750D02*
D03*
Y314750D02*
D03*
X166750Y317750D02*
D03*
Y314750D02*
D03*
X161750Y317750D02*
D03*
Y314750D02*
D03*
X186750Y341750D02*
D03*
Y338750D02*
D03*
X196750Y277750D02*
D03*
Y274750D02*
D03*
X166750Y293750D02*
D03*
Y290750D02*
D03*
X161750Y293750D02*
D03*
Y290750D02*
D03*
X156750Y293750D02*
D03*
Y290750D02*
D03*
X196750Y301750D02*
D03*
Y298750D02*
D03*
Y341750D02*
D03*
Y338750D02*
D03*
X191750Y341750D02*
D03*
Y338750D02*
D03*
X171750Y269750D02*
D03*
Y266750D02*
D03*
X161750Y269750D02*
D03*
Y266750D02*
D03*
X151750Y269750D02*
D03*
Y266750D02*
D03*
X166750Y309750D02*
D03*
Y306750D02*
D03*
X196750Y317750D02*
D03*
Y314750D02*
D03*
X151750Y309750D02*
D03*
Y306750D02*
D03*
X166750Y333750D02*
D03*
Y330750D02*
D03*
X151750Y333750D02*
D03*
Y330750D02*
D03*
X186750Y293750D02*
D03*
Y290750D02*
D03*
X181750Y293750D02*
D03*
Y290750D02*
D03*
X176750Y293750D02*
D03*
Y290750D02*
D03*
X171750Y293750D02*
D03*
Y290750D02*
D03*
X191750Y317750D02*
D03*
Y314750D02*
D03*
X156750Y333750D02*
D03*
Y330750D02*
D03*
X176750Y269750D02*
D03*
Y266750D02*
D03*
X196750Y269750D02*
D03*
Y266750D02*
D03*
X186750Y269750D02*
D03*
Y266750D02*
D03*
X181750Y269750D02*
D03*
Y266750D02*
D03*
X161750Y309750D02*
D03*
Y306750D02*
D03*
X156750Y309750D02*
D03*
Y306750D02*
D03*
X176750Y333750D02*
D03*
Y330750D02*
D03*
X171750Y333750D02*
D03*
Y330750D02*
D03*
X161750Y333750D02*
D03*
Y330750D02*
D03*
X151750Y285750D02*
D03*
Y282750D02*
D03*
X196750Y293750D02*
D03*
Y290750D02*
D03*
X191750Y293750D02*
D03*
Y290750D02*
D03*
X176750Y309750D02*
D03*
Y306750D02*
D03*
X171750Y309750D02*
D03*
Y306750D02*
D03*
X186750Y277750D02*
D03*
Y274750D02*
D03*
X176750Y277750D02*
D03*
Y274750D02*
D03*
X161750Y277750D02*
D03*
Y274750D02*
D03*
X151750Y277750D02*
D03*
Y274750D02*
D03*
X156750Y285750D02*
D03*
Y282750D02*
D03*
D22*
X1427750Y385000D02*
D03*
Y400500D02*
D03*
X1427670Y160000D02*
D03*
Y144500D02*
D03*
D23*
X1418167Y261335D02*
D03*
X1437167D02*
D03*
X1427667Y283335D02*
D03*
D24*
X1540000Y272331D02*
D03*
X1555500D02*
D03*
X1315000Y272331D02*
D03*
X1299500D02*
D03*
D25*
X1344000Y272332D02*
D03*
X1334000D02*
D03*
X1511250Y272250D02*
D03*
X1521250D02*
D03*
D27*
X1364750Y272250D02*
D03*
X1360250D02*
D03*
X1490500Y272250D02*
D03*
X1495000D02*
D03*
D28*
X167750Y208500D02*
D03*
X170750D02*
D03*
X167750Y203500D02*
D03*
X170750D02*
D03*
X167750Y198500D02*
D03*
X170750D02*
D03*
X191750Y208500D02*
D03*
X194750D02*
D03*
X191750Y203500D02*
D03*
X194750D02*
D03*
X191750Y198500D02*
D03*
X194750D02*
D03*
X191750Y193500D02*
D03*
X194750D02*
D03*
X167750D02*
D03*
X170750D02*
D03*
X207750Y203500D02*
D03*
X210750D02*
D03*
X223750Y198500D02*
D03*
X226750D02*
D03*
X207750Y208500D02*
D03*
X210750D02*
D03*
X151750D02*
D03*
X154750D02*
D03*
X151750Y203500D02*
D03*
X154750D02*
D03*
X151750Y198500D02*
D03*
X154750D02*
D03*
X151750Y193500D02*
D03*
X154750D02*
D03*
X223750Y208500D02*
D03*
X226750D02*
D03*
X175750Y198500D02*
D03*
X178750D02*
D03*
X175750Y193500D02*
D03*
X178750D02*
D03*
X215750Y208500D02*
D03*
X218750D02*
D03*
X215750Y198500D02*
D03*
X218750D02*
D03*
X199750Y193500D02*
D03*
X202750D02*
D03*
X175750Y208500D02*
D03*
X178750D02*
D03*
X175750Y203500D02*
D03*
X178750D02*
D03*
X199750Y208500D02*
D03*
X202750D02*
D03*
X199750Y203500D02*
D03*
X202750D02*
D03*
X199750Y198500D02*
D03*
X202750D02*
D03*
X223750Y203500D02*
D03*
X226750D02*
D03*
X223750Y193500D02*
D03*
X226750D02*
D03*
X183750Y208500D02*
D03*
X186750D02*
D03*
X183750Y193500D02*
D03*
X186750D02*
D03*
X159750Y208500D02*
D03*
X162750D02*
D03*
X159750Y193500D02*
D03*
X162750D02*
D03*
X159750Y198500D02*
D03*
X162750D02*
D03*
X183750Y203500D02*
D03*
X186750D02*
D03*
X183750Y198500D02*
D03*
X186750D02*
D03*
X159750Y203500D02*
D03*
X162750D02*
D03*
X207750Y193500D02*
D03*
X210750D02*
D03*
X215750Y203500D02*
D03*
X218750D02*
D03*
X215750Y193500D02*
D03*
X218750D02*
D03*
X207750Y198500D02*
D03*
X210750D02*
D03*
X231750Y198500D02*
D03*
X234750D02*
D03*
X239750Y193500D02*
D03*
X242750D02*
D03*
X239750Y203500D02*
D03*
X242750D02*
D03*
X231750Y193500D02*
D03*
X234750D02*
D03*
X247750D02*
D03*
X250750D02*
D03*
X247750Y203500D02*
D03*
X250750D02*
D03*
X239750Y198500D02*
D03*
X242750D02*
D03*
X239750Y208500D02*
D03*
X242750D02*
D03*
X247750D02*
D03*
X250750D02*
D03*
X231750D02*
D03*
X234750D02*
D03*
X247750Y198500D02*
D03*
X250750D02*
D03*
X231750Y203500D02*
D03*
X234750D02*
D03*
X247750Y253500D02*
D03*
X250750D02*
D03*
X231750Y258500D02*
D03*
X234750D02*
D03*
X231750Y253500D02*
D03*
X234750D02*
D03*
X231750Y248500D02*
D03*
X234750D02*
D03*
X231750Y243500D02*
D03*
X234750D02*
D03*
X231750Y223500D02*
D03*
X234750D02*
D03*
X247750Y218500D02*
D03*
X250750D02*
D03*
X239750Y253500D02*
D03*
X242750D02*
D03*
X231750Y238500D02*
D03*
X234750D02*
D03*
X231750Y233500D02*
D03*
X234750D02*
D03*
X231750Y228500D02*
D03*
X234750D02*
D03*
X247750D02*
D03*
X250750D02*
D03*
X239750D02*
D03*
X242750D02*
D03*
X239750Y218500D02*
D03*
X242750D02*
D03*
X239750Y243500D02*
D03*
X242750D02*
D03*
X239750Y233500D02*
D03*
X242750D02*
D03*
X239750Y258500D02*
D03*
X242750D02*
D03*
X247750Y233500D02*
D03*
X250750D02*
D03*
X247750Y223500D02*
D03*
X250750D02*
D03*
X247750Y213500D02*
D03*
X250750D02*
D03*
X247750Y238500D02*
D03*
X250750D02*
D03*
X247750Y258500D02*
D03*
X250750D02*
D03*
X247750Y248500D02*
D03*
X250750D02*
D03*
X247750Y243500D02*
D03*
X250750D02*
D03*
X231750Y213500D02*
D03*
X234750D02*
D03*
X239750Y248500D02*
D03*
X242750D02*
D03*
X239750Y238500D02*
D03*
X242750D02*
D03*
X239750Y223500D02*
D03*
X242750D02*
D03*
X239750Y213500D02*
D03*
X242750D02*
D03*
X231750Y218500D02*
D03*
X234750D02*
D03*
X207750Y218500D02*
D03*
X210750D02*
D03*
X215750Y213500D02*
D03*
X218750D02*
D03*
X215750Y223500D02*
D03*
X218750D02*
D03*
X215750Y238500D02*
D03*
X218750D02*
D03*
X215750Y248500D02*
D03*
X218750D02*
D03*
X183750Y233500D02*
D03*
X186750D02*
D03*
X183750Y238500D02*
D03*
X186750D02*
D03*
X199750Y253500D02*
D03*
X202750D02*
D03*
X199750Y258500D02*
D03*
X202750D02*
D03*
X207750Y213500D02*
D03*
X210750D02*
D03*
X159750Y223500D02*
D03*
X162750D02*
D03*
X159750Y233500D02*
D03*
X162750D02*
D03*
X159750Y238500D02*
D03*
X162750D02*
D03*
X183750Y218500D02*
D03*
X186750D02*
D03*
X183750Y223500D02*
D03*
X186750D02*
D03*
X223750Y243500D02*
D03*
X226750D02*
D03*
X223750Y248500D02*
D03*
X226750D02*
D03*
X223750Y258500D02*
D03*
X226750D02*
D03*
X223750Y238500D02*
D03*
X226750D02*
D03*
X159750Y218500D02*
D03*
X162750D02*
D03*
X175750Y253500D02*
D03*
X178750D02*
D03*
X199750Y233500D02*
D03*
X202750D02*
D03*
X199750Y238500D02*
D03*
X202750D02*
D03*
X199750Y243500D02*
D03*
X202750D02*
D03*
X199750Y248500D02*
D03*
X202750D02*
D03*
X159750Y213500D02*
D03*
X162750D02*
D03*
X159750Y228500D02*
D03*
X162750D02*
D03*
X183750Y213500D02*
D03*
X186750D02*
D03*
X175750Y258500D02*
D03*
X178750D02*
D03*
X183750Y228500D02*
D03*
X186750D02*
D03*
X223750Y213500D02*
D03*
X226750D02*
D03*
X223750Y223500D02*
D03*
X226750D02*
D03*
X223750Y233500D02*
D03*
X226750D02*
D03*
X151750Y253500D02*
D03*
X154750D02*
D03*
X151750Y258500D02*
D03*
X154750D02*
D03*
X191750D02*
D03*
X194750D02*
D03*
X199750Y218500D02*
D03*
X202750D02*
D03*
X199750Y223500D02*
D03*
X202750D02*
D03*
X199750Y228500D02*
D03*
X202750D02*
D03*
X215750Y258500D02*
D03*
X218750D02*
D03*
X151750Y248500D02*
D03*
X154750D02*
D03*
X175750Y223500D02*
D03*
X178750D02*
D03*
X175750Y228500D02*
D03*
X178750D02*
D03*
X175750Y243500D02*
D03*
X178750D02*
D03*
X175750Y248500D02*
D03*
X178750D02*
D03*
X215750Y233500D02*
D03*
X218750D02*
D03*
X215750Y243500D02*
D03*
X218750D02*
D03*
X151750Y233500D02*
D03*
X154750D02*
D03*
X151750Y238500D02*
D03*
X154750D02*
D03*
X151750Y243500D02*
D03*
X154750D02*
D03*
X191750Y248500D02*
D03*
X194750D02*
D03*
X191750Y253500D02*
D03*
X194750D02*
D03*
X199750Y213500D02*
D03*
X202750D02*
D03*
X215750Y218500D02*
D03*
X218750D02*
D03*
X215750Y228500D02*
D03*
X218750D02*
D03*
X175750Y213500D02*
D03*
X178750D02*
D03*
X175750Y218500D02*
D03*
X178750D02*
D03*
X175750Y233500D02*
D03*
X178750D02*
D03*
X175750Y238500D02*
D03*
X178750D02*
D03*
X191750Y243500D02*
D03*
X194750D02*
D03*
X223750Y228500D02*
D03*
X226750D02*
D03*
X151750Y213500D02*
D03*
X154750D02*
D03*
X151750Y218500D02*
D03*
X154750D02*
D03*
X151750Y223500D02*
D03*
X154750D02*
D03*
X151750Y228500D02*
D03*
X154750D02*
D03*
X207750D02*
D03*
X210750D02*
D03*
X207750Y233500D02*
D03*
X210750D02*
D03*
X207750Y238500D02*
D03*
X210750D02*
D03*
X215750Y253500D02*
D03*
X218750D02*
D03*
X223750Y218500D02*
D03*
X226750D02*
D03*
X183750Y248500D02*
D03*
X186750D02*
D03*
X183750Y253500D02*
D03*
X186750D02*
D03*
X183750Y258500D02*
D03*
X186750D02*
D03*
X191750Y233500D02*
D03*
X194750D02*
D03*
X207750Y223500D02*
D03*
X210750D02*
D03*
X159750Y243500D02*
D03*
X162750D02*
D03*
X159750Y248500D02*
D03*
X162750D02*
D03*
X159750Y253500D02*
D03*
X162750D02*
D03*
X167750Y213500D02*
D03*
X170750D02*
D03*
X183750Y243500D02*
D03*
X186750D02*
D03*
X207750D02*
D03*
X210750D02*
D03*
X207750Y248500D02*
D03*
X210750D02*
D03*
X207750Y253500D02*
D03*
X210750D02*
D03*
X207750Y258500D02*
D03*
X210750D02*
D03*
X223750Y253500D02*
D03*
X226750D02*
D03*
X191750Y213500D02*
D03*
X194750D02*
D03*
X191750Y218500D02*
D03*
X194750D02*
D03*
X191750Y223500D02*
D03*
X194750D02*
D03*
X191750Y228500D02*
D03*
X194750D02*
D03*
X191750Y238500D02*
D03*
X194750D02*
D03*
X167750Y218500D02*
D03*
X170750D02*
D03*
X159750Y258500D02*
D03*
X162750D02*
D03*
X167750Y233500D02*
D03*
X170750D02*
D03*
X167750Y223500D02*
D03*
X170750D02*
D03*
X167750Y228500D02*
D03*
X170750D02*
D03*
X167750Y238500D02*
D03*
X170750D02*
D03*
X167750Y248500D02*
D03*
X170750D02*
D03*
X167750Y258500D02*
D03*
X170750D02*
D03*
X167750Y243500D02*
D03*
X170750D02*
D03*
X167750Y253500D02*
D03*
X170750D02*
D03*
X1476582Y272335D02*
D03*
X1473582D02*
D03*
X1378750Y272333D02*
D03*
X1381750D02*
D03*
D35*
X1065000Y815000D02*
D03*
X1075000D02*
D03*
X1085000D02*
D03*
X1095000D02*
D03*
X1105000D02*
D03*
X1115000D02*
D03*
X1125000D02*
D03*
X1135000D02*
D03*
X1145000D02*
D03*
X1155000D02*
D03*
X1165000D02*
D03*
X1175000D02*
D03*
X1185000D02*
D03*
X1195000D02*
D03*
X1205000D02*
D03*
X1215000D02*
D03*
X1065000Y825000D02*
D03*
X1075000D02*
D03*
X1085000D02*
D03*
X1095000D02*
D03*
X1105000D02*
D03*
X1115000D02*
D03*
X1125000D02*
D03*
X1135000D02*
D03*
X1145000D02*
D03*
X1155000D02*
D03*
X1165000D02*
D03*
X1175000D02*
D03*
X1185000D02*
D03*
X1195000D02*
D03*
X1205000D02*
D03*
X1215000D02*
D03*
X1065000Y835000D02*
D03*
X1075000D02*
D03*
X1085000D02*
D03*
X1095000D02*
D03*
X1105000D02*
D03*
X1115000D02*
D03*
X1125000D02*
D03*
X1135000D02*
D03*
X1145000D02*
D03*
X1155000D02*
D03*
X1165000D02*
D03*
X1175000D02*
D03*
X1185000D02*
D03*
X1195000D02*
D03*
X1205000D02*
D03*
X1215000D02*
D03*
X1065000Y845000D02*
D03*
X1075000D02*
D03*
X1085000D02*
D03*
X1095000D02*
D03*
X1105000D02*
D03*
X1115000D02*
D03*
X1125000D02*
D03*
X1135000D02*
D03*
X1145000D02*
D03*
X1155000D02*
D03*
X1165000D02*
D03*
X1175000D02*
D03*
X1185000D02*
D03*
X1195000D02*
D03*
X1205000D02*
D03*
X1215000D02*
D03*
X1065000Y855000D02*
D03*
X1075000D02*
D03*
X1085000D02*
D03*
X1095000D02*
D03*
X1105000D02*
D03*
X1115000D02*
D03*
X1125000D02*
D03*
X1135000D02*
D03*
X1145000D02*
D03*
X1155000D02*
D03*
X1165000D02*
D03*
X1175000D02*
D03*
X1185000D02*
D03*
X1195000D02*
D03*
X1205000D02*
D03*
X1215000D02*
D03*
X1065000Y865000D02*
D03*
X1075000D02*
D03*
X1085000D02*
D03*
X1095000D02*
D03*
X1105000D02*
D03*
X1115000D02*
D03*
X1125000D02*
D03*
X1135000D02*
D03*
X1145000D02*
D03*
X1155000D02*
D03*
X1165000D02*
D03*
X1175000D02*
D03*
X1185000D02*
D03*
X1195000D02*
D03*
X1205000D02*
D03*
X1215000D02*
D03*
X1065000Y875000D02*
D03*
X1075000D02*
D03*
X1085000D02*
D03*
X1095000D02*
D03*
X1105000D02*
D03*
X1115000D02*
D03*
X1125000D02*
D03*
X1135000D02*
D03*
X1145000D02*
D03*
X1155000D02*
D03*
X1165000D02*
D03*
X1175000D02*
D03*
X1185000D02*
D03*
X1195000D02*
D03*
X1205000D02*
D03*
X1215000D02*
D03*
X1065000Y885000D02*
D03*
X1075000D02*
D03*
X1085000D02*
D03*
X1095000D02*
D03*
X1105000D02*
D03*
X1115000D02*
D03*
X1125000D02*
D03*
X1135000D02*
D03*
X1145000D02*
D03*
X1155000D02*
D03*
X1165000D02*
D03*
X1175000D02*
D03*
X1185000D02*
D03*
X1195000D02*
D03*
X1205000D02*
D03*
X1215000D02*
D03*
X1065000Y895000D02*
D03*
X1075000D02*
D03*
X1085000D02*
D03*
X1095000D02*
D03*
X1105000D02*
D03*
X1115000D02*
D03*
X1125000D02*
D03*
X1135000D02*
D03*
X1145000D02*
D03*
X1155000D02*
D03*
X1165000D02*
D03*
X1175000D02*
D03*
X1185000D02*
D03*
X1195000D02*
D03*
X1205000D02*
D03*
X1215000D02*
D03*
X1065000Y905000D02*
D03*
X1075000D02*
D03*
X1085000D02*
D03*
X1095000D02*
D03*
X1105000D02*
D03*
X1115000D02*
D03*
X1125000D02*
D03*
X1135000D02*
D03*
X1145000D02*
D03*
X1155000D02*
D03*
X1165000D02*
D03*
X1175000D02*
D03*
X1185000D02*
D03*
X1195000D02*
D03*
X1205000D02*
D03*
X1215000D02*
D03*
X1065000Y915000D02*
D03*
X1075000D02*
D03*
X1085000D02*
D03*
X1095000D02*
D03*
X1105000D02*
D03*
X1115000D02*
D03*
X1125000D02*
D03*
X1135000D02*
D03*
X1145000D02*
D03*
X1155000D02*
D03*
X1165000D02*
D03*
X1175000D02*
D03*
X1185000D02*
D03*
X1195000D02*
D03*
X1205000D02*
D03*
X1215000D02*
D03*
X1065000Y925000D02*
D03*
X1075000D02*
D03*
X1085000D02*
D03*
X1095000D02*
D03*
X1105000D02*
D03*
X1115000D02*
D03*
X1125000D02*
D03*
X1135000D02*
D03*
X1145000D02*
D03*
X1155000D02*
D03*
X1165000D02*
D03*
X1175000D02*
D03*
X1185000D02*
D03*
X1195000D02*
D03*
X1205000D02*
D03*
X1215000D02*
D03*
X1065000Y935000D02*
D03*
X1075000D02*
D03*
X1085000D02*
D03*
X1095000D02*
D03*
X1105000D02*
D03*
X1115000D02*
D03*
X1125000D02*
D03*
X1135000D02*
D03*
X1145000D02*
D03*
X1155000D02*
D03*
X1165000D02*
D03*
X1175000D02*
D03*
X1185000D02*
D03*
X1195000D02*
D03*
X1205000D02*
D03*
X1215000D02*
D03*
X1215000Y945000D02*
D03*
X1065000D02*
D03*
X1075000D02*
D03*
X1085000D02*
D03*
X1095000D02*
D03*
X1105000D02*
D03*
X1115000D02*
D03*
X1125000D02*
D03*
X1135000D02*
D03*
X1145000D02*
D03*
X1155000D02*
D03*
X1165000D02*
D03*
X1175000D02*
D03*
X1185000D02*
D03*
X1195000D02*
D03*
X1205000D02*
D03*
X1065000Y955000D02*
D03*
X1075000D02*
D03*
X1085000D02*
D03*
X1095000D02*
D03*
X1105000D02*
D03*
X1115000D02*
D03*
X1125000D02*
D03*
X1135000D02*
D03*
X1145000D02*
D03*
X1155000D02*
D03*
X1165000D02*
D03*
X1175000D02*
D03*
X1185000D02*
D03*
X1195000D02*
D03*
X1205000D02*
D03*
X1215000D02*
D03*
X1065000Y965000D02*
D03*
X1075000D02*
D03*
X1085000D02*
D03*
X1095000D02*
D03*
X1105000D02*
D03*
X1115000D02*
D03*
X1125000D02*
D03*
X1135000D02*
D03*
X1145000D02*
D03*
X1155000D02*
D03*
X1165000D02*
D03*
X1175000D02*
D03*
X1185000D02*
D03*
X1195000D02*
D03*
X1205000D02*
D03*
X1215000D02*
D03*
D54*
X1182700Y734300D02*
D03*
Y708900D02*
D03*
Y683500D02*
D03*
Y658100D02*
D03*
Y632700D02*
D03*
Y607300D02*
D03*
Y581900D02*
D03*
Y556500D02*
D03*
Y531100D02*
D03*
Y505700D02*
D03*
X1157300Y734300D02*
D03*
Y708900D02*
D03*
Y683500D02*
D03*
Y658100D02*
D03*
Y632700D02*
D03*
Y607300D02*
D03*
Y581900D02*
D03*
Y556500D02*
D03*
Y531100D02*
D03*
Y505700D02*
D03*
X1027300D02*
D03*
Y531100D02*
D03*
Y556500D02*
D03*
Y581900D02*
D03*
Y607300D02*
D03*
Y632700D02*
D03*
Y658100D02*
D03*
Y683500D02*
D03*
Y708900D02*
D03*
Y734300D02*
D03*
X1052700Y505700D02*
D03*
Y531100D02*
D03*
Y556500D02*
D03*
Y581900D02*
D03*
Y607300D02*
D03*
Y632700D02*
D03*
Y658100D02*
D03*
Y683500D02*
D03*
Y708900D02*
D03*
Y734300D02*
D03*
D55*
X132900Y566500D02*
D03*
Y693500D02*
D03*
D56*
X158300Y594200D02*
D03*
Y614600D02*
D03*
Y635000D02*
D03*
Y655400D02*
D03*
X176100Y604400D02*
D03*
Y624800D02*
D03*
Y645200D02*
D03*
Y665600D02*
D03*
D57*
X167200Y711300D02*
D03*
Y548700D02*
D03*
X596800Y407000D02*
D03*
X103200D02*
D03*
D58*
X159500Y435400D02*
D03*
X184900D02*
D03*
X210300D02*
D03*
X235700D02*
D03*
X261100D02*
D03*
X286500D02*
D03*
X311900D02*
D03*
X337300D02*
D03*
X362700D02*
D03*
X388100D02*
D03*
X413500D02*
D03*
X438900D02*
D03*
X464300D02*
D03*
X489700D02*
D03*
X515100D02*
D03*
X540500Y435400D02*
D03*
Y410000D02*
D03*
X159500D02*
D03*
X184900D02*
D03*
X210300D02*
D03*
X235700D02*
D03*
X261100D02*
D03*
X286500D02*
D03*
X311900D02*
D03*
X337300D02*
D03*
X362700D02*
D03*
X388100D02*
D03*
X413500D02*
D03*
X438900D02*
D03*
X464300D02*
D03*
X489700D02*
D03*
X515100D02*
D03*
X159500Y384600D02*
D03*
X184900D02*
D03*
X210300D02*
D03*
X235700D02*
D03*
X261100D02*
D03*
X286500D02*
D03*
X311900D02*
D03*
X337300D02*
D03*
X362700D02*
D03*
X388100D02*
D03*
X413500D02*
D03*
X438900D02*
D03*
X464300D02*
D03*
X489700D02*
D03*
X515100D02*
D03*
X540500D02*
D03*
D59*
X709000Y410000D02*
D03*
D60*
X911000D02*
D03*
D61*
X1144600Y384600D02*
D03*
X1195400D02*
D03*
Y435400D02*
D03*
X1144600D02*
D03*
X1170000Y410000D02*
D03*
X1014600Y384600D02*
D03*
X1065400D02*
D03*
Y435400D02*
D03*
X1014600D02*
D03*
X1040000Y410000D02*
D03*
D62*
X901200Y747500D02*
D03*
X875800D02*
D03*
X850400D02*
D03*
X825000D02*
D03*
X799600D02*
D03*
X774200D02*
D03*
X723400D02*
D03*
X672600D02*
D03*
X647200D02*
D03*
X596400D02*
D03*
X570800Y746800D02*
D03*
X520000D02*
D03*
X469200D02*
D03*
X418400D02*
D03*
X342200D02*
D03*
X266000D02*
D03*
X748800Y747500D02*
D03*
X901200Y722100D02*
D03*
X875800D02*
D03*
X850400D02*
D03*
X825000D02*
D03*
X799600D02*
D03*
X774200D02*
D03*
X748800D02*
D03*
X723400D02*
D03*
X901200Y696700D02*
D03*
X875800D02*
D03*
X850400D02*
D03*
X825000D02*
D03*
X799600D02*
D03*
X774200D02*
D03*
X723400D02*
D03*
X672600D02*
D03*
X647200D02*
D03*
X596400D02*
D03*
X570800Y696000D02*
D03*
X520000D02*
D03*
X469200D02*
D03*
X418400D02*
D03*
X748800Y696700D02*
D03*
X901200Y671300D02*
D03*
X875800D02*
D03*
X850400D02*
D03*
X825000D02*
D03*
X799600D02*
D03*
X774200D02*
D03*
X748800D02*
D03*
X342200Y662200D02*
D03*
X266000D02*
D03*
X901200Y645900D02*
D03*
X875800D02*
D03*
X850400D02*
D03*
X825000D02*
D03*
X799600D02*
D03*
X774200D02*
D03*
X723400D02*
D03*
X672600D02*
D03*
X647200D02*
D03*
X596400D02*
D03*
X520000Y645200D02*
D03*
X469200D02*
D03*
X418400D02*
D03*
X748800Y645900D02*
D03*
X901200Y620500D02*
D03*
X875800D02*
D03*
X850400D02*
D03*
X825000D02*
D03*
X799600D02*
D03*
X774200D02*
D03*
X748800D02*
D03*
X723400D02*
D03*
X901200Y595100D02*
D03*
X875800D02*
D03*
X850400D02*
D03*
X825000D02*
D03*
X799600D02*
D03*
X774200D02*
D03*
X723400D02*
D03*
X672600D02*
D03*
X647200D02*
D03*
X596400D02*
D03*
X570800Y594400D02*
D03*
X520000D02*
D03*
X469200D02*
D03*
X342200Y577500D02*
D03*
X266000D02*
D03*
X748800Y595100D02*
D03*
X901200Y569700D02*
D03*
X875800D02*
D03*
X850400D02*
D03*
X825000D02*
D03*
X799600D02*
D03*
X774200D02*
D03*
X748800D02*
D03*
X723400D02*
D03*
X901200Y544300D02*
D03*
X875800D02*
D03*
X850400D02*
D03*
X825000D02*
D03*
X799600D02*
D03*
X774200D02*
D03*
X723400D02*
D03*
X672600D02*
D03*
X647200D02*
D03*
X596400D02*
D03*
X570800Y543600D02*
D03*
X520000D02*
D03*
X469200D02*
D03*
X748800Y544300D02*
D03*
X901200Y518900D02*
D03*
X875800D02*
D03*
X850400D02*
D03*
X825000D02*
D03*
X799600D02*
D03*
X774200D02*
D03*
X748800D02*
D03*
X723400D02*
D03*
X901200Y493500D02*
D03*
X875800D02*
D03*
X850400D02*
D03*
X825000D02*
D03*
X799600D02*
D03*
X774200D02*
D03*
X723400D02*
D03*
X672600D02*
D03*
X647200D02*
D03*
X596400D02*
D03*
X570800Y492800D02*
D03*
X520000D02*
D03*
X469200D02*
D03*
X418400D02*
D03*
D03*
X342200D02*
D03*
X266000D02*
D03*
X748800Y493500D02*
D03*
X418400Y543600D02*
D03*
Y594400D02*
D03*
X570800Y645200D02*
D03*
X723400Y671300D02*
D03*
X952000Y747500D02*
D03*
X926600D02*
D03*
X952000Y722100D02*
D03*
X926600D02*
D03*
X952000Y696700D02*
D03*
X926600D02*
D03*
X952000Y671300D02*
D03*
X926600D02*
D03*
X952000Y645900D02*
D03*
X926600D02*
D03*
X952000Y620500D02*
D03*
X926600D02*
D03*
X952000Y595100D02*
D03*
X926600D02*
D03*
X952000Y569700D02*
D03*
X926600D02*
D03*
X952000Y544300D02*
D03*
X926600D02*
D03*
X952000Y518900D02*
D03*
X926600D02*
D03*
X952000Y493500D02*
D03*
X926600D02*
D03*
D83*
X870000Y185000D02*
D03*
Y192500D02*
D03*
Y200000D02*
D03*
Y207500D02*
D03*
Y215000D02*
D03*
Y222500D02*
D03*
Y230000D02*
D03*
Y237500D02*
D03*
Y245000D02*
D03*
Y252500D02*
D03*
X845000Y185000D02*
D03*
Y192500D02*
D03*
Y200000D02*
D03*
Y207500D02*
D03*
Y215000D02*
D03*
Y222500D02*
D03*
Y230000D02*
D03*
Y237500D02*
D03*
Y245000D02*
D03*
Y252500D02*
D03*
X820000Y185000D02*
D03*
Y192500D02*
D03*
Y200000D02*
D03*
Y207500D02*
D03*
Y215000D02*
D03*
Y222500D02*
D03*
Y230000D02*
D03*
Y237500D02*
D03*
Y245000D02*
D03*
Y252500D02*
D03*
X795000Y185000D02*
D03*
Y192500D02*
D03*
Y200000D02*
D03*
Y207500D02*
D03*
Y215000D02*
D03*
Y222500D02*
D03*
Y230000D02*
D03*
Y237500D02*
D03*
Y245000D02*
D03*
Y252500D02*
D03*
X770000Y185000D02*
D03*
Y192500D02*
D03*
Y200000D02*
D03*
Y207500D02*
D03*
Y215000D02*
D03*
Y222500D02*
D03*
Y230000D02*
D03*
Y237500D02*
D03*
Y245000D02*
D03*
Y252500D02*
D03*
X745000D02*
D03*
Y245000D02*
D03*
Y237500D02*
D03*
Y230000D02*
D03*
Y222500D02*
D03*
Y215000D02*
D03*
Y207500D02*
D03*
Y200000D02*
D03*
Y192500D02*
D03*
Y185000D02*
D03*
D84*
Y275000D02*
D03*
X770000D02*
D03*
X795000D02*
D03*
X820000D02*
D03*
X845000D02*
D03*
X870000D02*
D03*
Y335000D02*
D03*
Y325000D02*
D03*
Y315000D02*
D03*
Y305000D02*
D03*
Y295000D02*
D03*
Y285000D02*
D03*
X845000Y335000D02*
D03*
Y325000D02*
D03*
Y315000D02*
D03*
Y305000D02*
D03*
Y295000D02*
D03*
Y285000D02*
D03*
X820000Y335000D02*
D03*
Y325000D02*
D03*
Y315000D02*
D03*
Y305000D02*
D03*
Y295000D02*
D03*
Y285000D02*
D03*
X795000Y335000D02*
D03*
Y325000D02*
D03*
Y315000D02*
D03*
Y305000D02*
D03*
Y295000D02*
D03*
Y285000D02*
D03*
X770000Y335000D02*
D03*
Y325000D02*
D03*
Y315000D02*
D03*
Y305000D02*
D03*
Y295000D02*
D03*
Y285000D02*
D03*
X745000D02*
D03*
Y295000D02*
D03*
Y305000D02*
D03*
Y315000D02*
D03*
Y325000D02*
D03*
Y335000D02*
D03*
D85*
X870000Y115000D02*
D03*
Y120000D02*
D03*
Y125000D02*
D03*
Y130000D02*
D03*
Y135000D02*
D03*
Y140000D02*
D03*
Y145000D02*
D03*
Y150000D02*
D03*
Y155000D02*
D03*
Y160000D02*
D03*
Y165000D02*
D03*
X845000Y115000D02*
D03*
Y120000D02*
D03*
Y125000D02*
D03*
Y130000D02*
D03*
Y135000D02*
D03*
Y140000D02*
D03*
Y145000D02*
D03*
Y150000D02*
D03*
Y155000D02*
D03*
Y160000D02*
D03*
Y165000D02*
D03*
X820000Y115000D02*
D03*
Y120000D02*
D03*
Y125000D02*
D03*
Y130000D02*
D03*
Y135000D02*
D03*
Y140000D02*
D03*
Y145000D02*
D03*
Y150000D02*
D03*
Y155000D02*
D03*
Y160000D02*
D03*
Y165000D02*
D03*
X795000Y115000D02*
D03*
Y120000D02*
D03*
Y125000D02*
D03*
Y130000D02*
D03*
Y135000D02*
D03*
Y140000D02*
D03*
Y145000D02*
D03*
Y150000D02*
D03*
Y155000D02*
D03*
Y160000D02*
D03*
Y165000D02*
D03*
X770000Y115000D02*
D03*
Y120000D02*
D03*
Y125000D02*
D03*
Y130000D02*
D03*
Y135000D02*
D03*
Y140000D02*
D03*
Y145000D02*
D03*
Y150000D02*
D03*
Y155000D02*
D03*
Y160000D02*
D03*
Y165000D02*
D03*
X745000D02*
D03*
Y160000D02*
D03*
Y155000D02*
D03*
Y150000D02*
D03*
Y145000D02*
D03*
Y140000D02*
D03*
Y135000D02*
D03*
Y130000D02*
D03*
Y125000D02*
D03*
Y120000D02*
D03*
Y115000D02*
D03*
D86*
X1533452Y310879D02*
D03*
X1548018Y316180D02*
D03*
X1321798Y234158D02*
D03*
X1307232Y228857D02*
D03*
D87*
X1525255Y328668D02*
D03*
X1538678Y336418D02*
D03*
X1329995Y216319D02*
D03*
X1316572Y208569D02*
D03*
D88*
X1514005Y344679D02*
D03*
X1525878Y354642D02*
D03*
X1341293Y200071D02*
D03*
X1329420Y190108D02*
D03*
D89*
X1499944Y358505D02*
D03*
X1509907Y370378D02*
D03*
X1355289Y186245D02*
D03*
X1345326Y174372D02*
D03*
D90*
X1408202Y383114D02*
D03*
X1405511Y398378D02*
D03*
X1446980Y161636D02*
D03*
X1449671Y146371D02*
D03*
D91*
X1389065Y377964D02*
D03*
X1383764Y392529D02*
D03*
X1465935Y166548D02*
D03*
X1471236Y151982D02*
D03*
D92*
X1538614Y291840D02*
D03*
X1553878Y294532D02*
D03*
X1316636Y253118D02*
D03*
X1301371Y250427D02*
D03*
D93*
X1483917Y369755D02*
D03*
X1491667Y383178D02*
D03*
X1371383Y174995D02*
D03*
X1363633Y161572D02*
D03*
D94*
X1466142Y378202D02*
D03*
X1471443Y392768D02*
D03*
X1389202Y166548D02*
D03*
X1383900Y151982D02*
D03*
D95*
X1447278Y383114D02*
D03*
X1449969Y398378D02*
D03*
X1408302Y161386D02*
D03*
X1405611Y146122D02*
D03*
D96*
X1341324Y344679D02*
D03*
X1329451Y354642D02*
D03*
X1514005Y199821D02*
D03*
X1525878Y189858D02*
D03*
D97*
X1330245Y328500D02*
D03*
X1316822Y336250D02*
D03*
X1525219Y216000D02*
D03*
X1538642Y208250D02*
D03*
D98*
X1321817Y310935D02*
D03*
X1307252Y316236D02*
D03*
X1533452Y233942D02*
D03*
X1548018Y228640D02*
D03*
D99*
X1316886Y291798D02*
D03*
X1301622Y294490D02*
D03*
X1538614Y252900D02*
D03*
X1553878Y250208D02*
D03*
D100*
X1371500Y369755D02*
D03*
X1363750Y383178D02*
D03*
X1483895Y174745D02*
D03*
X1491645Y161322D02*
D03*
D101*
X1355465Y358505D02*
D03*
X1345502Y370378D02*
D03*
X1499929Y186245D02*
D03*
X1509892Y174372D02*
D03*
D102*
X1491670Y218579D02*
D03*
X1499330Y212151D02*
D03*
X1363580Y326032D02*
D03*
X1355920Y332460D02*
D03*
D103*
X1500110Y230500D02*
D03*
X1508770Y225500D02*
D03*
X1355330Y314129D02*
D03*
X1346670Y319129D02*
D03*
D104*
X1506302Y243795D02*
D03*
X1515698Y240375D02*
D03*
X1349198Y300950D02*
D03*
X1339802Y304370D02*
D03*
D105*
X1510076Y257899D02*
D03*
X1519924Y256162D02*
D03*
X1345424Y286785D02*
D03*
X1335576Y288521D02*
D03*
D106*
X1456184Y350802D02*
D03*
X1459604Y360198D02*
D03*
X1399074Y193698D02*
D03*
X1395654Y184302D02*
D03*
D107*
X1373964Y208457D02*
D03*
X1367536Y200797D02*
D03*
X1481420Y336420D02*
D03*
X1487848Y344080D02*
D03*
D108*
X1413149Y189924D02*
D03*
X1411412Y180076D02*
D03*
X1442225Y354576D02*
D03*
X1443962Y364424D02*
D03*
D109*
X1442046Y189924D02*
D03*
X1443782Y180076D02*
D03*
X1413216Y354576D02*
D03*
X1411480Y364424D02*
D03*
D110*
X1456147Y193698D02*
D03*
X1459567Y184302D02*
D03*
X1398960Y350890D02*
D03*
X1395540Y360287D02*
D03*
D111*
X1469442Y199830D02*
D03*
X1474442Y191170D02*
D03*
X1386000Y344610D02*
D03*
X1381000Y353270D02*
D03*
D112*
X1481423Y208330D02*
D03*
X1487850Y200670D02*
D03*
X1373964Y336420D02*
D03*
X1367536Y344080D02*
D03*
D113*
X1469500Y344786D02*
D03*
X1474500Y353447D02*
D03*
X1385750Y199841D02*
D03*
X1380750Y191180D02*
D03*
D114*
X1363580Y218714D02*
D03*
X1355920Y212286D02*
D03*
X1491736Y326036D02*
D03*
X1499396Y332464D02*
D03*
D115*
X1345424Y258099D02*
D03*
X1335576Y256362D02*
D03*
X1510076Y286823D02*
D03*
X1519924Y288560D02*
D03*
D116*
X1348985Y243960D02*
D03*
X1339588Y240540D02*
D03*
X1506051Y300895D02*
D03*
X1515448Y304315D02*
D03*
D117*
X1355160Y230750D02*
D03*
X1346500Y225750D02*
D03*
X1500170Y314000D02*
D03*
X1508830Y319000D02*
D03*
D118*
X1373199Y303805D02*
D03*
X1369301Y306055D02*
D03*
X1482301Y241125D02*
D03*
X1486199Y238875D02*
D03*
D119*
X1406224Y213364D02*
D03*
X1404685Y209136D02*
D03*
X1449129Y331386D02*
D03*
X1450668Y335614D02*
D03*
D120*
X1438464Y210466D02*
D03*
X1439246Y206034D02*
D03*
X1416781Y334284D02*
D03*
X1416000Y338716D02*
D03*
D121*
X1482051Y303729D02*
D03*
X1485949Y305979D02*
D03*
X1373199Y241125D02*
D03*
X1369301Y238875D02*
D03*
D122*
X1489534Y261495D02*
D03*
X1493966Y260714D02*
D03*
X1365716Y283220D02*
D03*
X1361284Y284002D02*
D03*
D123*
X1468054Y320484D02*
D03*
X1470946Y323931D02*
D03*
X1387221Y224224D02*
D03*
X1384328Y220776D02*
D03*
D124*
X1379474Y312717D02*
D03*
X1376026Y315609D02*
D03*
X1475755Y231946D02*
D03*
X1479203Y229054D02*
D03*
D125*
X1416767Y210466D02*
D03*
X1415986Y206034D02*
D03*
X1438632Y334284D02*
D03*
X1439414Y338716D02*
D03*
D126*
X1459005Y217949D02*
D03*
X1461254Y214051D02*
D03*
X1396266Y326801D02*
D03*
X1394016Y330699D02*
D03*
D127*
X1468073Y224224D02*
D03*
X1470966Y220776D02*
D03*
X1387285Y320526D02*
D03*
X1384393Y323974D02*
D03*
D128*
X1365716Y261607D02*
D03*
X1361284Y260825D02*
D03*
X1489534Y283213D02*
D03*
X1493966Y283994D02*
D03*
D129*
X1396221Y217949D02*
D03*
X1393971Y214051D02*
D03*
X1459125Y326801D02*
D03*
X1461375Y330699D02*
D03*
D130*
X1379474Y232011D02*
D03*
X1376026Y229118D02*
D03*
X1475776Y312660D02*
D03*
X1479224Y315553D02*
D03*
D131*
X1486636Y251020D02*
D03*
X1490864Y249480D02*
D03*
X1368614Y293730D02*
D03*
X1364386Y295270D02*
D03*
D132*
X1368573Y251019D02*
D03*
X1364345Y249480D02*
D03*
X1486636Y293820D02*
D03*
X1490864Y295359D02*
D03*
D133*
X1406090Y331386D02*
D03*
X1404551Y335614D02*
D03*
X1448981Y213364D02*
D03*
X1450520Y209136D02*
D03*
D134*
X1452186Y314799D02*
D03*
X1450686Y312201D02*
D03*
X1403163Y229951D02*
D03*
X1404663Y232549D02*
D03*
D135*
X1470049Y296800D02*
D03*
X1467451Y295301D02*
D03*
X1385261Y248000D02*
D03*
X1387859Y249500D02*
D03*
D136*
X1444332Y226340D02*
D03*
X1443306Y229160D02*
D03*
X1410836Y318410D02*
D03*
X1411862Y315590D02*
D03*
D137*
X1465149Y303755D02*
D03*
X1462851Y301826D02*
D03*
X1390101Y240897D02*
D03*
X1392399Y242825D02*
D03*
D138*
X1436104Y224023D02*
D03*
X1435583Y226977D02*
D03*
X1419205Y320477D02*
D03*
X1419727Y317523D02*
D03*
D139*
X1473660Y289091D02*
D03*
X1470840Y288065D02*
D03*
X1381678Y255737D02*
D03*
X1384498Y256763D02*
D03*
D140*
X1459176Y309899D02*
D03*
X1457248Y307601D02*
D03*
X1396159Y234851D02*
D03*
X1398087Y237149D02*
D03*
D141*
X1444414Y318410D02*
D03*
X1443388Y315590D02*
D03*
X1410942Y226340D02*
D03*
X1411968Y229160D02*
D03*
D142*
X1475977Y280830D02*
D03*
X1473023Y280310D02*
D03*
X1379523Y263990D02*
D03*
X1382477Y264510D02*
D03*
D143*
X1436187Y320477D02*
D03*
X1435666Y317523D02*
D03*
X1419155Y224023D02*
D03*
X1419676Y226977D02*
D03*
D144*
X1385201Y296869D02*
D03*
X1387799Y295369D02*
D03*
X1470049Y248000D02*
D03*
X1467451Y249500D02*
D03*
D145*
X1381591Y289135D02*
D03*
X1384410Y288109D02*
D03*
X1473660Y255638D02*
D03*
X1470840Y256664D02*
D03*
D146*
X1403250Y314683D02*
D03*
X1404750Y312085D02*
D03*
X1452092Y229951D02*
D03*
X1450592Y232549D02*
D03*
D147*
X1396286Y309782D02*
D03*
X1398214Y307484D02*
D03*
X1459146Y234851D02*
D03*
X1457218Y237149D02*
D03*
D148*
X1390221Y303714D02*
D03*
X1392519Y301786D02*
D03*
X1465149Y240786D02*
D03*
X1462851Y242714D02*
D03*
D149*
X1475977Y263867D02*
D03*
X1473023Y264388D02*
D03*
X1379523Y280796D02*
D03*
X1382477Y280275D02*
D03*
D150*
X1577500Y801000D02*
D03*
X1572500D02*
D03*
X1562500D02*
D03*
X1567500D02*
D03*
X1547500D02*
D03*
X1542500D02*
D03*
X1552500D02*
D03*
X1557500D02*
D03*
X1527500D02*
D03*
X1522500D02*
D03*
X1532500D02*
D03*
X1537500D02*
D03*
X1477500D02*
D03*
X1472500D02*
D03*
X1462500D02*
D03*
X1467500D02*
D03*
X1497500D02*
D03*
X1492500D02*
D03*
X1482500D02*
D03*
X1487500D02*
D03*
X1507500D02*
D03*
X1502500D02*
D03*
X1512500D02*
D03*
X1517500D02*
D03*
X1417500D02*
D03*
X1412500D02*
D03*
X1402500D02*
D03*
X1407500D02*
D03*
X1437500D02*
D03*
X1432500D02*
D03*
X1422500D02*
D03*
X1427500D02*
D03*
X1447500D02*
D03*
X1442500D02*
D03*
X1452500D02*
D03*
X1457500D02*
D03*
X1357500D02*
D03*
X1352500D02*
D03*
X1342500D02*
D03*
X1347500D02*
D03*
X1377500D02*
D03*
X1372500D02*
D03*
X1362500D02*
D03*
X1367500D02*
D03*
X1387500D02*
D03*
X1382500D02*
D03*
X1392500D02*
D03*
X1397500D02*
D03*
X1327500D02*
D03*
X1322500D02*
D03*
X1332500D02*
D03*
X1337500D02*
D03*
X1337500Y1099500D02*
D03*
X1332500D02*
D03*
X1322500D02*
D03*
X1327500D02*
D03*
X1397500D02*
D03*
X1392500D02*
D03*
X1382500D02*
D03*
X1387500D02*
D03*
X1367500D02*
D03*
X1362500D02*
D03*
X1372500D02*
D03*
X1377500D02*
D03*
X1347500D02*
D03*
X1342500D02*
D03*
X1352500D02*
D03*
X1357500D02*
D03*
X1457500D02*
D03*
X1452500D02*
D03*
X1442500D02*
D03*
X1447500D02*
D03*
X1427500D02*
D03*
X1422500D02*
D03*
X1432500D02*
D03*
X1437500D02*
D03*
X1407500D02*
D03*
X1402500D02*
D03*
X1412500D02*
D03*
X1417500D02*
D03*
X1517500D02*
D03*
X1512500D02*
D03*
X1502500D02*
D03*
X1507500D02*
D03*
X1487500D02*
D03*
X1482500D02*
D03*
X1492500D02*
D03*
X1497500D02*
D03*
X1467500D02*
D03*
X1462500D02*
D03*
X1472500D02*
D03*
X1477500D02*
D03*
X1537500D02*
D03*
X1532500D02*
D03*
X1522500D02*
D03*
X1527500D02*
D03*
X1557500D02*
D03*
X1552500D02*
D03*
X1542500D02*
D03*
X1547500D02*
D03*
X1567500D02*
D03*
X1562500D02*
D03*
X1572500D02*
D03*
X1577500D02*
D03*
D151*
X1300750Y1062750D02*
D03*
Y1067750D02*
D03*
Y1077750D02*
D03*
Y1072750D02*
D03*
Y1002750D02*
D03*
Y1007750D02*
D03*
Y1017750D02*
D03*
Y1012750D02*
D03*
Y1032750D02*
D03*
Y1037750D02*
D03*
Y1027750D02*
D03*
Y1022750D02*
D03*
Y1052750D02*
D03*
Y1057750D02*
D03*
Y1047750D02*
D03*
Y1042750D02*
D03*
Y942750D02*
D03*
Y947750D02*
D03*
Y957750D02*
D03*
Y952750D02*
D03*
Y972750D02*
D03*
Y977750D02*
D03*
Y967750D02*
D03*
Y962750D02*
D03*
Y992750D02*
D03*
Y997750D02*
D03*
Y987750D02*
D03*
Y982750D02*
D03*
Y882750D02*
D03*
Y887750D02*
D03*
Y897750D02*
D03*
Y892750D02*
D03*
Y912750D02*
D03*
Y917750D02*
D03*
Y907750D02*
D03*
Y902750D02*
D03*
Y932750D02*
D03*
Y937750D02*
D03*
Y927750D02*
D03*
Y922750D02*
D03*
Y862750D02*
D03*
Y867750D02*
D03*
Y877750D02*
D03*
Y872750D02*
D03*
Y842750D02*
D03*
Y847750D02*
D03*
Y857750D02*
D03*
Y852750D02*
D03*
Y832750D02*
D03*
Y837750D02*
D03*
Y827750D02*
D03*
Y822750D02*
D03*
X1599250D02*
D03*
Y827750D02*
D03*
Y837750D02*
D03*
Y832750D02*
D03*
Y852750D02*
D03*
Y857750D02*
D03*
Y847750D02*
D03*
Y842750D02*
D03*
Y872750D02*
D03*
Y877750D02*
D03*
Y867750D02*
D03*
Y862750D02*
D03*
Y922750D02*
D03*
Y927750D02*
D03*
Y937750D02*
D03*
Y932750D02*
D03*
Y902750D02*
D03*
Y907750D02*
D03*
Y917750D02*
D03*
Y912750D02*
D03*
Y892750D02*
D03*
Y897750D02*
D03*
Y887750D02*
D03*
Y882750D02*
D03*
Y982750D02*
D03*
Y987750D02*
D03*
Y997750D02*
D03*
Y992750D02*
D03*
Y962750D02*
D03*
Y967750D02*
D03*
Y977750D02*
D03*
Y972750D02*
D03*
Y952750D02*
D03*
Y957750D02*
D03*
Y947750D02*
D03*
Y942750D02*
D03*
Y1042750D02*
D03*
Y1047750D02*
D03*
Y1057750D02*
D03*
Y1052750D02*
D03*
Y1022750D02*
D03*
Y1027750D02*
D03*
Y1037750D02*
D03*
Y1032750D02*
D03*
Y1012750D02*
D03*
Y1017750D02*
D03*
Y1007750D02*
D03*
Y1002750D02*
D03*
Y1072750D02*
D03*
Y1077750D02*
D03*
Y1067750D02*
D03*
Y1062750D02*
D03*
M02*
