G04 Layer_Color=16777215*
%FSLAX44Y44*%
%MOMM*%
G71*
G01*
G75*
%ADD10C,0.2000*%
%ADD153C,0.2540*%
%ADD154R,1.0000X4.5000*%
%ADD155R,1.0000X1.0000*%
%ADD156R,0.6500X0.6500*%
%ADD157P,0.8485X4X90.0*%
%ADD158R,0.6000X0.6000*%
%ADD159R,20.0000X27.7500*%
D10*
X296750Y879500D02*
G03*
X296750Y879500I-559J0D01*
G01*
X298441D02*
G03*
X298441Y879500I-2250J0D01*
G01*
X296750Y979500D02*
G03*
X296750Y979500I-559J0D01*
G01*
X298441D02*
G03*
X298441Y979500I-2250J0D01*
G01*
X612000Y407000D02*
G03*
X612000Y407000I-15200J0D01*
G01*
X118000D02*
G03*
X118000Y407000I-14800J0D01*
G01*
X1308000Y568000D02*
G03*
X1392000Y568000I42000J12000D01*
G01*
Y592000D02*
G03*
X1308000Y592000I-42000J-12000D01*
G01*
X1592000D02*
G03*
X1508000Y592000I-42000J-12000D01*
G01*
Y568000D02*
G03*
X1592000Y568000I42000J12000D01*
G01*
X1438000Y722000D02*
G03*
X1438000Y638000I12000J-42000D01*
G01*
X1462000D02*
G03*
X1462000Y722000I-12000J42000D01*
G01*
X704218Y1023910D02*
G03*
X693910Y1034218I-5154J5154D01*
G01*
X913910Y1085782D02*
G03*
X924218Y1096090I5154J5154D01*
G01*
X977289Y806250D02*
G03*
X962711Y806250I-7289J0D01*
G01*
X702711Y893750D02*
G03*
X717289Y893750I7289J0D01*
G01*
X434006Y991000D02*
G03*
X434006Y991000I-5006J0D01*
G01*
X432750D02*
G03*
X432750Y991000I-3750J0D01*
G01*
X1462000Y438000D02*
G03*
X1462000Y522000I-12000J42000D01*
G01*
X1438000D02*
G03*
X1438000Y438000I12000J-42000D01*
G01*
X737934Y950000D02*
G03*
X737934Y950000I-4000J0D01*
G01*
X1304000Y1100000D02*
G03*
X1304000Y1100000I-4000J0D01*
G01*
X920000Y410000D02*
G03*
X920000Y410000I-9000J0D01*
G01*
X716000D02*
G03*
X716000Y410000I-7000J0D01*
G01*
X350500Y871250D02*
Y875500D01*
X346250D02*
X350500D01*
X299500Y871250D02*
X303750Y875500D01*
X350500Y824500D02*
Y828750D01*
X346000Y824500D02*
X350500D01*
X299500D02*
Y828750D01*
Y824500D02*
X303750D01*
X350500Y971250D02*
Y975500D01*
X346250D02*
X350500D01*
X299500Y971250D02*
X303750Y975500D01*
X350500Y924500D02*
Y928750D01*
X346000Y924500D02*
X350500D01*
X299500D02*
Y928750D01*
Y924500D02*
X303750D01*
X1198000Y490000D02*
Y749000D01*
X1142000Y490000D02*
X1198000D01*
X1142000D02*
Y749000D01*
X1198000D01*
X67500Y580000D02*
X77500D01*
X67500Y680000D02*
X77500D01*
X67500Y535000D02*
X77500D01*
X67500D02*
Y725000D01*
X77500D01*
X240000D01*
X77500Y535000D02*
Y725000D01*
Y535000D02*
X240000D01*
Y725000D01*
X618000Y356000D02*
Y465000D01*
X82500D02*
X618000D01*
X82000D02*
X82500D01*
X82000Y356000D02*
Y465000D01*
Y356000D02*
X618000D01*
X1250000Y284000D02*
X1325000D01*
X1250000Y216000D02*
Y284000D01*
Y216000D02*
X1325000D01*
Y282000D02*
Y284000D01*
Y216000D02*
Y218000D01*
X1330000Y625000D02*
X1395000D01*
X1330000Y535000D02*
X1395000D01*
Y568000D01*
Y592000D02*
Y625000D01*
X1305000Y560000D02*
Y568000D01*
Y560000D02*
X1330000Y535000D01*
X1305000Y600000D02*
X1330000Y625000D01*
X1305000Y592000D02*
Y600000D01*
X1290000Y605000D02*
X1300000D01*
X1295000Y600000D02*
Y610000D01*
X1505000Y535000D02*
X1570000D01*
X1505000Y625000D02*
X1570000D01*
X1505000Y592000D02*
Y625000D01*
Y535000D02*
Y568000D01*
X1595000Y592000D02*
Y600000D01*
X1570000Y625000D02*
X1595000Y600000D01*
X1570000Y535000D02*
X1595000Y560000D01*
Y568000D01*
X1600000Y555000D02*
X1610000D01*
X1605000Y550000D02*
Y560000D01*
X1495000Y635000D02*
Y700000D01*
X1405000Y635000D02*
Y700000D01*
Y635000D02*
X1438000D01*
X1462000D02*
X1495000D01*
X1430000Y725000D02*
X1438000D01*
X1405000Y700000D02*
X1430000Y725000D01*
X1470000D02*
X1495000Y700000D01*
X1462000Y725000D02*
X1470000D01*
X1475000Y730000D02*
Y740000D01*
X1470000Y735000D02*
X1480000D01*
X635250Y265250D02*
Y284750D01*
X624750Y265250D02*
X635250D01*
X624750D02*
Y284750D01*
X635250D01*
X605250Y265250D02*
Y284750D01*
X594750Y265250D02*
X605250D01*
X594750D02*
Y284750D01*
X605250D01*
X575250Y265250D02*
Y284750D01*
X564750Y265250D02*
X575250D01*
X564750D02*
Y284750D01*
X575250D01*
X545250Y265250D02*
Y284750D01*
X534750Y265250D02*
X545250D01*
X534750D02*
Y284750D01*
X545250D01*
X515250Y265250D02*
Y284750D01*
X504750Y265250D02*
X515250D01*
X504750D02*
Y284750D01*
X515250D01*
X635250Y225250D02*
Y244750D01*
X624750Y225250D02*
X635250D01*
X624750D02*
Y244750D01*
X635250D01*
X605250Y225250D02*
Y244750D01*
X594750Y225250D02*
X605250D01*
X594750D02*
Y244750D01*
X605250D01*
X575250Y225250D02*
Y244750D01*
X564750Y225250D02*
X575250D01*
X564750D02*
Y244750D01*
X575250D01*
X545250Y225250D02*
Y244750D01*
X534750Y225250D02*
X545250D01*
X534750D02*
Y244750D01*
X545250D01*
X515250Y225250D02*
Y244750D01*
X504750Y225250D02*
X515250D01*
X504750D02*
Y244750D01*
X515250D01*
X446000Y275750D02*
X454000D01*
Y288250D01*
X446000D02*
X454000D01*
X446000Y275750D02*
Y288250D01*
X421000Y275750D02*
X429000D01*
Y288250D01*
X421000D02*
X429000D01*
X421000Y275750D02*
Y288250D01*
X396000Y275750D02*
X404000D01*
Y288250D01*
X396000D02*
X404000D01*
X396000Y275750D02*
Y288250D01*
X371000Y276000D02*
X379000D01*
Y288500D01*
X371000D02*
X379000D01*
X371000Y276000D02*
Y288500D01*
X346000Y275750D02*
X354000D01*
Y288250D01*
X346000D02*
X354000D01*
X346000Y275750D02*
Y288250D01*
X446000Y250250D02*
X454000D01*
Y262750D01*
X446000D02*
X454000D01*
X446000Y250250D02*
Y262750D01*
X421000Y250250D02*
X429000D01*
Y262750D01*
X421000D02*
X429000D01*
X421000Y250250D02*
Y262750D01*
X396000Y250250D02*
X404000D01*
Y262750D01*
X396000D02*
X404000D01*
X396000Y250250D02*
Y262750D01*
X371000Y250250D02*
X379000D01*
Y262750D01*
X371000D02*
X379000D01*
X371000Y250250D02*
Y262750D01*
X346000Y250250D02*
X354000D01*
Y262750D01*
X346000D02*
X354000D01*
X346000Y250250D02*
Y262750D01*
X446000Y224750D02*
X454000D01*
Y237250D01*
X446000D02*
X454000D01*
X446000Y224750D02*
Y237250D01*
X421000Y224750D02*
X429000D01*
Y237250D01*
X421000D02*
X429000D01*
X421000Y224750D02*
Y237250D01*
X396000Y224750D02*
X404000D01*
Y237250D01*
X396000D02*
X404000D01*
X396000Y224750D02*
Y237250D01*
X371000Y224750D02*
X379000D01*
Y237250D01*
X371000D02*
X379000D01*
X371000Y224750D02*
Y237250D01*
X346000Y224750D02*
X354000D01*
Y237250D01*
X346000D02*
X354000D01*
X346000Y224750D02*
Y237250D01*
X813250Y222250D02*
X826750D01*
X813250D02*
Y248250D01*
X826750Y222250D02*
Y248250D01*
X813250D02*
X826750D01*
X773250Y222250D02*
X786750D01*
X773250D02*
Y248250D01*
X786750Y222250D02*
Y248250D01*
X773250D02*
X786750D01*
X733250Y222250D02*
X746750D01*
X733250D02*
Y248250D01*
X746750Y222250D02*
Y248250D01*
X733250D02*
X746750D01*
X693250Y222250D02*
X706750D01*
X693250D02*
Y248250D01*
X706750Y222250D02*
Y248250D01*
X693250D02*
X706750D01*
X853250Y222250D02*
X866750D01*
X853250D02*
Y248250D01*
X866750Y222250D02*
Y248250D01*
X853250D02*
X866750D01*
X813250Y262250D02*
X826750D01*
X813250D02*
Y288250D01*
X826750Y262250D02*
Y288250D01*
X813250D02*
X826750D01*
X773250Y262250D02*
X786750D01*
X773250D02*
Y288250D01*
X786750Y262250D02*
Y288250D01*
X773250D02*
X786750D01*
X733250Y262250D02*
X746750D01*
X733250D02*
Y288250D01*
X746750Y262250D02*
Y288250D01*
X733250D02*
X746750D01*
X693250Y262250D02*
X706750D01*
X693250D02*
Y288250D01*
X706750Y262250D02*
Y288250D01*
X693250D02*
X706750D01*
X853250Y262250D02*
X866750D01*
X853250D02*
Y288250D01*
X866750Y262250D02*
Y288250D01*
X853250D02*
X866750D01*
X1012000Y749000D02*
X1068000D01*
X1012000Y490000D02*
Y749000D01*
Y490000D02*
X1068000D01*
Y749000D01*
X957500Y177000D02*
X962500D01*
X968000Y163000D02*
X977000D01*
Y177000D01*
X943000Y163000D02*
X952750D01*
X943000D02*
Y177000D01*
X1007500D02*
X1012500D01*
X1018000Y163000D02*
X1027000D01*
Y177000D01*
X993000Y163000D02*
X1002750D01*
X993000D02*
Y177000D01*
X1057500D02*
X1062500D01*
X1068000Y163000D02*
X1077000D01*
Y177000D01*
X1043000Y163000D02*
X1052750D01*
X1043000D02*
Y177000D01*
X1107500D02*
X1112500D01*
X1118000Y163000D02*
X1127000D01*
Y177000D01*
X1093000Y163000D02*
X1102750D01*
X1093000D02*
Y177000D01*
X1107500Y213000D02*
X1112500D01*
X1093000Y227000D02*
X1102000D01*
X1093000Y213000D02*
Y227000D01*
X1117250D02*
X1127000D01*
Y213000D02*
Y227000D01*
X1057500Y213000D02*
X1062500D01*
X1043000Y227000D02*
X1052000D01*
X1043000Y213000D02*
Y227000D01*
X1067250D02*
X1077000D01*
Y213000D02*
Y227000D01*
X1007500Y213000D02*
X1012500D01*
X993000Y227000D02*
X1002000D01*
X993000Y213000D02*
Y227000D01*
X1017250D02*
X1027000D01*
Y213000D02*
Y227000D01*
X957500Y213000D02*
X962500D01*
X943000Y227000D02*
X952000D01*
X943000Y213000D02*
Y227000D01*
X967250D02*
X977000D01*
Y213000D02*
Y227000D01*
X957500Y277000D02*
X962500D01*
X968000Y263000D02*
X977000D01*
Y277000D01*
X943000Y263000D02*
X952750D01*
X943000D02*
Y277000D01*
X1007500D02*
X1012500D01*
X1018000Y263000D02*
X1027000D01*
Y277000D01*
X993000Y263000D02*
X1002750D01*
X993000D02*
Y277000D01*
X1057500D02*
X1062500D01*
X1068000Y263000D02*
X1077000D01*
Y277000D01*
X1043000Y263000D02*
X1052750D01*
X1043000D02*
Y277000D01*
X1107500D02*
X1112500D01*
X1118000Y263000D02*
X1127000D01*
Y277000D01*
X1093000Y263000D02*
X1102750D01*
X1093000D02*
Y277000D01*
X1107500Y113000D02*
X1112500D01*
X1093000Y127000D02*
X1102000D01*
X1093000Y113000D02*
Y127000D01*
X1117250D02*
X1127000D01*
Y113000D02*
Y127000D01*
X1057500Y113000D02*
X1062500D01*
X1043000Y127000D02*
X1052000D01*
X1043000Y113000D02*
Y127000D01*
X1067250D02*
X1077000D01*
Y113000D02*
Y127000D01*
X1007500Y113000D02*
X1012500D01*
X993000Y127000D02*
X1002000D01*
X993000Y113000D02*
Y127000D01*
X1017250D02*
X1027000D01*
Y113000D02*
Y127000D01*
X957500Y113000D02*
X962500D01*
X943000Y127000D02*
X952000D01*
X943000Y113000D02*
Y127000D01*
X967250D02*
X977000D01*
Y113000D02*
Y127000D01*
X1220000Y106000D02*
X1295000D01*
Y174000D01*
X1220000D02*
X1295000D01*
X1220000Y106000D02*
Y108000D01*
Y172000D02*
Y174000D01*
X830750Y163250D02*
Y176750D01*
X804750Y163250D02*
X830750D01*
X804750Y176750D02*
X830750D01*
X804750Y163250D02*
Y176750D01*
X830750Y143250D02*
Y156750D01*
X804750Y143250D02*
X830750D01*
X804750Y156750D02*
X830750D01*
X804750Y143250D02*
Y156750D01*
X830750Y123250D02*
Y136750D01*
X804750Y123250D02*
X830750D01*
X804750Y136750D02*
X830750D01*
X804750Y123250D02*
Y136750D01*
X830750Y103250D02*
Y116750D01*
X804750Y103250D02*
X830750D01*
X804750Y116750D02*
X830750D01*
X804750Y103250D02*
Y116750D01*
X830750Y183250D02*
Y196750D01*
X804750Y183250D02*
X830750D01*
X804750Y196750D02*
X830750D01*
X804750Y183250D02*
Y196750D01*
X790750Y163250D02*
Y176750D01*
X764750Y163250D02*
X790750D01*
X764750Y176750D02*
X790750D01*
X764750Y163250D02*
Y176750D01*
X790750Y143250D02*
Y156750D01*
X764750Y143250D02*
X790750D01*
X764750Y156750D02*
X790750D01*
X764750Y143250D02*
Y156750D01*
X790750Y123250D02*
Y136750D01*
X764750Y123250D02*
X790750D01*
X764750Y136750D02*
X790750D01*
X764750Y123250D02*
Y136750D01*
X790750Y103250D02*
Y116750D01*
X764750Y103250D02*
X790750D01*
X764750Y116750D02*
X790750D01*
X764750Y103250D02*
Y116750D01*
X790750Y183250D02*
Y196750D01*
X764750Y183250D02*
X790750D01*
X764750Y196750D02*
X790750D01*
X764750Y183250D02*
Y196750D01*
X870750Y163250D02*
Y176750D01*
X844750Y163250D02*
X870750D01*
X844750Y176750D02*
X870750D01*
X844750Y163250D02*
Y176750D01*
X870750Y143250D02*
Y156750D01*
X844750Y143250D02*
X870750D01*
X844750Y156750D02*
X870750D01*
X844750Y143250D02*
Y156750D01*
X870750Y123250D02*
Y136750D01*
X844750Y123250D02*
X870750D01*
X844750Y136750D02*
X870750D01*
X844750Y123250D02*
Y136750D01*
X870750Y103250D02*
Y116750D01*
X844750Y103250D02*
X870750D01*
X844750Y116750D02*
X870750D01*
X844750Y103250D02*
Y116750D01*
X870750Y183250D02*
Y196750D01*
X844750Y183250D02*
X870750D01*
X844750Y196750D02*
X870750D01*
X844750Y183250D02*
Y196750D01*
X750750Y163250D02*
Y176750D01*
X724750Y163250D02*
X750750D01*
X724750Y176750D02*
X750750D01*
X724750Y163250D02*
Y176750D01*
X750750Y143250D02*
Y156750D01*
X724750Y143250D02*
X750750D01*
X724750Y156750D02*
X750750D01*
X724750Y143250D02*
Y156750D01*
X750750Y123250D02*
Y136750D01*
X724750Y123250D02*
X750750D01*
X724750Y136750D02*
X750750D01*
X724750Y123250D02*
Y136750D01*
X750750Y103250D02*
Y116750D01*
X724750Y103250D02*
X750750D01*
X724750Y116750D02*
X750750D01*
X724750Y103250D02*
Y116750D01*
X750750Y183250D02*
Y196750D01*
X724750Y183250D02*
X750750D01*
X724750Y196750D02*
X750750D01*
X724750Y183250D02*
Y196750D01*
X710750Y163250D02*
Y176750D01*
X684750Y163250D02*
X710750D01*
X684750Y176750D02*
X710750D01*
X684750Y163250D02*
Y176750D01*
X710750Y143250D02*
Y156750D01*
X684750Y143250D02*
X710750D01*
X684750Y156750D02*
X710750D01*
X684750Y143250D02*
Y156750D01*
X710750Y123250D02*
Y136750D01*
X684750Y123250D02*
X710750D01*
X684750Y136750D02*
X710750D01*
X684750Y123250D02*
Y136750D01*
X710750Y103250D02*
Y116750D01*
X684750Y103250D02*
X710750D01*
X684750Y116750D02*
X710750D01*
X684750Y103250D02*
Y116750D01*
X710750Y183250D02*
Y196750D01*
X684750Y183250D02*
X710750D01*
X684750Y196750D02*
X710750D01*
X684750Y183250D02*
Y196750D01*
X560250Y104750D02*
X579750D01*
X560250D02*
Y115250D01*
X579750D01*
Y104750D02*
Y115250D01*
X560250Y124750D02*
X579750D01*
X560250D02*
Y135250D01*
X579750D01*
Y124750D02*
Y135250D01*
X530250Y124750D02*
X549750D01*
X530250D02*
Y135250D01*
X549750D01*
Y124750D02*
Y135250D01*
X530250Y144750D02*
X549750D01*
X530250D02*
Y155250D01*
X549750D01*
Y144750D02*
Y155250D01*
X500250Y104750D02*
X519750D01*
X500250D02*
Y115250D01*
X519750D01*
Y104750D02*
Y115250D01*
X590250Y104750D02*
X609750D01*
X590250D02*
Y115250D01*
X609750D01*
Y104750D02*
Y115250D01*
X590250Y124750D02*
X609750D01*
X590250D02*
Y135250D01*
X609750D01*
Y124750D02*
Y135250D01*
X590250Y144750D02*
X609750D01*
X590250D02*
Y155250D01*
X609750D01*
Y144750D02*
Y155250D01*
X590250Y164750D02*
X609750D01*
X590250D02*
Y175250D01*
X609750D01*
Y164750D02*
Y175250D01*
X590250Y184750D02*
X609750D01*
X590250D02*
Y195250D01*
X609750D01*
Y184750D02*
Y195250D01*
X620250Y104750D02*
X639750D01*
X620250D02*
Y115250D01*
X639750D01*
Y104750D02*
Y115250D01*
X620250Y124750D02*
X639750D01*
X620250D02*
Y135250D01*
X639750D01*
Y124750D02*
Y135250D01*
X620250Y144750D02*
X639750D01*
X620250D02*
Y155250D01*
X639750D01*
Y144750D02*
Y155250D01*
X620250Y164750D02*
X639750D01*
X620250D02*
Y175250D01*
X639750D01*
Y164750D02*
Y175250D01*
X620250Y184750D02*
X639750D01*
X620250D02*
Y195250D01*
X639750D01*
Y184750D02*
Y195250D01*
X560250Y144750D02*
X579750D01*
X560250D02*
Y155250D01*
X579750D01*
Y144750D02*
Y155250D01*
X560250Y184750D02*
X579750D01*
X560250D02*
Y195250D01*
X579750D01*
Y184750D02*
Y195250D01*
X530250Y164750D02*
X549750D01*
X530250D02*
Y175250D01*
X549750D01*
Y164750D02*
Y175250D01*
X500250Y144750D02*
X519750D01*
X500250D02*
Y155250D01*
X519750D01*
Y144750D02*
Y155250D01*
X500250Y124750D02*
X519750D01*
X500250D02*
Y135250D01*
X519750D01*
Y124750D02*
Y135250D01*
X560250Y164750D02*
X579750D01*
X560250D02*
Y175250D01*
X579750D01*
Y164750D02*
Y175250D01*
X530250Y104750D02*
X549750D01*
X530250D02*
Y115250D01*
X549750D01*
Y104750D02*
Y115250D01*
X530250Y184750D02*
X549750D01*
X530250D02*
Y195250D01*
X549750D01*
Y184750D02*
Y195250D01*
X500250Y164750D02*
X519750D01*
X500250D02*
Y175250D01*
X519750D01*
Y164750D02*
Y175250D01*
X500250Y184750D02*
X519750D01*
X500250D02*
Y195250D01*
X519750D01*
Y184750D02*
Y195250D01*
X368750Y106000D02*
Y114000D01*
Y106000D02*
X381250D01*
Y114000D01*
X368750D02*
X381250D01*
X368750Y126000D02*
Y134000D01*
Y126000D02*
X381250D01*
Y134000D01*
X368750D02*
X381250D01*
X368750Y186000D02*
Y194000D01*
Y186000D02*
X381250D01*
Y194000D01*
X368750D02*
X381250D01*
X343750Y126000D02*
Y134000D01*
Y126000D02*
X356250D01*
Y134000D01*
X343750D02*
X356250D01*
X343750Y146000D02*
Y154000D01*
Y146000D02*
X356250D01*
Y154000D01*
X343750D02*
X356250D01*
X418750Y146000D02*
Y154000D01*
Y146000D02*
X431250D01*
Y154000D01*
X418750D02*
X431250D01*
X418750Y166000D02*
Y174000D01*
Y166000D02*
X431250D01*
Y174000D01*
X418750D02*
X431250D01*
X393750Y146000D02*
Y154000D01*
Y146000D02*
X406250D01*
Y154000D01*
X393750D02*
X406250D01*
X393750Y166000D02*
Y174000D01*
Y166000D02*
X406250D01*
Y174000D01*
X393750D02*
X406250D01*
X393750Y186000D02*
Y194000D01*
Y186000D02*
X406250D01*
Y194000D01*
X393750D02*
X406250D01*
X418750Y106000D02*
Y114000D01*
Y106000D02*
X431250D01*
Y114000D01*
X418750D02*
X431250D01*
X418750Y126000D02*
Y134000D01*
Y126000D02*
X431250D01*
Y134000D01*
X418750D02*
X431250D01*
X393750Y106000D02*
Y114000D01*
Y106000D02*
X406250D01*
Y114000D01*
X393750D02*
X406250D01*
X393750Y126000D02*
Y134000D01*
Y126000D02*
X406250D01*
Y134000D01*
X393750D02*
X406250D01*
X418750Y186000D02*
Y194000D01*
Y186000D02*
X431250D01*
Y194000D01*
X418750D02*
X431250D01*
X368750Y146000D02*
Y154000D01*
Y146000D02*
X381250D01*
Y154000D01*
X368750D02*
X381250D01*
X368750Y166000D02*
Y174000D01*
Y166000D02*
X381250D01*
Y174000D01*
X368750D02*
X381250D01*
X343750Y106000D02*
Y114000D01*
Y106000D02*
X356250D01*
Y114000D01*
X343750D02*
X356250D01*
X343750Y166000D02*
Y174000D01*
Y166000D02*
X356250D01*
Y174000D01*
X343750D02*
X356250D01*
X343750Y186000D02*
Y194000D01*
Y186000D02*
X356250D01*
Y194000D01*
X343750D02*
X356250D01*
X443750Y106000D02*
Y114000D01*
Y106000D02*
X456250D01*
Y114000D01*
X443750D02*
X456250D01*
X443750Y146000D02*
Y154000D01*
Y146000D02*
X456250D01*
Y154000D01*
X443750D02*
X456250D01*
X443750Y126000D02*
Y134000D01*
Y126000D02*
X456250D01*
Y134000D01*
X443750D02*
X456250D01*
X443750Y166000D02*
Y174000D01*
Y166000D02*
X456250D01*
Y174000D01*
X443750D02*
X456250D01*
X443750Y186000D02*
Y194000D01*
Y186000D02*
X456250D01*
Y194000D01*
X443750D02*
X456250D01*
X685629Y1042499D02*
X693910Y1034218D01*
X685629Y1042499D02*
X747501Y1104371D01*
X774371Y1077501D01*
X712499Y1015629D02*
X774371Y1077501D01*
X704218Y1023910D02*
X712499Y1015629D01*
X924218Y1096090D02*
X932499Y1104371D01*
X994371Y1042499D01*
X967501Y1015629D02*
X994371Y1042499D01*
X905629Y1077501D02*
X967501Y1015629D01*
X905629Y1077501D02*
X913910Y1085782D01*
X951000Y806250D02*
X962711D01*
X951000D02*
Y893750D01*
X989000D01*
Y806250D02*
Y893750D01*
X977289Y806250D02*
X989000D01*
X717289Y893750D02*
X729000D01*
Y806250D02*
Y893750D01*
X691000Y806250D02*
X729000D01*
X691000D02*
Y893750D01*
X702711D01*
X1110000Y1115000D02*
X1170000D01*
Y1045000D02*
Y1115000D01*
X1110000Y1045000D02*
X1170000D01*
X1110000D02*
Y1115000D01*
X432000Y970000D02*
Y976000D01*
X444000Y988000D01*
X450000D01*
X590000D02*
X608000D01*
Y970000D02*
Y988000D01*
Y812000D02*
Y830000D01*
X590000Y812000D02*
X608000D01*
X432000D02*
Y830000D01*
Y812000D02*
X450000D01*
X1226000Y810000D02*
Y970000D01*
X1220000Y976000D02*
X1226000Y970000D01*
X1054000Y810000D02*
Y976000D01*
Y810000D02*
X1060000Y804000D01*
X1220000D01*
X1226000Y810000D01*
X1054000Y976000D02*
X1220000D01*
X110000Y820000D02*
Y940000D01*
Y820000D02*
X230000D01*
Y940000D01*
X110000D02*
X230000D01*
X1405000Y460000D02*
Y525000D01*
X1495000Y460000D02*
Y525000D01*
X1462000D02*
X1495000D01*
X1405000D02*
X1438000D01*
X1462000Y435000D02*
X1470000D01*
X1495000Y460000D01*
X1405000D02*
X1430000Y435000D01*
X1438000D01*
X1425000Y420000D02*
Y430000D01*
X1420000Y425000D02*
X1430000D01*
X747051Y940914D02*
X840000Y847965D01*
X942035Y950000D01*
X840000Y1052035D02*
X942035Y950000D01*
X747051Y959086D02*
X840000Y1052035D01*
X747051Y940914D02*
Y959086D01*
X1304950Y1082100D02*
X1317900Y1095050D01*
X1595050D01*
Y804950D02*
Y1095050D01*
X1304950Y804950D02*
X1595050D01*
X1304950D02*
Y1082100D01*
X700000Y375000D02*
Y445000D01*
Y375000D02*
X920000D01*
Y445000D01*
X700000D02*
X920000D01*
X97750Y737250D02*
Y747750D01*
Y737250D02*
X117250D01*
Y747750D01*
X97750D02*
X117250D01*
X142750Y737250D02*
Y747750D01*
Y737250D02*
X162250D01*
Y747750D01*
X142750D02*
X162250D01*
X185250Y737250D02*
Y747750D01*
Y737250D02*
X204750D01*
Y747750D01*
X185250D02*
X204750D01*
X223250Y508250D02*
Y521750D01*
X197250Y508250D02*
X223250D01*
X197250Y521750D02*
X223250D01*
X197250Y508250D02*
Y521750D01*
X171250Y508250D02*
Y521750D01*
X145250Y508250D02*
X171250D01*
X145250Y521750D02*
X171250D01*
X145250Y508250D02*
Y521750D01*
X120750Y508250D02*
Y521750D01*
X94750Y508250D02*
X120750D01*
X94750Y521750D02*
X120750D01*
X94750Y508250D02*
Y521750D01*
X1417250Y589750D02*
X1427750D01*
X1417250Y570250D02*
Y589750D01*
Y570250D02*
X1427750D01*
Y589750D01*
X1472250D02*
X1482750D01*
X1472250Y570250D02*
Y589750D01*
Y570250D02*
X1482750D01*
Y589750D01*
X1440250Y547250D02*
Y557750D01*
Y547250D02*
X1459750D01*
Y557750D01*
X1440250D02*
X1459750D01*
Y602250D02*
Y612750D01*
X1440250D02*
X1459750D01*
X1440250Y602250D02*
Y612750D01*
Y602250D02*
X1459750D01*
X1127500Y367500D02*
Y452500D01*
Y367500D02*
X1212500D01*
Y452500D01*
X1127500D02*
X1212500D01*
X997500Y367500D02*
Y452500D01*
Y367500D02*
X1082500D01*
Y452500D01*
X997500D02*
X1082500D01*
D153*
X1107372Y1120000D02*
G03*
X1107372Y1120000I-2372J0D01*
G01*
X1052000Y981000D02*
G03*
X1052000Y981000I-3000J0D01*
G01*
X108535Y945000D02*
G03*
X108535Y945000I-3535J0D01*
G01*
D154*
X72500Y557500D02*
D03*
Y702500D02*
D03*
D155*
X1245000Y250000D02*
D03*
X1300000Y140000D02*
D03*
D156*
X429000Y991000D02*
D03*
D157*
X733934Y950000D02*
D03*
D158*
X1300000Y1100000D02*
D03*
D159*
X1450000Y238750D02*
D03*
M02*
