M48
;Layer_Color=9474304
;FILE_FORMAT=2:5
INCH,LZ
;TYPE=PLATED
T1F00S00C0.03504
T2F00S00C0.04331
T3F00S00C0.04724
T4F00S00C0.05906
;TYPE=NON_PLATED
T5F00S00C0.03150
T6F00S00C0.04724
T7F00S00C0.06181
T8F00S00C0.11024
T9F00S00C0.12795
%
T01
X0062323Y0233937
Y0241968
Y025
Y0258032
X0069331Y0254016
Y0245984
Y0237953
Y0262047
T02
X0062795Y0151417
Y0161417
X0062795Y0171417
X0072795
X0072795Y0161417
X0082795
X0082795Y0171417
X0092795
X0092795Y0161417
X0102795
X0102795Y0171417
X0102795Y0151417
X0092795
X0082795
X0072795
X0112795
Y0161417
X0112795Y0171417
X0122795
X0122795Y0161417
X0132795
X0132795Y0171417
X0142795
X0142795Y0161417
X0152795
X0152795Y0171417
X0162795
X0162795Y0161417
X0172795
X0172795Y0171417
X0182795
X0182795Y0161417
X0192795
X0192795Y0171417
X0202795
X0202795Y0161417
X0212795
Y0171417
Y0151417
X0202795
X0192795
X0182795
X0172795
X0162795
X0152795
X0142795
X0132795
X0122795
T03
X0104724Y0194016
Y0227362
Y0260709
X0134724
Y0227362
Y0194016
X0164724
X0184724
Y0214016
Y0234016
Y0254016
X0204724
Y0234016
X0224724
X0234803Y0234291
Y0254291
X0224724Y0254016
X0254803Y0254291
X0264803
Y0234291
X0254803
Y0214291
X0264803
Y0194291
X0254803
X0234803
X0224724Y0194016
Y0214016
X0234803Y0214291
X0204724Y0214016
Y0194016
X0164724Y0214016
Y0234016
Y0254016
X0284803Y0254291
X0294803
Y0264291
X0304803
X0314803
X0324803
X0334803
X0344803
X0354803
Y0254291
X0344803
X0334803
X0324803
X0314803
X0304803
Y0244291
X0314803
X0324803
X0334803
X0344803
X0354803
Y0234291
X0344803
X0334803
X0324803
X0314803
X0304803
X0294803
Y0244291
X0284803
Y0234291
Y0224291
X0294803
X0304803
X0314803
X0324803
X0334803
X0344803
X0354803
Y0214291
X0344803
X0334803
X0324803
X0314803
X0304803
X0294803
X0284803
Y0204291
X0294803
X0304803
X0314803
X0324803
X0334803
X0344803
X0354803
Y0194291
X0344803
X0334803
X0324803
X0314803
X0304803
X0294803
X0284803
Y0264291
X0364803
X0374803
Y0254291
X0364803
Y0244291
X0374803
Y0234291
X0364803
Y0224291
X0374803
Y0214291
X0364803
Y0204291
X0374803
Y0194291
X0364803
X0404449Y0199094
Y0209095
Y0219094
Y0229095
Y0239094
Y0249095
Y0259095
Y0269094
X0414449
Y0259095
Y0249095
Y0239094
Y0229095
Y0219094
Y0209095
Y0199094
X045563
X046563
Y0209095
Y0219094
Y0229095
Y0239094
Y0249095
Y0259095
Y0269094
X045563
Y0259095
Y0249095
Y0239094
Y0229095
Y0219094
Y0209095
Y0279095
X046563
Y0289094
X045563
X0414449
X0404449
Y0279095
X0414449
X0374803Y0274291
Y0284291
Y0294291
X0364803
X0354803
X0344803
X0334803
X0324803
X0314803
X0304803
X0294803
X0284803
Y0284291
X0294803
X0304803
X0314803
X0324803
X0334803
X0344803
X0354803
Y0274291
X0344803
X0334803
X0324803
X0314803
X0304803
X0294803
X0284803
X0364803
Y0284291
X0264803Y0294291
X0254803
X0234803
X0224724Y0294016
X0204724
X0184724
X0164724
Y0274016
X0184724
X0204724
X0224724
X0234803Y0274291
X0254803
X0264803
X0134724Y0294016
X0104724
T04
X0399449Y0151417
X0419449
Y0171417
X0399449
X0409449Y0161417
X045063Y0151417
X047063
Y0171417
X045063
X046063Y0161417
T05
X0279134Y0161417
T06
X0358661Y0161417
T07
X0065827Y0216024
Y0280039
T08
X004063Y0160236
X0234961
T09
X0052323Y0223031
Y0273031
M30
